<svg width="13" height="14" viewBox="0 0 13 14" fill="none" xmlns="http://www.w3.org/2000/svg">
<path d="M11.9167 5.5105H1.08334C0.861253 5.5105 0.677086 5.32633 0.677086 5.10425C0.677086 4.88216 0.861253 4.698 1.08334 4.698H11.9167C12.1388 4.698 12.3229 4.88216 12.3229 5.10425C12.3229 5.32633 12.1388 5.5105 11.9167 5.5105Z" fill="#47FFA7"/>
<path d="M4.33333 9.84375H3.25C3.02792 9.84375 2.84375 9.65958 2.84375 9.4375C2.84375 9.21542 3.02792 9.03125 3.25 9.03125H4.33333C4.55542 9.03125 4.73958 9.21542 4.73958 9.4375C4.73958 9.65958 4.55542 9.84375 4.33333 9.84375Z" fill="#47FFA7"/>
<path d="M7.85417 9.84375H5.6875C5.46542 9.84375 5.28125 9.65958 5.28125 9.4375C5.28125 9.21542 5.46542 9.03125 5.6875 9.03125H7.85417C8.07625 9.03125 8.26042 9.21542 8.26042 9.4375C8.26042 9.65958 8.07625 9.84375 7.85417 9.84375Z" fill="#47FFA7"/>
<path d="M9.51167 12.0103H3.48834C1.3325 12.0103 0.677086 11.3603 0.677086 9.22617V4.77367C0.677086 2.6395 1.3325 1.9895 3.48834 1.9895H9.50625C11.6621 1.9895 12.3175 2.6395 12.3175 4.77367V9.22075C12.3229 11.3603 11.6675 12.0103 9.51167 12.0103ZM3.48834 2.802C1.7875 2.802 1.48959 3.0945 1.48959 4.77367V9.22075C1.48959 10.8999 1.7875 11.1924 3.48834 11.1924H9.50625C11.2071 11.1924 11.505 10.8999 11.505 9.22075V4.77367C11.505 3.0945 11.2071 2.802 9.50625 2.802H3.48834Z" fill="#47FFA7"/>
</svg>
