<svg width="865" height="306" viewBox="0 0 865 306" fill="none" xmlns="http://www.w3.org/2000/svg">
<path d="M97.1253 162.755C90.1907 162.755 83.7987 164.07 77.948 166.698C72.0893 169.331 67.0173 172.85 62.716 177.271C58.4133 181.695 55.012 186.947 52.5027 193.042C49.992 199.131 48.7413 205.529 48.7413 212.219C48.7413 219.149 49.992 225.602 52.5027 231.57C55.012 237.547 58.4133 242.806 62.716 247.341C67.0173 251.883 72.0893 255.403 77.948 257.913C83.7987 260.422 90.1907 261.677 97.1253 261.677C104.296 261.677 110.924 260.422 117.019 257.913C123.115 255.403 128.423 251.883 132.969 247.341C137.499 242.806 141.032 237.547 143.541 231.57C146.051 225.602 147.301 219.149 147.301 212.219C147.301 205.529 145.989 199.131 143.357 193.042C140.725 186.947 137.149 181.695 132.611 177.271C128.064 172.85 122.756 169.331 116.66 166.698C110.565 164.07 104.051 162.755 97.1253 162.755ZM146.584 289.634C140.131 294.653 132.191 298.593 122.756 301.461C113.312 304.329 103.333 305.763 92.8227 305.763C80.1613 305.763 68.216 303.371 56.98 298.593C45.7507 293.818 35.9573 287.246 27.5973 278.882C19.2293 270.518 12.54 260.663 7.52 249.313C2.50133 237.966 0 225.602 0 212.219C0 199.079 2.50133 186.715 7.52 175.119C12.54 163.533 19.2293 153.499 27.5973 145.013C35.9573 136.534 45.7507 129.841 56.98 124.943C68.216 120.046 80.1613 117.594 92.8227 117.594C103.333 117.594 113.312 119.089 122.756 122.075C132.191 125.066 140.131 129.062 146.584 134.082V119.386H196.403V303.253H146.584V289.634Z" fill="#F5F5FB"/>
<path d="M216.47 57.7418H266.655V303.252H216.47V57.7418Z" fill="#F5F5FB"/>
<path d="M380.622 261.677C387.793 261.677 394.421 260.423 400.516 257.913C406.612 255.404 411.92 251.883 416.466 247.341C420.996 242.807 424.529 237.547 427.038 231.571C429.548 225.601 430.798 219.149 430.798 212.219C430.798 205.529 429.486 199.132 426.854 193.041C424.222 186.947 420.646 181.696 416.108 177.271C411.561 172.851 406.253 169.331 400.157 166.699C394.064 164.071 387.548 162.756 380.622 162.756C373.688 162.756 367.296 164.071 361.446 166.699C355.588 169.331 350.514 172.851 346.213 177.271C341.91 181.696 338.509 186.947 336 193.041C333.489 199.132 332.238 205.529 332.238 212.219C332.238 219.149 333.489 225.601 336 231.571C338.509 237.547 341.91 242.807 346.213 247.341C350.514 251.883 355.588 255.404 361.446 257.913C367.296 260.423 373.688 261.677 380.622 261.677ZM430.081 289.635C423.628 294.652 415.688 298.593 406.253 301.461C396.809 304.328 386.832 305.763 376.32 305.763C363.658 305.763 351.713 303.372 340.477 298.593C329.249 293.817 319.454 287.247 311.094 278.881C302.726 270.519 296.037 260.663 291.017 249.313C285.998 237.967 283.497 225.601 283.497 212.219C283.497 199.08 285.998 186.715 291.017 175.12C296.037 163.533 302.726 153.499 311.094 145.012C319.454 136.535 329.249 129.841 340.477 124.944C351.713 120.047 363.658 117.593 376.32 117.593C386.832 117.593 396.809 119.089 406.253 122.076C415.688 125.067 423.628 129.063 430.081 134.081V57.7414H479.9V303.253H430.081V289.635Z" fill="#F5F5FB"/>
<path d="M499.968 303.252V119.386H549.794V144.475C556.002 136.114 563.593 129.42 572.548 124.406C581.51 119.386 591.724 116.876 603.197 116.876V167.058C584.79 167.058 571.349 171.775 562.877 181.215C554.385 190.654 550.153 203.378 550.153 219.384V303.252H499.968Z" fill="#F5F5FB"/>
<path d="M621.115 303.252H670.933V131.294C648.529 130.262 629.877 125.691 621.115 119.482V303.252Z" fill="#F5F5FB"/>
<path d="M859.456 160.065C856.106 150.871 851.332 143.04 845.124 136.592C838.906 130.137 831.437 125.123 822.72 121.537C813.992 117.952 804.261 116.16 793.513 116.16C780.605 116.16 769.614 118.489 760.538 123.151C751.452 127.812 744.64 132.769 740.11 138.025V119.433C731.478 125.595 713.116 130.151 691.001 131.255V303.253H740.826V202.896C740.826 189.993 744.526 179.96 751.932 172.789C759.34 165.623 769.142 162.037 781.322 162.037C792.08 162.037 800.377 165.444 806.236 172.252C812.086 179.064 815.016 187.965 815.016 198.953V303.253H864.476V190.353C864.476 179.365 862.805 169.269 859.456 160.065Z" fill="#F5F5FB"/>
<path d="M645.868 28.3589L645.946 28.1909L646.034 28.0269L647.325 25.9776L648.757 24.0096L650.324 22.1336L652.018 20.3549L653.836 18.6829L655.764 17.1242L657.798 15.6842L659.929 14.3722L662.148 13.1896L664.444 12.1442L666.808 11.2402L669.23 10.4816L671.702 9.86958L674.212 9.40958L676.746 9.10157L679.298 8.94557H681.856L684.408 9.10157L686.945 9.40958L689.452 9.86958L691.924 10.4816L694.346 11.2402L696.712 12.1442L699.008 13.1896L701.228 14.3722L703.357 15.6842L705.392 17.1242L707.321 18.6829L708.42 19.6936L709.137 20.3549L710.832 22.1336L712.398 24.0096L713.83 25.9776L715.121 28.0269L715.21 28.1909L715.288 28.3589L715.309 28.4096L715.354 28.5309L715.41 28.7069L715.456 28.8856L716.633 35.3549L717.376 41.8802L717.681 48.4349L717.548 54.9962L716.976 61.5349L715.966 68.0296L714.526 74.4536L714.473 74.6376L714.405 74.8176L714.328 74.9936L714.237 75.1656L714.136 75.3309L714.024 75.4909L713.901 75.6429L713.769 75.7896L713.628 75.9269L713.477 76.0562L713.317 76.1762L713.15 76.2869L712.976 76.3882L709.465 78.1549L705.841 79.7149L702.121 81.0642L698.32 82.1962L694.449 83.1069L690.522 83.7936L686.561 84.2522L682.644 84.4696L682.574 84.4829H678.581L674.596 84.2522L670.632 83.7936L666.708 83.1069L662.837 82.1962L659.033 81.0642L655.313 79.7149L651.69 78.1549L648.178 76.3882L648.006 76.2869L647.838 76.1762L647.678 76.0562L647.528 75.9269L647.386 75.7896L647.253 75.6429L647.13 75.4909L647.018 75.3309L646.917 75.1656L646.828 74.9936L646.749 74.8176L646.682 74.6376L646.628 74.4536L645.188 68.0296L644.18 61.5349L643.609 54.9962L643.474 48.4349L643.78 41.8802L644.522 35.3549L645.7 28.8856L645.744 28.7069L645.8 28.5309L645.846 28.4096L645.868 28.3589ZM731.98 42.0016L731.918 41.4416L731.824 40.8856L731.694 40.3349L731.53 39.7962L731.336 39.2669L731.106 38.7509L730.845 38.2496L730.556 37.7669L730.236 37.3029L729.888 36.8589L729.512 36.4376L729.113 36.0389L728.688 35.6669L728.241 35.3229L727.776 35.0056L727.114 34.6136L726.945 34.4989L726.782 34.3736L726.628 34.2389L726.482 34.0936L726.346 33.9416L726.22 33.7789L726.104 33.6109L725.998 33.4349L725.904 33.2536L725.821 33.0656L725.749 32.8736L725.242 31.5136L724.649 30.1909L723.969 28.9082L723.208 27.6722L722.366 26.4909L721.452 25.3642L720.462 24.3016L719.408 23.3056L718.289 22.3802L718.146 22.2616L718.008 22.1362L717.88 22.0029L717.757 21.8616L717.644 21.7149L717.538 21.5616L717.441 21.4029L716.026 19.0949L714.468 16.8816L712.772 14.7722L710.944 12.7749L708.993 10.8989L706.925 9.15091L704.75 7.53891L702.478 6.06824L700.117 4.74557L697.674 3.57624L695.165 2.56424L692.594 1.71623L689.974 1.03223L687.317 0.517578L684.632 0.172241L681.932 0.000244141H679.225L676.522 0.172241L673.838 0.517578L671.18 1.03223L668.562 1.71623L665.992 2.56424L663.48 3.57624L661.038 4.74557L658.676 6.06824L656.404 7.53891L654.229 9.15091L652.164 10.8989L650.212 12.7749L648.385 14.7722L646.686 16.8816L645.128 19.0949L643.714 21.4029L643.618 21.5616L643.512 21.7149L643.397 21.8616L643.277 22.0029L643.146 22.1362L643.009 22.2616L642.865 22.3802L641.748 23.3056L640.692 24.3016L639.705 25.3642L638.788 26.4909L637.948 27.6722L637.185 28.9082L636.506 30.1909L635.912 31.5136L635.405 32.8736L635.336 33.0656L635.252 33.2536L635.157 33.4349L635.052 33.6109L634.936 33.7789L634.809 33.9416L634.673 34.0936L634.528 34.2389L634.374 34.3736L634.212 34.4989L634.042 34.6136L633.381 35.0056L632.913 35.3229L632.466 35.6669L632.044 36.0389L631.642 36.4376L631.268 36.8589L630.92 37.3029L630.6 37.7669L630.309 38.2496L630.049 38.7509L629.821 39.2669L629.624 39.7962L629.461 40.3349L629.332 40.8856L629.236 41.4416L629.176 42.0016L629.15 42.5656L629.16 43.1296L630.314 68.8762L630.342 69.2696L630.397 69.6589L630.474 70.0456L630.574 70.4256L630.698 70.8002L630.845 71.1642L631.013 71.5216L631.204 71.8656L631.414 72.1989L631.86 72.8149L632.341 73.4042L632.858 73.9629L633.408 74.4882L633.989 74.9802L634.598 75.4362L635.404 75.9656L635.566 76.0869L635.722 76.2189L635.868 76.3589L636.006 76.5082L636.133 76.6669L636.252 76.8322L636.36 77.0042L636.456 77.1829L636.542 77.3669L637.445 79.6642L638.396 81.7202L639.469 83.7149L640.661 85.6402L641.965 87.4936L643.378 89.2642L644.894 90.9456L645.024 91.0749L645.161 91.1962L645.305 91.3096L645.454 91.4162L652.398 95.8322L655.926 97.8896L658.326 99.2896L659.508 99.9789L659.673 100.066L659.844 100.142L660.018 100.21L660.197 100.267L660.277 100.288L660.378 100.314L662.997 100.827L666.19 101.452L667.017 101.615L667.08 101.624L672.113 102.274L672.737 102.355L673.728 102.482L679.673 102.863L680.405 102.911L680.48 102.914L680.596 102.91L681.334 102.87L685.596 102.64L688.266 102.366L688.893 102.302L690.693 102.115L693.917 101.622L694.85 101.478L694.874 101.494L695.758 101.339L698.018 100.878L700.734 100.323L700.778 100.314L700.958 100.267L701.137 100.21L701.31 100.142L701.482 100.066L701.648 99.9789L702.718 99.3549L705.118 97.9536L708.757 95.8322L715.7 91.4162L715.85 91.3096L715.994 91.1962L716.13 91.0749L716.261 90.9456L717.778 89.2642L719.19 87.4936L720.496 85.6402L721.685 83.7149L722.76 81.7202L723.712 79.6642L724.613 77.3669L724.698 77.1829L724.796 77.0042L724.904 76.8322L725.021 76.6669L725.15 76.5082L725.286 76.3589L725.434 76.2189L725.589 76.0869L725.752 75.9656L726.558 75.4362L727.168 74.9802L727.746 74.4882L728.297 73.9629L728.813 73.4042L729.296 72.8149L729.741 72.1989L729.952 71.8656L730.141 71.5216L730.309 71.1642L730.456 70.8002L730.58 70.4256L730.68 70.0456L730.758 69.6589L730.812 69.2696L730.841 68.8762L731.996 43.1296L732.005 42.5656L731.98 42.0016Z" fill="#F5F5FB"/>
<path d="M680.577 71.855C670.123 71.855 661.617 65.247 661.617 57.1256C661.617 55.6536 662.812 54.459 664.284 54.459C665.757 54.459 666.951 55.6536 666.951 57.1256C666.951 62.219 673.191 66.5216 680.577 66.5216C687.964 66.5216 694.204 62.219 694.204 57.1256C694.204 55.6536 695.397 54.459 696.871 54.459C698.343 54.459 699.537 55.6536 699.537 57.1256C699.537 65.247 691.032 71.855 680.577 71.855Z" fill="#F5F5FB"/>
</svg>
