<svg width="404" height="397" viewBox="0 0 404 397" fill="none" xmlns="http://www.w3.org/2000/svg">
<g filter="url(#filter0_di)">
<path d="M291.779 162.37L298.705 177.336L304.595 192.769L309.422 208.609L309.528 209.079L309.605 209.559L309.652 210.04L309.666 210.532L309.646 211.023L309.593 211.516L309.511 212.009L309.396 212.496L309.249 212.978L309.073 213.456L308.864 213.925L308.628 214.382L308.364 214.828L302.687 223.227L296.503 231.322L289.833 239.083L282.706 246.484L275.147 253.488L267.185 260.076L258.853 266.219L250.321 271.773L250.18 271.893L245.692 274.484L241.203 277.075L241.031 277.137L231.954 281.75L222.467 285.894L212.784 289.494L202.935 292.54L192.966 295.01L182.906 296.907L172.804 298.215L162.691 298.932L162.176 298.936L161.659 298.914L161.149 298.86L160.649 298.772L160.156 298.66L159.676 298.516L159.209 298.34L158.755 298.14L158.32 297.912L157.901 297.653L157.508 297.373L157.131 297.066L156.776 296.739L145.473 284.639L135.053 271.821L125.554 258.34L117.017 244.246L109.471 229.593L102.948 214.439L97.4724 198.839L97.3507 198.396L97.2537 197.941L97.2074 197.615L97.1872 197.479L97.1525 197.012L97.1496 196.541L97.4764 190.406L98.2235 184.269L99.3896 178.154L100.967 172.087L101.75 169.719L102.949 166.093L105.331 160.2L108.094 154.429L111.237 148.808L114.741 143.357L118.59 138.105L122.773 133.071L127.265 128.275L132.055 123.736L137.114 119.479L142.428 115.514L147.971 111.868L150.847 110.208L153.723 108.548L159.651 105.57L165.742 102.951L171.961 100.696L178.284 98.8195L184.686 97.3252L191.134 96.2217L197.608 95.5144L204.08 95.205L210.519 95.2938L216.899 95.7866L223.193 96.6703L226.933 97.4447L229.375 97.9503L235.418 99.6176L241.297 101.666L246.985 104.087L252.464 106.87L252.868 107.109L253.255 107.373L253.366 107.457L253.622 107.661L253.97 107.971L254.294 108.299L265.063 120.842L274.927 134.067L283.842 147.929L291.779 162.37ZM307.908 115.381L307.066 114.238L306.157 113.155L305.177 112.126L304.133 111.162L303.027 110.268L301.865 109.445L300.651 108.692L299.392 108.018L298.09 107.42L296.748 106.907L295.376 106.478L293.978 106.132L292.557 105.876L291.119 105.705L289.673 105.622L287.696 105.628L287.168 105.598L286.649 105.536L286.131 105.441L285.622 105.318L285.125 105.163L284.637 104.975L284.166 104.757L283.707 104.511L283.266 104.238L282.845 103.939L282.444 103.615L279.597 101.314L276.599 99.2066L273.46 97.3021L270.198 95.6031L266.823 94.1211L263.351 92.8605L259.793 91.8328L256.173 91.0377L252.499 90.4735L252.028 90.4041L251.559 90.309L251.099 90.188L250.651 90.0395L250.207 89.8679L249.776 89.6715L249.358 89.4502L243.284 86.2649L236.999 83.4779L230.538 81.0925L223.922 79.1208L217.177 77.5759L210.335 76.456L203.423 75.7702L196.468 75.5235L189.497 75.7102L182.542 76.3366L175.627 77.3958L168.784 78.8858L162.037 80.7999L155.416 83.1283L148.946 85.8627L142.655 88.9948L139.613 90.7508L136.572 92.5067L130.713 96.3895L125.11 100.625L119.783 105.195L114.752 110.081L110.043 115.26L105.665 120.722L101.645 126.432L97.9983 132.375L94.7344 138.522L91.8724 144.851L89.4214 151.336L87.3893 157.948L85.7891 164.663L84.6218 171.453L83.8952 178.288L83.6143 185.142L83.5972 185.615L83.5518 186.086L83.4809 186.555L83.3829 187.019L83.2603 187.476L83.1107 187.928L82.9325 188.373L81.5818 191.838L80.4601 195.371L79.5764 198.963L78.9297 202.601L78.523 206.267L78.3633 209.941L78.443 213.612L78.7718 217.26L79.3384 220.878L79.4212 221.386L79.4668 221.901L79.4832 222.42L79.4688 222.939L79.4196 223.457L79.3407 223.972L79.224 224.481L79.0787 224.983L78.9022 225.478L78.6941 225.961L78.4586 226.432L77.4619 228.142L76.8111 229.436L76.2402 230.767L75.7513 232.126L75.3548 233.507L75.0375 234.912L74.8132 236.329L74.6779 237.757L74.6324 239.184L74.6765 240.612L74.8111 242.028L75.032 243.433L75.3429 244.821L75.7435 246.184L76.2276 247.513L76.7958 248.814L77.4457 250.071L78.1722 251.287L113.098 305.784L113.657 306.597L114.268 307.376L114.928 308.117L115.63 308.813L116.376 309.465L117.166 310.069L117.992 310.627L118.851 311.129L119.743 311.58L121.519 312.342L123.341 312.999L125.204 313.542L127.102 313.972L129.024 314.288L130.965 314.488L133.442 314.594L133.96 314.647L134.475 314.733L134.98 314.849L135.476 314.997L135.961 315.173L136.438 315.377L136.893 315.615L137.337 315.876L137.761 316.163L142.674 319.991L147.395 323.225C150.64 325.169 201.72 330.874 201.72 330.874C201.72 330.874 225.226 328.619 264.016 306.224C302.807 283.828 316.512 264.598 316.512 264.598C316.512 264.598 337.112 217.509 337.051 213.727L336.613 208.02L335.754 201.851L335.716 201.342L335.711 200.827L335.735 200.313L335.794 199.799L335.884 199.291L336.007 198.786L336.159 198.291L336.34 197.803L336.553 197.328L337.699 195.13L338.496 193.348L339.184 191.526L339.76 189.668L340.222 187.783L340.564 185.877L340.792 183.958L340.847 182.959L340.842 181.965L340.772 180.97L340.644 179.984L340.452 179.011L340.2 178.056L339.891 177.113L339.522 176.193L339.095 175.304L309.362 117.81L308.675 116.571L307.908 115.381Z" fill="white"/>
<path d="M250.708 185.044L239.762 191.364C238.392 192.155 237.925 193.909 238.715 195.278L243.071 202.823C243.865 204.198 244.081 205.833 243.67 207.368L243.375 208.467C242.964 210.002 241.958 211.308 240.583 212.101L194.222 238.868C192.847 239.662 191.213 239.88 189.678 239.469L188.58 239.175C187.045 238.763 185.736 237.758 184.943 236.384L180.586 228.839C179.796 227.469 178.043 226.997 176.671 227.79L165.727 234.108C164.358 234.899 163.887 236.654 164.678 238.024L170.996 248.967C171.788 250.339 173.542 250.807 174.912 250.017L183.153 245.258C184.528 244.465 186.163 244.249 187.698 244.66C189.234 245.071 190.539 246.078 191.333 247.452L195.955 255.458C196.817 256.952 198.745 257.468 200.238 256.606L200.246 256.601L252.929 226.185L252.934 226.182C254.43 225.318 254.946 223.391 254.084 221.898L249.462 213.892C248.668 212.517 248.45 210.883 248.861 209.348C249.272 207.813 250.277 206.504 251.651 205.711L259.893 200.953C261.262 200.162 261.734 198.409 260.942 197.037L254.624 186.093C253.833 184.724 252.078 184.253 250.708 185.044Z" fill="white"/>
</g>
<defs>
<filter id="filter0_di" x="0" y="0" width="403.632" height="396.973" filterUnits="userSpaceOnUse" color-interpolation-filters="sRGB">
<feFlood flood-opacity="0" result="BackgroundImageFix"/>
<feColorMatrix in="SourceAlpha" type="matrix" values="0 0 0 0 0 0 0 0 0 0 0 0 0 0 0 0 0 0 127 0" result="hardAlpha"/>
<feOffset/>
<feGaussianBlur stdDeviation="12"/>
<feComposite in2="hardAlpha" operator="out"/>
<feColorMatrix type="matrix" values="0 0 0 0 1 0 0 0 0 1 0 0 0 0 1 0 0 0 0.25 0"/>
<feBlend mode="normal" in2="BackgroundImageFix" result="effect1_dropShadow"/>
<feBlend mode="normal" in="SourceGraphic" in2="effect1_dropShadow" result="shape"/>
<feColorMatrix in="SourceAlpha" type="matrix" values="0 0 0 0 0 0 0 0 0 0 0 0 0 0 0 0 0 0 127 0" result="hardAlpha"/>
<feOffset dx="-12" dy="8"/>
<feGaussianBlur stdDeviation="8"/>
<feComposite in2="hardAlpha" operator="arithmetic" k2="-1" k3="1"/>
<feColorMatrix type="matrix" values="0 0 0 0 0 0 0 0 0 0 0 0 0 0 0 0 0 0 0.45 0"/>
<feBlend mode="normal" in2="shape" result="effect2_innerShadow"/>
</filter>
</defs>
</svg>