<svg width="35" height="43" viewBox="0 0 35 43" fill="none" xmlns="http://www.w3.org/2000/svg">
<path opacity="0.8" d="M11.6836 13.618L10.2683 17.3432C9.57332 19.1725 10.9246 21.1314 12.8815 21.1314H23.163C24.973 21.1314 26.4403 19.6641 26.4403 17.8541V6.3868C26.4403 5.08447 24.6346 4.753 24.172 5.97043C23.7891 6.97843 22.3631 6.97842 21.9802 5.97043L21.8782 5.70213C21.4597 4.60038 19.9011 4.60037 19.4825 5.70212L16.4751 13.618C16.0565 14.7198 14.4979 14.7198 14.0793 13.618C13.6608 12.5163 12.1022 12.5163 11.6836 13.618Z" fill="url(#paint0_linear)"/>
<path opacity="0.8" d="M8.8291 21.1314L11.6836 13.618C12.1022 12.5163 13.6608 12.5163 14.0793 13.618V13.618C14.4979 14.7198 16.0565 14.7198 16.4751 13.618L19.4825 5.70212C19.9011 4.60037 21.4597 4.60038 21.8782 5.70213L21.9802 5.97043C22.3631 6.97842 23.7891 6.97843 24.172 5.97043V5.97043C24.6346 4.753 26.4403 5.08447 26.4403 6.3868V21.1314" stroke="#F8FAFF"/>
<path d="M2.09394 35H1.10394L3.86694 28.628H4.67694L7.41294 35H6.40494L5.75694 33.434H2.73294L2.09394 35ZM3.04794 32.651H5.43294L4.24494 29.663L3.04794 32.651ZM8.49368 30.734C8.50568 30.842 8.51468 30.965 8.52068 31.103C8.52668 31.235 8.52968 31.346 8.52968 31.436H8.55668C8.61068 31.322 8.68268 31.217 8.77268 31.121C8.86868 31.019 8.97668 30.932 9.09668 30.86C9.21668 30.782 9.34868 30.722 9.49268 30.68C9.63668 30.638 9.78668 30.617 9.94268 30.617C10.2187 30.617 10.4557 30.665 10.6537 30.761C10.8517 30.851 11.0167 30.974 11.1487 31.13C11.2807 31.286 11.3767 31.469 11.4367 31.679C11.5027 31.889 11.5357 32.114 11.5357 32.354V35H10.6897V32.633C10.6897 32.459 10.6747 32.294 10.6447 32.138C10.6207 31.982 10.5727 31.844 10.5007 31.724C10.4287 31.604 10.3297 31.508 10.2037 31.436C10.0777 31.364 9.91568 31.328 9.71768 31.328C9.38168 31.328 9.10568 31.457 8.88968 31.715C8.67968 31.967 8.57468 32.306 8.57468 32.732V35H7.72868V31.652C7.72868 31.538 7.72568 31.391 7.71968 31.211C7.71368 31.031 7.70468 30.872 7.69268 30.734H8.49368ZM15.1643 32.237C15.1643 31.919 15.0683 31.685 14.8763 31.535C14.6843 31.379 14.4293 31.301 14.1113 31.301C13.8713 31.301 13.6433 31.349 13.4273 31.445C13.2173 31.535 13.0403 31.652 12.8963 31.796L12.4463 31.256C12.6563 31.058 12.9113 30.902 13.2113 30.788C13.5173 30.674 13.8443 30.617 14.1923 30.617C14.4983 30.617 14.7623 30.662 14.9843 30.752C15.2123 30.836 15.3983 30.953 15.5423 31.103C15.6863 31.253 15.7943 31.43 15.8663 31.634C15.9383 31.838 15.9743 32.057 15.9743 32.291V34.154C15.9743 34.298 15.9773 34.451 15.9833 34.613C15.9953 34.769 16.0133 34.898 16.0373 35H15.2723C15.2243 34.796 15.2003 34.592 15.2003 34.388H15.1733C15.0173 34.616 14.8193 34.793 14.5793 34.919C14.3453 35.045 14.0663 35.108 13.7423 35.108C13.5743 35.108 13.3973 35.084 13.2113 35.036C13.0313 34.994 12.8663 34.922 12.7163 34.82C12.5663 34.718 12.4403 34.583 12.3383 34.415C12.2423 34.247 12.1943 34.04 12.1943 33.794C12.1943 33.47 12.2813 33.215 12.4553 33.029C12.6293 32.837 12.8573 32.693 13.1393 32.597C13.4213 32.495 13.7393 32.429 14.0933 32.399C14.4473 32.369 14.8043 32.354 15.1643 32.354V32.237ZM14.9573 32.966C14.7473 32.966 14.5283 32.975 14.3003 32.993C14.0783 33.011 13.8743 33.047 13.6883 33.101C13.5083 33.155 13.3583 33.236 13.2383 33.344C13.1183 33.452 13.0583 33.596 13.0583 33.776C13.0583 33.902 13.0823 34.007 13.1303 34.091C13.1843 34.175 13.2533 34.244 13.3373 34.298C13.4213 34.352 13.5143 34.391 13.6163 34.415C13.7183 34.433 13.8233 34.442 13.9313 34.442C14.3273 34.442 14.6303 34.325 14.8403 34.091C15.0563 33.851 15.1643 33.551 15.1643 33.191V32.966H14.9573ZM17.7935 35H16.9475V28.196H17.7935V35ZM20.4297 34.082H20.4477L21.6267 30.734H22.5267L20.4567 36.008C20.3847 36.188 20.3067 36.347 20.2227 36.485C20.1387 36.629 20.0397 36.749 19.9257 36.845C19.8117 36.947 19.6767 37.025 19.5207 37.079C19.3707 37.133 19.1907 37.16 18.9807 37.16C18.8907 37.16 18.7977 37.154 18.7017 37.142C18.6117 37.136 18.5187 37.121 18.4227 37.097L18.5037 36.35C18.6477 36.398 18.7887 36.422 18.9267 36.422C19.1487 36.422 19.3137 36.359 19.4217 36.233C19.5297 36.113 19.6287 35.939 19.7187 35.711L19.9887 35L18.1617 30.734H19.1067L20.4297 34.082ZM24.9752 31.427H23.8412V33.65C23.8412 33.908 23.8892 34.094 23.9852 34.208C24.0812 34.316 24.2342 34.37 24.4442 34.37C24.5222 34.37 24.6062 34.361 24.6962 34.343C24.7862 34.325 24.8672 34.298 24.9392 34.262L24.9662 34.955C24.8642 34.991 24.7502 35.018 24.6242 35.036C24.5042 35.06 24.3782 35.072 24.2462 35.072C23.8442 35.072 23.5352 34.961 23.3192 34.739C23.1092 34.517 23.0042 34.184 23.0042 33.74V31.427H22.1852V30.734H23.0042V29.51H23.8412V30.734H24.9752V31.427ZM26.2464 35H25.4004V30.734H26.2464V35ZM26.3904 29.195C26.3904 29.351 26.3334 29.48 26.2194 29.582C26.1114 29.684 25.9794 29.735 25.8234 29.735C25.6674 29.735 25.5354 29.684 25.4274 29.582C25.3194 29.474 25.2654 29.345 25.2654 29.195C25.2654 29.039 25.3194 28.91 25.4274 28.808C25.5354 28.7 25.6674 28.646 25.8234 28.646C25.9794 28.646 26.1114 28.7 26.2194 28.808C26.3334 28.91 26.3904 29.039 26.3904 29.195ZM30.2508 31.814C30.1608 31.676 30.0258 31.562 29.8458 31.472C29.6658 31.376 29.4738 31.328 29.2698 31.328C29.0478 31.328 28.8498 31.37 28.6758 31.454C28.5078 31.538 28.3638 31.652 28.2438 31.796C28.1238 31.934 28.0308 32.096 27.9648 32.282C27.9048 32.468 27.8748 32.663 27.8748 32.867C27.8748 33.071 27.9048 33.266 27.9648 33.452C28.0308 33.638 28.1238 33.803 28.2438 33.947C28.3638 34.085 28.5108 34.196 28.6848 34.28C28.8588 34.364 29.0568 34.406 29.2788 34.406C29.4948 34.406 29.6898 34.364 29.8638 34.28C30.0438 34.196 30.1908 34.082 30.3048 33.938L30.8718 34.451C30.6918 34.661 30.4668 34.826 30.1968 34.946C29.9268 35.06 29.6208 35.117 29.2788 35.117C28.9488 35.117 28.6428 35.063 28.3608 34.955C28.0848 34.847 27.8448 34.697 27.6408 34.505C27.4368 34.307 27.2748 34.07 27.1548 33.794C27.0408 33.518 26.9838 33.209 26.9838 32.867C26.9838 32.531 27.0408 32.225 27.1548 31.949C27.2688 31.673 27.4278 31.436 27.6318 31.238C27.8358 31.04 28.0758 30.887 28.3518 30.779C28.6338 30.671 28.9368 30.617 29.2608 30.617C29.5608 30.617 29.8578 30.677 30.1518 30.797C30.4518 30.917 30.6888 31.091 30.8628 31.319L30.2508 31.814ZM33.5564 31.814C33.4604 31.658 33.3254 31.532 33.1514 31.436C32.9774 31.334 32.7824 31.283 32.5664 31.283C32.4704 31.283 32.3744 31.295 32.2784 31.319C32.1824 31.337 32.0954 31.37 32.0174 31.418C31.9454 31.46 31.8854 31.517 31.8374 31.589C31.7954 31.655 31.7744 31.739 31.7744 31.841C31.7744 32.021 31.8554 32.156 32.0174 32.246C32.1794 32.33 32.4224 32.408 32.7464 32.48C32.9504 32.528 33.1394 32.585 33.3134 32.651C33.4874 32.717 33.6374 32.801 33.7634 32.903C33.8954 32.999 33.9974 33.116 34.0694 33.254C34.1414 33.392 34.1774 33.554 34.1774 33.74C34.1774 33.992 34.1294 34.205 34.0334 34.379C33.9374 34.553 33.8084 34.697 33.6464 34.811C33.4904 34.919 33.3104 34.997 33.1064 35.045C32.9024 35.093 32.6924 35.117 32.4764 35.117C32.1524 35.117 31.8344 35.054 31.5224 34.928C31.2164 34.802 30.9614 34.61 30.7574 34.352L31.3604 33.839C31.4744 34.007 31.6304 34.148 31.8284 34.262C32.0324 34.376 32.2544 34.433 32.4944 34.433C32.6024 34.433 32.7044 34.424 32.8004 34.406C32.9024 34.382 32.9924 34.346 33.0704 34.298C33.1544 34.25 33.2204 34.187 33.2684 34.109C33.3164 34.031 33.3404 33.932 33.3404 33.812C33.3404 33.614 33.2444 33.467 33.0524 33.371C32.8664 33.275 32.5904 33.185 32.2244 33.101C32.0804 33.065 31.9334 33.023 31.7834 32.975C31.6394 32.921 31.5074 32.849 31.3874 32.759C31.2674 32.669 31.1684 32.558 31.0904 32.426C31.0184 32.288 30.9824 32.12 30.9824 31.922C30.9824 31.694 31.0274 31.499 31.1174 31.337C31.2134 31.169 31.3364 31.034 31.4864 30.932C31.6364 30.824 31.8074 30.746 31.9994 30.698C32.1914 30.644 32.3894 30.617 32.5934 30.617C32.8994 30.617 33.1934 30.677 33.4754 30.797C33.7634 30.917 33.9854 31.091 34.1414 31.319L33.5564 31.814Z" fill="white"/>
<defs>
<linearGradient id="paint0_linear" x1="17.6347" y1="0" x2="17.6347" y2="21.1314" gradientUnits="userSpaceOnUse">
<stop stop-color="white"/>
<stop offset="1" stop-color="white" stop-opacity="0"/>
</linearGradient>
</defs>
</svg>
