<svg width="58" height="32" viewBox="0 0 58 32" fill="none" xmlns="http://www.w3.org/2000/svg">
<path d="M2.17936 32H55.2315C56.6155 32 57.6477 30.7251 57.3635 29.3705C55.6086 21.0067 50.2836 13.9582 43.0579 9.88642L47.5932 1.70337C47.9002 1.14936 47.7 0.451171 47.146 0.144245C46.5907 -0.163454 45.8935 0.0374664 45.5866 0.59148L41.017 8.83616C37.2743 7.09933 33.1033 6.12929 28.7055 6.12929C24.3074 6.12929 20.1363 7.09933 16.3936 8.83616L11.824 0.591222C11.5169 0.0369506 10.8187 -0.162938 10.2649 0.143988C9.7109 0.450913 9.51075 1.1491 9.81768 1.70312L14.353 9.88616C7.12731 13.9582 1.80229 21.0064 0.0473949 29.3705C-0.237091 30.7251 0.795106 32 2.17936 32ZM44.5356 19.8047C44.5356 21.1671 43.4312 22.2718 42.0686 22.2718C40.7062 22.2718 39.6016 21.1673 39.6016 19.8047C39.6016 18.4424 40.706 17.3377 42.0686 17.3377C43.4312 17.3377 44.5356 18.4424 44.5356 19.8047ZM15.3418 17.3377C16.7042 17.3377 17.8088 18.4422 17.8088 19.8047C17.8088 21.1671 16.7044 22.2718 15.3418 22.2718C13.9795 22.2718 12.8748 21.1673 12.8748 19.8047C12.8748 18.4424 13.9792 17.3377 15.3418 17.3377Z" fill="#AAC148"/>
</svg>
