<svg width="27" height="32" viewBox="0 0 27 32" fill="none" xmlns="http://www.w3.org/2000/svg">
<path d="M1.37615 11.7633C-1.38248 16.4578 0.371229 23.5821 3.42183 27.9018C4.94456 30.0614 6.48622 32 8.59781 32C8.6376 32 8.67751 31.9992 8.71838 31.9977C9.71046 31.9588 10.4274 31.6593 11.1205 31.3698C11.8987 31.0446 12.7036 30.7083 13.966 30.7083C15.1671 30.7083 15.9335 31.0337 16.6747 31.3482C17.4052 31.6582 18.1576 31.9788 19.2694 31.9583C21.6479 31.9149 23.1083 29.823 24.3967 27.9776C25.7412 26.0508 26.4157 24.18 26.6432 23.4651L26.6524 23.4367C26.6958 23.3096 26.6346 23.1709 26.5104 23.115C26.5069 23.1134 26.4943 23.1083 26.4908 23.1068C26.0719 22.9388 22.3978 21.3404 22.3592 16.9838C22.3234 13.4443 25.1155 11.5699 25.6754 11.2302L25.7015 11.2142C25.7622 11.1759 25.8045 11.1152 25.8188 11.0457C25.8331 10.9764 25.8182 10.9042 25.7775 10.8459C23.8503 8.08003 20.8964 7.66319 19.7071 7.61304C19.5345 7.59614 19.3564 7.58765 19.1775 7.58765C17.7807 7.58765 16.4427 8.105 15.3677 8.52068C14.6256 8.80763 13.9847 9.05545 13.5426 9.05545C13.0459 9.05545 12.4013 8.80459 11.6548 8.51418C10.6566 8.12567 9.52527 7.68543 8.32756 7.68543C8.29899 7.68543 8.27086 7.68575 8.24315 7.68627C5.4583 7.72645 2.82688 9.28889 1.37615 11.7633Z" fill="#7284A0"/>
<path d="M19.7094 0.000201593C18.023 0.067559 16 1.08558 14.7908 2.47448C13.7632 3.64191 12.7594 5.58835 13.0238 7.55031C13.0404 7.67307 13.1423 7.76781 13.2682 7.77736C13.382 7.78607 13.4982 7.79047 13.614 7.79058C15.263 7.79058 17.0418 6.89594 18.2566 5.45542C19.5352 3.93431 20.1817 1.98221 19.9862 0.233644C19.9708 0.0966213 19.8478 -0.00514923 19.7094 0.000201593Z" fill="#7284A0"/>
</svg>
