<svg width="21" height="24" viewBox="0 0 21 24" fill="none" xmlns="http://www.w3.org/2000/svg">
<path d="M10.5 0L21 6.00003V18L15.75 21L10.5 24L0 18V6.00003L10.5 0Z" fill="#F4F6FA"/>
<path d="M10.4998 1.33301L19.8332 6.66453V17.3276L10.4998 22.659L1.1665 17.3276V6.66453L10.4998 1.33301Z" fill="#7380EB"/>
<path d="M10.4541 11.4063L19.832 6.66333L19.8342 17.3246L10.4967 22.6665L10.4541 11.4063Z" fill="#6E98E9"/>
<path fill-rule="evenodd" clip-rule="evenodd" d="M10.4945 3.66117L17.72 7.7429L19.8283 6.67356L10.5015 1.33081L10.4945 1.33489L10.4874 1.33081L1.16064 6.67356L1.1659 6.67621L1.16414 17.3256L3.21455 18.5016L3.2149 18.4396V18.4916L10.5049 22.664V22.6574L19.8304 17.3287V16.1343V14.9293L10.5049 20.2657V20.2646L3.2278 16.1072L3.27409 7.7427L3.27155 7.74141L10.4945 3.66117Z" fill="#17181A"/>
</svg>