<svg width="64" height="65" viewBox="0 0 64 65" fill="none" xmlns="http://www.w3.org/2000/svg">
<path d="M32 1L59.7128 16.9945V48.9835L32 64.978L4.28719 48.9835L4.28719 16.9945L32 1Z" fill="#5C8CEA"/>
<path d="M31.8652 31.2191L59.7105 16.9902L59.717 48.9738L31.9917 64.9996L31.8652 31.2191Z" fill="#165BE0"/>
<path fill-rule="evenodd" clip-rule="evenodd" d="M31.9841 7.97715L53.4389 20.2226L59.6986 17.0145L32.0055 0.986328L31.9841 0.998733L31.9626 0.986328L4.26953 17.0145L4.28515 17.0225L4.27994 48.9746L10.3681 52.5028L10.3685 52.4265V52.4714L32.014 64.9887V64.971L59.7054 48.984V45.4009V41.7859L32.014 57.7959V57.7906L10.4074 45.3188L10.5449 20.226L10.5336 20.2202L31.9841 7.97715Z" fill="#16253D"/>
</svg>

