<svg width="22" height="24" viewBox="0 0 22 24" fill="none" xmlns="http://www.w3.org/2000/svg">
<path d="M10.9994 24C11.795 24 12.5581 23.6839 13.1206 23.1214C13.6832 22.5588 13.9993 21.7958 13.9993 21.0002H7.99959C7.99959 21.7958 8.31564 22.5588 8.87822 23.1214C9.4408 23.6839 10.2038 24 10.9994 24ZM12.4918 1.64972C12.5128 1.44116 12.4898 1.23053 12.4243 1.03142C12.3588 0.832297 12.2523 0.649112 12.1117 0.493673C11.9711 0.338234 11.7995 0.213993 11.6079 0.128962C11.4163 0.0439318 11.209 0 10.9994 0C10.7898 0 10.5825 0.0439318 10.391 0.128962C10.1994 0.213993 10.0277 0.338234 9.88712 0.493673C9.7465 0.649112 9.64003 0.832297 9.57455 1.03142C9.50908 1.23053 9.48607 1.44116 9.50701 1.64972C7.81168 1.99455 6.28762 2.91469 5.19289 4.25433C4.09817 5.59397 3.50005 7.27078 3.49984 9.00082C3.49984 10.6477 2.74988 18.0003 0.5 19.5002H21.4989C19.249 18.0003 18.499 10.6477 18.499 9.00082C18.499 5.37102 15.9192 2.34118 12.4918 1.64972Z" fill="#93A0B2"/>
</svg>
