<svg width="33" height="32" viewBox="0 0 33 32" fill="none" xmlns="http://www.w3.org/2000/svg">
<g clip-path="url(#clip0)">
<path d="M10.8225 13.4467L16.9286 7.23248L23.0379 13.45L26.5909 9.83396L16.9286 0L7.26953 9.83068L10.8225 13.4467Z" fill="#F3BA2F" fill-opacity="0.5"/>
<path d="M8.31266 15.9994L4.75977 12.3835L1.2067 15.9996L4.75959 19.6155L8.31266 15.9994Z" fill="#F3BA2F" fill-opacity="0.5"/>
<path d="M10.8228 18.5533L16.9289 24.7675L23.038 18.5503L26.593 22.1643L26.5912 22.1663L16.9289 32L7.26962 22.1696L7.26465 22.1645L10.8228 18.5533Z" fill="#F3BA2F" fill-opacity="0.5"/>
<path d="M29.0973 19.6172L32.6504 16.0011L29.0975 12.3852L25.5444 16.0013L29.0973 19.6172Z" fill="#F3BA2F" fill-opacity="0.5"/>
<path d="M20.5323 15.9981H20.5337L16.9284 12.3288L14.264 15.0404H14.2637L13.9578 15.3521L13.3263 15.9948L13.3213 15.9999L13.3263 16.0052L16.9284 19.6712L20.5337 16.0019L20.5355 15.9999L20.5323 15.9981Z" fill="#F3BA2F" fill-opacity="0.5"/>
</g>
<defs>
<clipPath id="clip0">
<rect width="32" height="32" fill="white" transform="translate(0.834961)"/>
</clipPath>
</defs>
</svg>
