<svg xmlns="http://www.w3.org/2000/svg" width="16" height="20" viewBox="0 0 16 20">
    <path fill="#FFF" fill-rule="nonzero" d="M13.432 10.496c1.128-.206 1.978-.872 2.204-2.3.312-1.952-1.283-3.062-3.462-3.84l.705-2.634-1.726-.463-.688 2.565c-.454-.122-.92-.238-1.383-.353l.691-2.58L8.05.427 7.343 3.06a60.47 60.47 0 0 1-1.103-.28l.002-.009-2.381-.639-.458 1.712s1.28.32 1.254.336c.698.188.826.626.804.969l-.803 3-1.13 4.215c-.085.196-.302.488-.791.357.017.024-1.256-.336-1.256-.336l-.855 1.822 2.246.602c.418.113.828.229 1.23.34l-.711 2.664 1.724.462.706-2.635c.472.136.928.262 1.376.382l-.704 2.623 1.727.462.713-2.658c2.944.622 5.157.488 6.088-1.976.75-1.983-.04-3.17-1.589-3.978zM8.62 5.366c.973.262 4.112.794 3.607 2.684-.486 1.81-3.49.779-4.465.518l.858-3.201zM6.38 13.714l.947-3.53c1.17.314 4.923.985 4.367 3.061-.533 1.992-4.143.782-5.314.469z"/>
</svg>
