<svg width="21" height="19" viewBox="0 0 21 19" fill="none" xmlns="http://www.w3.org/2000/svg">
<path d="M9.37506 14.5408C9.37506 14.8493 9.49358 15.1452 9.70455 15.3634C9.91552 15.5815 10.2016 15.7041 10.5 15.7041C10.7984 15.7041 11.0845 15.5815 11.2954 15.3634C11.5064 15.1452 11.6249 14.8493 11.6249 14.5408C11.6249 14.2323 11.5064 13.9364 11.2954 13.7183C11.0845 13.5001 10.7984 13.3776 10.5 13.3776C10.2016 13.3776 9.91552 13.5001 9.70455 13.7183C9.49358 13.9364 9.37506 14.2323 9.37506 14.5408V14.5408ZM9.75004 7.17347V11.6327C9.75004 11.7393 9.83441 11.8265 9.93753 11.8265H11.0625C11.1656 11.8265 11.25 11.7393 11.25 11.6327V7.17347C11.25 7.06684 11.1656 6.97959 11.0625 6.97959H9.93753C9.83441 6.97959 9.75004 7.06684 9.75004 7.17347ZM20.8986 17.8367L11.1492 0.387755C11.0039 0.128444 10.7531 0 10.5 0C10.2469 0 9.99378 0.128444 9.85082 0.387755L0.101369 17.8367C-0.186896 18.3554 0.174021 19 0.750551 19H20.2494C20.826 19 21.1869 18.3554 20.8986 17.8367ZM2.53639 17.1606L10.5 2.90574L18.4636 17.1606H2.53639V17.1606Z" fill="#282828"/>
</svg>
