<svg width="64" height="64" viewBox="0 0 64 64" fill="none" xmlns="http://www.w3.org/2000/svg">
<path fill-rule="evenodd" clip-rule="evenodd" d="M32 64C49.6731 64 64 49.6731 64 32C64 14.3269 49.6731 0 32 0C14.3269 0 0 14.3269 0 32C0 49.6731 14.3269 64 32 64Z" fill="#0B1FD1"/>
<path d="M32 5L55.3827 18.5L55.3827 45.5L32 59L8.61731 45.5L8.61731 18.5L32 5Z" fill="white"/>
<path d="M32 8L52.7846 19.9959V43.9876L32 55.9835L11.2154 43.9876L11.2154 19.9959L32 8Z" fill="#5085EC"/>
<path d="M31.8984 30.6639L52.7824 19.9922L52.7872 43.9799L31.9933 55.9993L31.8984 30.6639Z" fill="#235DCF"/>
<path d="M15.7754 41.2227L15.7754 46.604L32.0095 55.992L32.0095 53.3047L32.0095 50.5934L15.7754 41.2227Z" fill="#16253D"/>
<path d="M32 50.6031L32 55.9845L52.7786 43.9884L52.7786 41.3011L52.7786 38.5898L32 50.6031Z" fill="#16253D"/>
<path d="M11.209 43.9808L15.7751 46.627L15.9077 22.4193L11.2129 20.0132L11.209 43.9808Z" fill="#16253D"/>
<path d="M27.4375 10.6364L32.0036 7.99021L52.7734 20.0114L48.0786 22.4174L27.4375 10.6364Z" fill="#16253D"/>
<path d="M36.5371 10.6364L31.971 7.99021L11.2012 20.0114L15.896 22.4174L36.5371 10.6364Z" fill="#16253D"/>
</svg>
