<svg width="454" height="408" viewBox="0 0 454 408" fill="none" xmlns="http://www.w3.org/2000/svg">
<g clip-path="url(#clip0)">
<rect width="454" height="408" rx="12" fill="url(#paint0_linear)"/>
<g opacity="0.1" filter="url(#filter0_f)">
<path fill-rule="evenodd" clip-rule="evenodd" d="M41.5149 110V149.77H90.3956V444.836H41.5149V500H37.5149V444.836H-15V149.77H37.5149V110H41.5149ZM287.119 110V126.678H336V403.784H287.119V500H283.119V403.784H230.604V126.678H283.119V110H287.119ZM164.317 337.007V210H160.317V337.007H107.802V503.783H160.317V600H164.317V503.783H213.198V337.007H164.317ZM409.515 144V271.007H458.396V437.783H409.515V534H405.515V437.783H353V271.007H405.515V144H409.515Z" fill="#F8FAFF"/>
</g>
</g>
<defs>
<filter id="filter0_f" x="-19" y="106" width="481.396" height="498" filterUnits="userSpaceOnUse" color-interpolation-filters="sRGB">
<feFlood flood-opacity="0" result="BackgroundImageFix"/>
<feBlend mode="normal" in="SourceGraphic" in2="BackgroundImageFix" result="shape"/>
<feGaussianBlur stdDeviation="2" result="effect1_foregroundBlur"/>
</filter>
<linearGradient id="paint0_linear" x1="18" y1="408" x2="454" y2="72.5" gradientUnits="userSpaceOnUse">
<stop stop-color="#00BBAA"/>
<stop offset="1" stop-color="#0381FC"/>
</linearGradient>
<clipPath id="clip0">
<rect width="454" height="408" rx="24" fill="white"/>
</clipPath>
</defs>
</svg>
