<svg width="89" height="100" viewBox="0 0 89 100" fill="none" xmlns="http://www.w3.org/2000/svg">
<path d="M44.5 0L89 25.0001V75.0001L44.5 100L0 75.0001V25.0001L44.5 0Z" fill="white"/>
<path d="M44.4996 5.55537L84.0553 27.7701V72.1994L44.4996 94.4137L4.94409 72.1994V27.7701L44.4996 5.55537Z" fill="#7380EB"/>
<path d="M44.3069 47.5259L84.0515 27.7636L84.0608 72.1853L44.4873 94.4435L44.3069 47.5259Z" fill="#6E98E9"/>
<path fill-rule="evenodd" clip-rule="evenodd" d="M44.4763 15.2547L75.0989 32.2619L84.0338 27.8063L44.5063 5.54485L44.4763 5.56183L44.4462 5.54485L4.9187 27.8063L4.94097 27.8173L4.93353 72.1896L13.6234 77.0899L13.6248 76.8314V77.048L44.5204 94.4333V94.4056L84.0431 72.2025V67.2259V62.2053L44.5204 84.4401V84.4358L13.6795 67.1131L13.8757 32.2611L13.8649 32.2557L44.4763 15.2547Z" fill="#16253D"/>
</svg>
