<svg width="381" height="37" viewBox="0 0 381 37" fill="none" xmlns="http://www.w3.org/2000/svg">
<path d="M16.0918 1L31.6803 9.99691V27.9907L16.0918 36.9876L0.50334 27.9907L0.50334 9.99691L16.0918 1Z" fill="#5085EC"/>
<path d="M16.0156 17.9979L31.6786 9.99414L31.6822 27.9849L16.0868 36.9994L16.0156 17.9979Z" fill="#235DCF"/>
<path fill-rule="evenodd" clip-rule="evenodd" d="M16.0816 4.92451L28.15 11.8126L31.6711 10.008L16.0937 0.992187L16.0816 0.999187L16.0696 0.992187L0.492188 10.008L0.500879 10.0125L0.49795 27.9855L3.92252 29.9701L3.92294 29.8947V29.9525L16.0985 36.9935V36.9833L31.6748 27.9907V25.9752V23.9418L16.0985 32.9473V32.9445L3.94466 25.929L4.02197 11.8144L4.01576 11.8112L16.0816 4.92451Z" fill="#16253D"/>
<path d="M43.8575 16.9664C43.4042 17.1239 42.9031 17.2087 42.3544 17.2087C41.7698 17.2087 41.221 17.0876 40.6961 16.8452C40.1712 16.6029 39.706 16.2757 39.3123 15.8517C38.9067 15.4397 38.5846 14.955 38.3579 14.3976C38.1193 13.8403 38 13.2466 38 12.6044C38 11.9622 38.1193 11.3685 38.3579 10.8111C38.5846 10.2537 38.9067 9.76904 39.3123 9.34496C39.706 8.93299 40.1712 8.60584 40.6961 8.3635C41.221 8.12117 41.7698 8 42.3544 8C42.8793 8 43.3565 8.0727 43.774 8.23022C44.1915 8.38774 44.5733 8.5816 44.8954 8.83606C45.2175 9.09051 45.48 9.36919 45.6947 9.68423C45.9094 10.0114 46.0645 10.3385 46.1719 10.6657L44.9193 10.8474C44.8358 10.6415 44.7165 10.4233 44.5614 10.2174C44.4063 10.0114 44.2273 9.82963 44.0245 9.67211C43.8098 9.51459 43.5593 9.39343 43.2849 9.29649C43.0105 9.19956 42.7003 9.15109 42.3544 9.15109C41.9487 9.15109 41.5551 9.23591 41.1852 9.41766C40.8154 9.59941 40.4814 9.84175 40.1951 10.1447C39.9088 10.4597 39.6821 10.8232 39.5151 11.2473C39.3361 11.6714 39.2526 12.1197 39.2526 12.6044C39.2526 13.089 39.3361 13.5374 39.5151 13.9614C39.6821 14.3855 39.9088 14.749 40.1951 15.0519C40.4814 15.367 40.8154 15.6093 41.1852 15.7911C41.5551 15.9728 41.9487 16.0576 42.3544 16.0576C42.7242 16.0576 43.0701 16.0092 43.3684 15.9001C43.6666 15.7911 43.9291 15.6578 44.1558 15.476C44.3824 15.3064 44.5852 15.1125 44.7522 14.8823C44.9193 14.6521 45.0505 14.4219 45.1579 14.1795L46.4105 14.3613C46.3031 14.7127 46.1361 15.0519 45.9094 15.3912C45.6828 15.7305 45.3964 16.0334 45.0505 16.3C44.7045 16.5787 44.3108 16.7968 43.8575 16.9664Z" fill="#16253D"/>
<path fill-rule="evenodd" clip-rule="evenodd" d="M52.7291 14.0584H50.0449V16.8452H48.7922V8.3635H52.6336C53.0989 8.3635 53.5283 8.4362 53.9101 8.56949C54.2919 8.71489 54.614 8.90876 54.8883 9.16321C55.1508 9.41766 55.3536 9.72058 55.4968 10.072C55.6399 10.4233 55.7115 10.799 55.7115 11.2109C55.7115 11.732 55.6161 12.156 55.4371 12.4832C55.2462 12.8225 55.0434 13.089 54.8168 13.2829C54.5543 13.5131 54.2561 13.6949 53.922 13.816L55.5922 16.8452H54.2799L52.7291 14.0584ZM50.0449 12.9073H52.6098C52.8961 12.9073 53.1585 12.8588 53.3852 12.7619C53.6119 12.6771 53.8027 12.5559 53.9578 12.3984C54.1129 12.2409 54.2441 12.0591 54.3276 11.8531C54.4111 11.6471 54.4589 11.4412 54.4589 11.2109C54.4589 10.9686 54.4111 10.7384 54.3276 10.5324C54.2441 10.3264 54.1129 10.1568 53.9578 9.99926C53.8027 9.84175 53.6119 9.72058 53.3852 9.63576C53.1585 9.55094 52.908 9.51459 52.6336 9.51459H50.0449V12.9073Z" fill="#16253D"/>
<path d="M61.9797 14.0584V16.8452H60.7271V14.0584C60.1903 13.1254 59.6415 12.1682 59.0927 11.2109C58.532 10.2537 57.9833 9.30861 57.4464 8.3635H58.878L61.3236 12.5438H61.3833L63.8288 8.3635H65.2604C64.9217 8.95981 64.5783 9.55611 64.233 10.1555L64.2314 10.1583C64.03 10.5079 63.828 10.8586 63.626 11.2109C63.1465 12.0297 62.6756 12.8484 62.2135 13.6519L62.2129 13.6531L61.9797 14.0584Z" fill="#16253D"/>
<path fill-rule="evenodd" clip-rule="evenodd" d="M74.0917 10.2537C74.2468 10.6293 74.3303 11.0292 74.3303 11.4533C74.3303 11.8774 74.2468 12.2772 74.0917 12.6528C73.9247 13.0284 73.698 13.3556 73.3998 13.6343C73.1015 13.913 72.7556 14.1432 72.35 14.3007C71.9324 14.4582 71.4791 14.543 70.99 14.543H68.604V16.8452H67.3514V8.3635H70.99C71.4791 8.3635 71.9324 8.44832 72.35 8.60584C72.7556 8.76335 73.1015 8.99357 73.3998 9.27226C73.698 9.55094 73.9247 9.8781 74.0917 10.2537ZM72.5289 12.8588C72.8987 12.5074 73.0777 12.0349 73.0777 11.4533C73.0777 10.8717 72.8987 10.3991 72.5289 10.0477C72.1591 9.69634 71.6461 9.51459 70.99 9.51459H68.604V13.392H70.99C71.6461 13.392 72.1591 13.2102 72.5289 12.8588Z" fill="#16253D"/>
<path d="M78.7536 9.51459H75.9501V8.3635H82.8097V9.51459H80.0062V16.8452H78.7536V9.51459Z" fill="#16253D"/>
<path fill-rule="evenodd" clip-rule="evenodd" d="M92.8242 10.8111C93.0628 11.3685 93.1821 11.9622 93.1821 12.6044C93.1821 13.2466 93.0628 13.8403 92.8242 14.3976C92.5856 14.955 92.2635 15.4397 91.8579 15.8517C91.4523 16.2757 90.9751 16.6029 90.4383 16.8452C89.9014 17.0876 89.3169 17.2087 88.7085 17.2087C88.1 17.2087 87.5155 17.0876 86.9786 16.8452C86.4418 16.6029 85.9646 16.2757 85.559 15.8517C85.1534 15.4397 84.8313 14.955 84.5927 14.3976C84.3541 13.8403 84.2348 13.2466 84.2348 12.6044C84.2348 11.9622 84.3541 11.3685 84.5927 10.8111C84.8313 10.2537 85.1534 9.76904 85.559 9.34496C85.9646 8.93299 86.4418 8.60584 86.9786 8.3635C87.5155 8.12117 88.1 8 88.7085 8C89.3169 8 89.9014 8.12117 90.4383 8.3635C90.9751 8.60584 91.4523 8.93299 91.8579 9.34496C92.2635 9.76904 92.5856 10.2537 92.8242 10.8111ZM85.7499 11.2473C85.5709 11.6714 85.4874 12.1197 85.4874 12.6044C85.4874 13.089 85.5709 13.5374 85.7499 13.9614C85.9288 14.3855 86.1555 14.749 86.4537 15.0519C86.752 15.367 87.086 15.6093 87.4797 15.7911C87.8734 15.9728 88.279 16.0576 88.7085 16.0576C89.1379 16.0576 89.5435 15.9728 89.9372 15.7911C90.3309 15.6093 90.6649 15.367 90.9632 15.0519C91.2614 14.749 91.4881 14.3855 91.667 13.9614C91.846 13.5374 91.9295 13.089 91.9295 12.6044C91.9295 12.1197 91.846 11.6714 91.667 11.2473C91.4881 10.8232 91.2614 10.4597 90.9632 10.1447C90.6649 9.84175 90.3309 9.59941 89.9372 9.41766C89.5435 9.23591 89.1379 9.15109 88.7085 9.15109C88.279 9.15109 87.8734 9.23591 87.4797 9.41766C87.086 9.59941 86.752 9.84175 86.4537 10.1447C86.1555 10.4597 85.9288 10.8232 85.7499 11.2473Z" fill="#16253D"/>
<path d="M101.131 16.9664C100.678 17.1239 100.177 17.2087 99.6279 17.2087C99.0433 17.2087 98.4946 17.0876 97.9697 16.8452C97.4448 16.6029 96.9795 16.2757 96.5858 15.8517C96.1802 15.4397 95.8581 14.955 95.6314 14.3976C95.3928 13.8403 95.2735 13.2466 95.2735 12.6044C95.2735 11.9622 95.3928 11.3685 95.6314 10.8111C95.8581 10.2537 96.1802 9.76904 96.5858 9.34496C96.9795 8.93299 97.4448 8.60584 97.9697 8.3635C98.4946 8.12117 99.0433 8 99.6279 8C100.153 8 100.63 8.0727 101.048 8.23022C101.465 8.38774 101.847 8.5816 102.169 8.83606C102.491 9.09051 102.754 9.36919 102.968 9.68423C103.183 10.0114 103.338 10.3385 103.445 10.6657L102.193 10.8474C102.109 10.6415 101.99 10.4233 101.835 10.2174C101.68 10.0114 101.501 9.82963 101.298 9.67211C101.083 9.51459 100.833 9.39343 100.558 9.29649C100.284 9.19956 99.9739 9.15109 99.6279 9.15109C99.2223 9.15109 98.8286 9.23591 98.4588 9.41766C98.089 9.59941 97.7549 9.84175 97.4686 10.1447C97.1823 10.4597 96.9556 10.8232 96.7886 11.2473C96.6097 11.6714 96.5262 12.1197 96.5262 12.6044C96.5262 13.089 96.6097 13.5374 96.7886 13.9614C96.9556 14.3855 97.1823 14.749 97.4686 15.0519C97.7549 15.367 98.089 15.6093 98.4588 15.7911C98.8286 15.9728 99.2223 16.0576 99.6279 16.0576C99.9977 16.0576 100.344 16.0092 100.642 15.9001C100.94 15.7911 101.203 15.6578 101.429 15.476C101.656 15.3064 101.859 15.1125 102.026 14.8823C102.193 14.6521 102.324 14.4219 102.431 14.1795L103.684 14.3613C103.577 14.7127 103.41 15.0519 103.183 15.3912C102.956 15.7305 102.67 16.0334 102.324 16.3C101.978 16.5787 101.584 16.7968 101.131 16.9664Z" fill="#16253D"/>
<path d="M108.607 15.888C108.869 15.9971 109.156 16.0576 109.466 16.0576C109.776 16.0576 110.062 15.9971 110.325 15.888C110.587 15.779 110.814 15.6214 111.005 15.4154C111.196 15.2095 111.351 14.9671 111.458 14.6763C111.565 14.3855 111.613 14.0584 111.613 13.6949V8.3635H112.866V13.6949C112.866 14.228 112.782 14.7127 112.627 15.1368C112.46 15.573 112.233 15.9486 111.935 16.2515C111.637 16.5544 111.279 16.7968 110.862 16.9664C110.444 17.1239 109.979 17.2087 109.466 17.2087C108.953 17.2087 108.499 17.1239 108.082 16.9664C107.664 16.7968 107.306 16.5544 107.008 16.2515C106.71 15.9486 106.471 15.573 106.316 15.1368C106.149 14.7127 106.066 14.228 106.066 13.6949V8.3635H107.318V13.6949C107.318 14.0584 107.378 14.3855 107.485 14.6763C107.593 14.9671 107.736 15.2095 107.927 15.4154C108.118 15.6214 108.344 15.779 108.607 15.888Z" fill="#16253D"/>
<path fill-rule="evenodd" clip-rule="evenodd" d="M119.725 14.0584H117.041V16.8452H115.788V8.3635H119.629C120.095 8.3635 120.524 8.4362 120.906 8.56949C121.288 8.71489 121.61 8.90876 121.884 9.16321C122.147 9.41766 122.349 9.72058 122.493 10.072C122.636 10.4233 122.707 10.799 122.707 11.2109C122.707 11.732 122.612 12.156 122.433 12.4832C122.242 12.8225 122.039 13.089 121.813 13.2829C121.55 13.5131 121.252 13.6949 120.918 13.816L122.588 16.8452H121.276L119.725 14.0584ZM117.041 12.9073H119.606C119.892 12.9073 120.154 12.8588 120.381 12.7619C120.608 12.6771 120.799 12.5559 120.954 12.3984C121.109 12.2409 121.24 12.0591 121.323 11.8531C121.407 11.6471 121.455 11.4412 121.455 11.2109C121.455 10.9686 121.407 10.7384 121.323 10.5324C121.24 10.3264 121.109 10.1568 120.954 9.99926C120.799 9.84175 120.608 9.72058 120.381 9.63576C120.154 9.55094 119.904 9.51459 119.629 9.51459H117.041V12.9073Z" fill="#16253D"/>
<path fill-rule="evenodd" clip-rule="evenodd" d="M129.214 14.0584H126.53V16.8452H125.277V8.3635H129.119C129.584 8.3635 130.013 8.4362 130.395 8.56949C130.777 8.71489 131.099 8.90876 131.373 9.16321C131.636 9.41766 131.839 9.72058 131.982 10.072C132.125 10.4233 132.197 10.799 132.197 11.2109C132.197 11.732 132.101 12.156 131.922 12.4832C131.731 12.8225 131.529 13.089 131.302 13.2829C131.039 13.5131 130.741 13.6949 130.407 13.816L132.077 16.8452H130.765L129.214 14.0584ZM126.53 12.9073H129.095C129.381 12.9073 129.644 12.8588 129.87 12.7619C130.097 12.6771 130.288 12.5559 130.443 12.3984C130.598 12.2409 130.729 12.0591 130.813 11.8531C130.896 11.6471 130.944 11.4412 130.944 11.2109C130.944 10.9686 130.896 10.7384 130.813 10.5324C130.729 10.3264 130.598 10.1568 130.443 9.99926C130.288 9.84175 130.097 9.72058 129.87 9.63576C129.644 9.55094 129.393 9.51459 129.119 9.51459H126.53V12.9073Z" fill="#16253D"/>
<path d="M136.019 15.6941H140.91V16.8452H134.767V8.3635H140.91V9.51459H136.019V11.9985H139.896V13.1496H136.019V15.6941Z" fill="#16253D"/>
<path d="M144.673 8.3635L148.729 14.7248H148.848V8.3635H150.101V16.8452H148.729L144.673 10.4839H144.553V16.8452H143.301V8.3635H144.673Z" fill="#16253D"/>
<path d="M158.463 16.9664C158.01 17.1239 157.508 17.2087 156.96 17.2087C156.375 17.2087 155.826 17.0876 155.301 16.8452C154.777 16.6029 154.311 16.2757 153.918 15.8517C153.512 15.4397 153.19 14.955 152.963 14.3976C152.725 13.8403 152.605 13.2466 152.605 12.6044C152.605 11.9622 152.725 11.3685 152.963 10.8111C153.19 10.2537 153.512 9.76904 153.918 9.34496C154.311 8.93299 154.777 8.60584 155.301 8.3635C155.826 8.12117 156.375 8 156.96 8C157.485 8 157.962 8.0727 158.379 8.23022C158.797 8.38774 159.179 8.5816 159.501 8.83606C159.823 9.09051 160.085 9.36919 160.3 9.68423C160.515 10.0114 160.67 10.3385 160.777 10.6657L159.525 10.8474C159.441 10.6415 159.322 10.4233 159.167 10.2174C159.012 10.0114 158.833 9.82963 158.63 9.67211C158.415 9.51459 158.165 9.39343 157.89 9.29649C157.616 9.19956 157.306 9.15109 156.96 9.15109C156.554 9.15109 156.16 9.23591 155.791 9.41766C155.421 9.59941 155.087 9.84175 154.8 10.1447C154.514 10.4597 154.287 10.8232 154.12 11.2473C153.941 11.6714 153.858 12.1197 153.858 12.6044C153.858 13.089 153.941 13.5374 154.12 13.9614C154.287 14.3855 154.514 14.749 154.8 15.0519C155.087 15.367 155.421 15.6093 155.791 15.7911C156.16 15.9728 156.554 16.0576 156.96 16.0576C157.33 16.0576 157.675 16.0092 157.974 15.9001C158.272 15.7911 158.534 15.6578 158.761 15.476C158.988 15.3064 159.191 15.1125 159.358 14.8823C159.525 14.6521 159.656 14.4219 159.763 14.1795L161.016 14.3613C160.908 14.7127 160.741 15.0519 160.515 15.3912C160.288 15.7305 160.002 16.0334 159.656 16.3C159.31 16.5787 158.916 16.7968 158.463 16.9664Z" fill="#16253D"/>
<path d="M164.65 8.3635V16.8452H163.398V8.3635H164.65Z" fill="#16253D"/>
<path d="M168.827 15.6941H173.718V16.8452H167.574V8.3635H173.718V9.51459H168.827V11.9985H172.704V13.1496H168.827V15.6941Z" fill="#16253D"/>
<path d="M180.976 15.0519C181.071 14.8702 181.119 14.6763 181.119 14.4825C181.119 14.2522 181.047 14.0705 180.904 13.913C180.749 13.7676 180.558 13.6343 180.331 13.5252C180.093 13.4162 179.818 13.3193 179.52 13.2344C179.21 13.1496 178.9 13.0648 178.59 12.9679C178.268 12.8709 177.957 12.7619 177.659 12.6407C177.349 12.5195 177.075 12.362 176.848 12.1803C176.609 11.9985 176.419 11.7683 176.275 11.5017C176.12 11.2473 176.049 10.9201 176.049 10.5445C176.049 10.2174 176.12 9.89021 176.263 9.58729C176.407 9.28438 176.609 9.00569 176.884 8.77547C177.146 8.54525 177.468 8.35139 177.838 8.20598C178.208 8.0727 178.626 8 179.091 8C179.532 8 179.938 8.06058 180.296 8.19387C180.654 8.32715 180.964 8.49679 181.238 8.71489C181.513 8.93299 181.739 9.18744 181.918 9.47824C182.097 9.78116 182.228 10.0962 182.312 10.4233L181.059 10.6051C181 10.3991 180.916 10.2052 180.809 10.0235C180.701 9.84175 180.57 9.69634 180.415 9.56306C180.248 9.42978 180.057 9.33284 179.842 9.26014C179.628 9.18744 179.377 9.15109 179.091 9.15109C178.816 9.15109 178.578 9.18744 178.363 9.27226C178.136 9.35708 177.957 9.45401 177.802 9.58729C177.647 9.72058 177.516 9.8781 177.433 10.0356C177.349 10.2052 177.301 10.3749 177.301 10.5445C177.301 10.7747 177.373 10.9686 177.528 11.1261C177.671 11.2836 177.862 11.4169 178.101 11.526C178.327 11.635 178.602 11.7441 178.912 11.8289C179.018 11.859 179.125 11.8906 179.234 11.9227C179.432 11.981 179.635 12.0408 179.842 12.0955C180.153 12.1924 180.463 12.3014 180.773 12.4226C181.071 12.5438 181.346 12.6892 181.584 12.8709C181.811 13.0527 182.002 13.2829 182.157 13.5374C182.3 13.7918 182.371 14.1068 182.371 14.4825C182.371 14.846 182.3 15.1973 182.145 15.5245C181.99 15.8517 181.775 16.1425 181.501 16.3848C181.214 16.6392 180.868 16.8331 180.463 16.9906C180.057 17.136 179.604 17.2087 179.091 17.2087C178.602 17.2087 178.16 17.1481 177.779 17.0149C177.397 16.8816 177.063 16.6998 176.776 16.4696C176.49 16.2394 176.251 15.9728 176.049 15.6457C175.846 15.3306 175.691 14.9792 175.572 14.6036L176.824 14.4219C176.896 14.6521 177.003 14.8581 177.134 15.0519C177.266 15.2579 177.421 15.4276 177.6 15.573C177.779 15.7305 178.005 15.8395 178.256 15.9244C178.506 16.0092 178.781 16.0576 179.091 16.0576C179.401 16.0576 179.687 16.0092 179.938 15.9244C180.188 15.8395 180.391 15.7184 180.57 15.5608C180.749 15.4154 180.88 15.2458 180.976 15.0519Z" fill="#16253D"/>
<path fill-rule="evenodd" clip-rule="evenodd" d="M60.2262 23.2293L61.8002 29.7179H61.1521L60.7355 28.0722H57.032L56.6153 29.7179H55.9672L57.5412 23.2293H60.2262ZM58.0504 23.8405L57.1709 27.461H60.5966L59.717 23.8405H58.0504Z" fill="#16253D"/>
<path d="M67.4633 29.8213C67.1207 29.9436 66.7504 30 66.3337 30C65.9078 30 65.5004 29.906 65.1023 29.7179C64.7042 29.5298 64.3524 29.2759 64.0468 28.9562C63.7413 28.6364 63.5006 28.2603 63.3246 27.8371C63.1395 27.4139 63.0469 26.9532 63.0469 26.4736C63.0469 25.994 63.1395 25.5332 63.3246 25.11C63.5006 24.6868 63.7413 24.3107 64.0468 23.991C64.3524 23.6712 64.7042 23.4173 65.1023 23.2293C65.5004 23.0412 65.9078 22.9471 66.3337 22.9471C66.7318 22.9471 67.0837 23.0036 67.4077 23.1258C67.7318 23.2481 68.0095 23.3985 68.2595 23.5866C68.5003 23.7747 68.7039 23.9816 68.8613 24.2167C69.0187 24.4517 69.1391 24.6868 69.2039 24.9219L68.5558 25.016C68.491 24.8373 68.3892 24.668 68.2595 24.4894C68.1299 24.3107 67.9725 24.1602 67.7873 24.0192C67.6022 23.8781 67.3892 23.7653 67.1485 23.6806C66.9078 23.596 66.6393 23.5584 66.3337 23.5584C66.0004 23.5584 65.6764 23.6336 65.3616 23.7841C65.0375 23.9439 64.7597 24.1508 64.5098 24.4141C64.2598 24.6774 64.0653 24.9878 63.9172 25.3357C63.7691 25.6931 63.695 26.0692 63.695 26.4736C63.695 26.8779 63.7691 27.2635 63.9172 27.6114C64.0653 27.9688 64.2598 28.2791 64.5098 28.5424C64.7597 28.8057 65.0375 29.0126 65.3616 29.1631C65.6764 29.3135 66.0004 29.3888 66.3337 29.3888C66.6578 29.3888 66.9448 29.3417 67.204 29.2571C67.4633 29.1725 67.6947 29.0502 67.8892 28.8998C68.0836 28.7587 68.2503 28.5894 68.3891 28.3919C68.528 28.2039 68.6484 28.0064 68.741 27.7901L69.3891 27.8841C69.2965 28.1569 69.1669 28.4108 68.991 28.6647C68.8151 28.9186 68.6021 29.1443 68.3521 29.3417C68.0929 29.5392 67.7966 29.6991 67.4633 29.8213Z" fill="#16253D"/>
<path d="M72.8181 23.8405H70.5497V23.2293H75.7346V23.8405H73.4662V29.7179H72.8181V23.8405Z" fill="#16253D"/>
<path d="M77.4944 23.2293H78.1425V29.7179H77.4944V23.2293Z" fill="#16253D"/>
<path fill-rule="evenodd" clip-rule="evenodd" d="M80.4547 27.8371C80.2695 27.4139 80.1769 26.9532 80.1769 26.4736C80.1769 25.994 80.2695 25.5426 80.4547 25.1194C80.6306 24.6962 80.8806 24.3201 81.1954 23.991C81.5009 23.6712 81.862 23.4173 82.2694 23.2293C82.6768 23.0412 83.1027 22.9471 83.5563 22.9471C84.01 22.9471 84.4359 23.0412 84.8433 23.2293C85.2507 23.4173 85.6118 23.6712 85.9266 23.991C86.2321 24.3107 86.4821 24.6868 86.6673 25.11C86.8432 25.5332 86.9358 25.994 86.9358 26.4736C86.9358 26.9532 86.8432 27.4139 86.6673 27.8371C86.4821 28.2603 86.2321 28.6364 85.9266 28.9562C85.6118 29.2759 85.2507 29.5298 84.8433 29.7179C84.4359 29.906 84.01 30 83.5563 30C83.1027 30 82.6768 29.906 82.2694 29.7179C81.862 29.5298 81.5009 29.2759 81.1954 28.9562C80.8806 28.6364 80.6306 28.2603 80.4547 27.8371ZM86.0654 27.602C86.2136 27.2541 86.2877 26.8779 86.2877 26.4736C86.2877 26.0692 86.2136 25.6931 86.0654 25.3357C85.9081 24.9878 85.7136 24.6774 85.4636 24.4141C85.2136 24.1508 84.9174 23.9439 84.5933 23.7841C84.26 23.6336 83.9174 23.5584 83.5563 23.5584C83.1952 23.5584 82.8527 23.6336 82.5286 23.7841C82.1953 23.9439 81.899 24.1508 81.6583 24.4141C81.4083 24.6774 81.2046 24.9878 81.0565 25.3357C80.8991 25.6931 80.825 26.0692 80.825 26.4736C80.825 26.8779 80.8991 27.2541 81.0565 27.602C81.2046 27.9594 81.4083 28.2697 81.6583 28.533C81.9083 28.7963 82.1953 29.0032 82.5286 29.1537C82.8527 29.3135 83.1952 29.3888 83.5563 29.3888C83.9174 29.3888 84.26 29.3135 84.5933 29.1537C84.9174 29.0032 85.2136 28.7963 85.4636 28.533C85.7136 28.2697 85.9081 27.9594 86.0654 27.602Z" fill="#16253D"/>
<path d="M89.6631 23.2293L93.3203 28.5894H93.3666V23.2293H94.0147V29.7179H93.3203L89.6631 24.3577H89.6168V29.7179H88.9687V23.2293H89.6631Z" fill="#16253D"/>
<path fill-rule="evenodd" clip-rule="evenodd" d="M100.128 23.2293L101.702 29.7179H101.054L100.638 28.0722H96.9341L96.5174 29.7179H95.8693L97.4433 23.2293H100.128ZM97.9525 23.8405L97.0729 27.461H100.499L99.6191 23.8405H97.9525Z" fill="#16253D"/>
<path fill-rule="evenodd" clip-rule="evenodd" d="M103.553 23.2293H106.285C106.562 23.2293 106.812 23.2763 107.044 23.3609C107.275 23.4455 107.47 23.5678 107.627 23.7183C107.785 23.8687 107.914 24.038 108.007 24.2355C108.09 24.4329 108.136 24.6492 108.136 24.8749C108.136 25.1382 108.09 25.3545 108.007 25.5144C107.923 25.6742 107.822 25.8059 107.72 25.8999C107.599 26.0128 107.46 26.0974 107.303 26.1444V26.1915C107.59 26.2385 107.84 26.3231 108.062 26.4548C108.155 26.5112 108.247 26.577 108.34 26.6616C108.433 26.7463 108.516 26.8403 108.59 26.9438C108.664 27.0566 108.72 27.1883 108.766 27.3293C108.812 27.4798 108.831 27.649 108.831 27.8371C108.831 28.091 108.784 28.3355 108.683 28.5612C108.581 28.7963 108.442 28.9938 108.266 29.1631C108.081 29.3323 107.859 29.464 107.609 29.5674C107.349 29.6709 107.062 29.7179 106.748 29.7179H103.553V23.2293ZM106.285 23.8405H104.201V25.9564H106.285C106.655 25.9564 106.951 25.8529 107.164 25.6554C107.377 25.458 107.488 25.1946 107.488 24.8749C107.488 24.5928 107.377 24.3483 107.164 24.1414C106.951 23.9439 106.655 23.8405 106.285 23.8405ZM104.201 29.1066H106.748C106.97 29.1066 107.173 29.069 107.349 29.0032C107.525 28.9374 107.673 28.8527 107.794 28.7305C107.914 28.6176 108.016 28.486 108.081 28.3261C108.146 28.1757 108.183 28.0158 108.183 27.8371C108.183 27.6584 108.146 27.4986 108.081 27.3387C108.016 27.1883 107.914 27.0566 107.794 26.9344C107.673 26.8215 107.516 26.7275 107.349 26.6616C107.173 26.5958 106.97 26.5676 106.748 26.5676H104.201V29.1066Z" fill="#16253D"/>
<path d="M111.421 23.2293V29.1066H115.125V29.7179H110.773V23.2293H111.421Z" fill="#16253D"/>
<path d="M117.529 29.1066H121.464V29.7179H116.881V23.2293H121.464V23.8405H117.529V26.1444H120.631V26.7557H117.529V29.1066Z" fill="#16253D"/>
<path d="M125.905 23.2293H126.553V29.7179H125.905V23.2293Z" fill="#16253D"/>
<path d="M129.606 23.2293L133.263 28.5894H133.31V23.2293H133.958V29.7179H133.263L129.606 24.3577H129.56V29.7179H128.912V23.2293H129.606Z" fill="#16253D"/>
<path d="M140.182 28.533C140.266 28.3731 140.303 28.2039 140.303 28.0252C140.303 27.8089 140.247 27.6302 140.136 27.4892C140.016 27.3481 139.868 27.2353 139.673 27.1318C139.479 27.0284 139.266 26.9438 139.025 26.8685C138.84 26.8179 138.655 26.7616 138.465 26.7041L138.384 26.6795L138.294 26.6522C138.044 26.577 137.794 26.4924 137.553 26.3983C137.312 26.3043 137.099 26.1821 136.905 26.041C136.71 25.8999 136.562 25.7307 136.451 25.5238C136.331 25.3263 136.275 25.0724 136.275 24.7809C136.275 24.5458 136.331 24.3201 136.433 24.0944C136.534 23.8781 136.692 23.6806 136.886 23.5114C137.081 23.3421 137.321 23.201 137.608 23.0976C137.886 22.9942 138.201 22.9471 138.544 22.9471C138.877 22.9471 139.173 22.9942 139.442 23.0788C139.701 23.1634 139.932 23.2857 140.127 23.4361C140.321 23.596 140.488 23.7747 140.627 23.9816C140.766 24.1884 140.868 24.4047 140.951 24.6398L140.303 24.7809C140.219 24.5928 140.136 24.4235 140.034 24.2731C139.932 24.1226 139.812 23.991 139.673 23.8875C139.534 23.7841 139.368 23.6994 139.182 23.643C138.997 23.5866 138.784 23.5584 138.544 23.5584C138.294 23.5584 138.062 23.596 137.868 23.6618C137.664 23.7277 137.497 23.8217 137.358 23.9345C137.22 24.0568 137.108 24.1884 137.034 24.3295C136.96 24.48 136.923 24.6304 136.923 24.7809C136.923 25.063 137.025 25.2793 137.22 25.4391C137.414 25.599 137.664 25.7401 137.97 25.8435C138.266 25.9564 138.59 26.0598 138.942 26.1538C139.284 26.2479 139.608 26.3701 139.914 26.5112C140.21 26.6616 140.46 26.8497 140.655 27.0848C140.849 27.3199 140.951 27.6396 140.951 28.0252C140.951 28.2791 140.895 28.533 140.784 28.7681C140.673 29.0032 140.516 29.2195 140.303 29.3982C140.09 29.5768 139.831 29.7273 139.525 29.8401C139.219 29.9436 138.877 30 138.497 30C138.136 30 137.821 29.953 137.534 29.8495C137.247 29.7461 136.997 29.6144 136.784 29.4358C136.571 29.2665 136.386 29.0596 136.247 28.8245C136.099 28.5894 135.988 28.3449 135.905 28.0722L136.553 27.9782C136.636 28.1757 136.729 28.3637 136.849 28.533C136.97 28.7117 137.108 28.8621 137.266 28.9844C137.423 29.1066 137.608 29.2101 137.812 29.2759C138.016 29.3511 138.247 29.3888 138.497 29.3888C138.784 29.3888 139.044 29.3511 139.275 29.2759C139.497 29.2007 139.682 29.0972 139.84 28.9656C139.988 28.8433 140.099 28.6929 140.182 28.533Z" fill="#16253D"/>
<path d="M142.99 23.2293H143.638V29.7179H142.99V23.2293Z" fill="#16253D"/>
<path d="M147.987 29.1631C148.302 29.3135 148.626 29.3888 148.959 29.3888C149.302 29.3888 149.635 29.3229 149.941 29.1913C150.246 29.069 150.505 28.8998 150.737 28.6835C150.959 28.4672 151.135 28.2321 151.265 27.9594C151.394 27.6867 151.459 27.4139 151.459 27.1318H149.33V26.5206H152.107V26.8027C152.107 27.2635 152.033 27.6867 151.876 28.0722C151.718 28.4672 151.496 28.8057 151.218 29.0878C150.931 29.3793 150.598 29.5956 150.218 29.7649C149.83 29.9248 149.413 30 148.959 30C148.524 30 148.117 29.906 147.719 29.7273C147.32 29.5392 146.978 29.2853 146.672 28.9656C146.367 28.6459 146.126 28.2697 145.95 27.8465C145.765 27.4234 145.672 26.9626 145.672 26.4736C145.672 25.9846 145.765 25.5238 145.95 25.1006C146.126 24.6774 146.367 24.3013 146.672 23.9816C146.978 23.6618 147.32 23.4079 147.719 23.2198C148.117 23.0412 148.524 22.9471 148.959 22.9471C149.357 22.9471 149.709 23.0036 150.033 23.1258C150.357 23.2481 150.635 23.3985 150.885 23.5866C151.126 23.7747 151.329 23.9816 151.487 24.2167C151.644 24.4517 151.765 24.6868 151.829 24.9219L151.181 25.016C151.117 24.8373 151.015 24.668 150.885 24.4894C150.755 24.3107 150.598 24.1602 150.413 24.0192C150.228 23.8781 150.015 23.7653 149.774 23.6806C149.533 23.596 149.265 23.5584 148.959 23.5584C148.626 23.5584 148.302 23.6336 147.987 23.7841C147.663 23.9439 147.385 24.1508 147.135 24.4141C146.885 24.6774 146.691 24.9878 146.543 25.3357C146.395 25.6931 146.321 26.0692 146.321 26.4736C146.321 26.8779 146.395 27.2635 146.543 27.6114C146.691 27.9688 146.885 28.2791 147.135 28.5424C147.385 28.8057 147.663 29.0126 147.987 29.1631Z" fill="#16253D"/>
<path d="M154.796 29.7179H154.148V23.2293H154.796V26.1444H158.453V23.2293H159.101V29.7179H158.453V26.7557H154.796V29.7179Z" fill="#16253D"/>
<path d="M163.125 23.8405H160.856V23.2293H166.041V23.8405H163.773V29.7179H163.125V23.8405Z" fill="#16253D"/>
<path d="M38.9166 25.3141H54.9258V25.9916L38.9166 25.9916V25.3141Z" fill="#16253D"/>
<path d="M183 25.3141H166.991V25.9916L183 25.9916V25.3141Z" fill="#16253D"/>
<path d="M201.22 29V8H203.74V17.27H214.63V8H217.15V29H214.63V19.34H203.74V29H201.22ZM242.701 29V21.02L235.861 8H238.711L243.961 18.62L249.211 8H252.031L245.221 21.02V29H242.701ZM270.754 29V8H278.134C279.614 8 280.834 8.24 281.794 8.72C282.774 9.18 283.504 9.82 283.984 10.64C284.464 11.44 284.704 12.34 284.704 13.34C284.704 14.7 284.334 15.77 283.594 16.55C282.874 17.33 282.004 17.87 280.984 18.17C281.764 18.31 282.474 18.62 283.114 19.1C283.754 19.58 284.254 20.18 284.614 20.9C284.994 21.62 285.184 22.41 285.184 23.27C285.184 24.33 284.924 25.3 284.404 26.18C283.884 27.04 283.114 27.73 282.094 28.25C281.074 28.75 279.834 29 278.374 29H270.754ZM273.274 17.18H277.954C279.294 17.18 280.324 16.87 281.044 16.25C281.764 15.61 282.124 14.73 282.124 13.61C282.124 12.55 281.764 11.7 281.044 11.06C280.344 10.42 279.284 10.1 277.864 10.1H273.274V17.18ZM273.274 26.9H278.104C279.544 26.9 280.654 26.57 281.434 25.91C282.214 25.23 282.604 24.29 282.604 23.09C282.604 21.91 282.194 20.97 281.374 20.27C280.554 19.55 279.444 19.19 278.044 19.19H273.274V26.9ZM304.701 29V8H311.481C313.121 8 314.461 8.27 315.501 8.81C316.541 9.35 317.311 10.09 317.811 11.03C318.311 11.97 318.561 13.01 318.561 14.15C318.561 15.47 318.201 16.66 317.481 17.72C316.781 18.78 315.681 19.53 314.181 19.97L318.771 29H315.801L311.541 20.33H311.361H307.221V29H304.701ZM307.221 18.35H311.301C312.921 18.35 314.101 17.96 314.841 17.18C315.581 16.4 315.951 15.4 315.951 14.18C315.951 12.94 315.581 11.96 314.841 11.24C314.121 10.5 312.931 10.13 311.271 10.13H307.221V18.35ZM338.384 29V8H340.904V29H338.384ZM361.257 29V8H367.707C371.407 8 374.127 8.94 375.867 10.82C377.627 12.7 378.507 15.28 378.507 18.56C378.507 21.78 377.627 24.33 375.867 26.21C374.127 28.07 371.407 29 367.707 29H361.257ZM363.777 26.9H367.647C369.687 26.9 371.307 26.57 372.507 25.91C373.727 25.23 374.597 24.27 375.117 23.03C375.637 21.77 375.897 20.28 375.897 18.56C375.897 16.8 375.637 15.29 375.117 14.03C374.597 12.77 373.727 11.8 372.507 11.12C371.307 10.44 369.687 10.1 367.647 10.1H363.777V26.9Z" fill="#16253D"/>
</svg>
