<svg width="1" height="1" viewBox="0 0 16 16" fill="none" xmlns="http://www.w3.org/2000/svg">
<path d="M14.1176 11.7647C14.1176 11.5033 14.0261 11.281 13.8431 11.098L11.8039 9.05882C11.6209 8.87582 11.3987 8.78431 11.1373 8.78431C10.8627 8.78431 10.6275 8.88889 10.4314 9.09804C10.451 9.11765 10.5131 9.17811 10.6176 9.27941C10.7222 9.38072 10.7925 9.45098 10.8284 9.4902C10.8644 9.52941 10.9134 9.5915 10.9755 9.67647C11.0376 9.76144 11.0801 9.84477 11.1029 9.92647C11.1258 10.0082 11.1373 10.098 11.1373 10.1961C11.1373 10.4575 11.0458 10.6797 10.8627 10.8627C10.6797 11.0458 10.4575 11.1373 10.1961 11.1373C10.098 11.1373 10.0082 11.1258 9.92647 11.1029C9.84477 11.0801 9.76144 11.0376 9.67647 10.9755C9.5915 10.9134 9.52941 10.8644 9.4902 10.8284C9.45098 10.7925 9.38072 10.7222 9.27941 10.6176C9.17811 10.5131 9.11765 10.451 9.09804 10.4314C8.88235 10.634 8.77451 10.8725 8.77451 11.1471C8.77451 11.4085 8.86601 11.6307 9.04902 11.8137L11.0686 13.8431C11.2451 14.0196 11.4673 14.1078 11.7353 14.1078C11.9967 14.1078 12.219 14.0229 12.402 13.8529L13.8431 12.4216C14.0261 12.2386 14.1176 12.0196 14.1176 11.7647ZM7.22549 4.85294C7.22549 4.5915 7.13399 4.36928 6.95098 4.18627L4.93137 2.15686C4.74837 1.97386 4.52614 1.88235 4.26471 1.88235C4.0098 1.88235 3.78758 1.97059 3.59804 2.14706L2.15686 3.57843C1.97386 3.76144 1.88235 3.98039 1.88235 4.23529C1.88235 4.49673 1.97386 4.71895 2.15686 4.90196L4.19608 6.94118C4.37255 7.11765 4.59477 7.20588 4.86275 7.20588C5.13726 7.20588 5.37255 7.10458 5.56863 6.90196C5.54902 6.88235 5.48693 6.8219 5.38235 6.72059C5.27778 6.61928 5.20752 6.54902 5.17157 6.5098C5.13562 6.47059 5.0866 6.4085 5.02451 6.32353C4.96242 6.23856 4.91993 6.15523 4.89706 6.07353C4.87418 5.99183 4.86275 5.90196 4.86275 5.80392C4.86275 5.54248 4.95425 5.32026 5.13726 5.13726C5.32026 4.95425 5.54248 4.86275 5.80392 4.86275C5.90196 4.86275 5.99183 4.87418 6.07353 4.89706C6.15523 4.91993 6.23856 4.96242 6.32353 5.02451C6.4085 5.0866 6.47059 5.13562 6.5098 5.17157C6.54902 5.20752 6.61928 5.27778 6.72059 5.38235C6.8219 5.48693 6.88235 5.54902 6.90196 5.56863C7.11765 5.36601 7.22549 5.12745 7.22549 4.85294ZM16 11.7647C16 12.549 15.7222 13.2124 15.1667 13.7549L13.7255 15.1863C13.183 15.7288 12.5196 16 11.7353 16C10.9444 16 10.2778 15.7222 9.73529 15.1667L7.71569 13.1373C7.1732 12.5948 6.90196 11.9314 6.90196 11.1471C6.90196 10.3431 7.18954 9.66013 7.76471 9.09804L6.90196 8.23529C6.33987 8.81046 5.66013 9.09804 4.86275 9.09804C4.07843 9.09804 3.41176 8.82353 2.86275 8.27451L0.823529 6.23529C0.27451 5.68627 0 5.01961 0 4.23529C0 3.45098 0.277778 2.78758 0.833333 2.2451L2.27451 0.813726C2.81699 0.271242 3.48039 0 4.26471 0C5.05556 0 5.72222 0.277778 6.26471 0.833333L8.28431 2.86275C8.8268 3.40523 9.09804 4.06863 9.09804 4.85294C9.09804 5.65686 8.81046 6.33987 8.23529 6.90196L9.09804 7.76471C9.66013 7.18954 10.3399 6.90196 11.1373 6.90196C11.9216 6.90196 12.5882 7.17647 13.1373 7.72549L15.1765 9.76471C15.7255 10.3137 16 10.9804 16 11.7647Z" fill="#7284A0"/>
</svg>
