<svg width="462" height="204" viewBox="0 0 462 204" fill="none" xmlns="http://www.w3.org/2000/svg">
<g filter="url(#filter0_d)">
<g clip-path="url(#clip0)">
<rect x="4.00002" y="196" width="196" height="454" rx="12" transform="rotate(-90 4.00002 196)" fill="url(#paint0_linear)"/>
<g opacity="0.15" filter="url(#filter1_f)">
<path opacity="0.8" d="M203.724 146.523L160.663 215.361C153.997 226.018 161.658 239.847 174.228 239.847H442C450.837 239.847 458 232.683 458 223.847V67.7482C458 51.6764 436.959 45.6374 428.435 59.263L411.839 85.7938C405.572 95.8135 390.978 95.8135 384.71 85.7938L369.308 61.1712C363.04 51.1515 348.446 51.1515 342.178 61.1713L273.385 171.146C267.117 181.166 252.523 181.166 246.256 171.146L230.853 146.523C224.586 136.504 209.992 136.504 203.724 146.523Z" fill="url(#paint1_linear)"/>
<path opacity="0.8" d="M145.347 239.847L203.724 146.523C209.992 136.504 224.586 136.504 230.853 146.523L246.256 171.146C252.523 181.166 267.117 181.166 273.385 171.146L342.178 61.1713C348.446 51.1515 363.04 51.1515 369.308 61.1712L384.71 85.7938C390.978 95.8135 405.572 95.8135 411.839 85.7938L428.435 59.263C436.959 45.6374 458 51.6764 458 67.7482V239.847" stroke="#F5F5FB" stroke-width="8"/>
</g>
</g>
</g>
<defs>
<filter id="filter0_d" x="-1.52588e-05" y="-7.62939e-06" width="462" height="204" filterUnits="userSpaceOnUse" color-interpolation-filters="sRGB">
<feFlood flood-opacity="0" result="BackgroundImageFix"/>
<feColorMatrix in="SourceAlpha" type="matrix" values="0 0 0 0 0 0 0 0 0 0 0 0 0 0 0 0 0 0 127 0"/>
<feOffset dy="4"/>
<feGaussianBlur stdDeviation="2"/>
<feColorMatrix type="matrix" values="0 0 0 0 0 0 0 0 0 0 0 0 0 0 0 0 0 0 0.25 0"/>
<feBlend mode="normal" in2="BackgroundImageFix" result="effect1_dropShadow"/>
<feBlend mode="normal" in="SourceGraphic" in2="effect1_dropShadow" result="shape"/>
</filter>
<filter id="filter1_f" x="139.955" y="45.7127" width="324.045" height="198.255" filterUnits="userSpaceOnUse" color-interpolation-filters="sRGB">
<feFlood flood-opacity="0" result="BackgroundImageFix"/>
<feBlend mode="normal" in="SourceGraphic" in2="BackgroundImageFix" result="shape"/>
<feGaussianBlur stdDeviation="1" result="effect1_foregroundBlur"/>
</filter>
<linearGradient id="paint0_linear" x1="4.00002" y1="196" x2="187.868" y2="654.861" gradientUnits="userSpaceOnUse">
<stop stop-color="#13C8C5"/>
<stop offset="1" stop-color="#1792DF"/>
</linearGradient>
<linearGradient id="paint1_linear" x1="301.673" y1="12.0001" x2="301.673" y2="239.847" gradientUnits="userSpaceOnUse">
<stop stop-color="white"/>
<stop offset="1" stop-color="white" stop-opacity="0"/>
</linearGradient>
<clipPath id="clip0">
<rect x="4" y="196" width="196" height="454" rx="24" transform="rotate(-90 4 196)" fill="white"/>
</clipPath>
</defs>
</svg>
