<svg width="16" height="16" viewBox="0 0 16 16" fill="none" xmlns="http://www.w3.org/2000/svg">
<path d="M11.8364 5H10.8743C10.6651 5 10.4661 5.09246 10.343 5.25096L7.11831 9.36444L5.65775 7.50016C5.53467 7.34355 5.33774 7.2492 5.12645 7.2492H4.16437C4.03103 7.2492 3.95308 7.38883 4.03103 7.48884L6.58701 10.7494C6.64739 10.827 6.72699 10.8901 6.81921 10.9337C6.91143 10.9773 7.01361 11 7.11728 11C7.22096 11 7.32314 10.9773 7.41536 10.9337C7.50758 10.8901 7.58717 10.827 7.64756 10.7494L11.9677 5.23964C12.0477 5.13963 11.9697 5 11.8364 5Z" fill="#FAFAFA"/>
<path d="M8 0C3.58214 0 0 3.58214 0 8C0 12.4179 3.58214 16 8 16C12.4179 16 16 12.4179 16 8C16 3.58214 12.4179 0 8 0ZM8 14.6429C4.33214 14.6429 1.35714 11.6679 1.35714 8C1.35714 4.33214 4.33214 1.35714 8 1.35714C11.6679 1.35714 14.6429 4.33214 14.6429 8C14.6429 11.6679 11.6679 14.6429 8 14.6429Z" fill="#FAFAFA"/>
</svg>
