<svg width="48" height="48" viewBox="0 0 48 48" fill="none" xmlns="http://www.w3.org/2000/svg">
<path d="M47.8513 23.9253C47.8513 37.0892 37.1631 47.8045 24.0103 47.8514H23.926C10.7344 47.8514 0 37.1177 0 23.9253C0 10.7337 10.7344 0 23.926 0H24.0103C37.1631 0.0468751 47.8513 10.7622 47.8513 23.9253Z" fill="#29AC80"/>
<path d="M34.7853 20.4799L24.0099 31.2568L21.6815 33.5852C21.1315 34.1352 20.41 34.4099 19.6893 34.4099C18.9679 34.4099 18.2472 34.1352 17.6964 33.5852L12.6903 28.5769C11.5902 27.4768 11.5902 25.6948 12.6903 24.5939C13.7889 23.4938 15.5731 23.4938 16.6732 24.5939L19.6893 27.6101L30.8024 16.497C31.9025 15.3962 33.6866 15.3962 34.7853 16.497C35.8854 17.5971 35.8854 19.3813 34.7853 20.4799Z" fill="white"/>
</svg>
