<svg width="20" height="20" viewBox="0 0 20 20" fill="none" xmlns="http://www.w3.org/2000/svg">
<path d="M8.90625 15.5469C8.90625 15.2517 9.01042 14.9913 9.21875 14.7656C9.42708 14.5399 9.6875 14.4271 10 14.4271C10.3125 14.4271 10.5729 14.5399 10.7812 14.7656C10.9896 14.9913 11.0938 15.2517 11.0938 15.5469C11.0938 15.842 10.9896 16.1024 10.7812 16.3281C10.5729 16.5538 10.3125 16.6667 10 16.6667C9.6875 16.6667 9.42708 16.5538 9.21875 16.3281C9.01042 16.1024 8.90625 15.842 8.90625 15.5469ZM8.90625 0H10C12.7778 0 15.1389 0.972222 17.0833 2.91667C19.0278 4.86111 20 7.22222 20 10C20 12.7778 19.0278 15.1389 17.0833 17.0833C15.1389 19.0278 12.7778 20 10 20C7.22222 20 4.86111 19.0278 2.91667 17.0833C0.972222 15.1389 0 12.7778 0 10C0 8.40278 0.355903 6.90104 1.06771 5.49479C1.77951 4.08854 2.76042 2.93403 4.01042 2.03125V1.97917L11.5625 9.53125L10 11.0938L3.95833 5.10417C2.8125 6.52778 2.23958 8.15972 2.23958 10C2.23958 12.1528 2.99479 13.9844 4.50521 15.4948C6.01562 17.0052 7.84722 17.7604 10 17.7604C12.1528 17.7604 13.9844 17.0052 15.4948 15.4948C17.0052 13.9844 17.7604 12.1528 17.7604 10C17.7604 8.05556 17.1267 6.35417 15.8594 4.89583C14.592 3.4375 13.0035 2.56944 11.0938 2.29167V4.42708H8.90625V0ZM16.6667 10C16.6667 10.3125 16.5538 10.5729 16.3281 10.7812C16.1024 10.9896 15.842 11.0938 15.5469 11.0938C15.2517 11.0938 14.9913 10.9896 14.7656 10.7812C14.5399 10.5729 14.4271 10.3125 14.4271 10C14.4271 9.6875 14.5399 9.42708 14.7656 9.21875C14.9913 9.01042 15.2517 8.90625 15.5469 8.90625C15.842 8.90625 16.1024 9.01042 16.3281 9.21875C16.5538 9.42708 16.6667 9.6875 16.6667 10ZM3.33333 10C3.33333 9.6875 3.44618 9.42708 3.67188 9.21875C3.89757 9.01042 4.15799 8.90625 4.45312 8.90625C4.74826 8.90625 5.00868 9.01042 5.23438 9.21875C5.46007 9.42708 5.57292 9.6875 5.57292 10C5.57292 10.3125 5.46007 10.5729 5.23438 10.7812C5.00868 10.9896 4.74826 11.0938 4.45312 11.0938C4.15799 11.0938 3.89757 10.9896 3.67188 10.7812C3.44618 10.5729 3.33333 10.3125 3.33333 10Z" fill="#6E98E9"/>
</svg>
