<?xml version="1.0" encoding="utf-8"?>
<!-- Generator: Adobe Illustrator 22.1.0, SVG Export Plug-In . SVG Version: 6.00 Build 0)  -->
<svg version="1.1" id="Calque_1" xmlns="http://www.w3.org/2000/svg" xmlns:xlink="http://www.w3.org/1999/xlink" x="0px" y="0px"
	 viewBox="0 0 2000 2000" style="enable-background:new 0 0 2000 2000;" xml:space="preserve">
<style type="text/css">
	.st0{fill:#F2B21E;}
	.st1{fill:#FFFFFF;}
	.st2{opacity:0.7;}
	.st3{fill:#B96428;}
	.st4{opacity:0.7;fill:#B96428;enable-background:new    ;}
	.st5{opacity:0.5;fill:#B96428;enable-background:new    ;}
</style>
<g>
	<path class="st0" d="M1245.6,1772.3H820.4c-186.6,0-339-152.7-339-339V537c0-186.6,152.7-339,339-339h425.2
		c186.6,0,339,152.7,339,339v896.2C1584.6,1619.6,1432.1,1772.3,1245.6,1772.3z"/>
	<path class="st1" d="M618.3,1352.1l-137,64.6v16.5c0,97,41.4,185,107.4,246.9l115.2-88.4L618.3,1352.1z"/>
	<g class="st2">
		<path class="st3" d="M1341.9,212c-30.7-9.1-62.8-14-96.4-14H820.3c-51.2,0-99.8,11.5-143.5,32l336,124.9L1341.9,212z"/>
		<path class="st3" d="M1584.6,1433.3v-117.1l-601.7,456.1h262.6C1432.1,1772.3,1584.6,1619.6,1584.6,1433.3z"/>
	</g>
	<polygon class="st4" points="555.9,707.3 481.3,736.4 481.3,1163.1 555.9,1127.4 	"/>
	<path class="st1" d="M1280.6,559.9l261.3-187.2c-15.9-28.5-35.8-54.5-59-77.2L904.5,559.9H1280.6z"/>
	<path class="st1" d="M1568,432.4l-197.6,185.8V676h-61.4l-194,182.6l125.4-79c6.8-24.7,29.5-42.9,56.4-42.9c3.4,0,6.8,0.4,10.1,0.9
		l277.9-175.1v-25.4C1584.6,500.5,1578.7,465.3,1568,432.4z"/>
	<polygon class="st4" points="982.8,1045.2 641.1,1266.5 1314.9,1045.2 	"/>
	<polygon class="st1" points="697.4,919.1 779.4,919.1 1132.7,666 705,666 705,651.2 574.3,711 574.3,1066.2 697.4,978.1 	"/>
	<path class="st4" d="M1351.2,806.6c-5.8,24.7-28,43.3-54.6,43.3c-3.7,0-7.2-0.4-10.6-1l-108.8,70.4h193V1027l214.2-70.4V655.4
		L1351.2,806.6z"/>
	<polygon class="st4" points="699.2,551.7 699.2,622.4 1369.3,586.4 1369.3,551.7 	"/>
	<polygon class="st4" points="699.2,926.2 699.2,996.9 1369.3,961 1369.3,926.2 	"/>
	<polygon class="st5" points="699.2,1299.5 699.2,1370.2 1369.3,1334.3 1369.3,1299.5 	"/>
	<g>
		<path class="st1" d="M543.2,342.4c-24,34.1-42,72.8-52.1,114.3l150.1-57.4L543.2,342.4z"/>
	</g>
	<g>
		<path class="st3" d="M1213.6,288.6H852.5c-163.3,0-296.6,133.5-296.6,296.6v799.9c0,163.3,133.5,296.6,296.6,296.6h361.1
			c163.3,0,296.6-133.5,296.6-296.6V585.2C1510.2,422,1376.7,288.6,1213.6,288.6z M1489.6,1385.1c0,37.1-7.3,73.2-21.8,107.1
			c-14,32.8-33.9,62.5-59.3,87.8s-55,45.3-87.8,59.3c-34.1,14.5-70,21.8-107.1,21.8H852.5c-37.1,0-73.2-7.3-107.1-21.8
			c-32.8-14-62.5-33.9-87.8-59.3c-25.4-25.4-45.3-55-59.3-87.8c-14.5-34.1-21.8-70-21.8-107.1V585.2c0-37.1,7.3-73.2,21.8-107.1
			c14-32.8,33.9-62.5,59.3-87.8c25.5-25.5,55-45.3,87.8-59.3c34.1-14.5,70-21.8,107.1-21.8h361.1c37.1,0,73.2,7.3,107.1,21.8
			c32.8,14,62.5,33.9,87.8,59.3c25.4,25.4,45.3,55,59.3,87.8c14.5,34.1,21.8,70,21.8,107.1V1385.1L1489.6,1385.1z"/>
		<path class="st3" d="M688.3,681.9h689.2v-139H688.3V681.9z M704.7,559.4H1361v106H704.7V559.4z"/>
		<path class="st3" d="M688.3,1054.6h689.2v-139H688.3V1054.6z M704.7,932.1H1361v106H704.7V932.1z"/>
		<path class="st3" d="M688.3,1427.3h689.2v-138.9H688.3V1427.3z M704.7,1304.8H1361v106H704.7V1304.8z"/>
		<path class="st3" d="M1360.3,795c0-35.1-28.5-63.6-63.6-63.6s-63.6,28.5-63.6,63.6s28.5,63.6,63.6,63.6S1360.3,830.1,1360.3,795z
			 M1249.5,795c0-26,21.1-47.1,47.1-47.1c26,0,47.1,21.1,47.1,47.1s-21.1,47.1-47.1,47.1C1270.6,842,1249.5,820.9,1249.5,795z"/>
		<path class="st3" d="M1181.3,441.3c4.5,0,8.2-3.7,8.2-8.2v-67.5c0-4.5-3.7-8.2-8.2-8.2c-4.5,0-8.2,3.7-8.2,8.2v67.5
			C1173.1,437.6,1176.7,441.3,1181.3,441.3z"/>
		<path class="st3" d="M1240.2,441.3c4.5,0,8.2-3.7,8.2-8.2v-67.5c0-4.5-3.7-8.2-8.2-8.2c-4.5,0-8.2,3.7-8.2,8.2v67.5
			C1231.9,437.6,1235.5,441.3,1240.2,441.3z"/>
		<path class="st3" d="M1296.7,441.3c4.5,0,8.2-3.7,8.2-8.2v-67.5c0-4.5-3.7-8.2-8.2-8.2c-4.5,0-8.2,3.7-8.2,8.2v67.5
			C1288.4,437.6,1292,441.3,1296.7,441.3z"/>
		<path class="st3" d="M739.4,1558.8l119.5,45.5l-16.8-123.9L739.4,1558.8z M773,1553.9l56.5-43.1l9.3,68.3L773,1553.9z"/>
	</g>
</g>
</svg>
