<svg width="51" height="54" viewBox="0 0 51 54" fill="none" xmlns="http://www.w3.org/2000/svg">
<path d="M25.5098 19.6479C23.7104 19.6479 22.0254 20.348 20.7495 21.6275C19.4797 22.9069 18.7756 24.5968 18.7756 26.4014C18.7756 28.2059 19.4797 29.8958 20.7495 31.1753C22.0254 32.4487 23.7104 33.1549 25.5098 33.1549C27.3092 33.1549 28.9942 32.4487 30.27 31.1753C31.5398 29.8958 32.2439 28.2059 32.2439 26.4014C32.2439 24.5968 31.5398 22.9069 30.27 21.6275C29.6469 20.9977 28.9052 20.4984 28.088 20.1586C27.2708 19.8188 26.3944 19.6452 25.5098 19.6479ZM50.322 33.861L46.3862 30.4873C46.5728 29.3405 46.6691 28.1697 46.6691 27.0049C46.6691 25.8401 46.5728 24.6632 46.3862 23.5225L50.322 20.1488C50.6193 19.8936 50.8321 19.5536 50.9321 19.1741C51.0321 18.7946 51.0145 18.3936 50.8817 18.0244L50.8275 17.8675C49.7444 14.8299 48.1214 12.0142 46.0372 9.55688L45.9289 9.43014C45.6758 9.1317 45.3385 8.91718 44.9614 8.81482C44.5843 8.71247 44.1852 8.7271 43.8166 8.85678L38.9299 10.601C37.1245 9.1163 35.1145 7.94546 32.936 7.13069L31.9912 2.00673C31.9199 1.62073 31.7332 1.26561 31.4559 0.988567C31.1785 0.711519 30.8237 0.525654 30.4385 0.455664L30.276 0.425488C27.1467 -0.141829 23.8488 -0.141829 20.7195 0.425488L20.557 0.455664C20.1718 0.525654 19.817 0.711519 19.5396 0.988567C19.2623 1.26561 19.0756 1.62073 19.0043 2.00673L18.0535 7.15483C15.8956 7.97609 13.8854 9.1441 12.1017 10.6131L7.17894 8.85678C6.81044 8.72607 6.41099 8.71092 6.03369 8.81333C5.65639 8.91574 5.31909 9.13087 5.06663 9.43014L4.9583 9.55688C2.87783 12.0168 1.25525 14.8318 0.167969 17.8675L0.113807 18.0244C-0.157003 18.7788 0.0656631 19.6237 0.673482 20.1488L4.6574 23.5587C4.47084 24.6934 4.38057 25.8522 4.38057 26.9989C4.38057 28.1576 4.47084 29.3164 4.6574 30.439L0.685517 33.8489C0.388202 34.1042 0.17541 34.4441 0.075436 34.8236C-0.024538 35.2031 -0.00695658 35.6041 0.125843 35.9733L0.180005 36.1302C1.26926 39.166 2.87607 41.9724 4.97034 44.4408L5.07866 44.5676C5.33174 44.866 5.66905 45.0805 6.04613 45.1829C6.42321 45.2852 6.82236 45.2706 7.19098 45.1409L12.1137 43.3847C13.9071 44.8633 15.9051 46.0342 18.0655 46.8429L19.0164 51.991C19.0876 52.377 19.2744 52.7321 19.5517 53.0091C19.829 53.2862 20.1838 53.4721 20.569 53.542L20.7315 53.5722C23.8916 54.1426 27.1279 54.1426 30.2881 53.5722L30.4506 53.542C30.8357 53.4721 31.1906 53.2862 31.4679 53.0091C31.7452 52.7321 31.9319 52.377 32.0032 51.991L32.948 46.867C35.1266 46.0462 37.1366 44.8814 38.942 43.3967L43.8286 45.1409C44.1971 45.2716 44.5965 45.2868 44.9739 45.1844C45.3512 45.082 45.6884 44.8668 45.9409 44.5676L46.0492 44.4408C48.1435 41.9603 49.7503 39.166 50.8396 36.1302L50.8937 35.9733C51.1525 35.225 50.9298 34.386 50.322 33.861ZM25.5098 37.0114C19.6663 37.0114 14.9301 32.2616 14.9301 26.4014C14.9301 20.5411 19.6663 15.7913 25.5098 15.7913C31.3533 15.7913 36.0894 20.5411 36.0894 26.4014C36.0894 32.2616 31.3533 37.0114 25.5098 37.0114Z" fill="#F8FAFF"/>
</svg>
