<svg width="16" height="16" viewBox="0 0 16 16" fill="none" xmlns="http://www.w3.org/2000/svg">
<circle cx="8" cy="8" r="8" fill="#366CE5"/>
<path d="M12.4322 9.17034C12.3372 9.23481 12.2264 9.27286 12.1113 9.28047C11.9963 9.28808 11.8813 9.26498 11.7784 9.2136C11.537 9.07918 11.4068 8.764 11.4068 8.33449V7.01815C11.4068 6.38625 11.1529 5.93666 10.728 5.8146C10.0099 5.60757 9.47374 6.47431 9.26679 6.80031L7.99686 8.8258V6.3538C7.98275 5.7837 7.79462 5.44226 7.43872 5.34029C7.20355 5.27231 6.8508 5.30012 6.50745 5.81615L3.66815 10.3075C3.29037 9.59519 3.09448 8.80291 3.09747 7.99923C3.09747 5.29239 5.2924 3.09077 7.99686 3.09077C10.7013 3.09077 12.9041 5.29239 12.9041 7.99923V8.01313C12.9041 8.01313 12.9041 8.0224 12.9041 8.02704C12.9308 8.55079 12.7583 8.96794 12.4338 9.17034H12.4322ZM14 8.00077V7.97451C13.9781 4.67594 11.294 2 7.99686 2C4.69976 2 2 4.69139 2 7.99923C2 11.3071 4.69036 14 7.99686 14C9.51337 13.9999 10.9722 13.4271 12.0732 12.3994C12.18 12.3002 12.2429 12.1634 12.2482 12.0188C12.2535 11.8742 12.2007 11.7334 12.1014 11.6269C12.0538 11.5751 11.9964 11.533 11.9323 11.5032C11.8682 11.4733 11.7987 11.4562 11.7279 11.4529C11.6571 11.4496 11.5863 11.4602 11.5196 11.4839C11.453 11.5077 11.3917 11.5442 11.3394 11.5913C10.8654 12.0344 10.3054 12.3786 9.69311 12.6031C9.08078 12.8276 8.42872 12.9279 7.77609 12.8978C7.12346 12.8678 6.48371 12.7082 5.89526 12.4284C5.30681 12.1487 4.78178 11.7547 4.35171 11.27L6.90724 7.22209V9.09C6.90724 9.98764 7.25999 10.2781 7.55631 10.3631C7.85263 10.448 8.30572 10.3893 8.78077 9.6292L10.1918 7.37814C10.2357 7.30552 10.278 7.24372 10.3157 7.18965V8.33449C10.3157 9.17343 10.6574 9.84396 11.2563 10.1746C11.5287 10.3195 11.8355 10.3895 12.1448 10.3772C12.454 10.365 12.7542 10.271 13.0138 10.1051C13.6723 9.68328 14.0314 8.92005 13.9937 8.00077H14Z" fill="#F5F5FB"/>
</svg>