<svg width="16" height="16" viewBox="0 0 16 16" fill="none" xmlns="http://www.w3.org/2000/svg">
<circle cx="8" cy="8" r="8" fill="#651CE4"/>
<path fill-rule="evenodd" clip-rule="evenodd" d="M9.15614 12.9924C8.94746 13.0968 8.72138 13.0968 8.5127 13.1142C8.14751 13.1663 7.76492 13.1489 7.39973 13.1142C6.93019 13.062 6.46065 12.9403 6.00851 12.7837C5.45202 12.5924 4.9477 12.2968 4.46078 11.9838C4.28688 11.8621 4.13036 11.7229 3.97385 11.5838C3.62605 11.2882 3.33041 10.9404 3.06956 10.5752C3.03478 10.523 3 10.4708 3 10.4187C3.41737 9.4796 3.57388 8.48835 3.66083 7.47972C3.69561 7.01019 3.713 6.54065 3.79995 6.07111C3.8869 5.53202 4.09558 5.04509 4.47817 4.62773C4.82597 4.26253 5.26073 4.01907 5.73027 3.84517C6.11285 3.68865 6.51283 3.54953 6.94758 3.53214C7.34756 3.51475 7.73014 3.56692 8.11273 3.65387C8.6866 3.79299 9.26048 3.9669 9.79958 4.22775C10.2343 4.40165 10.6865 4.57555 11.1386 4.71468C11.6082 4.8538 12.0777 5.01031 12.4777 5.30594C12.982 5.68853 13.1211 6.17546 12.895 6.76672C12.7559 7.13192 12.4951 7.41016 12.2342 7.6884C11.7647 8.17533 11.2604 8.62748 10.8082 9.13179C10.2865 9.74045 9.81697 10.3665 9.48655 11.0969C9.20831 11.7055 9.0518 12.3316 9.15614 12.9924ZM12.5125 7.27104C12.4951 7.27104 12.4777 7.27104 12.4603 7.28843C12.4429 7.28843 12.4255 7.30582 12.4255 7.32321C12.4255 7.32321 12.4255 7.32321 12.4255 7.3406C12.4429 7.3406 12.4603 7.32321 12.4603 7.30582L12.5125 7.27104C12.5472 7.27104 12.5298 7.27104 12.5125 7.27104C12.5125 7.27104 12.5298 7.25365 12.5125 7.27104ZM7.19104 4.24514C6.53022 4.24514 5.99112 4.78424 5.99112 5.42768C5.99112 6.0885 6.53021 6.61021 7.17365 6.6276C7.83448 6.6276 8.35619 6.0885 8.37358 5.42768C8.37358 4.76685 7.85187 4.24514 7.19104 4.24514ZM8.1649 7.89709C8.26924 8.0536 8.46053 8.19272 8.6866 8.26228C9.13875 8.41879 9.59089 8.41879 10.043 8.33184C10.843 8.17533 11.5908 7.89709 12.269 7.44494C12.3038 7.41016 12.3733 7.41016 12.3907 7.3406C12.3559 7.32321 12.3386 7.3406 12.3212 7.35799C12.0951 7.49711 11.8516 7.60145 11.6082 7.70579C10.9821 7.96665 10.3213 8.14055 9.62568 8.17533C9.12136 8.21011 8.61704 8.17533 8.1649 7.89709ZM11.4516 6.87106C11.5908 6.87106 11.7125 6.74933 11.7125 6.59282C11.7125 6.4537 11.5908 6.33197 11.4343 6.34936C11.2951 6.34936 11.1908 6.47109 11.1908 6.61021C11.1908 6.76672 11.2951 6.87106 11.4516 6.87106Z" fill="white"/>
<path fill-rule="evenodd" clip-rule="evenodd" d="M7.19089 4.24512C7.85172 4.24512 8.37343 4.78421 8.37343 5.42765C8.37343 6.08848 7.83433 6.61019 7.1735 6.62758C6.51267 6.62758 5.99097 6.08848 5.99097 5.42765C5.99097 4.76682 6.53006 4.24512 7.19089 4.24512ZM8.02562 5.44504C8.02562 4.97551 7.66043 4.61031 7.19089 4.61031C6.72136 4.61031 6.35616 4.97551 6.35616 5.44504C6.35616 5.89719 6.72136 6.27977 7.1735 6.27977H7.19089C7.64304 6.27977 8.00823 5.91458 8.02562 5.44504Z" fill="#651CE4"/>
<path fill-rule="evenodd" clip-rule="evenodd" d="M8.16478 7.89705C8.61692 8.17529 9.12124 8.21007 9.62556 8.19268C10.3212 8.1579 10.982 8.00139 11.608 7.72315C11.8515 7.6188 12.095 7.51446 12.321 7.37534C12.3384 7.35795 12.3558 7.34056 12.3906 7.35795C12.3732 7.41012 12.321 7.42751 12.2689 7.46229C11.5906 7.91444 10.8429 8.19268 10.0429 8.34919C9.59077 8.43614 9.12124 8.43614 8.68648 8.27963C8.46041 8.19268 8.25173 8.05356 8.16478 7.89705ZM8.09521 3.65383C8.46041 3.54949 8.84299 3.51471 9.20819 3.65383C9.48643 3.75817 9.69511 3.94947 9.78207 4.2451C9.26036 3.96686 8.68648 3.79295 8.09521 3.65383Z" fill="#651CE4"/>
<path fill-rule="evenodd" clip-rule="evenodd" d="M11.4515 6.87107C11.3124 6.87107 11.1907 6.74934 11.1907 6.61022C11.1907 6.4711 11.295 6.34937 11.4341 6.34937C11.5733 6.34937 11.695 6.45371 11.7124 6.59283C11.695 6.74934 11.5906 6.87107 11.4515 6.87107Z" fill="#651CE4"/>
<path fill-rule="evenodd" clip-rule="evenodd" d="M12.4603 7.30584C12.4603 7.32323 12.4429 7.34062 12.4255 7.34062C12.4255 7.30584 12.4429 7.28845 12.4603 7.30584ZM12.5125 7.27106L12.4603 7.30584L12.4429 7.28845C12.4777 7.27106 12.4951 7.27106 12.5125 7.27106Z" fill="white"/>
<path fill-rule="evenodd" clip-rule="evenodd" d="M8.02566 5.44502C8.02566 5.89716 7.66047 6.27975 7.20832 6.27975H7.19093C6.73879 6.27975 6.3562 5.91455 6.3562 5.44502V5.42763C6.3562 4.95809 6.73879 4.5929 7.19093 4.5929C7.64308 4.5929 8.02566 4.97548 8.02566 5.44502Z" fill="#651CE4"/>
</svg>