<svg width="16" height="16" viewBox="0 0 16 16" fill="none" xmlns="http://www.w3.org/2000/svg">
<circle cx="8" cy="8" r="8" fill="#366CE5"/>
<path d="M8.99988 12.9994H4.00047C3.86792 13.004 3.73584 12.9813 3.61245 12.9327C3.48905 12.8841 3.37698 12.8106 3.28319 12.7168C3.18941 12.623 3.11593 12.511 3.06731 12.3876C3.01869 12.2642 2.99598 12.1321 3.00058 11.9995V7.00012C2.99598 6.86757 3.01869 6.73549 3.06731 6.6121C3.11593 6.4887 3.18941 6.37663 3.28319 6.28284C3.37698 6.18906 3.48905 6.11558 3.61245 6.06696C3.73584 6.01834 3.86792 5.99563 4.00047 6.00023H6.00023V4.00047C5.99563 3.86792 6.01834 3.73584 6.06696 3.61245C6.11558 3.48905 6.18906 3.37698 6.28284 3.28319C6.37663 3.18941 6.4887 3.11593 6.6121 3.06731C6.73549 3.01869 6.86757 2.99598 7.00012 3.00058H11.9995C12.1321 2.99598 12.2642 3.01869 12.3876 3.06731C12.511 3.11593 12.623 3.18941 12.7168 3.28319C12.8106 3.37698 12.8841 3.48905 12.9327 3.61245C12.9813 3.73584 13.004 3.86792 12.9994 4.00047V8.99988C13.0039 9.13241 12.9812 9.26446 12.9325 9.38782C12.8839 9.51118 12.8104 9.62322 12.7166 9.71699C12.6229 9.81076 12.5108 9.88425 12.3875 9.93289C12.2641 9.98154 12.1321 10.0043 11.9995 9.99977H9.99977V11.9995C10.0043 12.1321 9.98154 12.2641 9.93289 12.3875C9.88425 12.5108 9.81076 12.6229 9.71699 12.7166C9.62322 12.8104 9.51118 12.8839 9.38782 12.9325C9.26446 12.9812 9.13241 13.0039 8.99988 12.9994ZM4.00047 7.00012V11.9995H8.99988V9.99977H7.00012C6.86759 10.0043 6.73554 9.98154 6.61218 9.93289C6.48882 9.88425 6.37678 9.81076 6.28301 9.71699C6.18924 9.62322 6.11575 9.51118 6.06711 9.38782C6.01846 9.26446 5.9957 9.13241 6.00023 8.99988V7.00012H4.00047ZM7.00012 4.00047V8.99988H11.9995V4.00047H7.00012Z" fill="#F5F5FB"/>
</svg>
