<svg width="16" height="12" viewBox="0 0 16 12" fill="none" xmlns="http://www.w3.org/2000/svg">
<path d="M13.2 10.5H2.8C2.58 10.5 2.4 10.6687 2.4 10.875V11.625C2.4 11.8313 2.58 12 2.8 12H13.2C13.42 12 13.6 11.8313 13.6 11.625V10.875C13.6 10.6687 13.42 10.5 13.2 10.5ZM14.8 3C14.1375 3 13.6 3.50391 13.6 4.125C13.6 4.29141 13.64 4.44609 13.71 4.58906L11.9 5.60625C11.515 5.82188 11.0175 5.7 10.795 5.33438L8.7575 1.99219C9.025 1.78594 9.2 1.47656 9.2 1.125C9.2 0.503906 8.6625 0 8 0C7.3375 0 6.8 0.503906 6.8 1.125C6.8 1.47656 6.975 1.78594 7.2425 1.99219L5.205 5.33438C4.9825 5.7 4.4825 5.82188 4.1 5.60625L2.2925 4.58906C2.36 4.44844 2.4025 4.29141 2.4025 4.125C2.4025 3.50391 1.865 3 1.2025 3C0.54 3 0 3.50391 0 4.125C0 4.74609 0.5375 5.25 1.2 5.25C1.265 5.25 1.33 5.24062 1.3925 5.23125L3.2 9.75H12.8L14.6075 5.23125C14.67 5.24062 14.735 5.25 14.8 5.25C15.4625 5.25 16 4.74609 16 4.125C16 3.50391 15.4625 3 14.8 3Z" fill="#F29C38"/>
</svg>
