<svg width="143" height="51" viewBox="0 4 143 39" fill="none" xmlns="http://www.w3.org/2000/svg">
<g filter="url(#filter0_f)">
<path d="M32.701 9.53243C36.4101 9.53243 39.055 13.1298 37.9487 16.6701L36.3577 21.7618C36.0241 22.8295 36.0241 23.9736 36.3577 25.0413L37.9488 30.1331C39.055 33.6733 36.4101 37.2708 32.7011 37.2708H19.9215C16.2124 37.2708 13.5676 33.6733 14.6738 30.1331L16.2648 25.0413C16.5984 23.9736 16.5984 22.8295 16.2648 21.7618L14.6738 16.6701C13.5676 13.1298 16.2125 9.53242 19.9215 9.53242L32.701 9.53243Z" fill="url(#paint0_linear)"/>
</g>
<path d="M34.5339 9.53279C38.243 9.53278 40.8879 13.1303 39.7816 16.6706L38.1908 21.7612C37.8571 22.829 37.8571 23.9732 38.1908 25.041L39.7816 30.1316C40.8879 33.6719 38.243 37.2694 34.5339 37.2694L21.7541 37.2694C18.0449 37.2694 15.4001 33.6719 16.5064 30.1316L18.0972 25.041C18.4309 23.9732 18.4309 22.829 18.0972 21.7612L16.5064 16.6706C15.4001 13.1303 18.045 9.53278 21.7541 9.53279L34.5339 9.53279Z" fill="url(#paint1_linear)"/>
<g filter="url(#filter1_d)">
<path d="M60.2891 31.5934C59.1078 31.5209 58.112 31.1861 57.3017 30.589C56.4914 29.9962 55.8432 29.1944 55.357 28.1837C54.8751 27.173 54.6341 26.1601 54.6341 25.1451C54.6341 24.1301 54.8751 23.1172 55.357 22.1065C55.8432 21.0957 56.4914 20.294 57.3017 19.7012C58.112 19.1041 59.1078 18.7672 60.2891 18.6904V19.6884C59.3978 19.7694 58.6301 20.0701 57.9862 20.5904C57.3465 21.1064 56.8432 21.7653 56.4765 22.5671C56.1097 23.3688 55.9263 24.2282 55.9263 25.1451C55.9263 26.062 56.1097 26.9214 56.4765 27.7231C56.8432 28.5249 57.3465 29.1838 57.9862 29.6998C58.6301 30.2158 59.3978 30.5165 60.2891 30.6018V31.5934ZM67.0636 27.608C66.7011 28.205 66.264 28.655 65.7522 28.9578C65.2447 29.2606 64.7777 29.4119 64.3513 29.4119C63.7542 29.4119 63.2169 29.1539 62.7392 28.6379C62.2658 28.1219 62.0291 27.3393 62.0291 26.2902C62.0291 25.4628 62.1869 24.725 62.5025 24.0768C62.8181 23.4243 63.2403 22.9104 63.7691 22.5351C64.298 22.1555 64.9526 21.9657 65.733 21.9657C65.9591 21.9657 66.3002 21.9892 66.7566 22.0361C66.8248 22.0446 66.9272 22.0553 67.0636 22.0681V18.8888H68.2599V29.2136H67.0636V27.608ZM67.0636 26.1942V23.13C66.6414 23.0191 66.2491 22.9637 65.8866 22.9637C65.153 22.9637 64.541 23.2473 64.0506 23.8145C63.5644 24.3817 63.3213 25.1536 63.3213 26.1302C63.3213 26.8382 63.4535 27.3734 63.718 27.7359C63.9866 28.0941 64.2916 28.2733 64.6327 28.2733C65.0038 28.2733 65.4132 28.0856 65.861 27.7103C66.3088 27.335 66.7097 26.8297 67.0636 26.1942ZM76.1027 28.7403C75.1517 29.1923 74.2518 29.4183 73.4031 29.4183C72.7592 29.4183 72.1834 29.2584 71.6759 28.9386C71.1684 28.6187 70.7611 28.1624 70.4541 27.5696C70.1513 26.9725 69.9999 26.335 69.9999 25.6569C69.9999 25.0044 70.1449 24.3774 70.4349 23.7761C70.7249 23.1748 71.13 22.7078 71.6503 22.3752C72.1706 22.0382 72.7506 21.8698 73.3903 21.8698C74.239 21.8698 74.9192 22.1726 75.431 22.7782C75.947 23.3838 76.2051 24.3177 76.2051 25.5801V25.836H71.2793C71.2793 26.3307 71.3817 26.7827 71.5864 27.1922C71.7953 27.6016 72.0683 27.9086 72.4052 28.1133C72.7421 28.318 73.1259 28.4204 73.5567 28.4204C74.3243 28.4204 75.173 28.1645 76.1027 27.6528V28.7403ZM71.3497 24.9468H74.9128V24.7741C74.9128 24.1898 74.77 23.7249 74.4842 23.3795C74.1985 23.0341 73.8168 22.8613 73.3392 22.8613C72.8572 22.8613 72.4393 23.0383 72.0853 23.3923C71.7356 23.742 71.4904 24.2602 71.3497 24.9468ZM84.4381 25.2411V26.239H81.4635V29.2136H80.4655V26.239H77.4909V25.2411H80.4655V22.2664H81.4635V25.2411H84.4381ZM91.9099 29.0089C91.1124 29.2776 90.3533 29.4119 89.6325 29.4119C88.916 29.4119 88.2785 29.2478 87.7198 28.9194C87.1654 28.5867 86.7325 28.1389 86.4212 27.576C86.1099 27.0088 85.9542 26.3648 85.9542 25.6441C85.9542 24.5608 86.306 23.661 87.0097 22.9445C87.7177 22.228 88.5706 21.8698 89.5685 21.8698C90.3063 21.8698 91.0868 22.0084 91.9099 22.2856V23.4307C91.0783 23.0511 90.3341 22.8613 89.6773 22.8613C89.2423 22.8613 88.8329 22.9701 88.4491 23.1876C88.0652 23.4008 87.7688 23.7356 87.5599 24.1919C87.3509 24.6483 87.2464 25.1174 87.2464 25.5993C87.2464 26.2433 87.4469 26.8574 87.8477 27.4416C88.2529 28.0259 88.8862 28.318 89.7477 28.318C90.0078 28.318 90.2637 28.301 90.5153 28.2669C90.7669 28.2285 91.2318 28.0941 91.9099 27.8639V29.0089ZM99.7079 28.7403C98.7569 29.1923 97.857 29.4183 97.0083 29.4183C96.3644 29.4183 95.7886 29.2584 95.2811 28.9386C94.7736 28.6187 94.3664 28.1624 94.0593 27.5696C93.7565 26.9725 93.6051 26.335 93.6051 25.6569C93.6051 25.0044 93.7501 24.3774 94.0401 23.7761C94.3301 23.1748 94.7353 22.7078 95.2555 22.3752C95.7758 22.0382 96.3558 21.8698 96.9956 21.8698C97.8442 21.8698 98.5245 22.1726 99.0362 22.7782C99.5523 23.3838 99.8103 24.3177 99.8103 25.5801V25.836H94.8845C94.8845 26.3307 94.9869 26.7827 95.1916 27.1922C95.4005 27.6016 95.6735 27.9086 96.0104 28.1133C96.3473 28.318 96.7311 28.4204 97.1619 28.4204C97.9295 28.4204 98.7782 28.1645 99.7079 27.6528V28.7403ZM94.9549 24.9468H98.5181V24.7741C98.5181 24.1898 98.3752 23.7249 98.0895 23.3795C97.8037 23.0341 97.422 22.8613 96.9444 22.8613C96.4625 22.8613 96.0445 23.0383 95.6906 23.3923C95.3408 23.742 95.0956 24.2602 94.9549 24.9468ZM101.646 18.6904C102.828 18.7672 103.823 19.1041 104.634 19.7012C105.444 20.294 106.09 21.0957 106.572 22.1065C107.058 23.1172 107.301 24.1301 107.301 25.1451C107.301 26.1601 107.058 27.173 106.572 28.1837C106.09 29.1944 105.444 29.9962 104.634 30.589C103.823 31.1861 102.828 31.5209 101.646 31.5934V30.6018C102.538 30.5165 103.303 30.2158 103.943 29.6998C104.587 29.1838 105.092 28.5249 105.459 27.7231C105.83 26.9214 106.015 26.062 106.015 25.1451C106.015 24.2282 105.83 23.3688 105.459 22.5671C105.092 21.7653 104.587 21.1064 103.943 20.5904C103.303 20.0701 102.538 19.7694 101.646 19.6884V18.6904ZM109.892 29.5143H108.721L115.035 18.9911H116.168L109.892 29.5143ZM120.882 22.8933V28.3884C121.462 28.2818 121.902 27.9449 122.2 27.3777C122.456 26.8958 122.584 26.3158 122.584 25.6377C122.584 24.9596 122.456 24.3817 122.2 23.9041C121.897 23.3369 121.458 22.9999 120.882 22.8933ZM119.731 22.8997C119.155 23.0063 118.718 23.3411 118.419 23.9041C118.163 24.3817 118.036 24.9596 118.036 25.6377C118.036 26.3158 118.163 26.8958 118.419 27.3777C118.718 27.9406 119.155 28.2754 119.731 28.382V22.8997ZM119.731 29.3928C118.801 29.2947 118.063 28.8831 117.517 28.1581C117.001 27.4715 116.743 26.6314 116.743 25.6377C116.743 24.644 117.001 23.806 117.517 23.1236C118.063 22.3986 118.801 21.9871 119.731 21.889V18.8888H120.882V21.889C121.812 21.9871 122.552 22.3986 123.102 23.1236C123.618 23.806 123.876 24.644 123.876 25.6377C123.876 26.6314 123.618 27.4715 123.102 28.1581C122.552 28.8831 121.812 29.2947 120.882 29.3928V31.99H119.731V29.3928ZM127.241 29.2136V23.0596H125.258V22.0681H128.431V28.2221H130.42V29.2136H127.241ZM127.043 19.4901C127.043 19.2214 127.134 19.021 127.318 18.8888C127.501 18.7565 127.674 18.6904 127.836 18.6904C128.002 18.6904 128.177 18.7565 128.36 18.8888C128.544 19.021 128.636 19.2214 128.636 19.4901C128.636 19.7545 128.544 19.9528 128.36 20.085C128.177 20.2172 128.002 20.2833 127.836 20.2833C127.674 20.2833 127.501 20.2172 127.318 20.085C127.134 19.9528 127.043 19.7545 127.043 19.4901ZM132.57 30.2052V29.2136H139.517V30.2052H132.57Z" fill="url(#paint2_linear)"/>
</g>
<defs>
<filter id="filter0_f" x="4.59383" y="-0.293486" width="43.4349" height="47.3902" filterUnits="userSpaceOnUse" color-interpolation-filters="sRGB">
<feFlood flood-opacity="0" result="BackgroundImageFix"/>
<feBlend mode="normal" in="SourceGraphic" in2="BackgroundImageFix" result="shape"/>
<feGaussianBlur stdDeviation="4.91296" result="effect1_foregroundBlur"/>
</filter>
<filter id="filter1_d" x="51.3588" y="15.4151" width="91.4334" height="19.8501" filterUnits="userSpaceOnUse" color-interpolation-filters="sRGB">
<feFlood flood-opacity="0" result="BackgroundImageFix"/>
<feColorMatrix in="SourceAlpha" type="matrix" values="0 0 0 0 0 0 0 0 0 0 0 0 0 0 0 0 0 0 127 0"/>
<feOffset/>
<feGaussianBlur stdDeviation="1.63765"/>
<feColorMatrix type="matrix" values="0 0 0 0 0.927586 0 0 0 0 1 0 0 0 0 0.925 0 0 0 0.7 0"/>
<feBlend mode="normal" in2="BackgroundImageFix" result="effect1_dropShadow"/>
<feBlend mode="normal" in="SourceGraphic" in2="effect1_dropShadow" result="shape"/>
</filter>
<linearGradient id="paint0_linear" x1="26.3113" y1="9.53242" x2="26.3113" y2="37.2708" gradientUnits="userSpaceOnUse">
<stop stop-color="#39AA9C"/>
<stop offset="1" stop-color="#7380EB"/>
</linearGradient>
<linearGradient id="paint1_linear" x1="28.144" y1="9.53279" x2="28.144" y2="37.2694" gradientUnits="userSpaceOnUse">
<stop stop-color="#39AA9C"/>
<stop offset="1" stop-color="#7380EB"/>
</linearGradient>
<linearGradient id="paint2_linear" x1="96.8292" y1="15.2136" x2="96.8292" y2="32.409" gradientUnits="userSpaceOnUse">
<stop stop-color="#E2FDE7"/>
<stop offset="1" stop-color="#AFCDA3"/>
</linearGradient>
</defs>
</svg>
