<svg width="66" height="66" viewBox="0 0 66 66" fill="none" xmlns="http://www.w3.org/2000/svg">
<g filter="url(#filter0_f)">
<path d="M39.6826 16.0619C44.2123 16.0619 47.4424 20.4553 46.0914 24.7789L44.1483 30.9972C43.7409 32.3011 43.7409 33.6984 44.1483 35.0023L46.0914 41.2207C47.4424 45.5443 44.2123 49.9376 39.6826 49.9377H24.0754C19.5457 49.9376 16.3156 45.5442 17.6666 41.2207L19.6096 35.0023C20.0171 33.6984 20.0171 32.3011 19.6096 30.9972L17.6666 24.7789C16.3156 20.4553 19.5457 16.0619 24.0754 16.0619L39.6826 16.0619Z" fill="url(#paint0_linear)"/>
</g>
<path d="M41.921 16.0623C46.4508 16.0622 49.6809 20.4558 48.3298 24.7794L46.387 30.9963C45.9795 32.3004 45.9795 33.6977 46.387 35.0018L48.3298 41.2188C49.6809 45.5424 46.4509 49.9359 41.9211 49.9359H26.3135C21.7838 49.9359 18.5537 45.5424 19.9048 41.2188L21.8476 35.0018C22.2551 33.6977 22.2551 32.3004 21.8476 30.9963L19.9048 24.7794C18.5537 20.4558 21.7838 16.0622 26.3136 16.0623L41.921 16.0623Z" fill="url(#paint1_linear)"/>
<defs>
<filter id="filter0_f" x="5.35632" y="4.06189" width="53.0453" height="57.8758" filterUnits="userSpaceOnUse" color-interpolation-filters="sRGB">
<feFlood flood-opacity="0" result="BackgroundImageFix"/>
<feBlend mode="normal" in="SourceGraphic" in2="BackgroundImageFix" result="shape"/>
<feGaussianBlur stdDeviation="6" result="effect1_foregroundBlur"/>
</filter>
<linearGradient id="paint0_linear" x1="31.879" y1="16.0619" x2="31.879" y2="49.9377" gradientUnits="userSpaceOnUse">
<stop stop-color="#39AA9C"/>
<stop offset="1" stop-color="#7380EB"/>
</linearGradient>
<linearGradient id="paint1_linear" x1="34.1173" y1="16.0623" x2="34.1173" y2="49.9359" gradientUnits="userSpaceOnUse">
<stop stop-color="#39AA9C"/>
<stop offset="1" stop-color="#7380EB"/>
</linearGradient>
</defs>
</svg>
