<svg width="32" height="36" viewBox="0 0 32 36" fill="none" xmlns="http://www.w3.org/2000/svg">
<path d="M27.7025 0H3.67573C1.6496 0 0 1.65324 0 3.70182V27.9973C0 30.0458 1.6496 31.6991 3.67573 31.6991H24.0088L23.0585 28.3746L25.3536 30.5131L27.5232 32.5257L31.3782 35.94V3.70182C31.3782 1.65324 29.7286 0 27.7025 0ZM20.7813 23.4688C20.7813 23.4688 20.1358 22.6961 19.5979 22.0132C21.9468 21.3484 22.8433 19.8748 22.8433 19.8748C22.1082 20.36 21.4089 20.7014 20.7813 20.935C19.8848 21.3124 19.0242 21.564 18.1814 21.7078C16.4601 22.0312 14.8822 21.9414 13.5375 21.6898C12.5154 21.4921 11.6368 21.2046 10.9017 20.9171C10.4893 20.7553 10.041 20.5577 9.59276 20.3061C9.53897 20.2702 9.48518 20.2522 9.43139 20.2162C9.39553 20.1983 9.3776 20.1803 9.35967 20.1623C9.03692 19.9826 8.85762 19.8568 8.85762 19.8568C8.85762 19.8568 9.71828 21.2944 11.9954 21.9773C11.4575 22.6602 10.7941 23.4688 10.7941 23.4688C6.83148 23.343 5.32533 20.7374 5.32533 20.7374C5.32533 14.951 7.90731 10.2609 7.90731 10.2609C10.4893 8.32011 12.9458 8.37402 12.9458 8.37402L13.1251 8.58966C9.89758 9.5241 8.40936 10.9437 8.40936 10.9437C8.40936 10.9437 8.80383 10.7281 9.46725 10.4226C11.3858 9.57801 12.9099 9.3444 13.5375 9.29049C13.645 9.27252 13.7347 9.25455 13.8423 9.25455C14.936 9.11079 16.1732 9.07485 17.4642 9.21861C19.1676 9.41628 20.9965 9.91944 22.8613 10.9437C22.8613 10.9437 21.4448 9.59598 18.3966 8.66154L18.6476 8.37402C18.6476 8.37402 21.1041 8.32011 23.6861 10.2609C23.6861 10.2609 26.268 14.951 26.268 20.7374C26.268 20.7374 24.744 23.343 20.7813 23.4688ZM12.4437 15.0768C11.4217 15.0768 10.6148 15.9753 10.6148 17.0715C10.6148 18.1677 11.4396 19.0662 12.4437 19.0662C13.4657 19.0662 14.2726 18.1677 14.2726 17.0715C14.2905 15.9753 13.4657 15.0768 12.4437 15.0768ZM18.9883 15.0768C17.9663 15.0768 17.1594 15.9753 17.1594 17.0715C17.1594 18.1677 17.9842 19.0662 18.9883 19.0662C20.0103 19.0662 20.8172 18.1677 20.8172 17.0715C20.8172 15.9753 20.0103 15.0768 18.9883 15.0768Z" fill="#EAEEF2"/>
</svg>
