<svg width="31" height="24" viewBox="0 0 31 24" fill="none" xmlns="http://www.w3.org/2000/svg">
<path d="M11.5591 0L10.7119 0.101966C10.7119 0.101966 6.91092 0.517424 4.13505 2.74658H4.10251L4.0678 2.77912C3.44515 3.35186 3.17397 4.05586 2.74549 5.08529C2.24041 6.32381 1.81044 7.59164 1.4579 8.8819C0.653017 11.7923 0 15.3177 0 18.5426V18.8138L0.135593 19.085C1.14007 20.8477 2.92339 21.9704 4.57654 22.746C6.22861 23.5216 7.65722 23.9327 8.64434 23.9664L9.28868 24L9.62712 23.424L10.8138 21.3218C12.0721 21.606 13.5214 21.7969 15.1864 21.7969C16.8515 21.7969 18.3007 21.606 19.5591 21.3218L20.7458 23.424L21.0853 24L21.7285 23.9664C22.7157 23.9327 24.1443 23.5216 25.7963 22.746C27.4495 21.9704 29.2328 20.8477 30.2373 19.085L30.3729 18.8138V18.5426C30.3729 15.3177 29.7199 11.7923 28.915 8.8819C28.5624 7.59164 28.1325 6.32381 27.6274 5.08529C27.1989 4.05478 26.9277 3.35186 26.3051 2.7802L26.2715 2.74549H26.2367C23.4631 0.517423 19.661 0.101966 19.661 0.101966L18.8138 0L18.5079 0.779932C18.5079 0.779932 18.1944 1.5718 18.0003 2.47539C17.0677 2.34672 16.1278 2.2786 15.1864 2.27146C14.6061 2.27146 13.6027 2.30942 12.3726 2.47539C12.1774 1.5718 11.8639 0.779932 11.8639 0.779932L11.5591 0ZM10.0675 2.47539C10.1142 2.62725 10.1608 2.75851 10.2031 2.88217C8.80054 3.22929 7.30468 3.75864 5.93247 4.61017L7.08447 6.44122C9.89831 4.69478 13.9401 4.44095 15.1864 4.44095C16.4317 4.44095 20.4746 4.69478 23.2884 6.44122L24.4404 4.61017C23.0682 3.75864 21.5723 3.22929 20.1698 2.88108C20.2121 2.75851 20.2587 2.62725 20.3054 2.4743C21.3174 2.67824 23.2504 3.14468 24.8472 4.40732C24.8385 4.41166 25.254 5.03864 25.6271 5.93247C26.0089 6.85234 26.432 8.07702 26.8138 9.4579C27.5471 12.1058 28.1231 15.3307 28.1698 18.1695C27.4864 19.2119 26.2205 20.1524 24.8808 20.7805C24.0407 21.1775 23.1518 21.462 22.2373 21.6266L21.6949 20.7121C22.0171 20.5928 22.3349 20.4626 22.6104 20.339C24.2799 19.6057 25.1867 18.8138 25.1867 18.8138L23.7624 17.1867C23.7624 17.1867 23.1528 17.7464 21.7285 18.3734C20.3064 19.0004 18.1315 19.6274 15.1864 19.6274C12.2414 19.6274 10.0675 19.0004 8.64434 18.3734C7.22007 17.7464 6.61044 17.1867 6.61044 17.1867L5.18617 18.8138C5.18617 18.8138 6.09302 19.6057 7.76244 20.339C8.03797 20.4626 8.3558 20.5939 8.67797 20.7121L8.13559 21.6277C7.22058 21.4625 6.33137 21.1772 5.49098 20.7794C4.15241 20.1524 2.88542 19.2119 2.2042 18.1695C2.24976 15.3307 2.82576 12.1058 3.56014 9.4579C3.88464 8.26015 4.28056 7.0829 4.74576 5.93247C5.11892 5.03864 5.53437 4.41166 5.52569 4.40732C7.12244 3.14468 9.05546 2.67824 10.0675 2.47539V2.47539ZM11.3898 9.86468C10.5513 9.86468 9.80936 10.3431 9.35593 10.9494C8.90251 11.5558 8.67797 12.301 8.67797 13.1189C8.67797 13.9368 8.90251 14.682 9.35593 15.2884C9.80936 15.8948 10.5513 16.3732 11.3898 16.3732C12.2283 16.3732 12.9703 15.8948 13.4237 15.2884C13.8772 14.682 14.1017 13.9368 14.1017 13.1189C14.1017 12.301 13.8772 11.5558 13.4237 10.9494C12.9703 10.3431 12.2283 9.86468 11.3898 9.86468ZM18.9831 9.86468C18.1445 9.86468 17.4026 10.3431 16.9492 10.9494C16.4957 11.5558 16.2712 12.301 16.2712 13.1189C16.2712 13.9368 16.4957 14.682 16.9492 15.2884C17.4026 15.8948 18.1445 16.3732 18.9831 16.3732C19.8216 16.3732 20.5635 15.8948 21.0169 15.2884C21.4704 14.682 21.6949 13.9368 21.6949 13.1189C21.6949 12.301 21.4704 11.5558 21.0169 10.9494C20.5635 10.3431 19.8216 9.86468 18.9831 9.86468ZM11.3898 12.0342C11.4495 12.0342 11.5254 12.0559 11.661 12.2381C11.7966 12.4193 11.9322 12.7371 11.9322 13.1189C11.9322 13.5007 11.7966 13.8186 11.661 14.0008C11.5254 14.182 11.4495 14.2037 11.3898 14.2037C11.3302 14.2037 11.2542 14.182 11.1186 13.9997C10.9393 13.7413 10.8445 13.4335 10.8475 13.1189C10.8475 12.7371 10.9831 12.4193 11.1186 12.237C11.2542 12.0559 11.3302 12.0342 11.3898 12.0342ZM18.9831 12.0342C19.0427 12.0342 19.1186 12.0559 19.2542 12.2381C19.3898 12.4193 19.5254 12.7371 19.5254 13.1189C19.5254 13.5007 19.3898 13.8186 19.2542 14.0008C19.1186 14.182 19.0427 14.2037 18.9831 14.2037C18.9234 14.2037 18.8475 14.182 18.7119 13.9997C18.5325 13.7413 18.4377 13.4335 18.4407 13.1189C18.4407 12.7371 18.5763 12.4193 18.7119 12.237C18.8475 12.0559 18.9234 12.0342 18.9831 12.0342Z" fill="#7284A0"/>
</svg>
