<svg width="60" height="60" viewBox="0 0 96 96" fill="none" xmlns="http://www.w3.org/2000/svg">
<path d="M96 48C96 74.5097 74.5097 96 48 96C21.4903 96 0 74.5097 0 48C0 21.4903 21.4903 0 48 0C74.5097 0 96 21.4903 96 48Z" fill="#F9FBFD"/>
<path d="M96 48C96 74.5097 74.5097 96 48 96C21.4903 96 0 74.5097 0 48C0 21.4903 21.4903 0 48 0C74.5097 0 96 21.4903 96 48ZM12 48C12 67.8822 28.1177 84 48 84C67.8822 84 84 67.8822 84 48C84 28.1177 67.8822 12 48 12C28.1177 12 12 28.1177 12 48Z" fill="url(#paint0_angular)"/>
<mask id="path-3-inside-1" fill="white">
<path fill-rule="evenodd" clip-rule="evenodd" d="M40.4853 50.6066L30.9393 41.0606C30.3536 40.4748 30.3536 39.5251 30.9393 38.9393L40.4853 29.3934C41.0711 28.8076 42.0208 28.8076 42.6066 29.3934C43.1924 29.9791 43.1924 30.9289 42.6066 31.5147L35.6213 38.5L64 38.5L64 41.5L35.6213 41.5L42.6066 48.4852C43.1924 49.071 43.1924 50.0208 42.6066 50.6066C42.0208 51.1923 41.0711 51.1923 40.4853 50.6066Z"/>
</mask>
<path fill-rule="evenodd" clip-rule="evenodd" d="M40.4853 50.6066L30.9393 41.0606C30.3536 40.4748 30.3536 39.5251 30.9393 38.9393L40.4853 29.3934C41.0711 28.8076 42.0208 28.8076 42.6066 29.3934C43.1924 29.9791 43.1924 30.9289 42.6066 31.5147L35.6213 38.5L64 38.5L64 41.5L35.6213 41.5L42.6066 48.4852C43.1924 49.071 43.1924 50.0208 42.6066 50.6066C42.0208 51.1923 41.0711 51.1923 40.4853 50.6066Z" fill="#7284A0"/>
<path d="M30.9393 41.0606L28.818 43.1819L28.818 43.1819L30.9393 41.0606ZM40.4853 50.6066L42.6066 48.4852L40.4853 50.6066ZM30.9393 38.9393L28.818 36.818L28.818 36.818L30.9393 38.9393ZM35.6213 38.5L33.5 36.3786L28.3787 41.5L35.6213 41.5L35.6213 38.5ZM64 38.5L67 38.5L67 35.5L64 35.5L64 38.5ZM64 41.5L64 44.5L67 44.5L67 41.5L64 41.5ZM35.6213 41.5L35.6213 38.5L28.3787 38.5L33.5 43.6213L35.6213 41.5ZM42.6066 48.4852L40.4853 50.6066V50.6066L42.6066 48.4852ZM28.818 43.1819L38.364 52.7279L42.6066 48.4852L33.0607 38.9393L28.818 43.1819ZM28.818 36.818C27.0607 38.5753 27.0607 41.4246 28.818 43.1819L33.0607 38.9393C33.6464 39.5251 33.6464 40.4748 33.0607 41.0606L28.818 36.818ZM38.364 27.272L28.818 36.818L33.0607 41.0606L42.6066 31.5147L38.364 27.272ZM44.7279 27.272C42.9706 25.5147 40.1213 25.5147 38.364 27.272L42.6066 31.5147C42.0208 32.1005 41.0711 32.1005 40.4853 31.5147L44.7279 27.272ZM44.7279 33.636C46.4853 31.8786 46.4853 29.0294 44.7279 27.272L40.4853 31.5147C39.8995 30.9289 39.8995 29.9791 40.4853 29.3934L44.7279 33.636ZM37.7426 40.6213L44.7279 33.636L40.4853 29.3934L33.5 36.3786L37.7426 40.6213ZM64 35.5L35.6213 35.5L35.6213 41.5L64 41.5L64 35.5ZM67 41.5L67 38.5L61 38.5L61 41.5L67 41.5ZM35.6213 44.5L64 44.5L64 38.5L35.6213 38.5L35.6213 44.5ZM44.7279 46.3639L37.7426 39.3786L33.5 43.6213L40.4853 50.6066L44.7279 46.3639ZM44.7279 52.7279C46.4853 50.9705 46.4853 48.1213 44.7279 46.3639L40.4853 50.6066C39.8995 50.0208 39.8995 49.071 40.4853 48.4852L44.7279 52.7279ZM38.364 52.7279C40.1213 54.4852 42.9706 54.4852 44.7279 52.7279L40.4853 48.4852C41.0711 47.8994 42.0208 47.8994 42.6066 48.4852L38.364 52.7279Z" fill="#7284A0" mask="url(#path-3-inside-1)"/>
<mask id="path-5-inside-2" fill="white">
<path fill-rule="evenodd" clip-rule="evenodd" d="M55.5147 45.3934L65.0607 54.9394C65.6464 55.5252 65.6464 56.4749 65.0607 57.0607L55.5147 66.6066C54.9289 67.1924 53.9792 67.1924 53.3934 66.6066C52.8076 66.0209 52.8076 65.0711 53.3934 64.4853L60.3787 57.5L32 57.5L32 54.5L60.3787 54.5L53.3934 47.5148C52.8076 46.929 52.8076 45.9792 53.3934 45.3934C53.9792 44.8076 54.9289 44.8076 55.5147 45.3934Z"/>
</mask>
<path fill-rule="evenodd" clip-rule="evenodd" d="M55.5147 45.3934L65.0607 54.9394C65.6464 55.5252 65.6464 56.4749 65.0607 57.0607L55.5147 66.6066C54.9289 67.1924 53.9792 67.1924 53.3934 66.6066C52.8076 66.0209 52.8076 65.0711 53.3934 64.4853L60.3787 57.5L32 57.5L32 54.5L60.3787 54.5L53.3934 47.5148C52.8076 46.929 52.8076 45.9792 53.3934 45.3934C53.9792 44.8076 54.9289 44.8076 55.5147 45.3934Z" fill="#7284A0"/>
<path d="M65.0607 54.9394L67.182 52.8181L67.182 52.8181L65.0607 54.9394ZM55.5147 45.3934L53.3934 47.5148L55.5147 45.3934ZM65.0607 57.0607L67.182 59.182L67.182 59.182L65.0607 57.0607ZM60.3787 57.5L62.5 59.6214L67.6213 54.5L60.3787 54.5L60.3787 57.5ZM32 57.5L29 57.5L29 60.5L32 60.5L32 57.5ZM32 54.5L32 51.5L29 51.5L29 54.5L32 54.5ZM60.3787 54.5L60.3787 57.5L67.6213 57.5L62.5 52.3787L60.3787 54.5ZM53.3934 47.5148L55.5147 45.3934V45.3934L53.3934 47.5148ZM67.182 52.8181L57.636 43.2721L53.3934 47.5148L62.9393 57.0607L67.182 52.8181ZM67.182 59.182C68.9393 57.4247 68.9393 54.5754 67.182 52.8181L62.9393 57.0607C62.3536 56.4749 62.3536 55.5252 62.9393 54.9394L67.182 59.182ZM57.636 68.728L67.182 59.182L62.9393 54.9394L53.3934 64.4853L57.636 68.728ZM51.2721 68.728C53.0294 70.4853 55.8787 70.4853 57.636 68.728L53.3934 64.4853C53.9792 63.8995 54.9289 63.8995 55.5147 64.4853L51.2721 68.728ZM51.2721 62.364C49.5147 64.1214 49.5147 66.9706 51.2721 68.728L55.5147 64.4853C56.1005 65.0711 56.1005 66.0209 55.5147 66.6066L51.2721 62.364ZM58.2574 55.3787L51.2721 62.364L55.5147 66.6066L62.5 59.6214L58.2574 55.3787ZM32 60.5L60.3787 60.5L60.3787 54.5L32 54.5L32 60.5ZM29 54.5L29 57.5L35 57.5L35 54.5L29 54.5ZM60.3787 51.5L32 51.5L32 57.5L60.3787 57.5L60.3787 51.5ZM51.2721 49.6361L58.2574 56.6214L62.5 52.3787L55.5147 45.3934L51.2721 49.6361ZM51.2721 43.2721C49.5147 45.0295 49.5147 47.8787 51.2721 49.6361L55.5147 45.3934C56.1005 45.9792 56.1005 46.929 55.5147 47.5148L51.2721 43.2721ZM57.636 43.2721C55.8787 41.5148 53.0294 41.5148 51.2721 43.2721L55.5147 47.5148C54.9289 48.1005 53.9792 48.1005 53.3934 47.5148L57.636 43.2721Z" fill="#7284A0" mask="url(#path-5-inside-2)"/>
<defs>
<radialGradient id="paint0_angular" cx="0" cy="0" r="1" gradientUnits="userSpaceOnUse" gradientTransform="translate(48 48) rotate(-135) scale(29.6985)">
<stop offset="0.126166" stop-color="#DEDB8E"/>
<stop offset="0.37577" stop-color="#4B62C1"/>
<stop offset="0.624738" stop-color="#5ADF57"/>
<stop offset="0.875989" stop-color="#EE7868"/>
</radialGradient>
</defs>
</svg>
