<svg width="72" height="64" viewBox="0 0 72 64" fill="none" xmlns="http://www.w3.org/2000/svg">
<path d="M71.2 58.88C71.2 60.544 70.6136 61.8133 69.4408 62.688C68.268 63.5627 66.8286 64 65.1227 64H6.07727C4.37137 64 2.93202 63.552 1.75921 62.656C0.586403 61.76 0 60.5013 0 58.88C0 57.6 0.383827 56.2987 1.15148 54.976L30.6422 3.52C32.0496 1.17333 33.7128 0 35.632 0C37.5511 0 39.1717 1.17333 40.4938 3.52L70.0485 55.04C70.8162 56.4053 71.2 57.6853 71.2 58.88ZM40.046 26.176V16.832H31.154V26.176C31.154 26.7733 31.1966 27.3387 31.2819 27.872C31.3672 28.4053 31.4845 29.0027 31.6338 29.664C31.783 30.3253 31.9003 30.8907 31.9856 31.36L33.6489 41.728H37.4232L39.1504 31.36C39.2357 30.9333 39.3636 30.3787 39.5342 29.696C39.7048 29.0133 39.8328 28.4053 39.9181 27.872C40.0033 27.3387 40.046 26.7733 40.046 26.176ZM40.046 50.944C40.046 49.7067 39.6089 48.6613 38.7346 47.808C37.8603 46.9547 36.8048 46.528 35.568 46.528C34.3739 46.528 33.3397 46.9547 32.4654 47.808C31.5911 48.6613 31.154 49.7067 31.154 50.944C31.154 52.1813 31.5911 53.2373 32.4654 54.112C33.3397 54.9867 34.3739 55.424 35.568 55.424C36.8048 55.424 37.8603 54.9867 38.7346 54.112C39.6089 53.2373 40.046 52.1813 40.046 50.944Z" fill="#E8D000"/>
</svg>
