<svg width="81" height="73" viewBox="0 0 81 73" fill="none" xmlns="http://www.w3.org/2000/svg">
<path fill-rule="evenodd" clip-rule="evenodd" d="M78.095 58.2979L48.0209 5.78217L47.9449 5.64934L47.9449 5.64926C47.5752 5.00304 47.1245 4.21528 46.6763 3.57212C46.217 2.91293 45.2252 1.58656 43.489 0.766425C41.3256 -0.255475 38.8185 -0.255475 36.6551 0.766424C34.9189 1.58656 33.9272 2.91293 33.4678 3.57212C33.0196 4.21528 32.5689 5.00303 32.1993 5.64925L32.1992 5.64934L32.1232 5.78217L2.04906 58.2979L1.97361 58.4296L1.97359 58.4296C1.60747 59.0682 1.15944 59.8497 0.833544 60.5574C0.497774 61.2866 -0.137576 62.8007 0.0266299 64.6993C0.231719 67.0706 1.48203 69.2274 3.43787 70.5838C5.00383 71.6698 6.63348 71.8709 7.4331 71.9419C8.20916 72.0108 9.10991 72.0104 9.846 72.01L9.99791 72.01H70.1462L70.2981 72.01C71.0342 72.0104 71.9349 72.0108 72.711 71.9419C73.5106 71.8709 75.1403 71.6698 76.7062 70.5838C78.6621 69.2274 79.9124 67.0706 80.1175 64.6993C80.2817 62.8007 79.6463 61.2866 79.3106 60.5574C78.9847 59.8497 78.5366 59.0681 78.1705 58.4295L78.095 58.2979ZM37.3299 8.76387C38.2093 7.22813 38.6491 6.46026 39.2178 6.19161C39.7587 5.93613 40.3855 5.93613 40.9263 6.19161C41.495 6.46026 41.9348 7.22813 42.8142 8.76388L72.8884 61.2796C73.7586 62.7992 74.1937 63.559 74.1398 64.1823C74.0885 64.7751 73.7759 65.3143 73.287 65.6534C72.7729 66.01 71.8973 66.01 70.1462 66.01H9.99791C8.24679 66.01 7.37123 66.01 6.85712 65.6534C6.36817 65.3143 6.05559 64.7751 6.00431 64.1823C5.95041 63.559 6.38552 62.7992 7.25574 61.2796L37.3299 8.76387ZM36.6125 25.7876C36.6125 23.8769 38.1614 22.328 40.0721 22.328C41.9827 22.328 43.5317 23.8769 43.5317 25.7876V45.6088C43.5317 47.5195 41.9827 49.0684 40.0721 49.0684C38.1614 49.0684 36.6125 47.5195 36.6125 45.6088V25.7876ZM36.6125 54.8815C36.6125 52.9708 38.1614 51.3936 40.0721 51.3936C41.9827 51.3936 43.5317 52.9708 43.5317 54.8815C43.5317 56.7921 41.9827 58.3693 40.0721 58.3693C38.1614 58.3693 36.6125 56.7921 36.6125 54.8815Z" fill="#F29C38"/>
</svg>
