<svg width="24" height="26" viewBox="0 0 24 26" fill="none" xmlns="http://www.w3.org/2000/svg">
<path d="M11.0369 2.46274C11.3092 1.48829 12.6908 1.48828 12.9631 2.46274L14.2206 6.96246C14.5829 8.25867 15.764 9.15499 17.1099 9.15499H21.7498C22.6818 9.15499 23.1071 10.3175 22.3951 10.9189L18.1484 14.5061C17.2516 15.2637 16.879 16.4748 17.195 17.6054L18.6916 22.9604C18.9566 23.9088 17.8355 24.6289 17.0832 23.9934L13.9359 21.3349C12.818 20.3907 11.182 20.3907 10.0641 21.3349L6.91684 23.9934C6.16449 24.6289 5.04337 23.9088 5.30844 22.9603L6.80499 17.6054C7.12097 16.4747 6.74842 15.2637 5.85159 14.5061L1.60487 10.9189C0.892892 10.3175 1.31818 9.15499 2.25016 9.15499H6.89008C8.23596 9.15499 9.41712 8.25866 9.77937 6.96246L11.0369 2.46274Z" fill="#E9E58C" stroke="#ABBAD1" stroke-width="2"/>
</svg>
