<svg width="30" height="28" viewBox="0 0 30 28" fill="none" xmlns="http://www.w3.org/2000/svg">
<path d="M14.0489 1.92705C14.3483 1.00574 15.6517 1.00574 15.9511 1.92705L18.3677 9.36475C18.5016 9.77677 18.8855 10.0557 19.3188 10.0557H27.1392C28.1079 10.0557 28.5107 11.2953 27.727 11.8647L21.4001 16.4615C21.0496 16.7161 20.903 17.1675 21.0369 17.5795L23.4535 25.0172C23.7529 25.9385 22.6984 26.7047 21.9147 26.1353L15.5878 21.5385C15.2373 21.2839 14.7627 21.2839 14.4122 21.5385L8.08533 26.1353C7.30162 26.7047 6.24714 25.9385 6.54649 25.0172L8.96315 17.5795C9.09702 17.1675 8.95036 16.7161 8.59987 16.4615L2.27299 11.8647C1.48928 11.2953 1.89206 10.0557 2.86078 10.0557H10.6812C11.1145 10.0557 11.4984 9.77677 11.6323 9.36474L14.0489 1.92705Z" stroke="#F29C38" stroke-width="2"/>
</svg>
