<svg width="24" height="25" viewBox="0 0 24 25" fill="none" xmlns="http://www.w3.org/2000/svg">
<path d="M11.0369 2.07504C11.3092 1.10059 12.6908 1.10058 12.9631 2.07505L14.2206 6.57476C14.5829 7.87097 15.764 8.76729 17.1099 8.76729H21.7498C22.6818 8.76729 23.1071 9.92982 22.3951 10.5312L18.1484 14.1184C17.2516 14.876 16.879 16.0871 17.195 17.2177L18.6916 22.5727C18.9566 23.5211 17.8355 24.2413 17.0832 23.6057L13.9359 20.9472C12.818 20.003 11.182 20.003 10.0641 20.9472L6.91684 23.6057C6.16449 24.2413 5.04337 23.5211 5.30844 22.5727L6.80499 17.2177C7.12097 16.0871 6.74842 14.876 5.85159 14.1184L1.60487 10.5312C0.892892 9.92982 1.31818 8.76729 2.25016 8.76729H6.89008C8.23596 8.76729 9.41712 7.87097 9.77937 6.57476L11.0369 2.07504Z" stroke="#ABBAD1" stroke-width="2"/>
</svg>
