<svg width="48" height="48" viewBox="0 0 48 48" fill="none" xmlns="http://www.w3.org/2000/svg">
<circle cx="24" cy="24" r="24" fill="#0B1FD1"/>
<path d="M23.875 8C15.1083 8 8 15.1083 8 23.875C8 32.6417 15.1083 39.75 23.875 39.75C32.6417 39.75 39.75 32.6417 39.75 23.875C39.75 15.1083 32.6417 8 23.875 8ZM23.875 37.0569C16.5966 37.0569 10.6931 31.1534 10.6931 23.875C10.6931 16.5966 16.5966 10.6931 23.875 10.6931C31.1534 10.6931 37.0569 16.5966 37.0569 23.875C37.0569 31.1534 31.1534 37.0569 23.875 37.0569ZM25.5653 23.0529L24.6652 22.8438V18.0849C26.0117 18.2691 26.8445 19.1125 26.9862 20.1472C27.0039 20.289 27.1244 20.3917 27.2662 20.3917H28.8572C29.0237 20.3917 29.1549 20.2464 29.1407 20.0799C28.9245 17.8723 27.1067 16.4549 24.6794 16.2104V15.0516C24.6794 14.8957 24.5518 14.7681 24.3959 14.7681H23.4002C23.2443 14.7681 23.1167 14.8957 23.1167 15.0516V16.221C20.6079 16.4655 18.6448 17.851 18.6448 20.4378C18.6448 22.8332 20.4094 23.9884 22.2627 24.4313L23.1379 24.6546V29.7112C21.5717 29.5021 20.6929 28.6658 20.5122 27.539C20.4909 27.4044 20.3705 27.3051 20.2323 27.3051H18.5951C18.4286 27.3051 18.2975 27.4469 18.3117 27.6134C18.4711 29.5624 19.9488 31.3554 23.1025 31.5857V32.6984C23.1025 32.8543 23.2301 32.9819 23.386 32.9819H24.3924C24.5483 32.9819 24.6758 32.8543 24.6758 32.6948L24.6688 31.5715C27.4433 31.327 29.4277 29.8423 29.4277 27.1776C29.4242 24.7184 27.8615 23.6199 25.5653 23.0529ZM23.1344 22.4789C22.936 22.4222 22.7694 22.369 22.6029 22.3017C21.4052 21.8694 20.8488 21.1713 20.8488 20.2712C20.8488 18.9849 21.8233 18.2514 23.1344 18.0849V22.4789ZM24.6652 29.7218V24.9841C24.7751 25.016 24.8743 25.0408 24.977 25.0621C26.6531 25.5723 27.2165 26.2811 27.2165 27.3689C27.2165 28.7544 26.1747 29.5872 24.6652 29.7218Z" fill="white"/>
</svg>
