<svg width="34" height="34" viewBox="0 0 34 34" fill="none" xmlns="http://www.w3.org/2000/svg">
<path d="M33 34C33.5523 34 34 33.5523 34 33V24C34 23.4477 33.5523 23 33 23C32.4477 23 32 23.4477 32 24V32H24C23.4477 32 23 32.4477 23 33C23 33.5523 23.4477 34 24 34H33ZM1 0C0.447715 0 0 0.447715 0 1V10C0 10.5523 0.447715 11 1 11C1.55228 11 2 10.5523 2 10V2H10C10.5523 2 11 1.55228 11 1C11 0.447715 10.5523 0 10 0H1ZM34 0.999999C34 0.447714 33.5523 -5.96046e-07 33 0L24 9.23872e-06C23.4477 9.83477e-06 23 0.447726 23 1.00001C23 1.5523 23.4477 2.00001 24 2.00001L32 2L32 10C32 10.5523 32.4477 11 33 11C33.5523 11 34 10.5523 34 10L34 0.999999ZM0 33C0 33.5523 0.447715 34 1 34H10C10.5523 34 11 33.5523 11 33C11 32.4477 10.5523 32 10 32H2V24C2 23.4477 1.55228 23 1 23C0.447715 23 5.96046e-08 23.4477 5.96046e-08 24L0 33ZM32.5614 1.43863L33.2685 2.14573V2.14573L32.5614 1.43863ZM16.7807 17.2193L16.0736 16.5122L16.7807 17.2193ZM33.7071 32.2929L17.7071 16.2929L16.2929 17.7071L32.2929 33.7071L33.7071 32.2929ZM17.7071 16.2929L1.70711 0.292893L0.292893 1.70711L16.2929 17.7071L17.7071 16.2929ZM32.2929 0.292894L31.8543 0.73152L33.2685 2.14573L33.7071 1.70711L32.2929 0.292894ZM17.7071 17.7071L33.2685 2.14573L31.8543 0.731519L16.2929 16.2929L17.7071 17.7071ZM31.8543 0.731519L16.0736 16.5122L17.4878 17.9264L33.2685 2.14573L31.8543 0.731519ZM16.0736 16.5122L0.292893 32.2929L1.70711 33.7071L17.4878 17.9264L16.0736 16.5122Z" fill="#7380EB"/>
</svg>
