<svg width="15" height="16" viewBox="0 0 15 16" fill="none" xmlns="http://www.w3.org/2000/svg">
<path fill-rule="evenodd" clip-rule="evenodd" d="M0 1.35356L5.14645 6.50001H1.85355C1.57741 6.50001 1.35355 6.72387 1.35355 7.00001C1.35355 7.27615 1.57741 7.50001 1.85355 7.50001H6.35355C6.6297 7.50001 6.85355 7.27615 6.85355 7.00001V2.50001C6.85355 2.22386 6.6297 2.00001 6.35355 2.00001C6.07741 2.00001 5.85355 2.22386 5.85355 2.50001V5.7929L0.707107 0.646454L0 1.35356ZM0 14.6465L5.14645 9.50001H1.85355C1.57741 9.50001 1.35355 9.27615 1.35355 9.00001C1.35355 8.72387 1.57741 8.50001 1.85355 8.50001H6.35355C6.6297 8.50001 6.85355 8.72387 6.85355 9.00001V13.5C6.85355 13.7761 6.6297 14 6.35355 14C6.07741 14 5.85355 13.7761 5.85355 13.5V10.2071L0.707107 15.3536L0 14.6465ZM9.56066 6.50001L14.7071 1.35356L14 0.646454L8.85355 5.7929V2.50001C8.85355 2.22386 8.6297 2.00001 8.35355 2.00001C8.07741 2.00001 7.85355 2.22386 7.85355 2.50001V7.00001C7.85355 7.27615 8.07741 7.50001 8.35355 7.50001H12.8536C13.1297 7.50001 13.3536 7.27615 13.3536 7.00001C13.3536 6.72387 13.1297 6.50001 12.8536 6.50001H9.56066ZM14.7071 14.6465L9.56066 9.50001H12.8536C13.1297 9.50001 13.3536 9.27615 13.3536 9.00001C13.3536 8.72387 13.1297 8.50001 12.8536 8.50001H8.35355C8.07741 8.50001 7.85355 8.72387 7.85355 9.00001V13.5C7.85355 13.7761 8.07741 14 8.35355 14C8.6297 14 8.85355 13.7761 8.85355 13.5V10.2071L14 15.3536L14.7071 14.6465Z" fill="#366CE5"/>
</svg>