<svg width="16" height="16" viewBox="0 0 16 16" fill="none" xmlns="http://www.w3.org/2000/svg">
<path d="M15 15.5C15.2761 15.5 15.5 15.2761 15.5 15V10.5C15.5 10.2239 15.2761 10 15 10C14.7239 10 14.5 10.2239 14.5 10.5V14.5H10.5C10.2239 14.5 10 14.7239 10 15C10 15.2761 10.2239 15.5 10.5 15.5H15ZM1 0.5C0.723858 0.5 0.5 0.723858 0.5 1V5.5C0.5 5.77614 0.723858 6 1 6C1.27614 6 1.5 5.77614 1.5 5.5V1.5H5.5C5.77614 1.5 6 1.27614 6 1C6 0.723858 5.77614 0.5 5.5 0.5H1ZM15.5 0.999999C15.5 0.723857 15.2761 0.5 15 0.5L10.5 0.500005C10.2239 0.500005 10 0.723863 10 1.00001C10 1.27615 10.2239 1.5 10.5 1.5L14.5 1.5L14.5 5.5C14.5 5.77614 14.7239 6 15 6C15.2761 6 15.5 5.77614 15.5 5.5L15.5 0.999999ZM0.5 15C0.5 15.2761 0.723858 15.5 1 15.5H5.5C5.77614 15.5 6 15.2761 6 15C6 14.7239 5.77614 14.5 5.5 14.5H1.5V10.5C1.5 10.2239 1.27614 10 1 10C0.723858 10 0.5 10.2239 0.5 10.5V15ZM14.8081 1.1919L15.1617 1.54545L15.1617 1.54545L14.8081 1.1919ZM7.90405 8.09595L7.5505 7.7424L7.90405 8.09595ZM15.3536 14.6464L8.35355 7.64645L7.64645 8.35355L14.6464 15.3536L15.3536 14.6464ZM8.35355 7.64645L1.35355 0.646447L0.646447 1.35355L7.64645 8.35355L8.35355 7.64645ZM14.6464 0.646447L14.4545 0.838346L15.1617 1.54545L15.3536 1.35355L14.6464 0.646447ZM8.35355 8.35355L15.1617 1.54545L14.4545 0.838346L7.64645 7.64645L8.35355 8.35355ZM14.4545 0.838346L7.5505 7.7424L8.2576 8.4495L15.1617 1.54545L14.4545 0.838346ZM7.5505 7.7424L0.646447 14.6464L1.35355 15.3536L8.2576 8.4495L7.5505 7.7424Z" fill="#366CE5"/>
</svg>
