<svg xmlns="http://www.w3.org/2000/svg" width="30" height="30" viewBox="0 0 30 30">
    <path fill="#FFF" fill-rule="nonzero" d="M27.959 7.488a14.92 14.92 0 0 0-5.453-5.453C20.21.695 17.703.025 14.984.025c-2.718 0-5.226.67-7.521 2.01A14.918 14.918 0 0 0 2.01 7.488C.67 9.784 0 12.29 0 15.008c0 3.266.953 6.202 2.858 8.81 1.906 2.608 4.367 4.413 7.385 5.414.351.065.611.02.78-.136a.763.763 0 0 0 .254-.585l-.01-1.054c-.007-.663-.01-1.242-.01-1.736l-.448.077a5.725 5.725 0 0 1-1.083.069 8.25 8.25 0 0 1-1.356-.137 3.03 3.03 0 0 1-1.308-.585 2.476 2.476 0 0 1-.858-1.2l-.195-.448a4.875 4.875 0 0 0-.614-.995c-.28-.365-.563-.612-.85-.742l-.136-.097a1.432 1.432 0 0 1-.253-.235 1.07 1.07 0 0 1-.176-.273c-.039-.091-.007-.166.098-.225.104-.058.292-.087.566-.087l.39.058c.26.053.582.208.965.469.384.26.7.598.947 1.014.299.533.66.94 1.082 1.22.423.28.85.419 1.278.419.43 0 .8-.033 1.112-.097a3.88 3.88 0 0 0 .878-.293c.117-.872.436-1.542.956-2.01a13.36 13.36 0 0 1-2-.351 7.963 7.963 0 0 1-1.833-.762 5.253 5.253 0 0 1-1.571-1.307c-.416-.52-.758-1.203-1.024-2.048-.267-.846-.4-1.821-.4-2.927 0-1.574.514-2.914 1.541-4.02-.481-1.183-.436-2.51.137-3.98.377-.116.936-.028 1.678.264.741.293 1.284.544 1.629.751.345.208.621.384.83.527a13.854 13.854 0 0 1 3.745-.507c1.288 0 2.537.17 3.747.507l.741-.468a10.5 10.5 0 0 1 1.795-.859c.69-.26 1.216-.331 1.58-.214.586 1.47.638 2.796.156 3.98 1.028 1.106 1.542 2.446 1.542 4.02 0 1.105-.134 2.083-.4 2.936-.267.852-.611 1.534-1.034 2.048-.423.514-.95.947-1.58 1.298a7.978 7.978 0 0 1-1.834.76c-.592.157-1.259.274-2 .352.676.585 1.014 1.509 1.014 2.77v4.117c0 .234.081.43.244.585.163.156.42.202.77.136 3.019-1 5.48-2.806 7.386-5.414 1.905-2.607 2.858-5.544 2.858-8.809 0-2.717-.671-5.224-2.01-7.52z" opacity=".5"/>
</svg>
