<svg width="19" height="19" viewBox="0 0 19 19" fill="none" xmlns="http://www.w3.org/2000/svg">
<g clip-path="url(#clip0)">
<path d="M4.2108 11.482L3.54944 13.951L1.13217 14.0021C0.409762 12.6622 0 11.1292 0 9.50006C0 7.92473 0.383117 6.43917 1.06222 5.1311H1.06274L3.21478 5.52565L4.15751 7.66478C3.9602 8.24002 3.85266 8.85752 3.85266 9.50006C3.85273 10.1974 3.97905 10.8656 4.2108 11.482Z" fill="#FBBB00"/>
<path d="M18.8341 7.72534C18.9432 8.30002 19.0001 8.89351 19.0001 9.50006C19.0001 10.1802 18.9286 10.8436 18.7924 11.4836C18.3299 13.6613 17.1215 15.5628 15.4476 16.9085L15.4471 16.908L12.7364 16.7697L12.3528 14.3748C13.4636 13.7234 14.3316 12.704 14.7889 11.4836H9.70898V7.72534H14.863H18.8341Z" fill="#518EF8"/>
<path d="M15.447 16.9079L15.4476 16.9084C13.8195 18.217 11.7514 19 9.50015 19C5.88232 19 2.7369 16.9778 1.13232 14.002L4.21095 11.4819C5.01322 13.6231 7.07869 15.1473 9.50015 15.1473C10.541 15.1473 11.516 14.8659 12.3528 14.3747L15.447 16.9079Z" fill="#28B446"/>
<path d="M15.5638 2.18708L12.4862 4.70666C11.6203 4.16538 10.5966 3.8527 9.49998 3.8527C7.02371 3.8527 4.9196 5.4468 4.15753 7.66472L1.06271 5.13104H1.06219C2.64328 2.08269 5.82837 0 9.49998 0C11.805 0 13.9185 0.821082 15.5638 2.18708Z" fill="#F14336"/>
</g>
<defs>
<clipPath id="clip0">
<rect width="19" height="19" fill="white"/>
</clipPath>
</defs>
</svg>
