<svg width="32" height="26" viewBox="0 0 32 26" fill="none" xmlns="http://www.w3.org/2000/svg">
<path d="M32 3.08848C30.8232 3.59617 29.5426 3.96155 28.2235 4.10386C29.593 3.29015 30.6186 2.00463 31.1078 0.488477C29.8227 1.25305 28.4149 1.78918 26.9468 2.07309C26.3332 1.41704 25.591 0.894399 24.7666 0.537737C23.9423 0.181074 23.0532 -0.0019684 22.155 1.59631e-05C18.5209 1.59631e-05 15.5981 2.94617 15.5981 6.56155C15.5981 7.06924 15.6597 7.57693 15.7596 8.0654C10.318 7.78078 5.46473 5.18078 2.23819 1.20002C1.65028 2.2043 1.3422 3.34781 1.34599 4.51155C1.34599 6.78847 2.50355 8.79616 4.26872 9.97693C3.22847 9.93596 2.21259 9.65 1.30369 9.14232V9.22309C1.30369 12.4115 3.55727 15.0539 6.56075 15.6615C5.99681 15.808 5.41668 15.883 4.83403 15.8846C4.40716 15.8846 4.00336 15.8423 3.59572 15.7846C4.42639 18.3846 6.84533 20.2731 9.72575 20.3346C7.47218 22.1 4.64944 23.1385 1.58443 23.1385C1.03449 23.1385 0.52686 23.1192 0 23.0577C2.90734 24.9231 6.35693 26 10.0719 26C22.132 26 28.7312 16.0077 28.7312 7.33463C28.7312 7.05001 28.7312 6.7654 28.7119 6.48078C29.9887 5.54617 31.1078 4.38847 32 3.08848Z" fill="#C7FFD0"/>
</svg>
