<svg width="39" height="32" viewBox="0 0 39 32" fill="none" xmlns="http://www.w3.org/2000/svg">
<path d="M39 3.8012C37.5658 4.42605 36.005 4.87576 34.3974 5.0509C36.0665 4.04942 37.3164 2.46723 37.9126 0.601203C36.3464 1.54222 34.6306 2.20207 32.8414 2.5515C32.0935 1.74405 31.1891 1.1008 30.1844 0.66183C29.1796 0.22286 28.0961 -0.00242264 27.0014 1.96469e-05C22.5723 1.96469e-05 19.0102 3.62605 19.0102 8.07575C19.0102 8.70061 19.0852 9.32546 19.2071 9.92664C12.5751 9.57635 6.66014 6.37635 2.7278 1.47694C2.01128 2.71299 1.6358 4.12038 1.64043 5.55268C1.64043 8.35504 3.0512 10.826 5.2025 12.2793C3.9347 12.2289 2.69659 11.8769 1.58887 11.2521V11.3515C1.58887 15.2757 4.33542 18.5278 7.99591 19.2757C7.30862 19.4561 6.60158 19.5483 5.89148 19.5503C5.37123 19.5503 4.8791 19.4982 4.38229 19.4272C5.39466 22.6272 8.34275 24.9515 11.8533 25.0272C9.10672 27.2 5.66651 28.4781 1.93102 28.4781C1.26079 28.4781 0.64211 28.4544 0 28.3787C3.54332 30.6746 7.74751 32 12.2751 32C26.9733 32 35.0161 19.7018 35.0161 9.02723C35.0161 8.67694 35.0161 8.32664 34.9927 7.97635C36.5487 6.82605 37.9126 5.4012 39 3.8012Z" fill="#C7FFD0"/>
</svg>
