<svg width="17" height="29" viewBox="0 0 17 29" fill="none" xmlns="http://www.w3.org/2000/svg">
<path d="M7.448 28.784V26.32C5.37867 26.0853 3.69333 25.36 2.392 24.144C1.09067 22.928 0.418667 21.296 0.376 19.248H4.696C4.73867 20.1013 4.99467 20.848 5.464 21.488C5.95467 22.128 6.616 22.5653 7.448 22.8V16.048C7.256 15.984 7.05333 15.92 6.84 15.856C6.648 15.792 6.44533 15.728 6.232 15.664C4.504 15.0667 3.18133 14.2987 2.264 13.36C1.368 12.4213 0.92 11.1733 0.92 9.616C0.898667 7.78133 1.496 6.30933 2.712 5.2C3.928 4.06933 5.50667 3.41867 7.448 3.248V0.655998H9.592V3.28C11.512 3.472 13.0587 4.144 14.232 5.296C15.4267 6.42667 16.056 7.888 16.12 9.68H11.736C11.7147 9.06133 11.512 8.496 11.128 7.984C10.7653 7.45067 10.2533 7.07733 9.592 6.864V12.816C9.76267 12.88 9.93333 12.944 10.104 13.008C10.2747 13.0507 10.4453 13.104 10.616 13.168C11.7253 13.552 12.7387 14 13.656 14.512C14.5733 15.024 15.3093 15.7067 15.864 16.56C16.4187 17.392 16.696 18.4693 16.696 19.792C16.696 20.9013 16.4187 21.936 15.864 22.896C15.3307 23.856 14.5307 24.656 13.464 25.296C12.4187 25.9147 11.128 26.2667 9.592 26.352V28.784H7.448ZM5.208 9.328C5.208 10.0107 5.41067 10.5653 5.816 10.992C6.22133 11.3973 6.76533 11.7493 7.448 12.048V6.736C6.78667 6.864 6.24267 7.152 5.816 7.6C5.41067 8.048 5.208 8.624 5.208 9.328ZM12.344 20.08C12.344 19.2267 12.088 18.5547 11.576 18.064C11.064 17.5733 10.4027 17.1573 9.592 16.816V22.896C10.4453 22.768 11.1173 22.4587 11.608 21.968C12.0987 21.4773 12.344 20.848 12.344 20.08Z" fill="#C7FFD0"/>
</svg>
