<svg width="551" height="643" viewBox="0 0 551 643" fill="none" xmlns="http://www.w3.org/2000/svg">
<path fill-rule="evenodd" clip-rule="evenodd" d="M550.285 0.000270188L0.500305 0.000244141V0.500007H0V642.284H0.500305V642.785H550.285V642.285H550.785V0.50027H550.285V0.000270188ZM549.785 641.785V551.101H459.154V641.785H549.785ZM458.154 641.785V551.101H367.524V641.785H458.154ZM366.524 641.785V551.101H275.893V641.785H366.524ZM274.893 641.785V551.101H184.261V641.785H274.893ZM183.261 641.785V551.101H92.6308V641.785H183.261ZM91.6308 641.785V551.101H1V641.785H91.6308ZM91.6308 550.101H1V459.418H91.6308V550.101ZM183.261 550.101H92.6308V459.418H183.261V550.101ZM274.893 550.101H184.261V459.418H274.893V550.101ZM366.524 550.101H275.893V459.418H366.524V550.101ZM458.154 550.101H367.524V459.418H458.154V550.101ZM549.785 550.101H459.154V459.418H549.785V550.101ZM549.785 366.734V276.051H459.154V366.734H549.785ZM549.785 367.734H459.154V458.418H549.785V367.734ZM458.154 366.734V276.051H367.524V366.734H458.154ZM367.524 367.734H458.154V458.418H367.524V367.734ZM366.524 366.734V276.051H275.893V366.734H366.524ZM275.893 367.734H366.524V458.418H275.893V367.734ZM274.893 366.734V276.051H184.261V366.734H274.893ZM184.261 367.734H274.893V458.418H184.261V367.734ZM183.261 366.734V276.051H92.6308V366.734H183.261ZM92.6308 367.734H183.261V458.418H92.6308V367.734ZM91.6308 366.734V276.051H1V366.734H91.6308ZM1 367.734H91.6308V458.418H1V367.734ZM91.6308 275.051H1V184.367H91.6308V275.051ZM1 92.6839V183.367H91.6308V92.6839H1ZM92.6308 275.051V184.367L183.261 184.367V275.051H92.6308ZM92.6308 183.367L183.261 183.367V92.6839H92.6308V183.367ZM184.261 275.051V184.367H274.893V275.051H184.261ZM184.261 183.367H274.893V92.6839H184.261V183.367ZM275.893 275.051V184.367H366.524V275.051H275.893ZM275.893 183.367H366.524V92.6839H275.893V183.367ZM367.524 275.051V184.367L458.154 184.367V275.051H367.524ZM367.524 183.367L458.154 183.367V92.6839H367.524V183.367ZM459.154 275.051V184.367H549.785V275.051H459.154ZM459.154 183.367H549.785V92.6839H459.154V183.367ZM549.785 1.00027L459.154 1.00027V91.6839H549.785V1.00027ZM458.154 1.00027L367.524 1.00026V91.6839H458.154V1.00027ZM366.524 1.00026L275.893 1.00026V91.6839H366.524V1.00026ZM274.893 1.00026L184.261 1.00025V91.6839H274.893V1.00026ZM183.261 1.00025L92.6308 1.00025V91.6839H183.261V1.00025ZM91.6308 1.00025L1 1.00024V91.6839H91.6308V1.00025Z" fill="#3A475C"/>
</svg>
