<svg width="14" height="26" viewBox="0 0 14 26" fill="none" xmlns="http://www.w3.org/2000/svg">
<path d="M4.25 22.669H9.75V17.505H4.25V22.669ZM7 25.337C8.894 25.337 9.483 24.31 9.667 23.671H4.333C4.517 24.311 5.106 25.337 7 25.337ZM7 0.00399995C5.14348 0.00399995 3.36301 0.741498 2.05025 2.05425C0.737498 3.36701 0 5.14748 0 7.004C0 10.864 3.945 11.941 4.223 16.504H5.493C5.485 16.478 5.47 16.454 5.465 16.424L3.465 5.427C3.44618 5.30945 3.46975 5.18904 3.5315 5.08727C3.59324 4.98549 3.68915 4.90897 3.80209 4.87136C3.91504 4.83375 4.03768 4.8375 4.14811 4.88195C4.25855 4.92639 4.34959 5.00864 4.405 5.114L4.958 6.22L5.511 5.113C5.55267 5.03032 5.61648 4.96083 5.69531 4.91229C5.77415 4.86374 5.86491 4.83803 5.9575 4.83803C6.05009 4.83803 6.14085 4.86374 6.21969 4.91229C6.29852 4.96083 6.36233 5.03032 6.404 5.113L6.957 6.219L7.51 5.112C7.55114 5.02871 7.61476 4.95859 7.69366 4.90956C7.77256 4.86053 7.8636 4.83455 7.9565 4.83455C8.04939 4.83455 8.14044 4.86053 8.21934 4.90956C8.29824 4.95859 8.36186 5.02871 8.403 5.112L8.957 6.218L9.51 5.111C9.56483 5.0052 9.65565 4.92246 9.76608 4.87769C9.87652 4.83292 9.99932 4.82907 10.1123 4.86682C10.2254 4.90458 10.3212 4.98146 10.3826 5.08362C10.4439 5.18577 10.4668 5.30649 10.447 5.424L8.447 16.422C8.443 16.452 8.427 16.475 8.419 16.5H9.774C10.052 11.938 13.998 10.86 13.998 7C13.998 3.136 10.864 0 6.998 0L7 0.00399995ZM8.958 7.837C8.8654 7.83737 8.77455 7.8118 8.69572 7.7632C8.6169 7.7146 8.55326 7.6449 8.512 7.562L7.958 6.457L7.405 7.563C7.36294 7.64561 7.29888 7.71499 7.21988 7.76348C7.14087 7.81198 7.05 7.83769 6.95731 7.8378C6.86461 7.8379 6.77368 7.81239 6.69457 7.76407C6.61546 7.71575 6.55124 7.64652 6.509 7.564L5.956 6.459L5.403 7.565C5.36188 7.64809 5.2983 7.71799 5.21947 7.76677C5.14063 7.81556 5.04971 7.84127 4.957 7.841H4.92L6.375 15.841H7.542L8.996 7.841H8.958V7.837Z" fill="#F29C38"/>
</svg>
