<svg width="217" height="68" viewBox="0 0 217 68" fill="none" xmlns="http://www.w3.org/2000/svg">
<path fill-rule="evenodd" clip-rule="evenodd" d="M0 40.2914C0 49.9501 7.7791 57.8083 17.3406 57.8083C26.9022 57.8083 34.6812 49.9501 34.6812 40.2914C34.6812 30.8281 23.3234 18.9083 22.8399 18.4058C22.5635 18.1126 22.1076 18.1126 21.8174 18.3918C21.5272 18.671 21.5272 19.1316 21.8036 19.4246C21.8312 19.4526 24.719 22.4674 27.5653 26.557C31.2822 31.9028 33.2442 36.6484 33.2442 40.2914C33.2442 49.1545 26.1146 56.3567 17.3406 56.3567C8.56669 56.3567 1.43699 49.1406 1.43699 40.2914C1.43699 36.6484 3.38522 31.9028 7.07442 26.557C9.89317 22.4674 12.7533 19.4526 12.781 19.4246C13.0572 19.1316 13.0572 18.671 12.7671 18.3918C12.477 18.1126 12.021 18.1126 11.7447 18.4058C11.6203 18.5313 8.78774 21.5183 5.89995 25.7056C1.98968 31.3864 0 36.2995 0 40.2914ZM17.3405 54.3191C9.47855 54.3191 3.09497 47.8567 3.09497 39.9287C3.09497 32.1682 13.8171 21.337 14.2731 20.8904C14.5494 20.6113 15.0192 20.6113 15.2956 20.8904C15.5719 21.1696 15.5719 21.6442 15.2956 21.9233L15.2952 21.9236C15.1629 22.0573 4.54578 32.7898 4.54578 39.9287C4.54578 47.0611 10.2938 52.8675 17.3544 52.8675C24.415 52.8675 30.1629 47.0611 30.1629 39.9287C30.1629 36.9976 28.2837 32.9498 24.719 28.1903C22.0063 24.5781 19.28 21.8305 19.2072 21.7571L19.2059 21.7558C18.9157 21.4767 18.9157 21.0161 19.2059 20.7229C19.4822 20.4298 19.9382 20.4298 20.2283 20.7229C20.6981 21.1835 31.6137 32.1543 31.6137 39.9287C31.5861 47.8567 25.2025 54.3191 17.3405 54.3191ZM17.3408 50.8286C13.612 50.8286 10.322 48.9133 8.38317 46.0046C7.2255 44.2678 6.54956 42.1767 6.54956 39.9277C6.54956 34.0794 16.3183 23.7507 16.7328 23.318L17.2441 22.7737L17.7691 23.304C18.1974 23.7367 28.1321 34.0654 28.1321 39.9137C28.1321 42.1695 27.4552 44.2651 26.2962 46.0046C24.357 48.9149 21.0681 50.8286 17.3408 50.8286ZM17.2579 24.8813C16.4012 25.8165 14.605 27.8403 12.8226 30.2131C9.65845 34.4284 7.98655 37.7782 7.98655 39.9137C7.98655 45.1199 12.187 49.3631 17.3408 49.3631C22.4946 49.3631 26.6951 45.1199 26.6951 39.9137C26.6951 37.7782 24.9955 34.4284 21.7762 30.2131C19.9661 27.8543 18.1284 25.8165 17.2579 24.8813Z" fill="url(#paint0_linear)"/>
<path d="M17.2975 8.01129L29.8685 15.0626V29.1651L17.2975 36.2163L4.72644 29.1651V15.0626L17.2975 8.01129Z" fill="#7380EB"/>
<path d="M17.236 21.3334L29.8671 15.0605L29.87 29.1607L17.2933 36.2258L17.236 21.3334Z" fill="#6E98E9"/>
<path fill-rule="evenodd" clip-rule="evenodd" d="M17.2898 11.09L27.0219 16.4884L29.8614 15.0741L17.2993 8.008L17.2898 8.01339L17.2803 8.008L4.71814 15.0741L4.72522 15.0776L4.72285 29.1621L7.48453 30.7175L7.485 30.6354V30.7042L17.3038 36.2225V36.2138L29.8644 29.1662V27.5865V25.9929L17.3038 33.0505V33.0492L7.50238 27.5507L7.56473 16.4881L7.5613 16.4864L17.2898 11.09Z" fill="#16253D"/>
<path d="M50.1942 49.527C50.7617 49.527 51.2798 49.4398 51.7486 49.2777C52.2174 49.1033 52.6246 48.879 52.9823 48.5923C53.3402 48.3181 53.6362 48.0066 53.8707 47.6575C54.1051 47.3086 54.2777 46.9597 54.3888 46.5983L53.0934 46.4113C52.9823 46.6605 52.8466 46.8973 52.674 47.1342C52.5012 47.371 52.2915 47.5704 52.0571 47.7448C51.8227 47.9318 51.5512 48.0688 51.2428 48.181C50.9343 48.2931 50.5766 48.343 50.1942 48.343C49.7747 48.343 49.3675 48.2558 48.985 48.0688C48.6026 47.8819 48.2572 47.6326 47.9611 47.3086C47.665 46.997 47.4306 46.6232 47.2578 46.187C47.0728 45.7508 46.9865 45.2897 46.9865 44.7911C46.9865 44.2927 47.0728 43.8315 47.2578 43.3953C47.4306 42.9591 47.665 42.5853 47.9611 42.2612C48.2572 41.9497 48.6026 41.7004 48.985 41.5135C49.3675 41.3265 49.7747 41.2393 50.1942 41.2393C50.5519 41.2393 50.8727 41.2891 51.1564 41.3888C51.4402 41.4886 51.6992 41.6132 51.9214 41.7751C52.131 41.9372 52.3161 42.1242 52.4766 42.336C52.6369 42.5479 52.7603 42.7722 52.8466 42.9841L54.142 42.7971C54.031 42.4607 53.8707 42.1242 53.6486 41.7877C53.4265 41.4637 53.1551 41.177 52.822 40.9153C52.4889 40.6535 52.0941 40.4541 51.6623 40.2921C51.2304 40.1301 50.737 40.0554 50.1942 40.0554C49.5896 40.0554 49.0221 40.18 48.4793 40.4292C47.9364 40.6784 47.4552 41.015 47.0481 41.4387C46.6287 41.8749 46.2955 42.3734 46.0611 42.9467C45.8144 43.5199 45.691 44.1306 45.691 44.7911C45.691 45.4517 45.8144 46.0624 46.0611 46.6356C46.2955 47.2089 46.6287 47.7074 47.0481 48.1312C47.4552 48.5674 47.9364 48.9039 48.4793 49.1531C49.0221 49.4023 49.5896 49.527 50.1942 49.527Z" fill="#16253D"/>
<path fill-rule="evenodd" clip-rule="evenodd" d="M58.1473 46.2867H60.9233L62.527 49.1531H63.8842L62.157 46.0375C62.5024 45.9128 62.8108 45.7259 63.0823 45.4891C63.3167 45.2897 63.5264 45.0155 63.7238 44.6665C63.9088 44.33 64.0075 43.8938 64.0075 43.3579C64.0075 42.9342 63.9336 42.5479 63.7855 42.1864C63.6374 41.825 63.4277 41.5135 63.1562 41.2518C62.8725 40.99 62.5394 40.7906 62.1446 40.6411C61.7498 40.504 61.3057 40.4292 60.8246 40.4292H56.8519V49.1531H58.1473V46.2867ZM60.7998 45.1027H58.1473V41.6132H60.8246C61.1083 41.6132 61.3674 41.6505 61.6018 41.7378C61.8362 41.825 62.0336 41.9497 62.1939 42.1117C62.3544 42.2737 62.49 42.4482 62.5764 42.6601C62.6628 42.8719 62.7121 43.1087 62.7121 43.3579C62.7121 43.5947 62.6628 43.8066 62.5764 44.0185C62.49 44.2303 62.3544 44.4173 62.1939 44.5793C62.0336 44.7413 61.8362 44.8659 61.6018 44.9532C61.3674 45.0529 61.0959 45.1027 60.7998 45.1027Z" fill="#16253D"/>
<path d="M70.4899 46.2867V49.1531H69.1945V46.2867C68.6393 45.327 68.0718 44.3425 67.5042 43.3579C66.9244 42.3734 66.3569 41.4013 65.8018 40.4292H67.2822L69.8114 44.7289H69.873L72.4022 40.4292H73.8826C73.5324 41.0425 73.1772 41.6558 72.8202 42.2722L72.8195 42.2734L72.819 42.2745C72.6105 42.6343 72.4014 42.9953 72.1924 43.3579C71.696 44.2009 71.2086 45.0438 70.7303 45.8711L70.4899 46.2867Z" fill="#16253D"/>
<path fill-rule="evenodd" clip-rule="evenodd" d="M83.2624 43.6072C83.2624 43.171 83.176 42.7598 83.0156 42.3734C82.8429 41.987 82.6085 41.6505 82.3 41.3639C81.9916 41.0773 81.6338 40.8405 81.2144 40.6784C80.7826 40.5165 80.3138 40.4292 79.8079 40.4292H76.045V49.1531H77.3405V46.7851H79.8079C80.3138 46.7851 80.7826 46.698 81.2144 46.5359C81.6338 46.3739 81.9916 46.1372 82.3 45.8505C82.6085 45.5638 82.8429 45.2273 83.0156 44.841C83.176 44.4547 83.2624 44.0434 83.2624 43.6072ZM81.9669 43.6072C81.9669 44.2054 81.7819 44.6914 81.3995 45.0529C81.017 45.4143 80.4865 45.6013 79.8079 45.6013H77.3405V41.6132H79.8079C80.4865 41.6132 81.017 41.8001 81.3995 42.1615C81.7819 42.5229 81.9669 43.009 81.9669 43.6072Z" fill="#16253D"/>
<path d="M87.8369 41.6132H84.9374V40.4292H92.0317V41.6132H89.1321V49.1531H87.8369V41.6132Z" fill="#16253D"/>
<path fill-rule="evenodd" clip-rule="evenodd" d="M102.758 44.7911C102.758 44.1306 102.635 43.5199 102.388 42.9467C102.141 42.3734 101.808 41.8749 101.389 41.4387C100.969 41.015 100.476 40.6784 99.9204 40.4292C99.3657 40.18 98.7611 40.0554 98.1312 40.0554C97.5022 40.0554 96.8976 40.18 96.3429 40.4292C95.7873 40.6784 95.2942 41.015 94.8746 41.4387C94.4549 41.8749 94.1222 42.3734 93.8748 42.9467C93.6283 43.5199 93.505 44.1306 93.505 44.7911C93.505 45.4517 93.6283 46.0624 93.8748 46.6356C94.1222 47.2089 94.4549 47.7074 94.8746 48.1312C95.2942 48.5674 95.7873 48.9039 96.3429 49.1531C96.8976 49.4023 97.5022 49.527 98.1312 49.527C98.7611 49.527 99.3657 49.4023 99.9204 49.1531C100.476 48.9039 100.969 48.5674 101.389 48.1312C101.808 47.7074 102.141 47.2089 102.388 46.6356C102.635 46.0624 102.758 45.4517 102.758 44.7911ZM94.8003 44.7911C94.8003 44.2927 94.8872 43.8315 95.0721 43.3953C95.2571 42.9591 95.4918 42.5853 95.8 42.2612C96.1082 41.9497 96.4535 41.7004 96.8605 41.5135C97.2683 41.3265 97.6871 41.2393 98.1312 41.2393C98.5754 41.2393 98.995 41.3265 99.402 41.5135C99.8098 41.7004 100.155 41.9497 100.463 42.2612C100.772 42.5853 101.006 42.9591 101.191 43.3953C101.376 43.8315 101.463 44.2927 101.463 44.7911C101.463 45.2897 101.376 45.7508 101.191 46.187C101.006 46.6232 100.772 46.997 100.463 47.3086C100.155 47.6326 99.8098 47.8819 99.402 48.0688C98.995 48.2558 98.5754 48.343 98.1312 48.343C97.6871 48.343 97.2683 48.2558 96.8605 48.0688C96.4535 47.8819 96.1082 47.6326 95.8 47.3086C95.4918 46.997 95.2571 46.6232 95.0721 46.187C94.8872 45.7508 94.8003 45.2897 94.8003 44.7911Z" fill="#16253D"/>
<path d="M110.978 49.2777C110.51 49.4398 109.992 49.527 109.424 49.527C108.819 49.527 108.252 49.4023 107.709 49.1531C107.167 48.9039 106.685 48.5674 106.279 48.1312C105.859 47.7074 105.525 47.2089 105.291 46.6356C105.044 46.0624 104.921 45.4517 104.921 44.7911C104.921 44.1306 105.044 43.5199 105.291 42.9467C105.525 42.3734 105.859 41.8749 106.279 41.4387C106.685 41.015 107.167 40.6784 107.709 40.4292C108.252 40.18 108.819 40.0554 109.424 40.0554C109.967 40.0554 110.461 40.1301 110.892 40.2921C111.324 40.4541 111.719 40.6535 112.052 40.9153C112.385 41.177 112.657 41.4637 112.879 41.7877C113.101 42.1242 113.261 42.4607 113.372 42.7971L112.077 42.9841C111.991 42.7722 111.867 42.5479 111.707 42.336C111.546 42.1242 111.361 41.9372 111.151 41.7751C110.929 41.6132 110.67 41.4886 110.386 41.3888C110.103 41.2891 109.782 41.2393 109.424 41.2393C109.005 41.2393 108.597 41.3265 108.215 41.5135C107.833 41.7004 107.487 41.9497 107.191 42.2612C106.895 42.5853 106.66 42.9591 106.488 43.3953C106.303 43.8315 106.216 44.2927 106.216 44.7911C106.216 45.2897 106.303 45.7508 106.488 46.187C106.66 46.6232 106.895 46.997 107.191 47.3086C107.487 47.6326 107.833 47.8819 108.215 48.0688C108.597 48.2558 109.005 48.343 109.424 48.343C109.806 48.343 110.164 48.2931 110.472 48.181C110.781 48.0688 111.052 47.9318 111.287 47.7448C111.521 47.5704 111.731 47.371 111.904 47.1342C112.077 46.8973 112.213 46.6605 112.323 46.4113L113.618 46.5983C113.508 46.9597 113.335 47.3086 113.101 47.6575C112.866 48.0066 112.57 48.3181 112.213 48.5923C111.855 48.879 111.448 49.1033 110.978 49.2777Z" fill="#16253D"/>
<path d="M119.598 48.343C119.277 48.343 118.981 48.2807 118.71 48.1685C118.438 48.0564 118.204 47.8944 118.007 47.6825C117.809 47.4707 117.661 47.2213 117.55 46.9223C117.439 46.6232 117.378 46.2867 117.378 45.9128V40.4292H116.082V45.9128C116.082 46.4611 116.169 46.9597 116.341 47.3959C116.501 47.8445 116.749 48.2309 117.057 48.5425C117.365 48.854 117.735 49.1033 118.167 49.2777C118.599 49.4398 119.067 49.527 119.598 49.527C120.129 49.527 120.61 49.4398 121.041 49.2777C121.474 49.1033 121.843 48.854 122.152 48.5425C122.461 48.2309 122.695 47.8445 122.868 47.3959C123.028 46.9597 123.114 46.4611 123.114 45.9128V40.4292H121.819V45.9128C121.819 46.2867 121.769 46.6232 121.659 46.9223C121.547 47.2213 121.387 47.4707 121.19 47.6825C120.992 47.8944 120.758 48.0564 120.487 48.1685C120.215 48.2807 119.919 48.343 119.598 48.343Z" fill="#16253D"/>
<path fill-rule="evenodd" clip-rule="evenodd" d="M130.208 46.2867H127.431V49.1531H126.136V40.4292H130.109C130.59 40.4292 131.034 40.504 131.429 40.6411C131.824 40.7906 132.157 40.99 132.441 41.2518C132.712 41.5135 132.922 41.825 133.07 42.1864C133.218 42.5479 133.292 42.9342 133.292 43.3579C133.292 43.8938 133.193 44.33 133.008 44.6665C132.811 45.0155 132.601 45.2897 132.367 45.4891C132.096 45.7259 131.787 45.9128 131.441 46.0375L133.169 49.1531H131.811L130.208 46.2867ZM127.431 45.1027H130.084C130.381 45.1027 130.652 45.0529 130.886 44.9532C131.12 44.8659 131.318 44.7413 131.478 44.5793C131.639 44.4173 131.775 44.2303 131.861 44.0185C131.947 43.8066 131.997 43.5947 131.997 43.3579C131.997 43.1087 131.947 42.8719 131.861 42.6601C131.775 42.4482 131.639 42.2737 131.478 42.1117C131.318 41.9497 131.12 41.825 130.886 41.7378C130.652 41.6505 130.393 41.6132 130.109 41.6132H127.431V45.1027Z" fill="#16253D"/>
<path fill-rule="evenodd" clip-rule="evenodd" d="M137.245 46.2867H140.021L141.625 49.1531H142.982L141.255 46.0375C141.601 45.9128 141.909 45.7259 142.18 45.4891C142.414 45.2897 142.624 45.0155 142.821 44.6665C143.006 44.33 143.105 43.8938 143.105 43.3579C143.105 42.9342 143.032 42.5479 142.883 42.1864C142.735 41.825 142.525 41.5135 142.254 41.2518C141.97 40.99 141.637 40.7906 141.243 40.6411C140.847 40.504 140.403 40.4292 139.922 40.4292H135.95V49.1531H137.245V46.2867ZM139.897 45.1027H137.245V41.6132H139.922C140.206 41.6132 140.465 41.6505 140.7 41.7378C140.934 41.825 141.131 41.9497 141.291 42.1117C141.452 42.2737 141.588 42.4482 141.674 42.6601C141.761 42.8719 141.81 43.1087 141.81 43.3579C141.81 43.5947 141.761 43.8066 141.674 44.0185C141.588 44.2303 141.452 44.4173 141.291 44.5793C141.131 44.7413 140.934 44.8659 140.7 44.9532C140.465 45.0529 140.194 45.1027 139.897 45.1027Z" fill="#16253D"/>
<path d="M147.058 47.9691H152.117V49.1531H145.763V40.4292H152.117V41.6132H147.058V44.168H151.068V45.3519H147.058V47.9691Z" fill="#16253D"/>
<path d="M160.202 46.9721L156.008 40.4292H154.588V49.1531H155.884V42.6102H156.008L160.202 49.1531H161.621V40.4292H160.326V46.9721H160.202Z" fill="#16253D"/>
<path d="M170.269 49.2777C169.8 49.4398 169.282 49.527 168.715 49.527C168.11 49.527 167.543 49.4023 167 49.1531C166.457 48.9039 165.975 48.5674 165.568 48.1312C165.149 47.7074 164.816 47.2089 164.581 46.6356C164.335 46.0624 164.212 45.4517 164.212 44.7911C164.212 44.1306 164.335 43.5199 164.581 42.9467C164.816 42.3734 165.149 41.8749 165.568 41.4387C165.975 41.015 166.457 40.6784 167 40.4292C167.543 40.18 168.11 40.0554 168.715 40.0554C169.257 40.0554 169.751 40.1301 170.183 40.2921C170.614 40.4541 171.009 40.6535 171.342 40.9153C171.676 41.177 171.947 41.4637 172.169 41.7877C172.391 42.1242 172.551 42.4607 172.662 42.7971L171.367 42.9841C171.281 42.7722 171.157 42.5479 170.997 42.336C170.836 42.1242 170.651 41.9372 170.441 41.7751C170.219 41.6132 169.961 41.4886 169.676 41.3888C169.393 41.2891 169.073 41.2393 168.715 41.2393C168.295 41.2393 167.888 41.3265 167.505 41.5135C167.123 41.7004 166.778 41.9497 166.481 42.2612C166.185 42.5853 165.951 42.9591 165.778 43.3953C165.593 43.8315 165.507 44.2927 165.507 44.7911C165.507 45.2897 165.593 45.7508 165.778 46.187C165.951 46.6232 166.185 46.997 166.481 47.3086C166.778 47.6326 167.123 47.8819 167.505 48.0688C167.888 48.2558 168.295 48.343 168.715 48.343C169.097 48.343 169.454 48.2931 169.763 48.181C170.071 48.0688 170.342 47.9318 170.577 47.7448C170.812 47.5704 171.021 47.371 171.194 47.1342C171.367 46.8973 171.503 46.6605 171.613 46.4113L172.909 46.5983C172.798 46.9597 172.626 47.3086 172.391 47.6575C172.156 48.0066 171.861 48.3181 171.503 48.5923C171.145 48.879 170.738 49.1033 170.269 49.2777Z" fill="#16253D"/>
<path d="M176.668 40.4292H175.372V49.1531H176.668V40.4292Z" fill="#16253D"/>
<path d="M180.987 47.9691H186.045V49.1531H179.692V40.4292H186.045V41.6132H180.987V44.168H184.996V45.3519H180.987V47.9691Z" fill="#16253D"/>
<path d="M193.699 46.7229C193.699 46.9223 193.649 47.1217 193.55 47.3086C193.452 47.508 193.317 47.6825 193.132 47.832C192.946 47.9941 192.737 48.1187 192.477 48.2059C192.218 48.2932 191.923 48.343 191.602 48.343C191.281 48.343 190.997 48.2932 190.738 48.2059C190.479 48.1187 190.244 48.0066 190.059 47.8445C189.874 47.695 189.714 47.5205 189.578 47.3086C189.443 47.1092 189.331 46.8973 189.258 46.6605L187.962 46.8475C188.085 47.2339 188.245 47.5953 188.456 47.9193C188.665 48.2558 188.912 48.5299 189.208 48.7668C189.504 49.0036 189.85 49.1905 190.244 49.3276C190.639 49.4647 191.096 49.527 191.602 49.527C192.132 49.527 192.601 49.4522 193.02 49.3027C193.44 49.1406 193.798 48.9412 194.093 48.6795C194.377 48.4303 194.599 48.1312 194.76 47.7947C194.92 47.4582 194.994 47.0967 194.994 46.7229C194.994 46.3365 194.92 46.0125 194.772 45.7508C194.612 45.4891 194.414 45.2522 194.18 45.0654C193.933 44.8784 193.649 44.7289 193.341 44.6042C193.02 44.4796 192.699 44.3674 192.379 44.2677C192.164 44.2115 191.954 44.15 191.749 44.09L191.748 44.0894C191.635 44.0567 191.525 44.0244 191.417 43.9936C191.096 43.9063 190.812 43.7941 190.577 43.682C190.331 43.5698 190.133 43.4328 189.986 43.2707C189.825 43.1087 189.751 42.9093 189.751 42.6725C189.751 42.498 189.8 42.3236 189.887 42.1491C189.973 41.987 190.109 41.825 190.269 41.688C190.43 41.5508 190.615 41.4512 190.849 41.3639C191.071 41.2767 191.318 41.2393 191.602 41.2393C191.897 41.2393 192.156 41.2767 192.379 41.3515C192.601 41.4262 192.798 41.5259 192.971 41.663C193.132 41.8001 193.267 41.9497 193.378 42.1366C193.489 42.3236 193.576 42.5229 193.637 42.7348L194.933 42.5479C194.847 42.2113 194.711 41.8874 194.526 41.5758C194.34 41.2767 194.106 41.015 193.822 40.7906C193.539 40.5663 193.218 40.3918 192.847 40.2548C192.477 40.1176 192.058 40.0554 191.602 40.0554C191.12 40.0554 190.688 40.1301 190.306 40.2672C189.924 40.4168 189.59 40.6162 189.319 40.8529C189.036 41.0897 188.825 41.3764 188.678 41.688C188.529 41.9996 188.456 42.336 188.456 42.6725C188.456 43.0588 188.529 43.3953 188.69 43.6571C188.838 43.9312 189.036 44.168 189.282 44.355C189.516 44.5419 189.8 44.7039 190.121 44.8285C190.43 44.9532 190.751 45.0654 191.083 45.1651C191.404 45.2647 191.725 45.352 192.045 45.4391C192.354 45.5264 192.638 45.6262 192.884 45.7383C193.119 45.8505 193.317 45.9876 193.477 46.1372C193.625 46.2991 193.699 46.4861 193.699 46.7229Z" fill="#16253D"/>
<path d="M197.83 49.8407C197.567 49.8407 197.34 49.7452 197.151 49.5542C196.962 49.3632 196.868 49.1343 196.868 48.8677C196.868 48.5971 196.962 48.3682 197.151 48.1812C197.344 47.9901 197.57 47.8946 197.83 47.8946C198.091 47.8946 198.315 47.9901 198.504 48.1812C198.698 48.3682 198.794 48.5971 198.794 48.8677C198.794 49.1343 198.699 49.3632 198.51 49.5542C198.321 49.7452 198.095 49.8407 197.83 49.8407ZM202.812 49.5601H201.666L204.491 40.2952H205.702L208.545 49.5601H207.286L206.66 47.5245H203.433L202.812 49.5601ZM203.717 46.5992H206.394L205.289 43.0831L205.029 42.1518L204.798 43.0831L203.717 46.5992ZM209.756 49.5601V48.6349H211.772V41.2266H209.756V40.2952H214.98V41.2266H212.966V48.6349H214.98V49.5601H209.756Z" fill="#16253D"/>
<path d="M59.0366 26.877C59.0366 28.5479 58.4359 29.8846 57.2345 30.8871C56.0506 31.872 54.3617 32.3645 52.1679 32.3645C50.2004 32.3645 48.4419 31.9864 46.8923 31.2301V27.5102C47.7803 27.8971 48.6944 28.2577 49.6346 28.5919C50.5922 28.9085 51.5411 29.0668 52.4813 29.0668C53.4563 29.0668 54.144 28.882 54.5445 28.5127C54.9624 28.1258 55.1713 27.6421 55.1713 27.0617C55.1713 26.5868 55.0059 26.1823 54.6751 25.8481C54.3617 25.5139 53.9351 25.2062 53.3954 24.9247C52.8556 24.6258 52.2375 24.3091 51.5411 23.975C51.1059 23.7639 50.6357 23.5177 50.1308 23.2363C49.6259 22.9373 49.1383 22.5767 48.6683 22.1546C48.2156 21.7149 47.8412 21.1873 47.5453 20.5717C47.2492 19.9561 47.1012 19.2174 47.1012 18.3556C47.1012 16.6671 47.6671 15.3568 48.7988 14.4247C49.9306 13.4749 51.4715 13 53.4215 13C54.3965 13 55.3193 13.1144 56.1898 13.343C57.0778 13.5716 58.0006 13.897 58.9582 14.3192L57.6785 17.4322C56.8254 17.0805 56.0593 16.8079 55.3802 16.6143C54.7012 16.4209 54.0048 16.3242 53.2909 16.3242C52.5422 16.3242 51.9677 16.5 51.5672 16.8518C51.1667 17.2035 50.9665 17.6609 50.9665 18.2237C50.9665 18.892 51.2625 19.4197 51.8545 19.8066C52.4464 20.1935 53.3258 20.6685 54.4922 21.2312C55.4499 21.6886 56.2595 22.1634 56.9211 22.6559C57.6001 23.1484 58.1225 23.7287 58.4881 24.3971C58.8538 25.0655 59.0366 25.8921 59.0366 26.877ZM93.0955 32.1007H82.362V13.2638H93.0955V16.5353H86.3052V20.6772H92.6261V23.9486H86.3052V28.803H93.0955V32.1007ZM122.344 13.2638C124.886 13.2638 126.758 13.7299 127.959 14.6621C129.178 15.5943 129.787 17.0101 129.787 18.9096C129.787 19.7714 129.622 20.5277 129.291 21.1785C128.978 21.8117 128.551 22.3569 128.011 22.8142C127.49 23.2539 126.923 23.6144 126.314 23.8958L131.798 32.1007H127.411L122.971 24.872H120.855V32.1007H116.912V13.2638H122.344ZM122.057 16.5353H120.855V21.627H122.136C123.441 21.627 124.372 21.4071 124.929 20.9674C125.505 20.5277 125.792 19.877 125.792 19.0151C125.792 18.1182 125.487 17.485 124.877 17.1156C124.285 16.7287 123.345 16.5353 122.057 16.5353ZM169.263 25.4524C169.263 26.7539 168.975 27.9323 168.401 28.9876C167.844 30.0253 166.99 30.8519 165.841 31.4675C164.71 32.0655 163.273 32.3645 161.532 32.3645C159.06 32.3645 157.18 31.7314 155.891 30.465C154.603 29.1811 153.959 27.4926 153.959 25.3996V13.2638H157.902V24.7929C157.902 26.3406 158.216 27.4311 158.842 28.0642C159.469 28.6974 160.4 29.014 161.636 29.014C162.925 29.014 163.857 28.671 164.431 27.9851C165.023 27.2991 165.319 26.2263 165.319 24.7665V13.2638H169.263V25.4524ZM201.653 32.1007L197.161 17.3267H197.056C197.073 17.6785 197.099 18.2061 197.135 18.9096C197.169 19.6131 197.204 20.3694 197.239 21.1785C197.274 21.97 197.291 22.691 197.291 23.3418V32.1007H193.766V13.2638H199.145L203.559 27.6685H203.637L208.312 13.2638H213.693V32.1007H210.01V23.1835C210.01 22.5855 210.019 21.8996 210.036 21.1257C210.071 20.3518 210.097 19.622 210.114 18.936C210.149 18.2325 210.175 17.7048 210.193 17.3531H210.088L205.283 32.1007H201.653Z" fill="#7380EB"/>
<path d="M35.1021 67V59.836H32.6541V58.6H39.0981V59.836H36.6381V67H35.1021ZM41.2359 67V58.6H44.3199C44.9919 58.6 45.5439 58.716 45.9759 58.948C46.4159 59.172 46.7439 59.48 46.9599 59.872C47.1759 60.256 47.2839 60.684 47.2839 61.156C47.2839 61.668 47.1479 62.136 46.8759 62.56C46.6119 62.984 46.1959 63.292 45.6279 63.484L47.3679 67H45.6039L44.0439 63.688H42.7719V67H41.2359ZM42.7719 62.56H44.2239C44.7359 62.56 45.1119 62.436 45.3519 62.188C45.5919 61.94 45.7119 61.612 45.7119 61.204C45.7119 60.804 45.5919 60.484 45.3519 60.244C45.1199 60.004 44.7399 59.884 44.2119 59.884H42.7719V62.56ZM49.1725 67L52.2445 58.6H53.9725L57.0445 67H55.4125L54.7405 65.056H51.4645L50.7805 67H49.1725ZM51.8845 63.856H54.3205L53.0965 60.364L51.8845 63.856ZM59.1265 67V58.6H61.9945C62.9785 58.6 63.7865 58.776 64.4185 59.128C65.0585 59.472 65.5305 59.96 65.8345 60.592C66.1465 61.216 66.3025 61.952 66.3025 62.8C66.3025 63.648 66.1465 64.388 65.8345 65.02C65.5305 65.644 65.0585 66.132 64.4185 66.484C63.7865 66.828 62.9785 67 61.9945 67H59.1265ZM60.6625 65.68H61.9225C62.6265 65.68 63.1825 65.568 63.5905 65.344C63.9985 65.112 64.2905 64.784 64.4665 64.36C64.6425 63.928 64.7305 63.408 64.7305 62.8C64.7305 62.2 64.6425 61.684 64.4665 61.252C64.2905 60.82 63.9985 60.488 63.5905 60.256C63.1825 60.024 62.6265 59.908 61.9225 59.908H60.6625V65.68ZM68.6578 67V58.6H74.1418V59.836H70.1938V62.14H73.7818V63.34H70.1938V65.764H74.1418V67H68.6578ZM83.3227 67.144C82.7067 67.144 82.1627 67.04 81.6907 66.832C81.2187 66.616 80.8467 66.312 80.5747 65.92C80.3027 65.52 80.1627 65.036 80.1547 64.468H81.7747C81.7907 64.86 81.9307 65.192 82.1947 65.464C82.4667 65.728 82.8387 65.86 83.3107 65.86C83.7187 65.86 84.0427 65.764 84.2827 65.572C84.5227 65.372 84.6427 65.108 84.6427 64.78C84.6427 64.436 84.5347 64.168 84.3187 63.976C84.1107 63.784 83.8307 63.628 83.4787 63.508C83.1267 63.388 82.7507 63.26 82.3507 63.124C81.7027 62.9 81.2067 62.612 80.8627 62.26C80.5267 61.908 80.3587 61.44 80.3587 60.856C80.3507 60.36 80.4667 59.936 80.7067 59.584C80.9547 59.224 81.2907 58.948 81.7147 58.756C82.1387 58.556 82.6267 58.456 83.1787 58.456C83.7387 58.456 84.2307 58.556 84.6547 58.756C85.0867 58.956 85.4227 59.236 85.6627 59.596C85.9107 59.956 86.0427 60.384 86.0587 60.88H84.4147C84.4067 60.584 84.2907 60.324 84.0667 60.1C83.8507 59.868 83.5467 59.752 83.1547 59.752C82.8187 59.744 82.5347 59.828 82.3027 60.004C82.0787 60.172 81.9667 60.42 81.9667 60.748C81.9667 61.028 82.0547 61.252 82.2307 61.42C82.4067 61.58 82.6467 61.716 82.9507 61.828C83.2547 61.94 83.6027 62.06 83.9947 62.188C84.4107 62.332 84.7907 62.5 85.1347 62.692C85.4787 62.884 85.7547 63.14 85.9627 63.46C86.1707 63.772 86.2747 64.176 86.2747 64.672C86.2747 65.112 86.1627 65.52 85.9387 65.896C85.7147 66.272 85.3827 66.576 84.9427 66.808C84.5027 67.032 83.9627 67.144 83.3227 67.144ZM88.6148 67V58.6H91.6988C92.3708 58.6 92.9228 58.716 93.3548 58.948C93.7948 59.172 94.1228 59.48 94.3388 59.872C94.5548 60.256 94.6628 60.684 94.6628 61.156C94.6628 61.668 94.5268 62.136 94.2548 62.56C93.9908 62.984 93.5748 63.292 93.0068 63.484L94.7468 67H92.9828L91.4228 63.688H90.1508V67H88.6148ZM90.1508 62.56H91.6028C92.1148 62.56 92.4908 62.436 92.7308 62.188C92.9708 61.94 93.0908 61.612 93.0908 61.204C93.0908 60.804 92.9708 60.484 92.7308 60.244C92.4988 60.004 92.1188 59.884 91.5908 59.884H90.1508V62.56ZM97.0914 67V58.6H98.9154L101.591 63.928L104.231 58.6H106.055V67H104.519V61.204L102.179 65.8H100.967L98.6274 61.204V67H97.0914ZM112.005 67L115.077 58.6H116.805L119.877 67H118.245L117.573 65.056H114.297L113.613 67H112.005ZM114.717 63.856H117.153L115.929 60.364L114.717 63.856ZM121.959 67V58.6H123.495L127.443 64.516V58.6H128.979V67H127.443L123.495 61.096V67H121.959ZM131.607 67V58.6H134.475C135.459 58.6 136.267 58.776 136.899 59.128C137.539 59.472 138.011 59.96 138.315 60.592C138.627 61.216 138.783 61.952 138.783 62.8C138.783 63.648 138.627 64.388 138.315 65.02C138.011 65.644 137.539 66.132 136.899 66.484C136.267 66.828 135.459 67 134.475 67H131.607ZM133.143 65.68H134.403C135.107 65.68 135.663 65.568 136.071 65.344C136.479 65.112 136.771 64.784 136.947 64.36C137.123 63.928 137.211 63.408 137.211 62.8C137.211 62.2 137.123 61.684 136.947 61.252C136.771 60.82 136.479 60.488 136.071 60.256C135.663 60.024 135.107 59.908 134.403 59.908H133.143V65.68ZM144.998 67V58.6H150.482V59.836H146.534V62.14H150.122V63.34H146.534V65.764H150.482V67H144.998ZM152.395 67L155.467 58.6H157.195L160.267 67H158.635L157.963 65.056H154.687L154.003 67H152.395ZM155.107 63.856H157.543L156.319 60.364L155.107 63.856ZM162.349 67V58.6H165.433C166.105 58.6 166.657 58.716 167.089 58.948C167.529 59.172 167.857 59.48 168.073 59.872C168.289 60.256 168.397 60.684 168.397 61.156C168.397 61.668 168.261 62.136 167.989 62.56C167.725 62.984 167.309 63.292 166.741 63.484L168.481 67H166.717L165.157 63.688H163.885V67H162.349ZM163.885 62.56H165.337C165.849 62.56 166.225 62.436 166.465 62.188C166.705 61.94 166.825 61.612 166.825 61.204C166.825 60.804 166.705 60.484 166.465 60.244C166.233 60.004 165.853 59.884 165.325 59.884H163.885V62.56ZM170.826 67V58.6H172.362L176.31 64.516V58.6H177.846V67H176.31L172.362 61.096V67H170.826ZM184.334 67V58.6H187.202C188.186 58.6 188.994 58.776 189.626 59.128C190.266 59.472 190.738 59.96 191.042 60.592C191.354 61.216 191.51 61.952 191.51 62.8C191.51 63.648 191.354 64.388 191.042 65.02C190.738 65.644 190.266 66.132 189.626 66.484C188.994 66.828 188.186 67 187.202 67H184.334ZM185.87 65.68H187.13C187.834 65.68 188.39 65.568 188.798 65.344C189.206 65.112 189.498 64.784 189.674 64.36C189.85 63.928 189.938 63.408 189.938 62.8C189.938 62.2 189.85 61.684 189.674 61.252C189.498 60.82 189.206 60.488 188.798 60.256C188.39 60.024 187.834 59.908 187.13 59.908H185.87V65.68ZM197.669 67.144C196.821 67.144 196.093 66.964 195.485 66.604C194.877 66.236 194.409 65.728 194.081 65.08C193.753 64.424 193.589 63.668 193.589 62.812C193.589 61.956 193.753 61.2 194.081 60.544C194.409 59.888 194.877 59.376 195.485 59.008C196.093 58.64 196.821 58.456 197.669 58.456C198.677 58.456 199.501 58.708 200.141 59.212C200.789 59.708 201.193 60.408 201.353 61.312H199.661C199.557 60.856 199.333 60.5 198.989 60.244C198.653 59.98 198.205 59.848 197.645 59.848C196.869 59.848 196.261 60.112 195.821 60.64C195.381 61.168 195.161 61.892 195.161 62.812C195.161 63.732 195.381 64.456 195.821 64.984C196.261 65.504 196.869 65.764 197.645 65.764C198.205 65.764 198.653 65.644 198.989 65.404C199.333 65.156 199.557 64.816 199.661 64.384H201.353C201.193 65.248 200.789 65.924 200.141 66.412C199.501 66.9 198.677 67.144 197.669 67.144ZM203.712 67V58.6H209.136V59.836H205.248V62.188H208.392V63.4H205.248V67H203.712ZM211.322 67V58.6H212.858V67H211.322Z" fill="#497E5A"/>
<defs>
<linearGradient id="paint0_linear" x1="17.3406" y1="57.8045" x2="17.3406" y2="18.1823" gradientUnits="userSpaceOnUse">
<stop stop-color="#6E98E9"/>
<stop offset="1" stop-color="#7380EB"/>
</linearGradient>
</defs>
</svg>
