<svg width="217" height="58" viewBox="0 0 217 58" fill="none" xmlns="http://www.w3.org/2000/svg">
<path fill-rule="evenodd" clip-rule="evenodd" d="M0 40.2914C0 49.9501 7.7791 57.8083 17.3406 57.8083C26.9022 57.8083 34.6812 49.9501 34.6812 40.2914C34.6812 30.8281 23.3234 18.9083 22.8399 18.4058C22.5635 18.1126 22.1076 18.1126 21.8174 18.3918C21.5272 18.671 21.5272 19.1316 21.8036 19.4246C21.8312 19.4526 24.719 22.4674 27.5653 26.557C31.2822 31.9028 33.2442 36.6484 33.2442 40.2914C33.2442 49.1545 26.1146 56.3567 17.3406 56.3567C8.56669 56.3567 1.43699 49.1406 1.43699 40.2914C1.43699 36.6484 3.38522 31.9028 7.07442 26.557C9.89317 22.4674 12.7533 19.4526 12.781 19.4246C13.0572 19.1316 13.0572 18.671 12.7671 18.3918C12.477 18.1126 12.021 18.1126 11.7447 18.4058C11.6203 18.5313 8.78774 21.5183 5.89995 25.7056C1.98968 31.3864 0 36.2995 0 40.2914ZM17.3405 54.3191C9.47855 54.3191 3.09497 47.8567 3.09497 39.9287C3.09497 32.1682 13.8171 21.337 14.2731 20.8904C14.5494 20.6113 15.0192 20.6113 15.2956 20.8904C15.5719 21.1696 15.5719 21.6442 15.2956 21.9233L15.2952 21.9236C15.1629 22.0573 4.54578 32.7898 4.54578 39.9287C4.54578 47.0611 10.2938 52.8675 17.3544 52.8675C24.415 52.8675 30.1629 47.0611 30.1629 39.9287C30.1629 36.9976 28.2837 32.9498 24.719 28.1903C22.0063 24.5781 19.28 21.8305 19.2072 21.7571L19.2059 21.7558C18.9157 21.4767 18.9157 21.0161 19.2059 20.7229C19.4822 20.4298 19.9382 20.4298 20.2283 20.7229C20.6981 21.1835 31.6137 32.1543 31.6137 39.9287C31.5861 47.8567 25.2025 54.3191 17.3405 54.3191ZM17.3408 50.8286C13.612 50.8286 10.322 48.9133 8.38317 46.0046C7.2255 44.2678 6.54956 42.1767 6.54956 39.9277C6.54956 34.0794 16.3183 23.7507 16.7328 23.318L17.2441 22.7737L17.7691 23.304C18.1974 23.7367 28.1321 34.0654 28.1321 39.9137C28.1321 42.1695 27.4552 44.2651 26.2962 46.0046C24.357 48.9149 21.0681 50.8286 17.3408 50.8286ZM17.2579 24.8813C16.4012 25.8165 14.605 27.8403 12.8226 30.2131C9.65845 34.4284 7.98655 37.7782 7.98655 39.9137C7.98655 45.1199 12.187 49.3631 17.3408 49.3631C22.4946 49.3631 26.6951 45.1199 26.6951 39.9137C26.6951 37.7782 24.9955 34.4284 21.7762 30.2131C19.9661 27.8543 18.1284 25.8165 17.2579 24.8813Z" fill="url(#paint0_linear)"/>
<path d="M17.2975 8.01129L29.8685 15.0626V29.1651L17.2975 36.2163L4.72644 29.1651V15.0626L17.2975 8.01129Z" fill="#7380EB"/>
<path d="M17.236 21.3334L29.8671 15.0605L29.87 29.1607L17.2933 36.2258L17.236 21.3334Z" fill="#6E98E9"/>
<path fill-rule="evenodd" clip-rule="evenodd" d="M17.2898 11.09L27.0219 16.4884L29.8614 15.0741L17.2993 8.008L17.2898 8.01339L17.2803 8.008L4.71814 15.0741L4.72522 15.0776L4.72285 29.1621L7.48453 30.7175L7.485 30.6354V30.7042L17.3038 36.2225V36.2138L29.8644 29.1662V27.5865V25.9929L17.3038 33.0505V33.0492L7.50238 27.5507L7.56473 16.4881L7.5613 16.4864L17.2898 11.09Z" fill="#16253D"/>
<path d="M50.1942 51.527C50.7617 51.527 51.2798 51.4398 51.7486 51.2777C52.2174 51.1033 52.6246 50.879 52.9823 50.5923C53.3402 50.3181 53.6362 50.0066 53.8707 49.6575C54.1051 49.3086 54.2777 48.9597 54.3888 48.5983L53.0934 48.4113C52.9823 48.6605 52.8466 48.8973 52.674 49.1342C52.5012 49.371 52.2915 49.5704 52.0571 49.7448C51.8227 49.9318 51.5512 50.0688 51.2428 50.181C50.9343 50.2931 50.5766 50.343 50.1942 50.343C49.7747 50.343 49.3675 50.2558 48.985 50.0688C48.6026 49.8819 48.2572 49.6326 47.9611 49.3086C47.665 48.997 47.4306 48.6232 47.2578 48.187C47.0728 47.7508 46.9865 47.2897 46.9865 46.7911C46.9865 46.2927 47.0728 45.8315 47.2578 45.3953C47.4306 44.9591 47.665 44.5853 47.9611 44.2612C48.2572 43.9497 48.6026 43.7004 48.985 43.5135C49.3675 43.3265 49.7747 43.2393 50.1942 43.2393C50.5519 43.2393 50.8727 43.2891 51.1564 43.3888C51.4402 43.4886 51.6992 43.6132 51.9214 43.7751C52.131 43.9372 52.3161 44.1242 52.4766 44.336C52.6369 44.5479 52.7603 44.7722 52.8466 44.9841L54.142 44.7971C54.031 44.4607 53.8707 44.1242 53.6486 43.7877C53.4265 43.4637 53.1551 43.177 52.822 42.9153C52.4889 42.6535 52.0941 42.4541 51.6623 42.2921C51.2304 42.1301 50.737 42.0554 50.1942 42.0554C49.5896 42.0554 49.0221 42.18 48.4793 42.4292C47.9364 42.6784 47.4552 43.015 47.0481 43.4387C46.6287 43.8749 46.2955 44.3734 46.0611 44.9467C45.8144 45.5199 45.691 46.1306 45.691 46.7911C45.691 47.4517 45.8144 48.0624 46.0611 48.6356C46.2955 49.2089 46.6287 49.7074 47.0481 50.1312C47.4552 50.5674 47.9364 50.9039 48.4793 51.1531C49.0221 51.4023 49.5896 51.527 50.1942 51.527Z" fill="#16253D"/>
<path fill-rule="evenodd" clip-rule="evenodd" d="M58.1473 48.2867H60.9233L62.527 51.1531H63.8842L62.157 48.0375C62.5024 47.9128 62.8108 47.7259 63.0823 47.4891C63.3167 47.2897 63.5264 47.0155 63.7238 46.6665C63.9088 46.33 64.0075 45.8938 64.0075 45.3579C64.0075 44.9342 63.9336 44.5479 63.7855 44.1864C63.6374 43.825 63.4277 43.5135 63.1562 43.2518C62.8725 42.99 62.5394 42.7906 62.1446 42.6411C61.7498 42.504 61.3057 42.4292 60.8246 42.4292H56.8519V51.1531H58.1473V48.2867ZM60.7998 47.1027H58.1473V43.6132H60.8246C61.1083 43.6132 61.3674 43.6505 61.6018 43.7378C61.8362 43.825 62.0336 43.9497 62.1939 44.1117C62.3544 44.2737 62.49 44.4482 62.5764 44.6601C62.6628 44.8719 62.7121 45.1087 62.7121 45.3579C62.7121 45.5947 62.6628 45.8066 62.5764 46.0185C62.49 46.2303 62.3544 46.4173 62.1939 46.5793C62.0336 46.7413 61.8362 46.8659 61.6018 46.9532C61.3674 47.0529 61.0959 47.1027 60.7998 47.1027Z" fill="#16253D"/>
<path d="M70.4899 48.2867V51.1531H69.1945V48.2867C68.6393 47.327 68.0718 46.3425 67.5042 45.3579C66.9244 44.3734 66.3569 43.4013 65.8018 42.4292H67.2822L69.8114 46.7289H69.873L72.4022 42.4292H73.8826C73.5324 43.0425 73.1772 43.6558 72.8202 44.2722L72.8195 44.2734L72.819 44.2745C72.6105 44.6343 72.4014 44.9953 72.1924 45.3579C71.696 46.2009 71.2086 47.0438 70.7303 47.8711L70.4899 48.2867Z" fill="#16253D"/>
<path fill-rule="evenodd" clip-rule="evenodd" d="M83.2624 45.6072C83.2624 45.171 83.176 44.7598 83.0156 44.3734C82.8429 43.987 82.6085 43.6505 82.3 43.3639C81.9916 43.0773 81.6338 42.8405 81.2144 42.6784C80.7826 42.5165 80.3138 42.4292 79.8079 42.4292H76.045V51.1531H77.3405V48.7851H79.8079C80.3138 48.7851 80.7826 48.698 81.2144 48.5359C81.6338 48.3739 81.9916 48.1372 82.3 47.8505C82.6085 47.5638 82.8429 47.2273 83.0156 46.841C83.176 46.4547 83.2624 46.0434 83.2624 45.6072ZM81.9669 45.6072C81.9669 46.2054 81.7819 46.6914 81.3995 47.0529C81.017 47.4143 80.4865 47.6013 79.8079 47.6013H77.3405V43.6132H79.8079C80.4865 43.6132 81.017 43.8001 81.3995 44.1615C81.7819 44.5229 81.9669 45.009 81.9669 45.6072Z" fill="#16253D"/>
<path d="M87.8369 43.6132H84.9374V42.4292H92.0317V43.6132H89.1321V51.1531H87.8369V43.6132Z" fill="#16253D"/>
<path fill-rule="evenodd" clip-rule="evenodd" d="M102.758 46.7911C102.758 46.1306 102.635 45.5199 102.388 44.9467C102.141 44.3734 101.808 43.8749 101.389 43.4387C100.969 43.015 100.476 42.6784 99.9204 42.4292C99.3657 42.18 98.7611 42.0554 98.1312 42.0554C97.5022 42.0554 96.8976 42.18 96.3429 42.4292C95.7873 42.6784 95.2942 43.015 94.8746 43.4387C94.4549 43.8749 94.1222 44.3734 93.8748 44.9467C93.6283 45.5199 93.505 46.1306 93.505 46.7911C93.505 47.4517 93.6283 48.0624 93.8748 48.6356C94.1222 49.2089 94.4549 49.7074 94.8746 50.1312C95.2942 50.5674 95.7873 50.9039 96.3429 51.1531C96.8976 51.4023 97.5022 51.527 98.1312 51.527C98.7611 51.527 99.3657 51.4023 99.9204 51.1531C100.476 50.9039 100.969 50.5674 101.389 50.1312C101.808 49.7074 102.141 49.2089 102.388 48.6356C102.635 48.0624 102.758 47.4517 102.758 46.7911ZM94.8003 46.7911C94.8003 46.2927 94.8872 45.8315 95.0721 45.3953C95.2571 44.9591 95.4918 44.5853 95.8 44.2612C96.1082 43.9497 96.4535 43.7004 96.8605 43.5135C97.2683 43.3265 97.6871 43.2393 98.1312 43.2393C98.5754 43.2393 98.995 43.3265 99.402 43.5135C99.8098 43.7004 100.155 43.9497 100.463 44.2612C100.772 44.5853 101.006 44.9591 101.191 45.3953C101.376 45.8315 101.463 46.2927 101.463 46.7911C101.463 47.2897 101.376 47.7508 101.191 48.187C101.006 48.6232 100.772 48.997 100.463 49.3086C100.155 49.6326 99.8098 49.8819 99.402 50.0688C98.995 50.2558 98.5754 50.343 98.1312 50.343C97.6871 50.343 97.2683 50.2558 96.8605 50.0688C96.4535 49.8819 96.1082 49.6326 95.8 49.3086C95.4918 48.997 95.2571 48.6232 95.0721 48.187C94.8872 47.7508 94.8003 47.2897 94.8003 46.7911Z" fill="#16253D"/>
<path d="M110.978 51.2777C110.51 51.4398 109.992 51.527 109.424 51.527C108.819 51.527 108.252 51.4023 107.709 51.1531C107.167 50.9039 106.685 50.5674 106.279 50.1312C105.859 49.7074 105.525 49.2089 105.291 48.6356C105.044 48.0624 104.921 47.4517 104.921 46.7911C104.921 46.1306 105.044 45.5199 105.291 44.9467C105.525 44.3734 105.859 43.8749 106.279 43.4387C106.685 43.015 107.167 42.6784 107.709 42.4292C108.252 42.18 108.819 42.0554 109.424 42.0554C109.967 42.0554 110.461 42.1301 110.892 42.2921C111.324 42.4541 111.719 42.6535 112.052 42.9153C112.385 43.177 112.657 43.4637 112.879 43.7877C113.101 44.1242 113.261 44.4607 113.372 44.7971L112.077 44.9841C111.991 44.7722 111.867 44.5479 111.707 44.336C111.546 44.1242 111.361 43.9372 111.151 43.7751C110.929 43.6132 110.67 43.4886 110.386 43.3888C110.103 43.2891 109.782 43.2393 109.424 43.2393C109.005 43.2393 108.597 43.3265 108.215 43.5135C107.833 43.7004 107.487 43.9497 107.191 44.2612C106.895 44.5853 106.66 44.9591 106.488 45.3953C106.303 45.8315 106.216 46.2927 106.216 46.7911C106.216 47.2897 106.303 47.7508 106.488 48.187C106.66 48.6232 106.895 48.997 107.191 49.3086C107.487 49.6326 107.833 49.8819 108.215 50.0688C108.597 50.2558 109.005 50.343 109.424 50.343C109.806 50.343 110.164 50.2931 110.472 50.181C110.781 50.0688 111.052 49.9318 111.287 49.7448C111.521 49.5704 111.731 49.371 111.904 49.1342C112.077 48.8973 112.213 48.6605 112.323 48.4113L113.618 48.5983C113.508 48.9597 113.335 49.3086 113.101 49.6575C112.866 50.0066 112.57 50.3181 112.213 50.5923C111.855 50.879 111.448 51.1033 110.978 51.2777Z" fill="#16253D"/>
<path d="M119.598 50.343C119.277 50.343 118.981 50.2807 118.71 50.1685C118.438 50.0564 118.204 49.8944 118.007 49.6825C117.809 49.4707 117.661 49.2213 117.55 48.9223C117.439 48.6232 117.378 48.2867 117.378 47.9128V42.4292H116.082V47.9128C116.082 48.4611 116.169 48.9597 116.341 49.3959C116.501 49.8445 116.749 50.2309 117.057 50.5425C117.365 50.854 117.735 51.1033 118.167 51.2777C118.599 51.4398 119.067 51.527 119.598 51.527C120.129 51.527 120.61 51.4398 121.041 51.2777C121.474 51.1033 121.843 50.854 122.152 50.5425C122.461 50.2309 122.695 49.8445 122.868 49.3959C123.028 48.9597 123.114 48.4611 123.114 47.9128V42.4292H121.819V47.9128C121.819 48.2867 121.769 48.6232 121.659 48.9223C121.547 49.2213 121.387 49.4707 121.19 49.6825C120.992 49.8944 120.758 50.0564 120.487 50.1685C120.215 50.2807 119.919 50.343 119.598 50.343Z" fill="#16253D"/>
<path fill-rule="evenodd" clip-rule="evenodd" d="M130.208 48.2867H127.431V51.1531H126.136V42.4292H130.109C130.59 42.4292 131.034 42.504 131.429 42.6411C131.824 42.7906 132.157 42.99 132.441 43.2518C132.712 43.5135 132.922 43.825 133.07 44.1864C133.218 44.5479 133.292 44.9342 133.292 45.3579C133.292 45.8938 133.193 46.33 133.008 46.6665C132.811 47.0155 132.601 47.2897 132.367 47.4891C132.096 47.7259 131.787 47.9128 131.441 48.0375L133.169 51.1531H131.811L130.208 48.2867ZM127.431 47.1027H130.084C130.381 47.1027 130.652 47.0529 130.886 46.9532C131.12 46.8659 131.318 46.7413 131.478 46.5793C131.639 46.4173 131.775 46.2303 131.861 46.0185C131.947 45.8066 131.997 45.5947 131.997 45.3579C131.997 45.1087 131.947 44.8719 131.861 44.6601C131.775 44.4482 131.639 44.2737 131.478 44.1117C131.318 43.9497 131.12 43.825 130.886 43.7378C130.652 43.6505 130.393 43.6132 130.109 43.6132H127.431V47.1027Z" fill="#16253D"/>
<path fill-rule="evenodd" clip-rule="evenodd" d="M137.245 48.2867H140.021L141.625 51.1531H142.982L141.255 48.0375C141.601 47.9128 141.909 47.7259 142.18 47.4891C142.414 47.2897 142.624 47.0155 142.821 46.6665C143.006 46.33 143.105 45.8938 143.105 45.3579C143.105 44.9342 143.032 44.5479 142.883 44.1864C142.735 43.825 142.525 43.5135 142.254 43.2518C141.97 42.99 141.637 42.7906 141.243 42.6411C140.847 42.504 140.403 42.4292 139.922 42.4292H135.95V51.1531H137.245V48.2867ZM139.897 47.1027H137.245V43.6132H139.922C140.206 43.6132 140.465 43.6505 140.7 43.7378C140.934 43.825 141.131 43.9497 141.291 44.1117C141.452 44.2737 141.588 44.4482 141.674 44.6601C141.761 44.8719 141.81 45.1087 141.81 45.3579C141.81 45.5947 141.761 45.8066 141.674 46.0185C141.588 46.2303 141.452 46.4173 141.291 46.5793C141.131 46.7413 140.934 46.8659 140.7 46.9532C140.465 47.0529 140.194 47.1027 139.897 47.1027Z" fill="#16253D"/>
<path d="M147.058 49.9691H152.117V51.1531H145.763V42.4292H152.117V43.6132H147.058V46.168H151.068V47.3519H147.058V49.9691Z" fill="#16253D"/>
<path d="M160.202 48.9721L156.008 42.4292H154.588V51.1531H155.884V44.6102H156.008L160.202 51.1531H161.621V42.4292H160.326V48.9721H160.202Z" fill="#16253D"/>
<path d="M170.269 51.2777C169.8 51.4398 169.282 51.527 168.715 51.527C168.11 51.527 167.543 51.4023 167 51.1531C166.457 50.9039 165.975 50.5674 165.568 50.1312C165.149 49.7074 164.816 49.2089 164.581 48.6356C164.335 48.0624 164.212 47.4517 164.212 46.7911C164.212 46.1306 164.335 45.5199 164.581 44.9467C164.816 44.3734 165.149 43.8749 165.568 43.4387C165.975 43.015 166.457 42.6784 167 42.4292C167.543 42.18 168.11 42.0554 168.715 42.0554C169.257 42.0554 169.751 42.1301 170.183 42.2921C170.614 42.4541 171.009 42.6535 171.342 42.9153C171.676 43.177 171.947 43.4637 172.169 43.7877C172.391 44.1242 172.551 44.4607 172.662 44.7971L171.367 44.9841C171.281 44.7722 171.157 44.5479 170.997 44.336C170.836 44.1242 170.651 43.9372 170.441 43.7751C170.219 43.6132 169.961 43.4886 169.676 43.3888C169.393 43.2891 169.073 43.2393 168.715 43.2393C168.295 43.2393 167.888 43.3265 167.505 43.5135C167.123 43.7004 166.778 43.9497 166.481 44.2612C166.185 44.5853 165.951 44.9591 165.778 45.3953C165.593 45.8315 165.507 46.2927 165.507 46.7911C165.507 47.2897 165.593 47.7508 165.778 48.187C165.951 48.6232 166.185 48.997 166.481 49.3086C166.778 49.6326 167.123 49.8819 167.505 50.0688C167.888 50.2558 168.295 50.343 168.715 50.343C169.097 50.343 169.454 50.2931 169.763 50.181C170.071 50.0688 170.342 49.9318 170.577 49.7448C170.812 49.5704 171.021 49.371 171.194 49.1342C171.367 48.8973 171.503 48.6605 171.613 48.4113L172.909 48.5983C172.798 48.9597 172.626 49.3086 172.391 49.6575C172.156 50.0066 171.861 50.3181 171.503 50.5923C171.145 50.879 170.738 51.1033 170.269 51.2777Z" fill="#16253D"/>
<path d="M176.668 42.4292H175.372V51.1531H176.668V42.4292Z" fill="#16253D"/>
<path d="M180.987 49.9691H186.045V51.1531H179.692V42.4292H186.045V43.6132H180.987V46.168H184.996V47.3519H180.987V49.9691Z" fill="#16253D"/>
<path d="M193.699 48.7229C193.699 48.9223 193.649 49.1217 193.55 49.3086C193.452 49.508 193.317 49.6825 193.132 49.832C192.946 49.9941 192.737 50.1187 192.477 50.2059C192.218 50.2932 191.923 50.343 191.602 50.343C191.281 50.343 190.997 50.2932 190.738 50.2059C190.479 50.1187 190.244 50.0066 190.059 49.8445C189.874 49.695 189.714 49.5205 189.578 49.3086C189.443 49.1092 189.331 48.8973 189.258 48.6605L187.962 48.8475C188.085 49.2339 188.245 49.5953 188.456 49.9193C188.665 50.2558 188.912 50.5299 189.208 50.7668C189.504 51.0036 189.85 51.1905 190.244 51.3276C190.639 51.4647 191.096 51.527 191.602 51.527C192.132 51.527 192.601 51.4522 193.02 51.3027C193.44 51.1406 193.798 50.9412 194.093 50.6795C194.377 50.4303 194.599 50.1312 194.76 49.7947C194.92 49.4582 194.994 49.0967 194.994 48.7229C194.994 48.3365 194.92 48.0125 194.772 47.7508C194.612 47.4891 194.414 47.2522 194.18 47.0654C193.933 46.8784 193.649 46.7289 193.341 46.6042C193.02 46.4796 192.699 46.3674 192.379 46.2677C192.164 46.2115 191.954 46.15 191.749 46.09L191.748 46.0894C191.635 46.0567 191.525 46.0244 191.417 45.9936C191.096 45.9063 190.812 45.7941 190.577 45.682C190.331 45.5698 190.133 45.4328 189.986 45.2707C189.825 45.1087 189.751 44.9093 189.751 44.6725C189.751 44.498 189.8 44.3236 189.887 44.1491C189.973 43.987 190.109 43.825 190.269 43.688C190.43 43.5508 190.615 43.4512 190.849 43.3639C191.071 43.2767 191.318 43.2393 191.602 43.2393C191.897 43.2393 192.156 43.2767 192.379 43.3515C192.601 43.4262 192.798 43.5259 192.971 43.663C193.132 43.8001 193.267 43.9497 193.378 44.1366C193.489 44.3236 193.576 44.5229 193.637 44.7348L194.933 44.5479C194.847 44.2113 194.711 43.8874 194.526 43.5758C194.34 43.2767 194.106 43.015 193.822 42.7906C193.539 42.5663 193.218 42.3918 192.847 42.2548C192.477 42.1176 192.058 42.0554 191.602 42.0554C191.12 42.0554 190.688 42.1301 190.306 42.2672C189.924 42.4168 189.59 42.6162 189.319 42.8529C189.036 43.0897 188.825 43.3764 188.678 43.688C188.529 43.9996 188.456 44.336 188.456 44.6725C188.456 45.0588 188.529 45.3953 188.69 45.6571C188.838 45.9312 189.036 46.168 189.282 46.355C189.516 46.5419 189.8 46.7039 190.121 46.8285C190.43 46.9532 190.751 47.0654 191.083 47.1651C191.404 47.2647 191.725 47.352 192.045 47.4391C192.354 47.5264 192.638 47.6262 192.884 47.7383C193.119 47.8505 193.317 47.9876 193.477 48.1372C193.625 48.2991 193.699 48.4861 193.699 48.7229Z" fill="#16253D"/>
<path d="M197.83 51.8407C197.567 51.8407 197.34 51.7452 197.151 51.5542C196.962 51.3632 196.868 51.1343 196.868 50.8677C196.868 50.5971 196.962 50.3682 197.151 50.1812C197.344 49.9901 197.57 49.8946 197.83 49.8946C198.091 49.8946 198.315 49.9901 198.504 50.1812C198.698 50.3682 198.794 50.5971 198.794 50.8677C198.794 51.1343 198.699 51.3632 198.51 51.5542C198.321 51.7452 198.095 51.8407 197.83 51.8407ZM202.812 51.5601H201.666L204.491 42.2952H205.702L208.545 51.5601H207.286L206.66 49.5245H203.433L202.812 51.5601ZM203.717 48.5992H206.394L205.289 45.0831L205.029 44.1518L204.798 45.0831L203.717 48.5992ZM209.756 51.5601V50.6349H211.772V43.2266H209.756V42.2952H214.98V43.2266H212.966V50.6349H214.98V51.5601H209.756Z" fill="#16253D"/>
<path d="M59.0366 28.877C59.0366 30.5479 58.4359 31.8846 57.2345 32.8871C56.0506 33.872 54.3617 34.3645 52.1679 34.3645C50.2004 34.3645 48.4419 33.9864 46.8923 33.2301V29.5102C47.7803 29.8971 48.6944 30.2577 49.6346 30.5919C50.5922 30.9085 51.5411 31.0668 52.4813 31.0668C53.4563 31.0668 54.144 30.882 54.5445 30.5127C54.9624 30.1258 55.1713 29.6421 55.1713 29.0617C55.1713 28.5868 55.0059 28.1823 54.6751 27.8481C54.3617 27.5139 53.9351 27.2062 53.3954 26.9247C52.8556 26.6258 52.2375 26.3091 51.5411 25.975C51.1059 25.7639 50.6357 25.5177 50.1308 25.2363C49.6259 24.9373 49.1383 24.5767 48.6683 24.1546C48.2156 23.7149 47.8412 23.1873 47.5453 22.5717C47.2492 21.9561 47.1012 21.2174 47.1012 20.3556C47.1012 18.6671 47.6671 17.3568 48.7988 16.4247C49.9306 15.4749 51.4715 15 53.4215 15C54.3965 15 55.3193 15.1144 56.1898 15.343C57.0778 15.5716 58.0006 15.897 58.9582 16.3192L57.6785 19.4322C56.8254 19.0805 56.0593 18.8079 55.3802 18.6143C54.7012 18.4209 54.0048 18.3242 53.2909 18.3242C52.5422 18.3242 51.9677 18.5 51.5672 18.8518C51.1667 19.2035 50.9665 19.6609 50.9665 20.2237C50.9665 20.892 51.2625 21.4197 51.8545 21.8066C52.4464 22.1935 53.3258 22.6685 54.4922 23.2312C55.4499 23.6886 56.2595 24.1634 56.9211 24.6559C57.6001 25.1484 58.1225 25.7287 58.4881 26.3971C58.8538 27.0655 59.0366 27.8921 59.0366 28.877ZM93.0955 34.1007H82.362V15.2638H93.0955V18.5353H86.3052V22.6772H92.6261V25.9486H86.3052V30.803H93.0955V34.1007ZM122.344 15.2638C124.886 15.2638 126.758 15.7299 127.959 16.6621C129.178 17.5943 129.787 19.0101 129.787 20.9096C129.787 21.7714 129.622 22.5277 129.291 23.1785C128.978 23.8117 128.551 24.3569 128.011 24.8142C127.49 25.2539 126.923 25.6144 126.314 25.8958L131.798 34.1007H127.411L122.971 26.872H120.855V34.1007H116.912V15.2638H122.344ZM122.057 18.5353H120.855V23.627H122.136C123.441 23.627 124.372 23.4071 124.929 22.9674C125.505 22.5277 125.792 21.877 125.792 21.0151C125.792 20.1182 125.487 19.485 124.877 19.1156C124.285 18.7287 123.345 18.5353 122.057 18.5353ZM169.263 27.4524C169.263 28.7539 168.975 29.9323 168.401 30.9876C167.844 32.0253 166.99 32.8519 165.841 33.4675C164.71 34.0655 163.273 34.3645 161.532 34.3645C159.06 34.3645 157.18 33.7314 155.891 32.465C154.603 31.1811 153.959 29.4926 153.959 27.3996V15.2638H157.902V26.7929C157.902 28.3406 158.216 29.4311 158.842 30.0642C159.469 30.6974 160.4 31.014 161.636 31.014C162.925 31.014 163.857 30.671 164.431 29.9851C165.023 29.2991 165.319 28.2263 165.319 26.7665V15.2638H169.263V27.4524ZM201.653 34.1007L197.161 19.3267H197.056C197.073 19.6785 197.099 20.2061 197.135 20.9096C197.169 21.6131 197.204 22.3694 197.239 23.1785C197.274 23.97 197.291 24.691 197.291 25.3418V34.1007H193.766V15.2638H199.145L203.559 29.6685H203.637L208.312 15.2638H213.693V34.1007H210.01V25.1835C210.01 24.5855 210.019 23.8996 210.036 23.1257C210.071 22.3518 210.097 21.622 210.114 20.936C210.149 20.2325 210.175 19.7048 210.193 19.3531H210.088L205.283 34.1007H201.653Z" fill="#7380EB"/>
<defs>
<linearGradient id="paint0_linear" x1="17.3406" y1="57.8045" x2="17.3406" y2="18.1823" gradientUnits="userSpaceOnUse">
<stop stop-color="#6E98E9"/>
<stop offset="1" stop-color="#7380EB"/>
</linearGradient>
</defs>
</svg>
