<svg width="281" height="73" viewBox="0 0 281 73" fill="none" xmlns="http://www.w3.org/2000/svg">
<path d="M33.8386 0.147217L66.4286 18.1766L66.4286 54.2354L33.8386 72.2648L1.24871 54.2354L1.24871 18.1766L33.8386 0.147217Z" fill="white"/>
<path d="M33.839 4.15369L62.8078 20.1743L62.8078 52.2155L33.839 68.2362L4.87016 52.2155L4.87016 20.1743L33.839 4.15369Z" fill="#5085EC"/>
<path d="M33.6982 34.4224L62.8055 20.1703L62.8123 52.2061L33.8305 68.2581L33.6982 34.4224Z" fill="#235DCF"/>
<path fill-rule="evenodd" clip-rule="evenodd" d="M33.8222 11.1459L56.2493 23.4114L62.7927 20.198L33.8445 4.14368L33.8222 4.15609L33.7998 4.14368L4.85156 20.198L4.86764 20.2059L4.8622 52.206L11.2263 55.7399L11.2271 55.595V55.7085L33.8536 68.2463V68.2281L62.7996 52.2153V48.6263V45.0054L33.8536 61.0413V61.0364L11.2674 48.544L11.4111 23.4104L11.4035 23.4067L33.8222 11.1459Z" fill="#16253D"/>
<path d="M85.0865 34.6783C85.8509 34.6783 86.5489 34.562 87.1803 34.346C87.8118 34.1133 88.3602 33.8142 88.8421 33.432C89.324 33.0664 89.7228 32.651 90.0386 32.1857C90.3543 31.7204 90.5869 31.2551 90.7365 30.7732L88.9916 30.5239C88.8421 30.8563 88.6593 31.172 88.4266 31.4878C88.194 31.8035 87.9115 32.0694 87.5958 32.302C87.28 32.5513 86.9144 32.7341 86.499 32.8836C86.0836 33.0332 85.6017 33.0997 85.0865 33.0997C84.5215 33.0997 83.9731 32.9833 83.458 32.7341C82.9428 32.4848 82.4775 32.1525 82.0787 31.7204C81.6799 31.305 81.3642 30.8064 81.1315 30.2248C80.8822 29.6432 80.7659 29.0283 80.7659 28.3636C80.7659 27.6989 80.8822 27.0841 81.1315 26.5025C81.3642 25.9208 81.6799 25.4223 82.0787 24.9903C82.4775 24.5748 82.9428 24.2425 83.458 23.9932C83.9731 23.7439 84.5215 23.6276 85.0865 23.6276C85.5684 23.6276 86.0005 23.6941 86.3827 23.827C86.7649 23.96 87.1139 24.1261 87.413 24.3422C87.6955 24.5582 87.9447 24.8075 88.1608 25.09C88.3768 25.3725 88.543 25.6716 88.6593 25.9541L90.4041 25.7048C90.2546 25.2561 90.0386 24.8075 89.7394 24.3588C89.4403 23.9267 89.0747 23.5445 88.6261 23.1956C88.1774 22.8466 87.6456 22.5807 87.064 22.3647C86.4824 22.1486 85.8177 22.0489 85.0865 22.0489C84.2722 22.0489 83.5078 22.2151 82.7767 22.5475C82.0455 22.8798 81.3974 23.3285 80.849 23.8935C80.284 24.4751 79.8353 25.1398 79.5196 25.9042C79.1872 26.6686 79.0211 27.4829 79.0211 28.3636C79.0211 29.2444 79.1872 30.0586 79.5196 30.823C79.8353 31.5875 80.284 32.2522 80.849 32.8172C81.3974 33.3988 82.0455 33.8475 82.7767 34.1798C83.5078 34.5122 84.2722 34.6783 85.0865 34.6783ZM99.3718 28.7791H95.799V24.1261H99.4051C99.7873 24.1261 100.136 24.176 100.452 24.2923C100.768 24.4086 101.034 24.5748 101.25 24.7909C101.466 25.0069 101.648 25.2395 101.765 25.522C101.881 25.8045 101.948 26.1203 101.948 26.4526C101.948 26.7683 101.881 27.0508 101.765 27.3333C101.648 27.6158 101.466 27.8651 101.25 28.0811C101.034 28.2972 100.768 28.4633 100.452 28.5797C100.136 28.7126 99.7706 28.7791 99.3718 28.7791ZM95.799 30.3578H99.538L101.698 34.1798H103.526L101.2 30.0254C101.665 29.8592 102.08 29.61 102.446 29.2942C102.762 29.0283 103.044 28.6628 103.31 28.1975C103.559 27.7488 103.692 27.1672 103.692 26.4526C103.692 25.8876 103.593 25.3725 103.393 24.8906C103.194 24.4086 102.911 23.9932 102.546 23.6442C102.164 23.2953 101.715 23.0294 101.183 22.83C100.651 22.6472 100.053 22.5475 99.4051 22.5475H94.0542V34.1798H95.799V30.3578ZM112.424 34.1798V30.3578C113.172 29.0782 113.936 27.7654 114.717 26.4526C115.481 25.1398 116.246 23.8436 116.994 22.5475H115L111.593 28.2806H111.51L108.103 22.5475H106.109C106.857 23.8436 107.621 25.1398 108.402 26.4526C109.167 27.7654 109.931 29.0782 110.679 30.3578V34.1798H112.424ZM129.628 26.785C129.628 26.2033 129.511 25.655 129.295 25.1398C129.063 24.6247 128.747 24.176 128.331 23.7938C127.916 23.4116 127.434 23.0959 126.869 22.8798C126.287 22.6638 125.656 22.5475 124.975 22.5475H119.906V34.1798H121.651V31.0225H124.975C125.656 31.0225 126.287 30.9061 126.869 30.6901C127.434 30.4741 127.916 30.1583 128.331 29.7761C128.747 29.3939 129.063 28.9453 129.295 28.4301C129.511 27.915 129.628 27.3666 129.628 26.785ZM127.883 26.785C127.883 27.5826 127.633 28.2307 127.118 28.7126C126.603 29.1945 125.889 29.4438 124.975 29.4438H121.651V24.1261H124.975C125.889 24.1261 126.603 24.3754 127.118 24.8573C127.633 25.3392 127.883 25.9873 127.883 26.785ZM131.884 24.1261H135.789V34.1798H137.534V24.1261H141.439V22.5475L131.884 22.5475V24.1261ZM155.887 28.3636C155.887 27.4829 155.721 26.6686 155.389 25.9042C155.056 25.1398 154.608 24.4751 154.043 23.8935C153.478 23.3285 152.813 22.8798 152.065 22.5475C151.317 22.2151 150.503 22.0489 149.656 22.0489C148.808 22.0489 147.994 22.2151 147.246 22.5475C146.498 22.8798 145.834 23.3285 145.269 23.8935C144.704 24.4751 144.255 25.1398 143.923 25.9042C143.59 26.6686 143.424 27.4829 143.424 28.3636C143.424 29.2444 143.59 30.0586 143.923 30.823C144.255 31.5875 144.704 32.2522 145.269 32.8172C145.834 33.3988 146.498 33.8475 147.246 34.1798C147.994 34.5122 148.808 34.6783 149.656 34.6783C150.503 34.6783 151.317 34.5122 152.065 34.1798C152.813 33.8475 153.478 33.3988 154.043 32.8172C154.608 32.2522 155.056 31.5875 155.389 30.823C155.721 30.0586 155.887 29.2444 155.887 28.3636ZM145.169 28.3636C145.169 27.6989 145.285 27.0841 145.535 26.5025C145.784 25.9208 146.1 25.4223 146.515 24.9903C146.93 24.5748 147.396 24.2425 147.944 23.9932C148.492 23.7439 149.057 23.6276 149.656 23.6276C150.254 23.6276 150.819 23.7439 151.367 23.9932C151.916 24.2425 152.381 24.5748 152.796 24.9903C153.212 25.4223 153.528 25.9208 153.777 26.5025C154.026 27.0841 154.142 27.6989 154.142 28.3636C154.142 29.0283 154.026 29.6432 153.777 30.2248C153.528 30.8064 153.212 31.305 152.796 31.7204C152.381 32.1525 151.916 32.4848 151.367 32.7341C150.819 32.9833 150.254 33.0997 149.656 33.0997C149.057 33.0997 148.492 32.9833 147.944 32.7341C147.396 32.4848 146.93 32.1525 146.515 31.7204C146.1 31.305 145.784 30.8064 145.535 30.2248C145.285 29.6432 145.169 29.0283 145.169 28.3636ZM164.866 34.6783C165.63 34.6783 166.328 34.562 166.96 34.346C167.591 34.1133 168.14 33.8142 168.622 33.432C169.104 33.0664 169.502 32.651 169.818 32.1857C170.134 31.7204 170.366 31.2551 170.516 30.7732L168.771 30.5239C168.622 30.8563 168.439 31.172 168.206 31.4878C167.974 31.8035 167.691 32.0694 167.375 32.302C167.06 32.5513 166.694 32.7341 166.279 32.8836C165.863 33.0332 165.381 33.0997 164.866 33.0997C164.301 33.0997 163.753 32.9833 163.238 32.7341C162.722 32.4848 162.257 32.1525 161.858 31.7204C161.459 31.305 161.144 30.8064 160.911 30.2248C160.662 29.6432 160.545 29.0283 160.545 28.3636C160.545 27.6989 160.662 27.0841 160.911 26.5025C161.144 25.9208 161.459 25.4223 161.858 24.9903C162.257 24.5748 162.722 24.2425 163.238 23.9932C163.753 23.7439 164.301 23.6276 164.866 23.6276C165.348 23.6276 165.78 23.6941 166.162 23.827C166.544 23.96 166.893 24.1261 167.193 24.3422C167.475 24.5582 167.724 24.8075 167.94 25.09C168.156 25.3725 168.323 25.6716 168.439 25.9541L170.184 25.7048C170.034 25.2561 169.818 24.8075 169.519 24.3588C169.22 23.9267 168.854 23.5445 168.406 23.1956C167.957 22.8466 167.425 22.5807 166.844 22.3647C166.262 22.1486 165.597 22.0489 164.866 22.0489C164.052 22.0489 163.287 22.2151 162.556 22.5475C161.825 22.8798 161.177 23.3285 160.629 23.8935C160.064 24.4751 159.615 25.1398 159.299 25.9042C158.967 26.6686 158.801 27.4829 158.801 28.3636C158.801 29.2444 158.967 30.0586 159.299 30.823C159.615 31.5875 160.064 32.2522 160.629 32.8172C161.177 33.3988 161.825 33.8475 162.556 34.1798C163.287 34.5122 164.052 34.6783 164.866 34.6783ZM178.57 33.0997C178.138 33.0997 177.739 33.0166 177.373 32.867C177.008 32.7175 176.692 32.5014 176.426 32.2189C176.16 31.9364 175.961 31.6041 175.811 31.2053C175.662 30.8064 175.579 30.3578 175.579 29.8592V22.5475H173.834V29.8592C173.834 30.5904 173.95 31.2551 174.183 31.8367C174.399 32.435 174.731 32.9501 175.147 33.3655C175.562 33.781 176.06 34.1133 176.642 34.346C177.224 34.562 177.855 34.6783 178.57 34.6783C179.284 34.6783 179.932 34.562 180.514 34.346C181.096 34.1133 181.594 33.781 182.01 33.3655C182.425 32.9501 182.741 32.435 182.973 31.8367C183.189 31.2551 183.306 30.5904 183.306 29.8592V22.5475H181.561V29.8592C181.561 30.3578 181.494 30.8064 181.345 31.2053C181.195 31.6041 180.979 31.9364 180.713 32.2189C180.448 32.5014 180.132 32.7175 179.766 32.867C179.401 33.0166 179.002 33.0997 178.57 33.0997ZM192.694 28.7791H189.121V24.1261H192.727C193.11 24.1261 193.458 24.176 193.774 24.2923C194.09 24.4086 194.356 24.5748 194.572 24.7909C194.788 25.0069 194.971 25.2395 195.087 25.522C195.203 25.8045 195.27 26.1203 195.27 26.4526C195.27 26.7683 195.203 27.0508 195.087 27.3333C194.971 27.6158 194.788 27.8651 194.572 28.0811C194.356 28.2972 194.09 28.4633 193.774 28.5797C193.458 28.7126 193.093 28.7791 192.694 28.7791ZM189.121 30.3578H192.86L195.021 34.1798H196.848L194.522 30.0254C194.987 29.8592 195.403 29.61 195.768 29.2942C196.084 29.0283 196.367 28.6628 196.632 28.1975C196.882 27.7488 197.015 27.1672 197.015 26.4526C197.015 25.8876 196.915 25.3725 196.716 24.8906C196.516 24.4086 196.234 23.9932 195.868 23.6442C195.486 23.2953 195.037 23.0294 194.505 22.83C193.974 22.6472 193.375 22.5475 192.727 22.5475H187.376V34.1798H189.121V30.3578ZM205.912 28.7791H202.339V24.1261L205.945 24.1261C206.328 24.1261 206.677 24.176 206.992 24.2923C207.308 24.4086 207.574 24.5748 207.79 24.7909C208.006 25.0069 208.189 25.2395 208.305 25.522C208.421 25.8045 208.488 26.1203 208.488 26.4526C208.488 26.7683 208.421 27.0508 208.305 27.3333C208.189 27.6158 208.006 27.8651 207.79 28.0811C207.574 28.2972 207.308 28.4633 206.992 28.5797C206.677 28.7126 206.311 28.7791 205.912 28.7791ZM202.339 30.3578H206.078L208.239 34.1798H210.067L207.74 30.0254C208.205 29.8592 208.621 29.61 208.986 29.2942C209.302 29.0283 209.585 28.6628 209.851 28.1975C210.1 27.7488 210.233 27.1672 210.233 26.4526C210.233 25.8876 210.133 25.3725 209.934 24.8906C209.734 24.4086 209.452 23.9932 209.086 23.6442C208.704 23.2953 208.255 23.0294 207.724 22.83C207.192 22.6472 206.594 22.5475 205.945 22.5475L200.595 22.5475V34.1798H202.339V30.3578ZM222.371 32.6011H215.558V29.1114H220.958V27.5328H215.558V24.1261H222.371V22.5475H213.813V34.1798H222.371V32.6011ZM233.261 31.2717L227.611 22.5475H225.7V34.1798H227.445V25.4556H227.611L233.261 34.1798L235.172 34.1798V22.5475H233.427V31.2717H233.261ZM244.727 34.6783C245.491 34.6783 246.189 34.562 246.821 34.346C247.452 34.1133 248 33.8142 248.482 33.432C248.964 33.0664 249.363 32.651 249.679 32.1857C249.995 31.7204 250.227 31.2551 250.377 30.7732L248.632 30.5239C248.482 30.8563 248.3 31.172 248.067 31.4878C247.834 31.8035 247.552 32.0694 247.236 32.302C246.92 32.5513 246.555 32.7341 246.139 32.8836C245.724 33.0332 245.242 33.0997 244.727 33.0997C244.162 33.0997 243.613 32.9833 243.098 32.7341C242.583 32.4848 242.118 32.1525 241.719 31.7204C241.32 31.305 241.004 30.8064 240.772 30.2248C240.522 29.6432 240.406 29.0283 240.406 28.3636C240.406 27.6989 240.522 27.0841 240.772 26.5025C241.004 25.9208 241.32 25.4223 241.719 24.9903C242.118 24.5748 242.583 24.2425 243.098 23.9932C243.613 23.7439 244.162 23.6276 244.727 23.6276C245.209 23.6276 245.641 23.6941 246.023 23.827C246.405 23.96 246.754 24.1261 247.053 24.3422C247.336 24.5582 247.585 24.8075 247.801 25.09C248.017 25.3725 248.183 25.6716 248.3 25.9541L250.044 25.7048C249.895 25.2561 249.679 24.8075 249.38 24.3588C249.081 23.9267 248.715 23.5445 248.266 23.1956C247.818 22.8466 247.286 22.5807 246.704 22.3647C246.123 22.1486 245.458 22.0489 244.727 22.0489C243.912 22.0489 243.148 22.2151 242.417 22.5475C241.686 22.8798 241.038 23.3285 240.489 23.8935C239.924 24.4751 239.476 25.1398 239.16 25.9042C238.827 26.6686 238.661 27.4829 238.661 28.3636C238.661 29.2444 238.827 30.0586 239.16 30.823C239.476 31.5875 239.924 32.2522 240.489 32.8172C241.038 33.3988 241.686 33.8475 242.417 34.1798C243.148 34.5122 243.912 34.6783 244.727 34.6783ZM255.439 34.1798V22.5475H253.694V34.1798H255.439ZM268.071 32.6011H261.257V29.1114H266.658V27.5328H261.257V24.1261H268.071V22.5475H259.513V34.1798H268.071V32.6011ZM278.379 30.9394C278.379 31.2053 278.313 31.4711 278.18 31.7204C278.047 31.9863 277.864 32.2189 277.615 32.4183C277.366 32.6344 277.083 32.8005 276.734 32.9169C276.385 33.0332 275.986 33.0997 275.554 33.0997C275.122 33.0997 274.74 33.0332 274.391 32.9169C274.042 32.8005 273.726 32.651 273.477 32.435C273.228 32.2355 273.012 32.0029 272.829 31.7204C272.646 31.4545 272.497 31.172 272.397 30.8563L270.652 31.1055C270.818 31.6207 271.034 32.1026 271.317 32.5347C271.599 32.9833 271.932 33.3489 272.331 33.6647C272.729 33.9804 273.195 34.2297 273.726 34.4125C274.258 34.5953 274.873 34.6783 275.554 34.6783C276.269 34.6783 276.9 34.5786 277.465 34.3792C278.03 34.1632 278.512 33.8973 278.911 33.5483C279.293 33.216 279.592 32.8172 279.808 32.3685C280.025 31.9198 280.124 31.4379 280.124 30.9394C280.124 30.4242 280.025 29.9922 279.825 29.6432C279.609 29.2942 279.343 28.9785 279.027 28.7292C278.695 28.48 278.313 28.2806 277.897 28.1144C277.465 27.9482 277.033 27.7986 276.601 27.6657C276.153 27.5494 275.721 27.4164 275.305 27.3001C274.873 27.1838 274.491 27.0342 274.175 26.8847C273.843 26.7351 273.577 26.5523 273.377 26.3363C273.161 26.1203 273.062 25.8544 273.062 25.5386C273.062 25.306 273.128 25.0733 273.245 24.8407C273.361 24.6247 273.544 24.4086 273.76 24.2259C273.976 24.0431 274.225 23.9101 274.541 23.7938C274.84 23.6775 275.172 23.6276 275.554 23.6276C275.953 23.6276 276.302 23.6775 276.601 23.7772C276.9 23.8769 277.166 24.0098 277.399 24.1926C277.615 24.3754 277.798 24.5748 277.947 24.8241C278.097 25.0733 278.213 25.3392 278.296 25.6217L280.041 25.3725C279.925 24.9238 279.742 24.4917 279.493 24.0763C279.243 23.6775 278.928 23.3285 278.546 23.0294C278.163 22.7303 277.731 22.4976 277.233 22.3148C276.734 22.132 276.169 22.0489 275.554 22.0489C274.906 22.0489 274.325 22.1486 273.81 22.3314C273.294 22.5309 272.846 22.7967 272.48 23.1125C272.098 23.4282 271.815 23.8104 271.616 24.2259C271.417 24.6413 271.317 25.09 271.317 25.5386C271.317 26.0538 271.417 26.5025 271.633 26.8514C271.832 27.217 272.098 27.5328 272.43 27.782C272.746 28.0313 273.128 28.2473 273.56 28.4135C273.976 28.5797 274.408 28.7292 274.856 28.8622C275.288 28.9951 275.721 29.1114 276.153 29.2278C276.568 29.3441 276.95 29.477 277.283 29.6266C277.598 29.7761 277.864 29.9589 278.08 30.1583C278.28 30.3744 278.379 30.6236 278.379 30.9394Z" fill="#D1DDEF"/>
<path d="M105.725 47.6721L106.951 42.7067H109.272L110.497 47.6721H105.725ZM112.174 50.7673L109.981 41.8684H106.241L104.049 50.7673H104.952L105.532 48.5104H110.691L111.271 50.7673H112.174ZM118.489 51.1542C119.069 51.1542 119.585 51.0769 120.062 50.9092C120.527 50.7415 120.939 50.5223 121.3 50.2515C121.649 49.9806 121.945 49.6711 122.19 49.3229C122.435 48.9747 122.616 48.6264 122.745 48.2524L121.842 48.1235C121.713 48.4201 121.545 48.6909 121.352 48.9489C121.159 49.2197 120.926 49.4518 120.656 49.6453C120.385 49.8517 120.062 50.0193 119.701 50.1354C119.34 50.2515 118.94 50.3159 118.489 50.3159C118.025 50.3159 117.573 50.2128 117.135 50.0064C116.683 49.8001 116.296 49.5163 115.948 49.1552C115.6 48.7941 115.329 48.3685 115.123 47.8784C114.916 47.4012 114.813 46.8725 114.813 46.3179C114.813 45.7633 114.916 45.2474 115.123 44.7574C115.329 44.2802 115.6 43.8546 115.948 43.4935C116.296 43.1323 116.683 42.8486 117.135 42.6294C117.573 42.423 118.025 42.3198 118.489 42.3198C118.914 42.3198 119.288 42.3714 119.624 42.4875C119.959 42.6036 120.256 42.7583 120.514 42.9518C120.772 43.1452 120.991 43.3516 121.171 43.5966C121.352 43.8417 121.494 44.0738 121.584 44.3189L122.487 44.1899C122.397 43.8675 122.229 43.545 122.01 43.2226C121.79 42.9002 121.507 42.6165 121.171 42.3585C120.823 42.1006 120.436 41.8942 119.985 41.7266C119.533 41.5589 119.043 41.4815 118.489 41.4815C117.896 41.4815 117.328 41.6105 116.774 41.8684C116.219 42.1264 115.729 42.4746 115.303 42.9131C114.878 43.3516 114.542 43.8675 114.297 44.4478C114.039 45.0282 113.91 45.6601 113.91 46.3179C113.91 46.9756 114.039 47.6076 114.297 48.1879C114.542 48.7683 114.878 49.2842 115.303 49.7227C115.729 50.1612 116.219 50.5094 116.774 50.7673C117.328 51.0253 117.896 51.1542 118.489 51.1542ZM124.361 42.7067L127.521 42.7067V50.7673H128.424V42.7067H131.584V41.8684L124.361 41.8684V42.7067ZM134.938 50.7673V41.8684H134.035V50.7673H134.938ZM146.284 46.3179C146.284 46.8725 146.181 47.3883 145.974 47.8655C145.755 48.3556 145.484 48.7812 145.136 49.1423C144.788 49.5034 144.375 49.7872 143.924 49.9935C143.459 50.2128 142.982 50.3159 142.479 50.3159C141.976 50.3159 141.499 50.2128 141.048 49.9935C140.583 49.7872 140.184 49.5034 139.835 49.1423C139.487 48.7812 139.203 48.3556 138.997 47.8655C138.778 47.3883 138.675 46.8725 138.675 46.3179C138.675 45.7633 138.778 45.2474 138.997 44.7574C139.203 44.2802 139.487 43.8546 139.835 43.4935C140.171 43.1323 140.583 42.8486 141.048 42.6294C141.499 42.423 141.976 42.3198 142.479 42.3198C142.982 42.3198 143.459 42.423 143.924 42.6294C144.375 42.8486 144.788 43.1323 145.136 43.4935C145.484 43.8546 145.755 44.2802 145.974 44.7574C146.181 45.2474 146.284 45.7633 146.284 46.3179ZM137.772 46.3179C137.772 46.9756 137.901 47.6076 138.159 48.1879C138.404 48.7683 138.752 49.2842 139.19 49.7227C139.616 50.1612 140.119 50.5094 140.687 50.7673C141.254 51.0253 141.847 51.1542 142.479 51.1542C143.111 51.1542 143.704 51.0253 144.272 50.7673C144.839 50.5094 145.342 50.1612 145.781 49.7227C146.206 49.2842 146.555 48.7683 146.813 48.1879C147.058 47.6076 147.187 46.9756 147.187 46.3179C147.187 45.6601 147.058 45.0282 146.813 44.4478C146.555 43.8675 146.206 43.3516 145.781 42.9131C145.342 42.4746 144.839 42.1264 144.272 41.8684C143.704 41.6105 143.111 41.4815 142.479 41.4815C141.847 41.4815 141.254 41.6105 140.687 41.8684C140.119 42.1264 139.616 42.4746 139.19 42.9131C138.752 43.3645 138.404 43.8804 138.159 44.4607C137.901 45.0411 137.772 45.6601 137.772 46.3179ZM156.08 49.2197L150.986 41.8684H150.018V50.7673H150.921V43.4161H150.986L156.08 50.7673H157.047V41.8684H156.144V49.2197H156.08ZM161.307 47.6721L162.532 42.7067H164.854L166.079 47.6721L161.307 47.6721ZM167.756 50.7673L165.563 41.8684H161.823L159.631 50.7673H160.533L161.114 48.5104L166.273 48.5104L166.853 50.7673H167.756ZM171.237 42.7067H174.139C174.655 42.7067 175.067 42.8486 175.364 43.1194C175.661 43.4032 175.815 43.7385 175.815 44.1254C175.815 44.5639 175.661 44.925 175.364 45.1958C175.067 45.4667 174.655 45.6086 174.139 45.6086H171.237V42.7067ZM174.784 49.929L171.237 49.929V46.4469H174.784C175.093 46.4469 175.377 46.4855 175.622 46.5758C175.854 46.6661 176.073 46.7951 176.241 46.9498C176.409 47.1175 176.55 47.2981 176.641 47.5044C176.731 47.7237 176.783 47.9429 176.783 48.1879C176.783 48.433 176.731 48.6522 176.641 48.8586C176.55 49.0778 176.409 49.2584 176.241 49.4132C176.073 49.5808 175.867 49.6969 175.622 49.7872C175.377 49.8774 175.093 49.929 174.784 49.929ZM174.139 41.8684H170.334V50.7673H174.784C175.222 50.7673 175.622 50.7028 175.983 50.561C176.331 50.4191 176.641 50.2386 176.899 50.0064C177.144 49.7743 177.337 49.5034 177.479 49.181C177.621 48.8715 177.685 48.5362 177.685 48.1879C177.685 47.93 177.66 47.6979 177.595 47.4915C177.531 47.2981 177.453 47.1175 177.35 46.9627C177.247 46.8209 177.131 46.6919 177.002 46.5758C176.873 46.4598 176.744 46.3695 176.615 46.2921C176.305 46.1115 175.957 45.9955 175.557 45.931V45.8665C175.777 45.802 175.97 45.6859 176.138 45.5312C176.28 45.4022 176.421 45.2216 176.538 45.0024C176.654 44.7831 176.718 44.4865 176.718 44.1254C176.718 43.8159 176.654 43.5192 176.538 43.2484C176.409 42.9776 176.228 42.7454 176.009 42.5391C175.79 42.3327 175.519 42.1651 175.196 42.049C174.874 41.9329 174.526 41.8684 174.139 41.8684ZM181.294 49.929V41.8684H180.391V50.7673H186.453V49.929H181.294ZM195.283 49.929H189.802V46.7048H194.122V45.8665H189.802V42.7067H195.283V41.8684H188.899V50.7673H195.283V49.929ZM202.372 50.7673V41.8684H201.469V50.7673H202.372ZM211.719 49.2197L206.624 41.8684H205.657V50.7673H206.56V43.4161H206.624L211.719 50.7673H212.686V41.8684H211.783V49.2197H211.719ZM221.524 48.4459C221.524 48.6909 221.473 48.9231 221.357 49.1423C221.241 49.3616 221.086 49.5679 220.88 49.7356C220.66 49.9161 220.402 50.058 220.093 50.1612C219.77 50.2644 219.409 50.3159 219.01 50.3159C218.661 50.3159 218.339 50.2644 218.055 50.1612C217.771 50.0709 217.513 49.929 217.294 49.7614C217.075 49.5937 216.882 49.3874 216.714 49.1423C216.546 48.9102 216.417 48.6522 216.301 48.3814L215.398 48.5104C215.514 48.8844 215.669 49.2197 215.876 49.5421C216.069 49.8645 216.327 50.1483 216.624 50.3804C216.92 50.6255 217.268 50.806 217.668 50.9479C218.068 51.0898 218.507 51.1542 219.01 51.1542C219.538 51.1542 220.015 51.0769 220.441 50.935C220.867 50.7802 221.228 50.5739 221.524 50.3288C221.821 50.0838 222.04 49.7872 222.195 49.4647C222.35 49.1423 222.427 48.7941 222.427 48.4459C222.427 47.9171 222.285 47.4786 222.015 47.1562C221.744 46.8338 221.395 46.5758 220.983 46.3695C220.557 46.176 220.106 46.0084 219.629 45.8794C219.139 45.7504 218.687 45.6086 218.274 45.4538C217.849 45.3119 217.501 45.1185 217.23 44.8992C216.959 44.68 216.817 44.3833 216.817 43.9964C216.817 43.7901 216.869 43.5837 216.972 43.3774C217.075 43.1839 217.23 43.0034 217.423 42.8357C217.617 42.6809 217.849 42.552 218.133 42.4617C218.403 42.3714 218.726 42.3198 219.074 42.3198C219.409 42.3198 219.706 42.3585 219.964 42.4359C220.222 42.5133 220.454 42.6294 220.647 42.7712C220.841 42.9131 221.009 43.0936 221.15 43.3C221.292 43.5063 221.408 43.7385 221.524 43.9964L222.427 43.803C222.311 43.4806 222.169 43.1839 221.976 42.9002C221.782 42.6165 221.55 42.3714 221.279 42.1522C221.009 41.9458 220.686 41.7782 220.325 41.6621C219.951 41.546 219.538 41.4815 219.074 41.4815C218.597 41.4815 218.158 41.546 217.771 41.6879C217.372 41.8297 217.036 42.0232 216.765 42.2553C216.495 42.4875 216.275 42.7583 216.134 43.055C215.992 43.3645 215.914 43.674 215.914 43.9964C215.914 44.3962 215.992 44.7445 216.159 45.0153C216.314 45.299 216.52 45.5312 216.791 45.7246C217.062 45.9181 217.359 46.0857 217.694 46.2147C218.029 46.3437 218.378 46.4598 218.726 46.5629C219.074 46.6661 219.409 46.7693 219.745 46.8596C220.08 46.9627 220.377 47.0788 220.647 47.2207C220.918 47.3625 221.125 47.5173 221.292 47.7108C221.447 47.9042 221.524 48.1493 221.524 48.4459ZM226.17 50.7673V41.8684H225.268V50.7673H226.17ZM233.583 50.3159C233.118 50.3159 232.667 50.2128 232.228 50.0064C231.777 49.8001 231.39 49.5163 231.042 49.1552C230.694 48.7941 230.423 48.3685 230.216 47.8784C230.01 47.4012 229.907 46.8725 229.907 46.3179C229.907 45.7633 230.01 45.2474 230.216 44.7574C230.423 44.2802 230.694 43.8546 231.042 43.4935C231.39 43.1323 231.777 42.8486 232.228 42.6294C232.667 42.423 233.118 42.3198 233.583 42.3198C234.008 42.3198 234.382 42.3714 234.718 42.4875C235.053 42.6036 235.349 42.7583 235.607 42.9518C235.865 43.1452 236.085 43.3516 236.265 43.5966C236.446 43.8417 236.588 44.0738 236.678 44.3189L237.581 44.1899C237.49 43.8675 237.323 43.545 237.103 43.2226C236.884 42.9002 236.6 42.6165 236.265 42.3585C235.917 42.1006 235.53 41.8942 235.079 41.7266C234.627 41.5589 234.137 41.4815 233.583 41.4815C232.976 41.4815 232.409 41.6105 231.854 41.8555C231.3 42.1135 230.823 42.4617 230.397 42.9002C229.971 43.3387 229.636 43.8546 229.391 44.4349C229.133 45.0153 229.004 45.6472 229.004 46.3179C229.004 46.9885 229.133 47.6205 229.391 48.2008C229.636 48.7812 229.971 49.2971 230.397 49.7356C230.823 50.1741 231.3 50.5223 231.854 50.7802C232.409 51.0253 232.976 51.1542 233.583 51.1542C234.215 51.1542 234.795 51.0511 235.337 50.8318C235.865 50.5997 236.33 50.303 236.729 49.9032C237.116 49.5163 237.426 49.052 237.645 48.5104C237.864 47.9816 237.968 47.4012 237.968 46.7693V46.3824H234.098V47.2207H237.065C237.065 47.6076 236.974 47.9816 236.794 48.3556C236.613 48.7296 236.368 49.052 236.059 49.3487C235.736 49.6453 235.375 49.8774 234.95 50.0451C234.524 50.2257 234.06 50.3159 233.583 50.3159ZM240.81 41.8684V50.7673H241.713V46.7048H246.807V50.7673L247.71 50.7673V41.8684H246.807V45.8665H241.713V41.8684H240.81ZM250.155 42.7067L253.314 42.7067V50.7673H254.217V42.7067H257.377V41.8684L250.155 41.8684V42.7067Z" fill="#D1DDEF"/>
<path d="M102.598 45.9996L80.2979 45.9996" stroke="#D1DDEF" stroke-width="0.929176"/>
<path d="M280.999 45.9996L258.699 45.9996" stroke="#D1DDEF" stroke-width="0.929176"/>
</svg>
