<svg width="201" height="65" viewBox="0 0 201 65" fill="none" xmlns="http://www.w3.org/2000/svg">
<path d="M91.488 30.256C90.6107 31.264 89.528 32.0667 88.24 32.664C86.952 33.2427 85.468 33.532 83.788 33.532C82.2573 33.532 80.8387 33.28 79.532 32.776C78.244 32.272 77.124 31.5627 76.172 30.648C75.22 29.7147 74.4733 28.604 73.932 27.316C73.3907 26.028 73.12 24.6093 73.12 23.06C73.12 21.4733 73.3907 20.036 73.932 18.748C74.492 17.46 75.2573 16.368 76.228 15.472C77.1987 14.5573 78.3373 13.8573 79.644 13.372C80.9507 12.8867 82.36 12.644 83.872 12.644C85.272 12.644 86.644 12.896 87.988 13.4C89.3507 13.8853 90.452 14.604 91.292 15.556L88.044 18.804C87.596 18.188 87.008 17.7307 86.28 17.432C85.552 17.1333 84.8053 16.984 84.04 16.984C83.2 16.984 82.4253 17.1427 81.716 17.46C81.0253 17.7587 80.428 18.1787 79.924 18.72C79.42 19.2613 79.028 19.9053 78.748 20.652C78.468 21.38 78.328 22.1827 78.328 23.06C78.328 23.956 78.468 24.7773 78.748 25.524C79.028 26.2707 79.4107 26.9147 79.896 27.456C80.4 27.9787 80.9973 28.3893 81.688 28.688C82.3787 28.9867 83.1347 29.136 83.956 29.136C84.908 29.136 85.7387 28.9493 86.448 28.576C87.1573 28.2027 87.7267 27.7173 88.156 27.12L91.488 30.256ZM107.152 33L102.868 25.132H101.244V33H96.5401V13.176H104.1C105.052 13.176 105.976 13.2787 106.872 13.484C107.787 13.6707 108.599 13.9973 109.308 14.464C110.036 14.9307 110.615 15.5467 111.044 16.312C111.473 17.0773 111.688 18.0293 111.688 19.168C111.688 20.512 111.324 21.6413 110.596 22.556C109.868 23.4707 108.86 24.124 107.572 24.516L112.752 33H107.152ZM106.956 19.252C106.956 18.7853 106.853 18.412 106.648 18.132C106.461 17.8333 106.209 17.6093 105.892 17.46C105.593 17.292 105.248 17.18 104.856 17.124C104.483 17.068 104.119 17.04 103.764 17.04H101.216V21.66H103.484C103.876 21.66 104.277 21.632 104.688 21.576C105.099 21.5013 105.472 21.38 105.808 21.212C106.144 21.044 106.415 20.8013 106.62 20.484C106.844 20.1667 106.956 19.756 106.956 19.252ZM127.465 24.6V33H122.677V24.6L115.229 13.176H121.025L125.253 20.512L129.481 13.176H135.081L127.465 24.6ZM154.6 19.28C154.6 20.4373 154.385 21.4173 153.956 22.22C153.526 23.004 152.948 23.6387 152.22 24.124C151.492 24.6093 150.652 24.964 149.7 25.188C148.748 25.412 147.758 25.524 146.732 25.524H144.352V33H139.564V13.176H146.844C147.926 13.176 148.934 13.288 149.868 13.512C150.82 13.7173 151.641 14.0627 152.332 14.548C153.041 15.0147 153.592 15.64 153.984 16.424C154.394 17.1893 154.6 18.1413 154.6 19.28ZM149.812 19.308C149.812 18.8413 149.718 18.4587 149.532 18.16C149.345 17.8613 149.093 17.628 148.776 17.46C148.458 17.292 148.094 17.18 147.684 17.124C147.292 17.068 146.881 17.04 146.452 17.04H144.352V21.716H146.368C146.816 21.716 147.245 21.6787 147.656 21.604C148.066 21.5293 148.43 21.3987 148.748 21.212C149.084 21.0253 149.345 20.7827 149.532 20.484C149.718 20.1667 149.812 19.7747 149.812 19.308ZM168.794 17.264V33H164.006V17.264H158.406V13.176H174.394V17.264H168.794ZM199.396 23.004C199.396 24.572 199.125 26.0093 198.584 27.316C198.042 28.604 197.286 29.7147 196.316 30.648C195.364 31.5627 194.225 32.272 192.9 32.776C191.574 33.28 190.137 33.532 188.588 33.532C187.038 33.532 185.601 33.28 184.276 32.776C182.969 32.272 181.83 31.5627 180.86 30.648C179.908 29.7147 179.161 28.604 178.62 27.316C178.078 26.0093 177.808 24.572 177.808 23.004C177.808 21.4173 178.078 19.9893 178.62 18.72C179.161 17.432 179.908 16.34 180.86 15.444C181.83 14.548 182.969 13.8573 184.276 13.372C185.601 12.8867 187.038 12.644 188.588 12.644C190.137 12.644 191.574 12.8867 192.9 13.372C194.225 13.8573 195.364 14.548 196.316 15.444C197.286 16.34 198.042 17.432 198.584 18.72C199.125 19.9893 199.396 21.4173 199.396 23.004ZM194.272 23.004C194.272 22.1453 194.132 21.3427 193.852 20.596C193.572 19.8493 193.18 19.2147 192.676 18.692C192.19 18.1507 191.593 17.7307 190.884 17.432C190.193 17.1147 189.428 16.956 188.588 16.956C187.748 16.956 186.982 17.1147 186.292 17.432C185.601 17.7307 185.004 18.1507 184.5 18.692C183.996 19.2147 183.604 19.8493 183.324 20.596C183.062 21.3427 182.932 22.1453 182.932 23.004C182.932 23.9 183.072 24.7307 183.352 25.496C183.632 26.2427 184.014 26.8867 184.5 27.428C185.004 27.9693 185.601 28.3987 186.292 28.716C186.982 29.0147 187.748 29.164 188.588 29.164C189.428 29.164 190.193 29.0147 190.884 28.716C191.574 28.3987 192.172 27.9693 192.676 27.428C193.18 26.8867 193.572 26.2427 193.852 25.496C194.132 24.7307 194.272 23.9 194.272 23.004Z" fill="#165BE0"/>
<path d="M83.246 47.412C82.9847 47.0573 82.644 46.8007 82.224 46.642C81.804 46.474 81.3933 46.39 80.992 46.39C80.4787 46.39 80.012 46.4833 79.592 46.67C79.172 46.8567 78.808 47.1133 78.5 47.44C78.2013 47.7667 77.968 48.1493 77.8 48.588C77.6413 49.0267 77.562 49.5027 77.562 50.016C77.562 50.5573 77.6413 51.052 77.8 51.5C77.9587 51.948 78.1827 52.3353 78.472 52.662C78.7707 52.9793 79.1253 53.2267 79.536 53.404C79.9467 53.5813 80.4087 53.67 80.922 53.67C81.454 53.67 81.9253 53.5673 82.336 53.362C82.7467 53.1473 83.078 52.8673 83.33 52.522L84.744 53.516C84.3053 54.0667 83.7687 54.496 83.134 54.804C82.4993 55.1027 81.7573 55.252 80.908 55.252C80.1333 55.252 79.4193 55.126 78.766 54.874C78.122 54.6127 77.5667 54.2533 77.1 53.796C76.6333 53.3293 76.2693 52.7787 76.008 52.144C75.7467 51.5 75.616 50.7907 75.616 50.016C75.616 49.2227 75.7513 48.5087 76.022 47.874C76.302 47.23 76.68 46.684 77.156 46.236C77.6413 45.788 78.2107 45.4427 78.864 45.2C79.5173 44.9573 80.2267 44.836 80.992 44.836C81.3093 44.836 81.6407 44.8687 81.986 44.934C82.3313 44.99 82.6627 45.0833 82.98 45.214C83.2973 45.3353 83.596 45.4893 83.876 45.676C84.156 45.8627 84.394 46.0867 84.59 46.348L83.246 47.412ZM95.236 51.36C95.236 51.9573 95.1334 52.4987 94.928 52.984C94.7227 53.46 94.4427 53.866 94.088 54.202C93.7334 54.538 93.3134 54.7993 92.828 54.986C92.3427 55.1633 91.8154 55.252 91.246 55.252C90.6767 55.252 90.1494 55.1633 89.664 54.986C89.1787 54.7993 88.754 54.538 88.39 54.202C88.0354 53.866 87.7554 53.46 87.55 52.984C87.354 52.4987 87.256 51.9573 87.256 51.36V45.088H89.02V51.29C89.02 51.5793 89.0574 51.8687 89.132 52.158C89.2067 52.438 89.328 52.69 89.496 52.914C89.6734 53.138 89.902 53.32 90.182 53.46C90.4714 53.6 90.826 53.67 91.246 53.67C91.666 53.67 92.016 53.6 92.296 53.46C92.5854 53.32 92.814 53.138 92.982 52.914C93.1594 52.69 93.2854 52.438 93.36 52.158C93.4347 51.8687 93.472 51.5793 93.472 51.29V45.088H95.236V51.36ZM98.8342 45.088H102.278C102.745 45.088 103.198 45.1393 103.636 45.242C104.075 45.3353 104.462 45.494 104.798 45.718C105.144 45.942 105.419 46.236 105.624 46.6C105.83 46.964 105.932 47.4073 105.932 47.93C105.932 48.6487 105.727 49.2367 105.316 49.694C104.915 50.142 104.364 50.4453 103.664 50.604L106.31 55H104.182L101.886 50.8H100.598V55H98.8342V45.088ZM102.04 49.358C102.292 49.358 102.544 49.3393 102.796 49.302C103.048 49.2647 103.272 49.1947 103.468 49.092C103.674 48.9893 103.842 48.8447 103.972 48.658C104.103 48.462 104.168 48.2147 104.168 47.916C104.168 47.6453 104.108 47.426 103.986 47.258C103.865 47.0807 103.711 46.9407 103.524 46.838C103.338 46.7353 103.123 46.6653 102.88 46.628C102.647 46.5907 102.418 46.572 102.194 46.572H100.598V49.358H102.04ZM109.139 45.088H112.583C113.05 45.088 113.502 45.1393 113.941 45.242C114.38 45.3353 114.767 45.494 115.103 45.718C115.448 45.942 115.724 46.236 115.929 46.6C116.134 46.964 116.237 47.4073 116.237 47.93C116.237 48.6487 116.032 49.2367 115.621 49.694C115.22 50.142 114.669 50.4453 113.969 50.604L116.615 55H114.487L112.191 50.8H110.903V55H109.139V45.088ZM112.345 49.358C112.597 49.358 112.849 49.3393 113.101 49.302C113.353 49.2647 113.577 49.1947 113.773 49.092C113.978 48.9893 114.146 48.8447 114.277 48.658C114.408 48.462 114.473 48.2147 114.473 47.916C114.473 47.6453 114.412 47.426 114.291 47.258C114.17 47.0807 114.016 46.9407 113.829 46.838C113.642 46.7353 113.428 46.6653 113.185 46.628C112.952 46.5907 112.723 46.572 112.499 46.572H110.903V49.358H112.345ZM119.444 45.088H126.01V46.628H121.208V49.148H125.758V50.632H121.208V53.432H126.262V55H119.444V45.088ZM129.488 45.088H131.826L136.432 52.508H136.46V45.088H138.224V55H135.984L131.28 47.342H131.252V55H129.488V45.088ZM149.066 47.412C148.805 47.0573 148.464 46.8007 148.044 46.642C147.624 46.474 147.214 46.39 146.812 46.39C146.299 46.39 145.832 46.4833 145.412 46.67C144.992 46.8567 144.628 47.1133 144.32 47.44C144.022 47.7667 143.788 48.1493 143.62 48.588C143.462 49.0267 143.382 49.5027 143.382 50.016C143.382 50.5573 143.462 51.052 143.62 51.5C143.779 51.948 144.003 52.3353 144.292 52.662C144.591 52.9793 144.946 53.2267 145.356 53.404C145.767 53.5813 146.229 53.67 146.742 53.67C147.274 53.67 147.746 53.5673 148.156 53.362C148.567 53.1473 148.898 52.8673 149.15 52.522L150.564 53.516C150.126 54.0667 149.589 54.496 148.954 54.804C148.32 55.1027 147.578 55.252 146.728 55.252C145.954 55.252 145.24 55.126 144.586 54.874C143.942 54.6127 143.387 54.2533 142.92 53.796C142.454 53.3293 142.09 52.7787 141.828 52.144C141.567 51.5 141.436 50.7907 141.436 50.016C141.436 49.2227 141.572 48.5087 141.842 47.874C142.122 47.23 142.5 46.684 142.976 46.236C143.462 45.788 144.031 45.4427 144.684 45.2C145.338 44.9573 146.047 44.836 146.812 44.836C147.13 44.836 147.461 44.8687 147.806 44.934C148.152 44.99 148.483 45.0833 148.8 45.214C149.118 45.3353 149.416 45.4893 149.696 45.676C149.976 45.8627 150.214 46.0867 150.41 46.348L149.066 47.412ZM153.16 45.088H154.924V55H153.16V45.088ZM158.612 45.088H165.178V46.628H160.376V49.148H164.926V50.632H160.376V53.432H165.43V55H158.612V45.088ZM173.71 47.16C173.524 46.9173 173.258 46.7167 172.912 46.558C172.576 46.39 172.236 46.306 171.89 46.306C171.685 46.306 171.48 46.334 171.274 46.39C171.069 46.4367 170.882 46.516 170.714 46.628C170.546 46.7307 170.406 46.8707 170.294 47.048C170.192 47.216 170.14 47.4213 170.14 47.664C170.14 47.888 170.187 48.0793 170.28 48.238C170.374 48.3967 170.5 48.532 170.658 48.644C170.826 48.756 171.027 48.854 171.26 48.938C171.494 49.022 171.75 49.106 172.03 49.19C172.348 49.2927 172.674 49.4093 173.01 49.54C173.356 49.6707 173.668 49.8433 173.948 50.058C174.238 50.2727 174.471 50.5433 174.648 50.87C174.835 51.1967 174.928 51.6027 174.928 52.088C174.928 52.62 174.83 53.0867 174.634 53.488C174.438 53.88 174.177 54.2067 173.85 54.468C173.524 54.7293 173.141 54.9253 172.702 55.056C172.264 55.1867 171.802 55.252 171.316 55.252C170.672 55.252 170.042 55.1353 169.426 54.902C168.81 54.6593 168.306 54.3047 167.914 53.838L169.174 52.662C169.417 52.998 169.739 53.264 170.14 53.46C170.551 53.656 170.952 53.754 171.344 53.754C171.55 53.754 171.76 53.7307 171.974 53.684C172.189 53.628 172.38 53.5393 172.548 53.418C172.726 53.2967 172.866 53.1473 172.968 52.97C173.08 52.7833 173.136 52.5547 173.136 52.284C173.136 52.0227 173.076 51.808 172.954 51.64C172.833 51.4627 172.67 51.3133 172.464 51.192C172.259 51.0613 172.016 50.9493 171.736 50.856C171.456 50.7627 171.162 50.6647 170.854 50.562C170.556 50.4687 170.257 50.3567 169.958 50.226C169.66 50.0953 169.389 49.9227 169.146 49.708C168.913 49.4933 168.722 49.232 168.572 48.924C168.423 48.6067 168.348 48.2147 168.348 47.748C168.348 47.244 168.451 46.81 168.656 46.446C168.871 46.082 169.146 45.7833 169.482 45.55C169.828 45.3073 170.215 45.13 170.644 45.018C171.083 44.8967 171.526 44.836 171.974 44.836C172.478 44.836 172.987 44.9247 173.5 45.102C174.023 45.2793 174.476 45.5453 174.858 45.9L173.71 47.16ZM177.804 54.02C177.804 53.7213 177.911 53.4647 178.126 53.25C178.35 53.0353 178.616 52.928 178.924 52.928C179.222 52.928 179.484 53.0307 179.708 53.236C179.932 53.4413 180.044 53.6933 180.044 53.992C180.044 54.2907 179.932 54.5473 179.708 54.762C179.493 54.9767 179.232 55.084 178.924 55.084C178.774 55.084 178.63 55.056 178.49 55C178.359 54.944 178.242 54.8693 178.14 54.776C178.037 54.6827 177.953 54.5707 177.888 54.44C177.832 54.3093 177.804 54.1693 177.804 54.02ZM186.44 45.088H187.966L192.236 55H190.22L189.296 52.732H184.998L184.102 55H182.128L186.44 45.088ZM188.68 51.22L187.154 47.188L185.6 51.22H188.68ZM194.717 45.088H196.481V55H194.717V45.088Z" fill="#7284A0"/>
<path d="M32 1L59.7128 16.9945V48.9835L32 64.978L4.28719 48.9835L4.28719 16.9945L32 1Z" fill="#5C8CEA"/>
<path d="M31.8652 31.2191L59.7105 16.9902L59.717 48.9738L31.9917 64.9996L31.8652 31.2191Z" fill="#165BE0"/>
<path fill-rule="evenodd" clip-rule="evenodd" d="M31.9841 7.97715L53.4389 20.2226L59.6986 17.0145L32.0055 0.986328L31.9841 0.998733L31.9626 0.986328L4.26953 17.0145L4.28515 17.0225L4.27994 48.9746L10.3681 52.5028L10.3685 52.4265V52.4714L32.014 64.9887V64.971L59.7054 48.984V45.4009V41.7859L32.014 57.7959V57.7906L10.4074 45.3188L10.5449 20.226L10.5336 20.2202L31.9841 7.97715Z" fill="#16253D"/>
</svg>
