<svg width="102" height="44" viewBox="0 0 102 44" fill="none" xmlns="http://www.w3.org/2000/svg">
<path d="M49.684 22.2452C50.328 22.2452 50.916 22.1472 51.448 21.9652C51.98 21.7692 52.442 21.5172 52.848 21.1952C53.254 20.8872 53.59 20.5372 53.856 20.1452C54.122 19.7532 54.318 19.3612 54.444 18.9552L52.974 18.7452C52.848 19.0252 52.694 19.2912 52.498 19.5572C52.302 19.8232 52.064 20.0472 51.798 20.2432C51.532 20.4532 51.224 20.6072 50.874 20.7332C50.524 20.8592 50.118 20.9152 49.684 20.9152C49.208 20.9152 48.746 20.8172 48.312 20.6072C47.878 20.3972 47.486 20.1172 47.15 19.7532C46.814 19.4032 46.548 18.9832 46.352 18.4932C46.142 18.0032 46.044 17.4852 46.044 16.9252C46.044 16.3652 46.142 15.8472 46.352 15.3572C46.548 14.8672 46.814 14.4472 47.15 14.0832C47.486 13.7332 47.878 13.4532 48.312 13.2432C48.746 13.0332 49.208 12.9352 49.684 12.9352C50.09 12.9352 50.454 12.9912 50.776 13.1032C51.098 13.2152 51.392 13.3552 51.644 13.5372C51.882 13.7192 52.092 13.9292 52.274 14.1672C52.456 14.4052 52.596 14.6572 52.694 14.8952L54.164 14.6852C54.038 14.3072 53.856 13.9292 53.604 13.5512C53.352 13.1872 53.044 12.8652 52.666 12.5712C52.288 12.2772 51.84 12.0532 51.35 11.8712C50.86 11.6892 50.3 11.6052 49.684 11.6052C48.998 11.6052 48.354 11.7452 47.738 12.0252C47.122 12.3052 46.576 12.6832 46.114 13.1592C45.638 13.6492 45.26 14.2092 44.994 14.8532C44.714 15.4972 44.574 16.1832 44.574 16.9252C44.574 17.6672 44.714 18.3532 44.994 18.9972C45.26 19.6412 45.638 20.2012 46.114 20.6772C46.576 21.1672 47.122 21.5452 47.738 21.8252C48.354 22.1052 48.998 22.2452 49.684 22.2452ZM60.2491 17.2752H57.2391V13.3552H60.2771C60.5991 13.3552 60.8931 13.3972 61.1591 13.4952C61.4251 13.5932 61.6491 13.7332 61.8311 13.9152C62.0131 14.0972 62.1671 14.2932 62.2651 14.5312C62.3631 14.7692 62.4191 15.0352 62.4191 15.3152C62.4191 15.5812 62.3631 15.8192 62.2651 16.0572C62.1671 16.2952 62.0131 16.5052 61.8311 16.6872C61.6491 16.8692 61.4251 17.0092 61.1591 17.1072C60.8931 17.2192 60.5851 17.2752 60.2491 17.2752ZM57.2391 18.6052H60.3891L62.2091 21.8252H63.7491L61.7891 18.3252C62.1811 18.1852 62.5311 17.9752 62.8391 17.7092C63.1051 17.4852 63.3431 17.1772 63.5671 16.7852C63.7771 16.4072 63.8891 15.9172 63.8891 15.3152C63.8891 14.8392 63.8051 14.4052 63.6371 13.9992C63.4691 13.5932 63.2311 13.2432 62.9231 12.9492C62.6011 12.6552 62.2231 12.4312 61.7751 12.2632C61.3271 12.1092 60.8231 12.0252 60.2771 12.0252H55.7691V21.8252H57.2391V18.6052ZM69.2145 21.8252V18.6052C69.8445 17.5272 70.4885 16.4212 71.1465 15.3152C71.7905 14.2092 72.4345 13.1172 73.0645 12.0252H71.3845L68.5145 16.8552H68.4445L65.5745 12.0252H63.8945C64.5245 13.1172 65.1685 14.2092 65.8265 15.3152C66.4705 16.4212 67.1145 17.5272 67.7445 18.6052V21.8252H69.2145ZM82.2384 15.5952C82.2384 15.1052 82.1404 14.6432 81.9584 14.2092C81.7624 13.7752 81.4964 13.3972 81.1464 13.0752C80.7964 12.7532 80.3904 12.4872 79.9144 12.3052C79.4244 12.1232 78.8924 12.0252 78.3184 12.0252H74.0484V21.8252H75.5184V19.1652H78.3184C78.8924 19.1652 79.4244 19.0672 79.9144 18.8852C80.3904 18.7032 80.7964 18.4372 81.1464 18.1152C81.4964 17.7932 81.7624 17.4152 81.9584 16.9812C82.1404 16.5472 82.2384 16.0852 82.2384 15.5952ZM80.7684 15.5952C80.7684 16.2672 80.5584 16.8132 80.1244 17.2192C79.6904 17.6252 79.0884 17.8352 78.3184 17.8352H75.5184V13.3552H78.3184C79.0884 13.3552 79.6904 13.5652 80.1244 13.9712C80.5584 14.3772 80.7684 14.9232 80.7684 15.5952ZM82.6693 13.3552H85.9593V21.8252H87.4293V13.3552H90.7193V12.0252H82.6693V13.3552ZM101.422 16.9252C101.422 16.1832 101.282 15.4972 101.002 14.8532C100.722 14.2092 100.344 13.6492 99.8676 13.1592C99.3916 12.6832 98.8316 12.3052 98.2016 12.0252C97.5716 11.7452 96.8856 11.6052 96.1716 11.6052C95.4576 11.6052 94.7716 11.7452 94.1416 12.0252C93.5116 12.3052 92.9516 12.6832 92.4756 13.1592C91.9996 13.6492 91.6216 14.2092 91.3416 14.8532C91.0616 15.4972 90.9216 16.1832 90.9216 16.9252C90.9216 17.6672 91.0616 18.3532 91.3416 18.9972C91.6216 19.6412 91.9996 20.2012 92.4756 20.6772C92.9516 21.1672 93.5116 21.5452 94.1416 21.8252C94.7716 22.1052 95.4576 22.2452 96.1716 22.2452C96.8856 22.2452 97.5716 22.1052 98.2016 21.8252C98.8316 21.5452 99.3916 21.1672 99.8676 20.6772C100.344 20.2012 100.722 19.6412 101.002 18.9972C101.282 18.3532 101.422 17.6672 101.422 16.9252ZM92.3916 16.9252C92.3916 16.3652 92.4896 15.8472 92.6996 15.3572C92.9096 14.8672 93.1756 14.4472 93.5256 14.0832C93.8756 13.7332 94.2676 13.4532 94.7296 13.2432C95.1916 13.0332 95.6676 12.9352 96.1716 12.9352C96.6756 12.9352 97.1516 13.0332 97.6136 13.2432C98.0756 13.4532 98.4676 13.7332 98.8176 14.0832C99.1676 14.4472 99.4336 14.8672 99.6436 15.3572C99.8536 15.8472 99.9516 16.3652 99.9516 16.9252C99.9516 17.4852 99.8536 18.0032 99.6436 18.4932C99.4336 18.9832 99.1676 19.4032 98.8176 19.7532C98.4676 20.1172 98.0756 20.3972 97.6136 20.6072C97.1516 20.8172 96.6756 20.9152 96.1716 20.9152C95.6676 20.9152 95.1916 20.8172 94.7296 20.6072C94.2676 20.3972 93.8756 20.1172 93.5256 19.7532C93.1756 19.4032 92.9096 18.9832 92.6996 18.4932C92.4896 18.0032 92.3916 17.4852 92.3916 16.9252Z" fill="#16253D"/>
<path d="M47.0176 31.0252C47.3476 31.0252 47.6376 30.9752 47.8976 30.8852C48.1576 30.7952 48.3876 30.6652 48.5876 30.5152C48.7776 30.3652 48.9476 30.1852 49.0776 29.9852C49.2076 29.7952 49.3076 29.5852 49.3676 29.3752L48.4176 29.2252C48.3476 29.4752 48.1976 29.6952 47.9676 29.8852C47.7376 30.0752 47.4176 30.1752 47.0176 30.1752C46.8176 30.1752 46.6276 30.1352 46.4476 30.0452C46.2676 29.9652 46.1076 29.8452 45.9676 29.6952C45.8276 29.5452 45.7176 29.3552 45.6376 29.1352C45.5576 28.9252 45.5176 28.6852 45.5176 28.4252C45.5176 28.1652 45.5576 27.9252 45.6376 27.7052C45.7176 27.4952 45.8276 27.3052 45.9676 27.1552C46.1076 27.0052 46.2676 26.8852 46.4476 26.7952C46.6276 26.7152 46.8176 26.6752 47.0176 26.6752C47.3676 26.6752 47.6476 26.7552 47.8576 26.9252C48.0576 27.0952 48.1976 27.2752 48.2676 27.4752L49.2176 27.3252C49.1576 27.1352 49.0676 26.9552 48.9376 26.7752C48.8076 26.5952 48.6576 26.4352 48.4776 26.2952C48.2876 26.1552 48.0776 26.0452 47.8376 25.9552C47.5876 25.8652 47.3176 25.8252 47.0176 25.8252C46.6776 25.8252 46.3576 25.8852 46.0676 26.0152C45.7676 26.1452 45.5076 26.3252 45.2876 26.5552C45.0676 26.7852 44.8976 27.0652 44.7676 27.3852C44.6376 27.7052 44.5676 28.0552 44.5676 28.4252C44.5676 28.7952 44.6376 29.1452 44.7676 29.4652C44.8976 29.7852 45.0676 30.0552 45.2876 30.2852C45.5076 30.5152 45.7676 30.6952 46.0676 30.8352C46.3576 30.9652 46.6776 31.0252 47.0176 31.0252ZM50.2191 26.0252V28.8252C50.2191 29.1552 50.2691 29.4452 50.3791 29.7152C50.4891 29.9852 50.6291 30.2252 50.8091 30.4152C50.9891 30.6052 51.1991 30.7552 51.4491 30.8652C51.6891 30.9752 51.9491 31.0252 52.2191 31.0252C52.4491 31.0252 52.6491 30.9852 52.8191 30.9052C52.9891 30.8152 53.1391 30.7252 53.2591 30.6252C53.3991 30.5052 53.5191 30.3752 53.6191 30.2252H53.7191V30.8252H54.6691V26.0252H53.7191V29.0752C53.6091 29.2852 53.4791 29.4652 53.3391 29.6252C53.2191 29.7652 53.0791 29.8952 52.9191 30.0052C52.7491 30.1152 52.5691 30.1752 52.3691 30.1752C52.2091 30.1752 52.0591 30.1452 51.9091 30.0752C51.7591 30.0052 51.6391 29.9152 51.5291 29.7952C51.4191 29.6852 51.3291 29.5452 51.2691 29.3752C51.1991 29.2052 51.1691 29.0252 51.1691 28.8252V26.0252H50.2191ZM58.4734 26.8752V25.9252H58.3234C58.0934 25.9252 57.8934 25.9652 57.7234 26.0352C57.5534 26.1052 57.4034 26.1852 57.2834 26.2752C57.1434 26.3852 57.0234 26.4952 56.9234 26.6252H56.8234V26.0252H55.8734V30.8252H56.8234V27.7752C56.9334 27.6052 57.0534 27.4552 57.1934 27.3252C57.3134 27.2152 57.4534 27.1052 57.6234 27.0152C57.7934 26.9252 57.9734 26.8752 58.1734 26.8752H58.4734ZM61.7742 26.8752V25.9252H61.6242C61.3942 25.9252 61.1942 25.9652 61.0242 26.0352C60.8542 26.1052 60.7042 26.1852 60.5842 26.2752C60.4442 26.3852 60.3242 26.4952 60.2242 26.6252H60.1242V26.0252H59.1742V30.8252H60.1242V27.7752C60.2342 27.6052 60.3542 27.4552 60.4942 27.3252C60.6142 27.2152 60.7542 27.1052 60.9242 27.0152C61.0942 26.9252 61.2742 26.8752 61.4742 26.8752H61.7742ZM64.5273 26.6752C64.7173 26.6752 64.8873 26.7052 65.0573 26.7752C65.2273 26.8452 65.3673 26.9452 65.4973 27.0652C65.6273 27.1852 65.7273 27.3252 65.8173 27.4752C65.8973 27.6352 65.9473 27.8052 65.9773 27.9752H63.0773C63.1073 27.8052 63.1573 27.6352 63.2473 27.4752C63.3273 27.3252 63.4273 27.1852 63.5573 27.0652C63.6873 26.9452 63.8273 26.8452 63.9973 26.7752C64.1673 26.7052 64.3373 26.6752 64.5273 26.6752ZM64.5273 25.8252C64.1873 25.8252 63.8673 25.8852 63.5773 26.0152C63.2773 26.1452 63.0173 26.3252 62.7973 26.5552C62.5773 26.7852 62.4073 27.0652 62.2773 27.3852C62.1473 27.7052 62.0773 28.0552 62.0773 28.4252C62.0773 28.7952 62.1473 29.1452 62.2773 29.4652C62.4073 29.7852 62.5773 30.0552 62.8073 30.2852C63.0273 30.5152 63.2873 30.6952 63.5973 30.8352C63.8973 30.9652 64.2273 31.0252 64.5773 31.0252C64.9073 31.0252 65.1973 30.9852 65.4573 30.8952C65.7173 30.7952 65.9473 30.6852 66.1473 30.5352C66.3373 30.3852 66.5073 30.2252 66.6373 30.0352C66.7673 29.8452 66.8673 29.6652 66.9273 29.4752L65.9773 29.3252C65.8773 29.5552 65.7173 29.7452 65.5073 29.9152C65.2873 30.0852 64.9773 30.1752 64.5773 30.1752C64.3773 30.1752 64.1873 30.1352 64.0173 30.0652C63.8473 29.9952 63.6973 29.9052 63.5673 29.7752C63.4373 29.6552 63.3273 29.5152 63.2473 29.3452C63.1573 29.1852 63.1073 29.0152 63.0773 28.8252H66.5773L66.9773 28.4252C66.9773 28.0652 66.9073 27.7252 66.7773 27.4052C66.6473 27.0952 66.4673 26.8152 66.2373 26.5752C66.0073 26.3452 65.7473 26.1552 65.4573 26.0252C65.1673 25.8952 64.8573 25.8252 64.5273 25.8252ZM72.2766 30.8252V28.0252C72.2766 27.6952 72.2266 27.3952 72.1166 27.1252C72.0066 26.8552 71.8666 26.6252 71.6866 26.4352C71.5066 26.2452 71.2966 26.0952 71.0566 25.9852C70.8066 25.8752 70.5466 25.8252 70.2766 25.8252C70.0466 25.8252 69.8466 25.8652 69.6766 25.9452C69.5066 26.0352 69.3566 26.1252 69.2366 26.2252C69.0966 26.3452 68.9766 26.4752 68.8766 26.6252H68.7766V26.0252H67.8266V30.8252H68.7766V27.7752C68.8866 27.5752 69.0066 27.3952 69.1466 27.2252C69.2666 27.0952 69.4066 26.9652 69.5766 26.8452C69.7466 26.7352 69.9266 26.6752 70.1266 26.6752C70.2866 26.6752 70.4366 26.7052 70.5866 26.7752C70.7366 26.8452 70.8666 26.9352 70.9766 27.0452C71.0866 27.1652 71.1666 27.3052 71.2366 27.4752C71.2966 27.6452 71.3266 27.8252 71.3266 28.0252V30.8252H72.2766ZM75.5723 31.0252C75.9023 31.0252 76.1923 30.9752 76.4523 30.8852C76.7123 30.7952 76.9423 30.6652 77.1423 30.5152C77.3323 30.3652 77.5023 30.1852 77.6323 29.9852C77.7623 29.7952 77.8623 29.5852 77.9223 29.3752L76.9723 29.2252C76.9023 29.4752 76.7523 29.6952 76.5223 29.8852C76.2923 30.0752 75.9723 30.1752 75.5723 30.1752C75.3723 30.1752 75.1823 30.1352 75.0023 30.0452C74.8223 29.9652 74.6623 29.8452 74.5223 29.6952C74.3823 29.5452 74.2723 29.3552 74.1923 29.1352C74.1123 28.9252 74.0723 28.6852 74.0723 28.4252C74.0723 28.1652 74.1123 27.9252 74.1923 27.7052C74.2723 27.4952 74.3823 27.3052 74.5223 27.1552C74.6623 27.0052 74.8223 26.8852 75.0023 26.7952C75.1823 26.7152 75.3723 26.6752 75.5723 26.6752C75.9223 26.6752 76.2023 26.7552 76.4123 26.9252C76.6123 27.0952 76.7523 27.2752 76.8223 27.4752L77.7723 27.3252C77.7123 27.1352 77.6223 26.9552 77.4923 26.7752C77.3623 26.5952 77.2123 26.4352 77.0323 26.2952C76.8423 26.1552 76.6323 26.0452 76.3923 25.9552C76.1423 25.8652 75.8723 25.8252 75.5723 25.8252C75.2323 25.8252 74.9123 25.8852 74.6223 26.0152C74.3223 26.1452 74.0623 26.3252 73.8423 26.5552C73.6223 26.7852 73.4523 27.0652 73.3223 27.3852C73.1923 27.7052 73.1223 28.0552 73.1223 28.4252C73.1223 28.7952 73.1923 29.1452 73.3223 29.4652C73.4523 29.7852 73.6223 30.0552 73.8423 30.2852C74.0623 30.5152 74.3223 30.6952 74.6223 30.8352C74.9123 30.9652 75.2323 31.0252 75.5723 31.0252ZM78.7738 24.3552C78.7738 24.5152 78.8338 24.6452 78.9438 24.7552C79.0538 24.8652 79.1838 24.9252 79.3438 24.9252C79.5138 24.9252 79.6538 24.8652 79.7638 24.7552C79.8738 24.6452 79.9238 24.5152 79.9238 24.3552C79.9238 24.1852 79.8738 24.0452 79.7638 23.9352C79.6538 23.8252 79.5138 23.7752 79.3438 23.7752C79.1838 23.7752 79.0538 23.8252 78.9438 23.9352C78.8338 24.0452 78.7738 24.1852 78.7738 24.3552ZM79.8238 30.8252V26.0252H78.8738V30.8252H79.8238ZM83.2773 26.6752C83.4673 26.6752 83.6373 26.7052 83.8073 26.7752C83.9773 26.8452 84.1173 26.9452 84.2473 27.0652C84.3773 27.1852 84.4773 27.3252 84.5673 27.4752C84.6473 27.6352 84.6973 27.8052 84.7273 27.9752H81.8273C81.8573 27.8052 81.9073 27.6352 81.9973 27.4752C82.0773 27.3252 82.1773 27.1852 82.3073 27.0652C82.4373 26.9452 82.5773 26.8452 82.7473 26.7752C82.9173 26.7052 83.0873 26.6752 83.2773 26.6752ZM83.2773 25.8252C82.9373 25.8252 82.6173 25.8852 82.3273 26.0152C82.0273 26.1452 81.7673 26.3252 81.5473 26.5552C81.3273 26.7852 81.1573 27.0652 81.0273 27.3852C80.8973 27.7052 80.8273 28.0552 80.8273 28.4252C80.8273 28.7952 80.8973 29.1452 81.0273 29.4652C81.1573 29.7852 81.3273 30.0552 81.5573 30.2852C81.7773 30.5152 82.0373 30.6952 82.3473 30.8352C82.6473 30.9652 82.9773 31.0252 83.3273 31.0252C83.6573 31.0252 83.9473 30.9852 84.2073 30.8952C84.4673 30.7952 84.6973 30.6852 84.8973 30.5352C85.0873 30.3852 85.2573 30.2252 85.3873 30.0352C85.5173 29.8452 85.6173 29.6652 85.6773 29.4752L84.7273 29.3252C84.6273 29.5552 84.4673 29.7452 84.2573 29.9152C84.0373 30.0852 83.7273 30.1752 83.3273 30.1752C83.1273 30.1752 82.9373 30.1352 82.7673 30.0652C82.5973 29.9952 82.4473 29.9052 82.3173 29.7752C82.1873 29.6552 82.0773 29.5152 81.9973 29.3452C81.9073 29.1852 81.8573 29.0152 81.8273 28.8252H85.3273L85.7273 28.4252C85.7273 28.0652 85.6573 27.7252 85.5273 27.4052C85.3973 27.0952 85.2173 26.8152 84.9873 26.5752C84.7573 26.3452 84.4973 26.1552 84.2073 26.0252C83.9173 25.8952 83.6073 25.8252 83.2773 25.8252ZM86.4266 27.2252C86.4266 27.5452 86.5066 27.7952 86.6566 27.9852C86.8066 28.1752 87.0066 28.3352 87.2366 28.4452C87.4666 28.5652 87.7066 28.6552 87.9766 28.7252C88.2466 28.7952 88.4966 28.8552 88.7266 28.9152C88.9566 28.9752 89.1466 29.0452 89.2966 29.1252C89.4466 29.2152 89.5266 29.3252 89.5266 29.4752C89.5266 29.6452 89.4366 29.8052 89.2666 29.9552C89.0866 30.1052 88.8066 30.1752 88.4266 30.1752C88.0266 30.1752 87.7266 30.0952 87.5266 29.9452C87.3266 29.7952 87.1766 29.6252 87.0766 29.4252L86.1266 29.5752C86.1966 29.7652 86.2966 29.9452 86.4266 30.1152C86.5566 30.2852 86.7166 30.4452 86.9066 30.5752C87.0966 30.7152 87.3166 30.8252 87.5666 30.9052C87.8166 30.9852 88.0966 31.0252 88.4266 31.0252C88.7766 31.0252 89.0766 30.9852 89.3366 30.9052C89.5966 30.8252 89.8066 30.7152 89.9766 30.5752C90.1466 30.4452 90.2666 30.2852 90.3566 30.1152C90.4366 29.9452 90.4766 29.7652 90.4766 29.5752C90.4766 29.2652 90.3966 29.0052 90.2466 28.8152C90.0966 28.6252 89.9066 28.4652 89.6766 28.3452C89.4466 28.2352 89.1966 28.1452 88.9266 28.0752C88.6566 28.0052 88.4166 27.9452 88.1866 27.8852C87.9566 27.8252 87.7566 27.7552 87.6066 27.6652C87.4566 27.5852 87.3766 27.4752 87.3766 27.3252C87.3766 27.1752 87.4666 27.0252 87.6366 26.8852C87.8066 26.7452 88.0466 26.6752 88.3766 26.6752C88.7266 26.6752 88.9966 26.7352 89.1866 26.8552C89.3766 26.9852 89.5066 27.1252 89.5766 27.2752L90.4766 27.1252C90.4266 26.9852 90.3366 26.8352 90.2266 26.6852C90.1066 26.5352 89.9566 26.3952 89.7866 26.2652C89.6066 26.1352 89.3966 26.0352 89.1666 25.9452C88.9266 25.8652 88.6666 25.8252 88.3766 25.8252C88.0666 25.8252 87.7866 25.8652 87.5466 25.9452C87.2966 26.0252 87.0966 26.1252 86.9366 26.2552C86.7666 26.3852 86.6466 26.5352 86.5566 26.7052C86.4666 26.8752 86.4266 27.0552 86.4266 27.2252ZM91.1227 30.3752C91.1227 30.5452 91.1827 30.6952 91.2927 30.8052C91.4027 30.9152 91.5527 30.9752 91.7227 30.9752C91.8927 30.9752 92.0427 30.9152 92.1527 30.8052C92.2627 30.6952 92.3227 30.5452 92.3227 30.3752C92.3227 30.2052 92.2627 30.0552 92.1527 29.9452C92.0427 29.8352 91.8927 29.7752 91.7227 29.7752C91.5527 29.7752 91.4027 29.8352 91.2927 29.9452C91.1827 30.0552 91.1227 30.2052 91.1227 30.3752ZM96.8246 27.7752V29.0752C96.7146 29.2852 96.5946 29.4652 96.4546 29.6252C96.3346 29.7652 96.1846 29.8952 96.0046 30.0052C95.8146 30.1152 95.6046 30.1752 95.3746 30.1752C95.1846 30.1752 95.0146 30.1352 94.8446 30.0552C94.6746 29.9752 94.5246 29.8552 94.3946 29.7052C94.2646 29.5552 94.1646 29.3752 94.0946 29.1552C94.0146 28.9452 93.9746 28.6952 93.9746 28.4252C93.9746 28.1552 94.0146 27.9052 94.0946 27.6852C94.1646 27.4752 94.2646 27.2852 94.3946 27.1352C94.5246 26.9852 94.6746 26.8752 94.8446 26.7952C95.0146 26.7152 95.1846 26.6752 95.3746 26.6752C95.6046 26.6752 95.8146 26.7352 96.0046 26.8452C96.1846 26.9652 96.3346 27.0952 96.4546 27.2252C96.5946 27.3952 96.7146 27.5752 96.8246 27.7752ZM93.0246 28.4252C93.0246 28.7952 93.0846 29.1452 93.2146 29.4652C93.3446 29.7852 93.5146 30.0552 93.7246 30.2852C93.9346 30.5152 94.1746 30.6952 94.4446 30.8352C94.7146 30.9652 94.9846 31.0252 95.2746 31.0252C95.5246 31.0252 95.7446 30.9852 95.9246 30.9052C96.1046 30.8152 96.2546 30.7252 96.3746 30.6252C96.5146 30.5052 96.6346 30.3752 96.7246 30.2252H96.8246V30.8252H97.7746V26.0252H96.8246V26.6252H96.7246C96.6346 26.4752 96.5146 26.3452 96.3746 26.2252C96.2546 26.1252 96.1046 26.0352 95.9246 25.9452C95.7446 25.8652 95.5246 25.8252 95.2746 25.8252C94.9846 25.8252 94.7146 25.8852 94.4446 26.0152C94.1746 26.1452 93.9346 26.3252 93.7246 26.5552C93.5146 26.7852 93.3446 27.0652 93.2146 27.3852C93.0846 27.7052 93.0246 28.0552 93.0246 28.4252ZM98.9789 24.3552C98.9789 24.5152 99.0389 24.6452 99.1489 24.7552C99.2589 24.8652 99.3889 24.9252 99.5489 24.9252C99.7189 24.9252 99.8589 24.8652 99.9689 24.7552C100.079 24.6452 100.129 24.5152 100.129 24.3552C100.129 24.1852 100.079 24.0452 99.9689 23.9352C99.8589 23.8252 99.7189 23.7752 99.5489 23.7752C99.3889 23.7752 99.2589 23.8252 99.1489 23.9352C99.0389 24.0452 98.9789 24.1852 98.9789 24.3552ZM100.029 30.8252V26.0252H99.0789V30.8252H100.029Z" fill="#165BE0"/>
<path d="M21 1L39.1865 11.663V32.989L21 43.652L2.81347 32.989L2.81347 11.663L21 1Z" fill="#5085EC"/>
<path d="M20.9114 21.1461L39.1848 11.6602L39.1891 32.9825L20.9944 43.6664L20.9114 21.1461Z" fill="#235DCF"/>
<path fill-rule="evenodd" clip-rule="evenodd" d="M20.9892 5.65076L35.069 13.8144L39.1769 11.6757L21.0033 0.990234L20.9892 0.998534L20.9751 0.990234L2.80151 11.6757L2.81167 11.681L2.80825 32.9824L6.80359 35.3345L6.80406 35.2472V35.3136L21.0089 43.6585V43.6466L39.1812 32.9887L39.1812 30.5999V28.1899L21.0089 38.8631V38.8597L6.82941 30.545L6.91961 13.8166L6.91227 13.8128L20.9892 5.65076Z" fill="#16253D"/>
</svg>
