<svg width="262" height="54" viewBox="0 0 262 54" fill="none" xmlns="http://www.w3.org/2000/svg">
<path d="M24 0L47.3827 13.5L47.3827 40.5L24 54L0.617313 40.5L0.617313 13.5L24 0Z" fill="white"/>
<path d="M24 3L44.7846 14.9959V38.9876L24 50.9835L3.21539 38.9876L3.21539 14.9959L24 3Z" fill="#5085EC"/>
<path d="M23.8984 25.6645L44.7824 14.9928L44.7872 38.9805L23.9933 50.9999L23.8984 25.6645Z" fill="#235DCF"/>
<path fill-rule="evenodd" clip-rule="evenodd" d="M23.9871 8.23248L40.0782 17.4166L44.773 15.0105L24.0032 2.98938L23.9871 2.9987L23.971 2.98938L3.20117 15.0105L3.21282 15.0165L3.20892 38.9805L7.77502 41.6267L7.77569 41.5032V41.6031L24.0098 50.9911V50.9776L44.7782 38.9875V36.3001V33.5889L24.0098 45.5962V45.5925L7.80453 36.2384L7.90761 17.419L7.89923 17.4147L23.9871 8.23248Z" fill="#16253D"/>
<path d="M78.2287 25.7947C78.945 25.7947 79.599 25.6857 80.1907 25.4833C80.7824 25.2653 81.2963 24.985 81.7479 24.6269C82.1994 24.2843 82.5732 23.895 82.869 23.459C83.1649 23.023 83.3829 22.587 83.523 22.1354L81.888 21.9018C81.7479 22.2132 81.5766 22.5091 81.3586 22.805C81.1406 23.1008 80.8758 23.35 80.58 23.568C80.2841 23.8016 79.9415 23.9728 79.5523 24.113C79.163 24.2531 78.7114 24.3154 78.2287 24.3154C77.6992 24.3154 77.1854 24.2064 76.7026 23.9728C76.2199 23.7393 75.7839 23.4278 75.4102 23.023C75.0365 22.6337 74.7406 22.1665 74.5226 21.6215C74.289 21.0765 74.18 20.5004 74.18 19.8775C74.18 19.2546 74.289 18.6785 74.5226 18.1335C74.7406 17.5885 75.0365 17.1213 75.4102 16.7165C75.7839 16.3272 76.2199 16.0157 76.7026 15.7822C77.1854 15.5486 77.6992 15.4396 78.2287 15.4396C78.6802 15.4396 79.0851 15.5019 79.4432 15.6264C79.8014 15.751 80.1284 15.9067 80.4087 16.1092C80.6734 16.3116 80.907 16.5452 81.1094 16.8099C81.3118 17.0746 81.4676 17.3549 81.5766 17.6196L83.2116 17.386C83.0714 16.9656 82.869 16.5452 82.5887 16.1247C82.3084 15.7199 81.9659 15.3617 81.5454 15.0347C81.125 14.7077 80.6267 14.4586 80.0817 14.2561C79.5367 14.0537 78.9138 13.9603 78.2287 13.9603C77.4656 13.9603 76.7494 14.116 76.0642 14.4274C75.379 14.7389 74.7718 15.1593 74.2579 15.6887C73.7285 16.2337 73.308 16.8566 73.0122 17.5729C72.7007 18.2892 72.545 19.0522 72.545 19.8775C72.545 20.7028 72.7007 21.4658 73.0122 22.1821C73.308 22.8984 73.7285 23.5213 74.2579 24.0507C74.7718 24.5957 75.379 25.0161 76.0642 25.3276C76.7494 25.639 77.4656 25.7947 78.2287 25.7947ZM91.6148 20.2668L88.2669 20.2668V15.9067H91.6459C92.0041 15.9067 92.3311 15.9534 92.627 16.0624C92.9228 16.1714 93.172 16.3272 93.3744 16.5296C93.5768 16.732 93.7481 16.95 93.8571 17.2147C93.9661 17.4795 94.0284 17.7753 94.0284 18.0868C94.0284 18.3826 93.9661 18.6473 93.8571 18.9121C93.7481 19.1768 93.5768 19.4103 93.3744 19.6128C93.172 19.8152 92.9228 19.9709 92.627 20.0799C92.3311 20.2045 91.9885 20.2668 91.6148 20.2668ZM88.2669 21.7461L91.7705 21.7461L93.7948 25.3276H95.5077L93.3277 21.4347C93.7637 21.2789 94.153 21.0454 94.4956 20.7495C94.7914 20.5004 95.0561 20.1578 95.3053 19.7218C95.5389 19.3013 95.6634 18.7563 95.6634 18.0868C95.6634 17.5573 95.57 17.0746 95.3831 16.623C95.1963 16.1714 94.9316 15.7822 94.589 15.4551C94.2308 15.1281 93.8104 14.879 93.3121 14.6921C92.8138 14.5209 92.2532 14.4274 91.6459 14.4274L86.6319 14.4274V25.3276H88.2669V21.7461ZM103.845 25.3276V21.7461C104.546 20.5471 105.262 19.3169 105.994 18.0868C106.71 16.8566 107.427 15.642 108.127 14.4274H106.259L103.067 19.7996H102.989L99.7966 14.4274H97.928C98.6287 15.642 99.345 16.8566 100.077 18.0868C100.793 19.3169 101.509 20.5471 102.21 21.7461V25.3276H103.845ZM119.966 18.3982C119.966 17.8532 119.857 17.3393 119.655 16.8566C119.437 16.3739 119.141 15.9534 118.752 15.5953C118.362 15.2371 117.911 14.9413 117.381 14.7389C116.836 14.5364 116.245 14.4274 115.606 14.4274H110.857V25.3276H112.492V22.369H115.606C116.245 22.369 116.836 22.26 117.381 22.0575C117.911 21.8551 118.362 21.5592 118.752 21.2011C119.141 20.8429 119.437 20.4225 119.655 19.9398C119.857 19.4571 119.966 18.9432 119.966 18.3982ZM118.331 18.3982C118.331 19.1456 118.098 19.7529 117.615 20.2045C117.132 20.6561 116.463 20.8897 115.606 20.8897H112.492V15.9067H115.606C116.463 15.9067 117.132 16.1403 117.615 16.5919C118.098 17.0435 118.331 17.6508 118.331 18.3982ZM122.08 15.9067L125.74 15.9067V25.3276H127.375V15.9067L131.034 15.9067V14.4274L122.08 14.4274V15.9067ZM144.573 19.8775C144.573 19.0522 144.417 18.2892 144.106 17.5729C143.794 16.8566 143.374 16.2337 142.845 15.6887C142.315 15.1593 141.692 14.7389 140.992 14.4274C140.291 14.116 139.528 13.9603 138.734 13.9603C137.939 13.9603 137.176 14.116 136.476 14.4274C135.775 14.7389 135.152 15.1593 134.623 15.6887C134.093 16.2337 133.673 16.8566 133.361 17.5729C133.05 18.2892 132.894 19.0522 132.894 19.8775C132.894 20.7028 133.05 21.4658 133.361 22.1821C133.673 22.8984 134.093 23.5213 134.623 24.0507C135.152 24.5957 135.775 25.0161 136.476 25.3276C137.176 25.639 137.939 25.7947 138.734 25.7947C139.528 25.7947 140.291 25.639 140.992 25.3276C141.692 25.0161 142.315 24.5957 142.845 24.0507C143.374 23.5213 143.794 22.8984 144.106 22.1821C144.417 21.4658 144.573 20.7028 144.573 19.8775ZM134.529 19.8775C134.529 19.2546 134.638 18.6785 134.872 18.1335C135.105 17.5885 135.401 17.1213 135.791 16.7165C136.18 16.3272 136.616 16.0157 137.13 15.7822C137.644 15.5486 138.173 15.4396 138.734 15.4396C139.294 15.4396 139.824 15.5486 140.338 15.7822C140.851 16.0157 141.287 16.3272 141.677 16.7165C142.066 17.1213 142.362 17.5885 142.595 18.1335C142.829 18.6785 142.938 19.2546 142.938 19.8775C142.938 20.5004 142.829 21.0765 142.595 21.6215C142.362 22.1665 142.066 22.6337 141.677 23.023C141.287 23.4278 140.851 23.7393 140.338 23.9728C139.824 24.2064 139.294 24.3154 138.734 24.3154C138.173 24.3154 137.644 24.2064 137.13 23.9728C136.616 23.7393 136.18 23.4278 135.791 23.023C135.401 22.6337 135.105 22.1665 134.872 21.6215C134.638 21.0765 134.529 20.5004 134.529 19.8775ZM152.987 25.7947C153.703 25.7947 154.357 25.6857 154.949 25.4833C155.54 25.2653 156.054 24.985 156.506 24.6269C156.957 24.2843 157.331 23.895 157.627 23.459C157.923 23.023 158.141 22.587 158.281 22.1354L156.646 21.9018C156.506 22.2132 156.334 22.5091 156.116 22.805C155.898 23.1008 155.634 23.35 155.338 23.568C155.042 23.8016 154.699 23.9728 154.31 24.113C153.921 24.2531 153.469 24.3154 152.987 24.3154C152.457 24.3154 151.943 24.2064 151.461 23.9728C150.978 23.7393 150.542 23.4278 150.168 23.023C149.794 22.6337 149.499 22.1665 149.281 21.6215C149.047 21.0765 148.938 20.5004 148.938 19.8775C148.938 19.2546 149.047 18.6785 149.281 18.1335C149.499 17.5885 149.794 17.1213 150.168 16.7165C150.542 16.3272 150.978 16.0157 151.461 15.7822C151.943 15.5486 152.457 15.4396 152.987 15.4396C153.438 15.4396 153.843 15.5019 154.201 15.6264C154.559 15.751 154.886 15.9067 155.167 16.1092C155.431 16.3116 155.665 16.5452 155.867 16.8099C156.07 17.0746 156.225 17.3549 156.334 17.6196L157.969 17.386C157.829 16.9656 157.627 16.5452 157.347 16.1247C157.066 15.7199 156.724 15.3617 156.303 15.0347C155.883 14.7077 155.385 14.4586 154.84 14.2561C154.295 14.0537 153.672 13.9603 152.987 13.9603C152.224 13.9603 151.507 14.116 150.822 14.4274C150.137 14.7389 149.53 15.1593 149.016 15.6887C148.486 16.2337 148.066 16.8566 147.77 17.5729C147.459 18.2892 147.303 19.0522 147.303 19.8775C147.303 20.7028 147.459 21.4658 147.77 22.1821C148.066 22.8984 148.486 23.5213 149.016 24.0507C149.53 24.5957 150.137 25.0161 150.822 25.3276C151.507 25.639 152.224 25.7947 152.987 25.7947ZM165.828 24.3154C165.423 24.3154 165.049 24.2376 164.707 24.0974C164.364 23.9573 164.068 23.7548 163.819 23.4901C163.57 23.2254 163.383 22.914 163.243 22.5403C163.103 22.1665 163.025 21.7461 163.025 21.2789V14.4274H161.39V21.2789C161.39 21.9641 161.499 22.587 161.717 23.132C161.919 23.6926 162.231 24.1753 162.62 24.5646C163.009 24.9539 163.476 25.2653 164.021 25.4833C164.566 25.6857 165.158 25.7947 165.828 25.7947C166.497 25.7947 167.105 25.6857 167.65 25.4833C168.195 25.2653 168.662 24.9539 169.051 24.5646C169.44 24.1753 169.736 23.6926 169.954 23.132C170.157 22.587 170.266 21.9641 170.266 21.2789V14.4274H168.631V21.2789C168.631 21.7461 168.568 22.1665 168.428 22.5403C168.288 22.914 168.086 23.2254 167.836 23.4901C167.587 23.7548 167.291 23.9573 166.949 24.0974C166.606 24.2376 166.233 24.3154 165.828 24.3154ZM179.063 20.2668L175.715 20.2668V15.9067H179.094C179.452 15.9067 179.779 15.9534 180.075 16.0624C180.371 16.1714 180.62 16.3272 180.823 16.5296C181.025 16.732 181.196 16.95 181.305 17.2147C181.414 17.4795 181.477 17.7753 181.477 18.0868C181.477 18.3826 181.414 18.6473 181.305 18.9121C181.196 19.1768 181.025 19.4103 180.823 19.6128C180.62 19.8152 180.371 19.9709 180.075 20.0799C179.779 20.2045 179.437 20.2668 179.063 20.2668ZM175.715 21.7461L179.219 21.7461L181.243 25.3276H182.956L180.776 21.4347C181.212 21.2789 181.601 21.0454 181.944 20.7495C182.24 20.5004 182.504 20.1578 182.753 19.7218C182.987 19.3013 183.112 18.7563 183.112 18.0868C183.112 17.5573 183.018 17.0746 182.831 16.623C182.644 16.1714 182.38 15.7822 182.037 15.4551C181.679 15.1281 181.259 14.879 180.76 14.6921C180.262 14.5209 179.701 14.4274 179.094 14.4274L174.08 14.4274V25.3276H175.715V21.7461ZM191.449 20.2668H188.101V15.9067L191.48 15.9067C191.838 15.9067 192.165 15.9534 192.461 16.0624C192.757 16.1714 193.006 16.3272 193.209 16.5296C193.411 16.732 193.582 16.95 193.691 17.2147C193.8 17.4795 193.863 17.7753 193.863 18.0868C193.863 18.3826 193.8 18.6473 193.691 18.9121C193.582 19.1768 193.411 19.4103 193.209 19.6128C193.006 19.8152 192.757 19.9709 192.461 20.0799C192.165 20.2045 191.823 20.2668 191.449 20.2668ZM188.101 21.7461H191.605L193.629 25.3276H195.342L193.162 21.4347C193.598 21.2789 193.987 21.0454 194.33 20.7495C194.626 20.5004 194.89 20.1578 195.14 19.7218C195.373 19.3013 195.498 18.7563 195.498 18.0868C195.498 17.5573 195.404 17.0746 195.217 16.623C195.031 16.1714 194.766 15.7822 194.423 15.4551C194.065 15.1281 193.645 14.879 193.146 14.6921C192.648 14.5209 192.088 14.4274 191.48 14.4274L186.466 14.4274V25.3276L188.101 25.3276V21.7461ZM206.872 23.8483H200.487V20.5782H205.548V19.0989H200.487V15.9067H206.872V14.4274H198.852V25.3276H206.872V23.8483ZM217.077 22.6025L211.782 14.4274L209.992 14.4274V25.3276H211.627V17.1525H211.782L217.077 25.3276H218.867V14.4274H217.232V22.6025H217.077ZM227.821 25.7947C228.537 25.7947 229.191 25.6857 229.783 25.4833C230.374 25.2653 230.888 24.985 231.34 24.6269C231.791 24.2843 232.165 23.895 232.461 23.459C232.757 23.023 232.975 22.587 233.115 22.1354L231.48 21.9018C231.34 22.2132 231.168 22.5091 230.95 22.805C230.732 23.1008 230.468 23.35 230.172 23.568C229.876 23.8016 229.533 23.9728 229.144 24.113C228.755 24.2531 228.303 24.3154 227.821 24.3154C227.291 24.3154 226.777 24.2064 226.294 23.9728C225.812 23.7393 225.376 23.4278 225.002 23.023C224.628 22.6337 224.332 22.1665 224.114 21.6215C223.881 21.0765 223.772 20.5004 223.772 19.8775C223.772 19.2546 223.881 18.6785 224.114 18.1335C224.332 17.5885 224.628 17.1213 225.002 16.7165C225.376 16.3272 225.812 16.0157 226.294 15.7822C226.777 15.5486 227.291 15.4396 227.821 15.4396C228.272 15.4396 228.677 15.5019 229.035 15.6264C229.393 15.751 229.72 15.9067 230.001 16.1092C230.265 16.3116 230.499 16.5452 230.701 16.8099C230.904 17.0746 231.059 17.3549 231.168 17.6196L232.803 17.386C232.663 16.9656 232.461 16.5452 232.181 16.1247C231.9 15.7199 231.558 15.3617 231.137 15.0347C230.717 14.7077 230.219 14.4586 229.674 14.2561C229.129 14.0537 228.506 13.9603 227.821 13.9603C227.057 13.9603 226.341 14.116 225.656 14.4274C224.971 14.7389 224.364 15.1593 223.85 15.6887C223.32 16.2337 222.9 16.8566 222.604 17.5729C222.293 18.2892 222.137 19.0522 222.137 19.8775C222.137 20.7028 222.293 21.4658 222.604 22.1821C222.9 22.8984 223.32 23.5213 223.85 24.0507C224.364 24.5957 224.971 25.0161 225.656 25.3276C226.341 25.639 227.057 25.7947 227.821 25.7947ZM237.859 25.3276V14.4274H236.224V25.3276H237.859ZM249.695 23.8483H243.311V20.5782H248.371V19.0989H243.311V15.9067H249.695V14.4274L241.676 14.4274V25.3276H249.695V23.8483ZM259.355 22.2911C259.355 22.5403 259.293 22.7894 259.168 23.023C259.043 23.2721 258.872 23.4901 258.639 23.677C258.405 23.8794 258.14 24.0351 257.813 24.1441C257.486 24.2531 257.113 24.3154 256.708 24.3154C256.303 24.3154 255.945 24.2531 255.618 24.1441C255.291 24.0351 254.995 23.895 254.761 23.6926C254.528 23.5057 254.325 23.2877 254.154 23.023C253.983 22.7738 253.843 22.5091 253.749 22.2132L252.114 22.4468C252.27 22.9295 252.472 23.3811 252.737 23.786C253.002 24.2064 253.313 24.549 253.687 24.8449C254.061 25.1407 254.497 25.3743 254.995 25.5456C255.493 25.7169 256.069 25.7947 256.708 25.7947C257.377 25.7947 257.969 25.7013 258.498 25.5144C259.028 25.312 259.48 25.0629 259.853 24.7359C260.211 24.4244 260.492 24.0507 260.694 23.6303C260.897 23.2098 260.99 22.7583 260.99 22.2911C260.99 21.8084 260.897 21.4035 260.71 21.0765C260.507 20.7495 260.258 20.4536 259.962 20.2201C259.651 19.9865 259.293 19.7996 258.903 19.6439C258.498 19.4882 258.094 19.3481 257.689 19.2235C257.268 19.1145 256.863 18.9899 256.474 18.8809C256.069 18.7719 255.711 18.6318 255.415 18.4916C255.104 18.3515 254.855 18.1802 254.668 17.9778C254.465 17.7753 254.372 17.5262 254.372 17.2303C254.372 17.0123 254.434 16.7943 254.543 16.5763C254.652 16.3739 254.824 16.1714 255.026 16.0002C255.228 15.8289 255.462 15.7043 255.758 15.5953C256.038 15.4863 256.35 15.4396 256.708 15.4396C257.081 15.4396 257.408 15.4863 257.689 15.5797C257.969 15.6732 258.218 15.7977 258.436 15.969C258.639 16.1403 258.81 16.3272 258.95 16.5607C259.09 16.7943 259.199 17.0435 259.277 17.3082L260.912 17.0746C260.803 16.6542 260.632 16.2493 260.398 15.86C260.165 15.4863 259.869 15.1593 259.511 14.879C259.153 14.5987 258.748 14.3807 258.28 14.2094C257.813 14.0381 257.284 13.9603 256.708 13.9603C256.1 13.9603 255.555 14.0537 255.073 14.225C254.59 14.4118 254.17 14.661 253.827 14.9569C253.469 15.2527 253.204 15.6109 253.017 16.0002C252.83 16.3894 252.737 16.8099 252.737 17.2303C252.737 17.713 252.83 18.1335 253.033 18.4605C253.22 18.8031 253.469 19.0989 253.78 19.3325C254.076 19.5661 254.434 19.7685 254.839 19.9242C255.228 20.0799 255.633 20.2201 256.054 20.3446C256.459 20.4692 256.863 20.5782 257.268 20.6872C257.658 20.7962 258.016 20.9208 258.327 21.0609C258.623 21.2011 258.872 21.3724 259.075 21.5592C259.262 21.7617 259.355 21.9952 259.355 22.2911Z" fill="#16253D"/>
<path d="M96.5462 38.582L97.6943 33.9292H99.8696L101.018 38.582H96.5462ZM102.589 41.4824L100.534 33.1437H97.0296L94.9751 41.4824H95.8211L96.3649 39.3675H101.199L101.743 41.4824H102.589ZM108.506 41.845C109.05 41.845 109.533 41.7725 109.981 41.6154C110.416 41.4583 110.802 41.2528 111.141 40.999C111.467 40.7452 111.745 40.4552 111.975 40.1289C112.204 39.8026 112.374 39.4763 112.494 39.1258L111.648 39.005C111.528 39.2829 111.37 39.5367 111.189 39.7784C111.008 40.0322 110.79 40.2497 110.537 40.431C110.283 40.6244 109.981 40.7815 109.642 40.8902C109.304 40.999 108.929 41.0594 108.506 41.0594C108.071 41.0594 107.648 40.9628 107.237 40.7694C106.814 40.576 106.452 40.3102 106.125 39.9718C105.799 39.6334 105.545 39.2346 105.352 38.7753C105.159 38.3282 105.062 37.8327 105.062 37.313C105.062 36.7934 105.159 36.31 105.352 35.8507C105.545 35.4036 105.799 35.0048 106.125 34.6664C106.452 34.328 106.814 34.0621 107.237 33.8567C107.648 33.6633 108.071 33.5666 108.506 33.5666C108.905 33.5666 109.256 33.615 109.57 33.7237C109.884 33.8325 110.162 33.9775 110.404 34.1588C110.645 34.3401 110.851 34.5334 111.02 34.7631C111.189 34.9927 111.322 35.2102 111.407 35.4398L112.253 35.319C112.168 35.0169 112.011 34.7147 111.805 34.4126C111.6 34.1105 111.334 33.8446 111.02 33.6029C110.694 33.3612 110.331 33.1678 109.908 33.0107C109.485 32.8536 109.026 32.7811 108.506 32.7811C107.95 32.7811 107.419 32.9019 106.899 33.1437C106.379 33.3854 105.92 33.7117 105.521 34.1226C105.122 34.5334 104.808 35.0169 104.579 35.5607C104.337 36.1045 104.216 36.6967 104.216 37.313C104.216 37.9294 104.337 38.5216 104.579 39.0654C104.808 39.6092 105.122 40.0926 105.521 40.5035C105.92 40.9144 106.379 41.2407 106.899 41.4824C107.419 41.7241 107.95 41.845 108.506 41.845ZM114.009 33.9292H116.97V41.4824H117.816V33.9292L120.777 33.9292V33.1437L114.009 33.1437V33.9292ZM123.92 41.4824V33.1437H123.074V41.4824H123.92ZM134.552 37.313C134.552 37.8327 134.455 38.3161 134.262 38.7633C134.056 39.2225 133.802 39.6213 133.476 39.9597C133.15 40.2981 132.763 40.5639 132.34 40.7573C131.905 40.9628 131.458 41.0594 130.987 41.0594C130.515 41.0594 130.068 40.9628 129.645 40.7573C129.21 40.5639 128.835 40.2981 128.509 39.9597C128.183 39.6213 127.917 39.2225 127.724 38.7633C127.518 38.3161 127.421 37.8327 127.421 37.313C127.421 36.7934 127.518 36.31 127.724 35.8507C127.917 35.4036 128.183 35.0048 128.509 34.6664C128.823 34.328 129.21 34.0621 129.645 33.8567C130.068 33.6633 130.515 33.5666 130.987 33.5666C131.458 33.5666 131.905 33.6633 132.34 33.8567C132.763 34.0621 133.15 34.328 133.476 34.6664C133.802 35.0048 134.056 35.4036 134.262 35.8507C134.455 36.31 134.552 36.7934 134.552 37.313ZM126.575 37.313C126.575 37.9294 126.696 38.5216 126.938 39.0654C127.168 39.6092 127.494 40.0926 127.905 40.5035C128.304 40.9144 128.775 41.2407 129.307 41.4824C129.838 41.7241 130.394 41.845 130.987 41.845C131.579 41.845 132.135 41.7241 132.666 41.4824C133.198 41.2407 133.669 40.9144 134.08 40.5035C134.479 40.0926 134.805 39.6092 135.047 39.0654C135.277 38.5216 135.398 37.9294 135.398 37.313C135.398 36.6967 135.277 36.1045 135.047 35.5607C134.805 35.0169 134.479 34.5334 134.08 34.1226C133.669 33.7117 133.198 33.3854 132.666 33.1437C132.135 32.9019 131.579 32.7811 130.987 32.7811C130.394 32.7811 129.838 32.9019 129.307 33.1437C128.775 33.3854 128.304 33.7117 127.905 34.1226C127.494 34.5455 127.168 35.0289 126.938 35.5728C126.696 36.1166 126.575 36.6967 126.575 37.313ZM143.731 40.0322L138.958 33.1437H138.051V41.4824H138.897V34.5939H138.958L143.731 41.4824H144.638V33.1437H143.792V40.0322H143.731ZM148.629 38.582L149.778 33.9292H151.953L153.101 38.582H148.629ZM154.672 41.4824L152.618 33.1437H149.113L147.058 41.4824H147.904L148.448 39.3675H153.282L153.826 41.4824H154.672ZM157.934 33.9292L160.653 33.9292C161.137 33.9292 161.523 34.0621 161.801 34.3159C162.079 34.5818 162.224 34.896 162.224 35.2586C162.224 35.6695 162.079 36.0078 161.801 36.2616C161.523 36.5154 161.137 36.6484 160.653 36.6484L157.934 36.6484V33.9292ZM161.258 40.6969H157.934V37.4339L161.258 37.4339C161.548 37.4339 161.813 37.4701 162.043 37.5547C162.261 37.6393 162.466 37.7602 162.623 37.9052C162.78 38.0623 162.913 38.2315 162.998 38.4249C163.082 38.6303 163.131 38.8358 163.131 39.0654C163.131 39.295 163.082 39.5005 162.998 39.6938C162.913 39.8993 162.78 40.0685 162.623 40.2135C162.466 40.3706 162.273 40.4794 162.043 40.5639C161.813 40.6485 161.548 40.6969 161.258 40.6969ZM160.653 33.1437L157.088 33.1437V41.4824H161.258C161.668 41.4824 162.043 41.422 162.381 41.2891C162.708 41.1561 162.998 40.9869 163.24 40.7694C163.469 40.5519 163.65 40.2981 163.783 39.9959C163.916 39.7059 163.977 39.3917 163.977 39.0654C163.977 38.8237 163.953 38.6062 163.892 38.4128C163.832 38.2315 163.759 38.0623 163.662 37.9173C163.566 37.7844 163.457 37.6635 163.336 37.5547C163.215 37.446 163.094 37.3614 162.974 37.2889C162.684 37.1197 162.357 37.0109 161.983 36.9505V36.8901C162.188 36.8296 162.369 36.7209 162.526 36.5758C162.659 36.455 162.792 36.2858 162.901 36.0803C163.01 35.8749 163.07 35.5969 163.07 35.2586C163.07 34.9685 163.01 34.6906 162.901 34.4368C162.78 34.183 162.611 33.9654 162.406 33.7721C162.2 33.5787 161.946 33.4216 161.644 33.3128C161.342 33.2041 161.016 33.1437 160.653 33.1437ZM167.358 40.6969V33.1437H166.512V41.4824H172.192V40.6969H167.358ZM180.467 40.6969H175.331V37.6756H179.379V36.8901H175.331V33.9292H180.467V33.1437H174.485V41.4824H180.467V40.6969ZM187.109 41.4824V33.1437H186.263V41.4824H187.109ZM195.868 40.0322L191.094 33.1437H190.188V41.4824H191.034V34.5939H191.094L195.868 41.4824H196.774V33.1437H195.928V40.0322H195.868ZM205.056 39.3071C205.056 39.5367 205.008 39.7542 204.899 39.9597C204.791 40.1651 204.645 40.3585 204.452 40.5156C204.247 40.6848 204.005 40.8177 203.715 40.9144C203.413 41.0111 203.074 41.0594 202.7 41.0594C202.373 41.0594 202.071 41.0111 201.805 40.9144C201.54 40.8298 201.298 40.6969 201.092 40.5398C200.887 40.3827 200.706 40.1893 200.549 39.9597C200.392 39.7422 200.271 39.5005 200.162 39.2467L199.316 39.3675C199.425 39.718 199.57 40.0322 199.763 40.3343C199.944 40.6365 200.186 40.9023 200.464 41.1199C200.742 41.3495 201.068 41.5187 201.443 41.6516C201.818 41.7846 202.228 41.845 202.7 41.845C203.195 41.845 203.642 41.7725 204.041 41.6395C204.44 41.4945 204.778 41.3011 205.056 41.0715C205.334 40.8419 205.54 40.5639 205.685 40.2618C205.83 39.9597 205.902 39.6334 205.902 39.3071C205.902 38.8116 205.769 38.4007 205.516 38.0986C205.262 37.7964 204.936 37.5547 204.549 37.3614C204.15 37.1801 203.727 37.023 203.28 36.9021C202.821 36.7813 202.398 36.6484 202.011 36.5033C201.612 36.3704 201.286 36.1891 201.032 35.9837C200.778 35.7782 200.645 35.5003 200.645 35.1377C200.645 34.9443 200.694 34.751 200.79 34.5576C200.887 34.3763 201.032 34.2071 201.213 34.05C201.395 33.905 201.612 33.7842 201.878 33.6996C202.132 33.615 202.434 33.5666 202.76 33.5666C203.074 33.5666 203.352 33.6029 203.594 33.6754C203.836 33.7479 204.053 33.8567 204.235 33.9896C204.416 34.1226 204.573 34.2917 204.706 34.4851C204.839 34.6785 204.948 34.896 205.056 35.1377L205.902 34.9564C205.794 34.6543 205.661 34.3763 205.479 34.1105C205.298 33.8446 205.081 33.615 204.827 33.4095C204.573 33.2162 204.271 33.0591 203.932 32.9503C203.582 32.8415 203.195 32.7811 202.76 32.7811C202.313 32.7811 201.902 32.8415 201.54 32.9745C201.165 33.1074 200.851 33.2887 200.597 33.5062C200.343 33.7237 200.138 33.9775 200.005 34.2555C199.872 34.5455 199.799 34.8356 199.799 35.1377C199.799 35.5123 199.872 35.8386 200.029 36.0924C200.174 36.3583 200.367 36.5758 200.621 36.7571C200.875 36.9384 201.153 37.0955 201.467 37.2164C201.781 37.3372 202.108 37.446 202.434 37.5427C202.76 37.6393 203.074 37.736 203.389 37.8206C203.703 37.9173 203.981 38.0261 204.235 38.159C204.488 38.2919 204.682 38.437 204.839 38.6182C204.984 38.7995 205.056 39.0291 205.056 39.3071ZM209.41 41.4824V33.1437H208.564V41.4824H209.41ZM216.356 41.0594C215.92 41.0594 215.497 40.9628 215.087 40.7694C214.664 40.576 214.301 40.3102 213.975 39.9718C213.648 39.6334 213.395 39.2346 213.201 38.7753C213.008 38.3282 212.911 37.8327 212.911 37.313C212.911 36.7934 213.008 36.31 213.201 35.8507C213.395 35.4036 213.648 35.0048 213.975 34.6664C214.301 34.328 214.664 34.0621 215.087 33.8567C215.497 33.6633 215.92 33.5666 216.356 33.5666C216.754 33.5666 217.105 33.615 217.419 33.7237C217.733 33.8325 218.011 33.9775 218.253 34.1588C218.495 34.3401 218.7 34.5334 218.869 34.7631C219.038 34.9927 219.171 35.2102 219.256 35.4398L220.102 35.319C220.017 35.0169 219.86 34.7147 219.655 34.4126C219.449 34.1105 219.183 33.8446 218.869 33.6029C218.543 33.3612 218.18 33.1678 217.757 33.0107C217.334 32.8536 216.875 32.7811 216.356 32.7811C215.788 32.7811 215.256 32.9019 214.736 33.1316C214.216 33.3733 213.769 33.6996 213.371 34.1105C212.972 34.5214 212.657 35.0048 212.428 35.5486C212.186 36.0924 212.065 36.6846 212.065 37.313C212.065 37.9415 212.186 38.5336 212.428 39.0775C212.657 39.6213 212.972 40.1047 213.371 40.5156C213.769 40.9265 214.216 41.2528 214.736 41.4945C215.256 41.7241 215.788 41.845 216.356 41.845C216.948 41.845 217.492 41.7483 217.999 41.5428C218.495 41.3253 218.93 41.0474 219.304 40.6727C219.667 40.3102 219.957 39.8751 220.162 39.3675C220.368 38.872 220.465 38.3282 220.465 37.736V37.3735H216.839V38.159H219.619C219.619 38.5216 219.534 38.872 219.365 39.2225C219.196 39.573 218.966 39.8751 218.676 40.1531C218.374 40.431 218.035 40.6485 217.637 40.8057C217.238 40.9748 216.803 41.0594 216.356 41.0594ZM223.128 33.1437V41.4824H223.974V37.6756H228.748V41.4824H229.594V33.1437H228.748V36.8901H223.974V33.1437H223.128ZM231.885 33.9292H234.845V41.4824H235.691V33.9292H238.652V33.1437H231.885V33.9292Z" fill="#16253D"/>
<path d="M89.9442 36.5781L72 36.5781" stroke="#16253D" stroke-width="0.87069"/>
<path d="M262.001 36.5781L243.608 36.5781" stroke="#16253D" stroke-width="0.87069"/>
</svg>
