<svg width="33" height="18" viewBox="0 0 33 18" fill="none" xmlns="http://www.w3.org/2000/svg">
<path d="M24.6177 7.40996C23.9202 6.63473 23.9202 5.40507 24.6177 4.62984C25.3152 3.85461 26.4216 3.85461 27.1192 4.62984C27.8167 5.40507 27.8167 6.63473 27.1192 7.40996C26.4216 8.18518 25.3152 8.18518 24.6177 7.40996ZM18.7008 14.0127C18.1957 13.4514 18.1957 12.5157 18.7008 11.9276C19.2059 11.3663 20.0477 11.3663 20.5769 11.9276C21.082 12.489 21.082 13.4246 20.5769 14.0127C20.0477 14.5741 19.2059 14.5741 18.7008 14.0127ZM28.0572 10.5376C27.5521 9.97622 27.5521 9.0406 28.0572 8.4525C28.5623 7.89113 29.4042 7.89113 29.9333 8.4525C30.4384 9.01387 30.4384 9.94949 29.9333 10.5376C29.4042 11.1257 28.5623 11.1257 28.0572 10.5376ZM24.9304 14.0127C24.4253 13.4514 24.4253 12.5157 24.9304 11.9276C25.4355 11.3663 26.2773 11.3663 26.8065 11.9276C27.3116 12.489 27.3116 13.4246 26.8065 14.0127C26.2773 14.5741 25.4595 14.5741 24.9304 14.0127ZM31.4967 13.6652C31.16 13.291 31.16 12.6494 31.4967 12.2752C31.8335 11.9009 32.4107 11.9009 32.7474 12.2752C33.0842 12.6494 33.0842 13.291 32.7474 13.6652C32.3867 14.0395 31.8335 14.0395 31.4967 13.6652ZM28.3699 17.1404C28.0332 16.7661 28.0332 16.1246 28.3699 15.7503C28.7066 15.3761 29.2839 15.3761 29.6206 15.7503C29.9574 16.1246 29.9574 16.7661 29.6206 17.1404C29.2598 17.5146 28.7066 17.5146 28.3699 17.1404ZM21.4909 10.8851C20.7934 10.1099 20.7934 8.88021 21.4909 8.10499C22.1884 7.32976 23.2948 7.32976 23.9923 8.10499C24.6899 8.88021 24.6899 10.1099 23.9923 10.8851C23.3189 11.6603 22.1884 11.6603 21.4909 10.8851ZM21.4909 3.96154C20.7934 3.18632 20.7934 1.95665 21.4909 1.18143C22.1884 0.4062 23.2948 0.4062 23.9923 1.18143C24.6899 1.95665 24.6899 3.18632 23.9923 3.96154C23.3189 4.71004 22.1884 4.71004 21.4909 3.96154ZM18.3881 7.40996C17.6906 6.63473 17.6906 5.40507 18.3881 4.62984C19.0856 3.85461 20.1921 3.85461 20.8896 4.62984C21.5871 5.40507 21.5871 6.63473 20.8896 7.40996C20.1921 8.18518 19.0616 8.18518 18.3881 7.40996ZM12.1104 7.40996C11.4129 6.63473 11.4129 5.40507 12.1104 4.62984C12.8079 3.85461 13.9144 3.85461 14.6119 4.62984C15.3094 5.40507 15.3094 6.63473 14.6119 7.40996C13.9144 8.18518 12.8079 8.18518 12.1104 7.40996ZM6.16946 14.0127C5.66436 13.4514 5.66436 12.5157 6.16946 11.9276C6.67456 11.3663 7.5164 11.3663 8.04555 11.9276C8.55066 12.489 8.55066 13.4246 8.04555 14.0127C7.54045 14.5741 6.69862 14.5741 6.16946 14.0127ZM15.5499 10.5376C15.0448 9.97622 15.0448 9.0406 15.5499 8.4525C16.055 7.89113 16.8969 7.89113 17.426 8.4525C17.9311 9.01387 17.9311 9.94949 17.426 10.5376C16.8969 11.1257 16.055 11.1257 15.5499 10.5376ZM12.4231 14.0127C11.918 13.4514 11.918 12.5157 12.4231 11.9276C12.9282 11.3663 13.77 11.3663 14.2992 11.9276C14.8043 12.489 14.8043 13.4246 14.2992 14.0127C13.77 14.5741 12.9282 14.5741 12.4231 14.0127ZM0.252551 13.6652C-0.0841837 13.291 -0.0841837 12.6494 0.252551 12.2752C0.589286 11.9009 1.16655 11.9009 1.50328 12.2752C1.84001 12.6494 1.84001 13.291 1.50328 13.6652C1.14249 14.0395 0.589286 14.0395 0.252551 13.6652ZM3.37937 17.1404C3.04264 16.7661 3.04264 16.1246 3.37937 15.7503C3.71611 15.3761 4.29337 15.3761 4.6301 15.7503C4.96684 16.1246 4.96684 16.7661 4.6301 17.1404C4.26931 17.5146 3.71611 17.5146 3.37937 17.1404ZM15.8626 17.1404C15.5259 16.7661 15.5259 16.1246 15.8626 15.7503C16.1993 15.3761 16.7766 15.3761 17.1133 15.7503C17.4501 16.1246 17.4501 16.7661 17.1133 17.1404C16.7526 17.5146 16.1993 17.5146 15.8626 17.1404ZM3.06669 10.5376C2.56159 9.97622 2.56159 9.0406 3.06669 8.4525C3.57179 7.89113 4.41363 7.89113 4.94278 8.4525C5.44789 9.01387 5.44789 9.94949 4.94278 10.5376C4.41363 11.1257 3.57179 11.1257 3.06669 10.5376ZM8.9836 10.8851C8.28608 10.1099 8.28608 8.88021 8.9836 8.10499C9.68112 7.32976 10.7875 7.32976 11.4851 8.10499C12.1826 8.88021 12.1826 10.1099 11.4851 10.8851C10.7875 11.6603 9.68112 11.6603 8.9836 10.8851ZM8.9836 3.96154C8.28608 3.18632 8.28608 1.95665 8.9836 1.18143C9.68112 0.4062 10.7875 0.4062 11.4851 1.18143C12.1826 1.95665 12.1826 3.18632 11.4851 3.96154C10.7875 4.71004 9.68112 4.71004 8.9836 3.96154ZM5.85678 7.40996C5.15926 6.63473 5.15926 5.40507 5.85678 4.62984C6.5543 3.85461 7.66071 3.85461 8.35824 4.62984C9.05576 5.40507 9.05576 6.63473 8.35824 7.40996C7.68477 8.18518 6.5543 8.18518 5.85678 7.40996Z" fill="#ECF0F3"/>
</svg>
