<svg width="33" height="27" viewBox="0 0 33 27" fill="none" xmlns="http://www.w3.org/2000/svg">
<path d="M4.45455 6.05339C4.49461 5.65756 4.34366 5.26631 4.04808 4.9999L1.03724 1.37285V0.831055H10.3859L17.6119 16.6787L23.9648 0.831055H32.8769V1.37285L30.3027 3.84105C30.0807 4.01022 29.9706 4.28826 30.0166 4.56345V22.6987C29.9706 22.9739 30.0807 23.2519 30.3027 23.4211L32.8167 25.8893V26.4311H20.1712V25.8893L22.7755 23.3609C23.0315 23.105 23.0315 23.0298 23.0315 22.6385V7.97979L15.7904 26.3709H14.8119L6.38149 7.97979V20.3057C6.3112 20.8239 6.48331 21.3457 6.84817 21.7204L10.2354 25.8291V26.3709H0.630772V25.8291L4.01797 21.7204C4.38018 21.345 4.54225 20.8199 4.45455 20.3057V6.05339Z" fill="white"/>
</svg>
