<svg width="57" height="56" viewBox="0 0 57 56" fill="none" xmlns="http://www.w3.org/2000/svg">
<path d="M48.8512 30.4382C47.2699 30.8582 45.6408 31.0707 44.0048 31.0705C39.0232 31.0705 34.3448 29.1339 30.8308 25.6199C28.5233 23.299 26.8643 20.4139 26.0193 17.2521C25.1743 14.0902 25.1727 10.7621 26.0148 7.59954C26.12 7.20411 26.1193 6.78798 26.0129 6.3929C25.9065 5.99782 25.698 5.63766 25.4084 5.34857C25.1189 5.05948 24.7584 4.85162 24.3631 4.74583C23.9679 4.64005 23.5517 4.64006 23.1565 4.74587C19.1972 5.80096 15.585 7.87866 12.6822 10.7705C3.58682 19.8659 3.58682 34.6709 12.6822 43.7709C14.8441 45.9448 17.4156 47.6684 20.2481 48.8419C23.0805 50.0154 26.1176 50.6156 29.1835 50.6075C32.2486 50.6161 35.2849 50.0165 38.1166 48.8434C40.9484 47.6702 43.5192 45.9469 45.6802 43.7732C48.5742 40.8698 50.6529 37.2557 51.7072 33.2942C51.8119 32.8989 51.811 32.4831 51.7046 32.0883C51.5983 31.6935 51.3901 31.3335 51.101 31.0444C50.8118 30.7553 50.4519 30.5471 50.057 30.4407C49.6622 30.3343 49.2464 30.3335 48.8512 30.4382ZM42.3832 40.4739C40.6541 42.2124 38.5974 43.5908 36.3321 44.5292C34.0667 45.4676 31.6378 45.9474 29.1858 45.9409C26.733 45.947 24.3033 45.4667 22.0372 44.528C19.7712 43.5892 17.7137 42.2105 15.9838 40.4715C8.70849 33.1939 8.70849 21.3499 15.9838 14.0722C17.3897 12.6679 19.0127 11.4995 20.7905 10.6119C20.5303 13.9697 20.998 17.3441 22.1618 20.5045C23.3257 23.6649 25.1581 26.5368 27.5338 28.9239C29.9157 31.3071 32.7867 33.1446 35.9485 34.3092C39.1102 35.4739 42.4871 35.9381 45.8458 35.6695C44.9534 37.4443 43.7846 39.066 42.3832 40.4739Z" fill="#09ACC7"/>
</svg>
