<svg width="56" height="56" viewBox="0 0 56 56" fill="none" xmlns="http://www.w3.org/2000/svg">
<path d="M48.398 30.4383C46.8168 30.8583 45.1877 31.0708 43.5517 31.0707C38.57 31.0707 33.8917 29.134 30.3777 25.62C28.0701 23.2991 26.4112 20.414 25.5662 17.2522C24.7212 14.0903 24.7196 10.7623 25.5617 7.59966C25.6669 7.20423 25.6662 6.78811 25.5598 6.39302C25.4533 5.99794 25.2449 5.63779 24.9553 5.3487C24.6657 5.05961 24.3053 4.85174 23.91 4.74596C23.5147 4.64017 23.0986 4.64018 22.7034 4.74599C18.7441 5.80108 15.1318 7.87878 12.229 10.7707C3.1337 19.866 3.1337 34.671 12.229 43.771C14.3909 45.9449 16.9625 47.6685 19.795 48.8421C22.6274 50.0156 25.6645 50.6157 28.7304 50.6077C31.7955 50.6163 34.8318 50.0166 37.6635 48.8435C40.4952 47.6704 43.066 45.947 45.227 43.7733C48.1211 40.87 50.1997 37.2558 51.254 33.2943C51.3588 32.8991 51.3579 32.4832 51.2515 32.0884C51.1451 31.6936 50.937 31.3336 50.6478 31.0445C50.3587 30.7554 49.9987 30.5472 49.6039 30.4408C49.2091 30.3345 48.7933 30.3336 48.398 30.4383V30.4383ZM41.93 40.474C40.201 42.2126 38.1443 43.5909 35.8789 44.5293C33.6136 45.4677 31.1847 45.9476 28.7327 45.941C26.2799 45.9471 23.8502 45.4669 21.5841 44.5281C19.3181 43.5893 17.2606 42.2106 15.5307 40.4717C8.25536 33.194 8.25536 21.35 15.5307 14.0723C16.9365 12.6681 18.5596 11.4996 20.3374 10.612C20.0771 13.9698 20.5449 17.3442 21.7087 20.5046C22.8725 23.665 24.7049 26.5369 27.0807 28.924C29.4626 31.3072 32.3336 33.1447 35.4953 34.3094C38.657 35.4741 42.034 35.9382 45.3927 35.6697C44.5003 37.4444 43.3315 39.0661 41.93 40.474V40.474Z" fill="#E2E4E8"/>
</svg>
