<svg width="133" height="128" viewBox="0 0 133 128" fill="none" xmlns="http://www.w3.org/2000/svg">
<path d="M99.4827 54.2436L132.536 70.559V108.835L99.3766 127.974L66.2168 108.835V70.559L99.4827 54.2436Z" fill="#5085EC"/>
<path d="M99.2158 87.5798L132.534 70.5542L132.542 108.824L99.3672 128L99.2158 87.5798Z" fill="#235DCF"/>
<path d="M66.2083 70.5615L99.3784 54.2766L132.534 70.5593L99.2152 87.5783L66.2083 70.5615Z" fill="#3E75E1"/>
<path d="M33.2744 54.2436L66.3282 70.559V108.835L33.1684 127.974L0.00854492 108.835L0.00854492 70.559L33.2744 54.2436Z" fill="#5085EC"/>
<path d="M33.0076 87.5798L66.3259 70.5542L66.3336 108.824L33.1589 128L33.0076 87.5798Z" fill="#235DCF"/>
<path d="M0 70.5615L33.1701 54.2766L66.3252 70.5593L33.0069 87.5783L0 70.5615Z" fill="#3E75E1"/>
<path d="M66.7776 -5.48578e-06L99.8313 16.3153V54.5918L66.6715 73.7301L33.5117 54.5918L33.5117 16.3153L66.7776 -5.48578e-06Z" fill="#5085EC"/>
<path d="M66.51 33.3362L99.8283 16.3105L99.836 54.5806L66.6614 73.7563L66.51 33.3362Z" fill="#235DCF"/>
<path d="M33.5024 16.3179L66.6725 0.0329477L99.8277 16.3157L66.5094 33.3347L33.5024 16.3179Z" fill="#3E75E1"/>
</svg>
