<svg width="108" height="40" viewBox="0 0 108 40" fill="none" xmlns="http://www.w3.org/2000/svg">
<path d="M35.523 30L17.7658 40L0 30V10L17.7658 0L35.523 10V30Z" fill="white"/>
<path d="M33.5026 28.8654L17.7656 37.731L2.02002 28.8654V11.1341L17.7656 2.26855L33.5026 11.1341V28.8654Z" fill="#5984E2"/>
<path d="M17.7657 6.18633L30.1125 13.1671V26.9019L17.7657 33.8827L5.41884 26.9019V13.141L17.7657 6.16015V6.18633ZM17.7657 2.24219L2.02002 11.134V28.8652L17.7657 37.7221L33.5113 28.8652V11.134L17.7657 2.26836V2.24219Z" fill="#17181A"/>
<path d="M17.688 19.8162L33.5291 11.1338V24.9383L17.7834 33.8039L17.688 19.8162Z" fill="#366CE4"/>
<path d="M54.3471 30.1129C48.324 30.1129 45.3095 26.7825 45.3037 20.1216V20.0256C45.3615 13.3822 48.3846 10.0605 54.3731 10.0605H61.639V13.5509H53.4887C52.8138 13.5021 52.1374 13.6223 51.5201 13.901C50.9027 14.1797 50.3637 14.6081 49.9511 15.1478C49.1824 16.2124 48.7979 17.8703 48.7979 20.1216C48.7979 24.4264 50.35 26.5759 53.454 26.5701H61.5869V30.0605L54.3471 30.1129Z" fill="#F5F5FB"/>
<path d="M73.0926 30.1129C67.0695 30.1129 64.0551 26.7825 64.0493 20.1216V20.0256C64.1187 13.3822 67.1447 10.0605 73.1273 10.0605H80.3932V13.5509H72.2343C71.5594 13.5021 70.883 13.6223 70.2656 13.901C69.6483 14.1797 69.1092 14.6081 68.6967 15.1478C67.9221 16.2124 67.5377 17.8703 67.5435 20.1216C67.5435 24.4264 69.0984 26.5759 72.2082 26.5701H80.3585V30.0605L73.0926 30.1129Z" fill="#F5F5FB"/>
<path d="M104.532 10.0605H108V30.1304H104.532V10.0605Z" fill="#F5F5FB"/>
<path d="M98.0988 30.1221L92.2202 18.3245L86.7058 30.061L82.6479 30.1046L92.1422 9.99121L102.122 30.0697L98.0988 30.1221Z" fill="#F5F5FB"/>
</svg>
