<svg width="281" height="73" viewBox="0 0 281 73" fill="none" xmlns="http://www.w3.org/2000/svg">
<path d="M33.8391 0.146973L66.4291 18.1764L66.4291 54.2351L33.8391 72.2645L1.2492 54.2351L1.2492 18.1764L33.8391 0.146973Z" fill="white"/>
<path d="M33.8392 4.15356L62.8081 20.1742L62.8081 52.2154L33.8392 68.236L4.87041 52.2154L4.87041 20.1742L33.8392 4.15356Z" fill="#7380EB"/>
<path d="M33.6981 34.4223L62.8054 20.1702L62.8122 52.206L33.8304 68.258L33.6981 34.4223Z" fill="#6E98E9"/>
<path fill-rule="evenodd" clip-rule="evenodd" d="M33.8223 11.1458L56.2494 23.4113L62.7928 20.1979L33.8446 4.14355L33.8223 4.15597L33.7999 4.14355L4.85168 20.1979L4.86776 20.2058L4.86232 52.2059L11.2264 55.7398L11.2272 55.5949V55.7084L33.8538 68.2462V68.228L62.7997 52.2152V48.6262V45.0053L33.8538 61.0411V61.0363L11.2675 48.5439L11.4112 23.4103L11.4037 23.4066L33.8223 11.1458Z" fill="#16253D"/>
<path d="M85.0867 34.6782C85.8511 34.6782 86.549 34.5619 87.1805 34.3459C87.812 34.1132 88.3603 33.8141 88.8423 33.4319C89.3242 33.0663 89.723 32.6509 90.0387 32.1856C90.3545 31.7203 90.5871 31.255 90.7367 30.7731L88.9918 30.5238C88.8423 30.8562 88.6595 31.1719 88.4268 31.4876C88.1942 31.8034 87.9117 32.0693 87.5959 32.3019C87.2802 32.5512 86.9146 32.734 86.4992 32.8835C86.0837 33.0331 85.6018 33.0996 85.0867 33.0996C84.5217 33.0996 83.9733 32.9832 83.4581 32.734C82.943 32.4847 82.4777 32.1523 82.0789 31.7203C81.6801 31.3048 81.3643 30.8063 81.1317 30.2247C80.8824 29.6431 80.7661 29.0282 80.7661 28.3635C80.7661 27.6988 80.8824 27.084 81.1317 26.5024C81.3643 25.9207 81.6801 25.4222 82.0789 24.9901C82.4777 24.5747 82.943 24.2424 83.4581 23.9931C83.9733 23.7438 84.5217 23.6275 85.0867 23.6275C85.5686 23.6275 86.0006 23.694 86.3828 23.8269C86.7651 23.9599 87.114 24.126 87.4131 24.3421C87.6956 24.5581 87.9449 24.8074 88.1609 25.0899C88.377 25.3724 88.5431 25.6715 88.6595 25.954L90.4043 25.7047C90.2548 25.256 90.0387 24.8074 89.7396 24.3587C89.4405 23.9266 89.0749 23.5444 88.6262 23.1954C88.1776 22.8465 87.6458 22.5806 87.0642 22.3646C86.4826 22.1485 85.8178 22.0488 85.0867 22.0488C84.2724 22.0488 83.508 22.215 82.7768 22.5474C82.0456 22.8797 81.3976 23.3284 80.8492 23.8934C80.2842 24.475 79.8355 25.1397 79.5198 25.9041C79.1874 26.6685 79.0212 27.4828 79.0212 28.3635C79.0212 29.2443 79.1874 30.0585 79.5198 30.8229C79.8355 31.5873 80.2842 32.2521 80.8492 32.817C81.3976 33.3987 82.0456 33.8473 82.7768 34.1797C83.508 34.512 84.2724 34.6782 85.0867 34.6782Z" fill="#3A475C"/>
<path fill-rule="evenodd" clip-rule="evenodd" d="M95.7992 30.3576H99.5382L101.698 34.1797H103.526L101.2 30.0253C101.665 29.8591 102.081 29.6098 102.446 29.2941C102.762 29.0282 103.044 28.6626 103.31 28.1974C103.56 27.7487 103.693 27.1671 103.693 26.4525C103.693 25.8875 103.593 25.3724 103.393 24.8904C103.194 24.4085 102.912 23.9931 102.546 23.6441C102.164 23.2951 101.715 23.0293 101.183 22.8299C100.652 22.6471 100.053 22.5474 99.4052 22.5474H94.0544V34.1797H95.7992V30.3576ZM99.372 28.779H95.7992V24.126H99.4052C99.7874 24.126 100.136 24.1759 100.452 24.2922C100.768 24.4085 101.034 24.5747 101.25 24.7907C101.466 25.0068 101.649 25.2394 101.765 25.5219C101.881 25.8044 101.948 26.1201 101.948 26.4525C101.948 26.7682 101.881 27.0507 101.765 27.3332C101.649 27.6157 101.466 27.865 101.25 28.081C101.034 28.2971 100.768 28.4632 100.452 28.5796C100.136 28.7125 99.7708 28.779 99.372 28.779Z" fill="#3A475C"/>
<path d="M112.424 30.3576V34.1797H110.679V30.3576C109.931 29.0781 109.167 27.7653 108.403 26.4525C107.621 25.1397 106.857 23.8435 106.109 22.5474H108.103L111.51 28.2804H111.593L115 22.5474H116.994C116.522 23.3651 116.044 24.1829 115.563 25.0049L115.562 25.0065L115.561 25.0078C115.28 25.4877 114.999 25.9689 114.717 26.4525C114.049 27.5764 113.392 28.7004 112.748 29.8035L112.424 30.3576Z" fill="#3A475C"/>
<path fill-rule="evenodd" clip-rule="evenodd" d="M129.628 26.7849C129.628 26.2032 129.511 25.6549 129.295 25.1397C129.063 24.6246 128.747 24.1759 128.332 23.7937C127.916 23.4115 127.434 23.0957 126.869 22.8797C126.288 22.6637 125.656 22.5474 124.975 22.5474H119.906V34.1797H121.651V31.0223H124.975C125.656 31.0223 126.288 30.906 126.869 30.69C127.434 30.474 127.916 30.1582 128.332 29.776C128.747 29.3938 129.063 28.9451 129.295 28.43C129.511 27.9149 129.628 27.3665 129.628 26.7849ZM127.883 26.7849C127.883 27.5825 127.634 28.2306 127.118 28.7125C126.603 29.1944 125.889 29.4437 124.975 29.4437H121.651V24.126H124.975C125.889 24.126 126.603 24.3753 127.118 24.8572C127.634 25.3391 127.883 25.9872 127.883 26.7849Z" fill="#3A475C"/>
<path d="M135.789 24.126H131.884V22.5474H141.439V24.126H137.534V34.1797H135.789V24.126Z" fill="#3A475C"/>
<path fill-rule="evenodd" clip-rule="evenodd" d="M155.887 28.3635C155.887 27.4828 155.721 26.6685 155.389 25.9041C155.057 25.1397 154.608 24.475 154.043 23.8934C153.478 23.3284 152.813 22.8797 152.065 22.5474C151.318 22.215 150.503 22.0488 149.656 22.0488C148.808 22.0488 147.994 22.215 147.246 22.5474C146.499 22.8797 145.834 23.3284 145.269 23.8934C144.704 24.475 144.255 25.1397 143.923 25.9041C143.59 26.6685 143.424 27.4828 143.424 28.3635C143.424 29.2443 143.59 30.0585 143.923 30.8229C144.255 31.5873 144.704 32.2521 145.269 32.817C145.834 33.3987 146.499 33.8473 147.246 34.1797C147.994 34.512 148.808 34.6782 149.656 34.6782C150.503 34.6782 151.318 34.512 152.065 34.1797C152.813 33.8473 153.478 33.3987 154.043 32.817C154.608 32.2521 155.057 31.5873 155.389 30.8229C155.721 30.0585 155.887 29.2443 155.887 28.3635ZM145.169 28.3635C145.169 27.6988 145.285 27.084 145.535 26.5024C145.784 25.9207 146.1 25.4222 146.515 24.9901C146.931 24.5747 147.396 24.2424 147.944 23.9931C148.493 23.7438 149.058 23.6275 149.656 23.6275C150.254 23.6275 150.819 23.7438 151.368 23.9931C151.916 24.2424 152.381 24.5747 152.797 24.9901C153.212 25.4222 153.528 25.9207 153.777 26.5024C154.026 27.084 154.143 27.6988 154.143 28.3635C154.143 29.0282 154.026 29.6431 153.777 30.2247C153.528 30.8063 153.212 31.3048 152.797 31.7203C152.381 32.1523 151.916 32.4847 151.368 32.734C150.819 32.9832 150.254 33.0996 149.656 33.0996C149.058 33.0996 148.493 32.9832 147.944 32.734C147.396 32.4847 146.931 32.1523 146.515 31.7203C146.1 31.3048 145.784 30.8063 145.535 30.2247C145.285 29.6431 145.169 29.0282 145.169 28.3635Z" fill="#3A475C"/>
<path d="M166.96 34.3459C166.329 34.5619 165.631 34.6782 164.866 34.6782C164.052 34.6782 163.288 34.512 162.556 34.1797C161.825 33.8473 161.177 33.3987 160.629 32.817C160.064 32.2521 159.615 31.5873 159.299 30.8229C158.967 30.0585 158.801 29.2443 158.801 28.3635C158.801 27.4828 158.967 26.6685 159.299 25.9041C159.615 25.1397 160.064 24.475 160.629 23.8934C161.177 23.3284 161.825 22.8797 162.556 22.5474C163.288 22.215 164.052 22.0488 164.866 22.0488C165.597 22.0488 166.262 22.1485 166.844 22.3646C167.425 22.5806 167.957 22.8465 168.406 23.1954C168.854 23.5444 169.22 23.9266 169.519 24.3587C169.818 24.8074 170.034 25.256 170.184 25.7047L168.439 25.954C168.323 25.6715 168.156 25.3724 167.94 25.0899C167.724 24.8074 167.475 24.5581 167.193 24.3421C166.894 24.126 166.545 23.9599 166.162 23.8269C165.78 23.694 165.348 23.6275 164.866 23.6275C164.301 23.6275 163.753 23.7438 163.238 23.9931C162.723 24.2424 162.257 24.5747 161.858 24.9901C161.46 25.4222 161.144 25.9207 160.911 26.5024C160.662 27.084 160.546 27.6988 160.546 28.3635C160.546 29.0282 160.662 29.6431 160.911 30.2247C161.144 30.8063 161.46 31.3048 161.858 31.7203C162.257 32.1523 162.723 32.4847 163.238 32.734C163.753 32.9832 164.301 33.0996 164.866 33.0996C165.381 33.0996 165.863 33.0331 166.279 32.8835C166.694 32.734 167.06 32.5512 167.375 32.3019C167.691 32.0693 167.974 31.8034 168.206 31.4876C168.439 31.1719 168.622 30.8562 168.771 30.5238L170.516 30.7731C170.367 31.255 170.134 31.7203 169.818 32.1856C169.503 32.6509 169.104 33.0663 168.622 33.4319C168.14 33.8141 167.591 34.1132 166.96 34.3459Z" fill="#3A475C"/>
<path d="M178.57 33.0996C178.138 33.0996 177.739 33.0165 177.373 32.8669C177.008 32.7173 176.692 32.5013 176.426 32.2188C176.16 31.9363 175.961 31.604 175.811 31.2051C175.662 30.8063 175.579 30.3576 175.579 29.8591V22.5474H173.834V29.8591C173.834 30.5903 173.95 31.255 174.183 31.8366C174.399 32.4348 174.731 32.95 175.147 33.3654C175.562 33.7809 176.061 34.1132 176.642 34.3459C177.224 34.5619 177.855 34.6782 178.57 34.6782C179.284 34.6782 179.933 34.5619 180.514 34.3459C181.096 34.1132 181.594 33.7809 182.01 33.3654C182.425 32.95 182.741 32.4348 182.974 31.8366C183.19 31.255 183.306 30.5903 183.306 29.8591V22.5474H181.561V29.8591C181.561 30.3576 181.495 30.8063 181.345 31.2051C181.195 31.604 180.979 31.9363 180.714 32.2188C180.448 32.5013 180.132 32.7173 179.766 32.8669C179.401 33.0165 179.002 33.0996 178.57 33.0996Z" fill="#3A475C"/>
<path fill-rule="evenodd" clip-rule="evenodd" d="M192.86 30.3576H189.121V34.1797H187.377V22.5474H192.727C193.376 22.5474 193.974 22.6471 194.506 22.8299C195.037 23.0293 195.486 23.2951 195.868 23.6441C196.234 23.9931 196.516 24.4085 196.716 24.8904C196.915 25.3724 197.015 25.8875 197.015 26.4525C197.015 27.1671 196.882 27.7487 196.633 28.1974C196.367 28.6626 196.084 29.0282 195.769 29.2941C195.403 29.6098 194.987 29.8591 194.522 30.0253L196.849 34.1797H195.021L192.86 30.3576ZM189.121 28.779H192.694C193.093 28.779 193.459 28.7125 193.774 28.5796C194.09 28.4632 194.356 28.2971 194.572 28.081C194.788 27.865 194.971 27.6157 195.087 27.3332C195.204 27.0507 195.27 26.7682 195.27 26.4525C195.27 26.1201 195.204 25.8044 195.087 25.5219C194.971 25.2394 194.788 25.0068 194.572 24.7907C194.356 24.5747 194.09 24.4085 193.774 24.2922C193.459 24.1759 193.11 24.126 192.727 24.126H189.121V28.779Z" fill="#3A475C"/>
<path fill-rule="evenodd" clip-rule="evenodd" d="M202.34 30.3576H206.079L208.239 34.1797H210.067L207.74 30.0253C208.206 29.8591 208.621 29.6098 208.987 29.2941C209.302 29.0282 209.585 28.6626 209.851 28.1974C210.1 27.7487 210.233 27.1671 210.233 26.4525C210.233 25.8875 210.133 25.3724 209.934 24.8904C209.734 24.4085 209.452 23.9931 209.086 23.6441C208.704 23.2951 208.255 23.0293 207.724 22.8299C207.192 22.6471 206.594 22.5474 205.946 22.5474H200.595V34.1797H202.34V30.3576ZM205.912 28.779H202.34V24.126H205.946C206.328 24.126 206.677 24.1759 206.993 24.2922C207.308 24.4085 207.574 24.5747 207.79 24.7907C208.006 25.0068 208.189 25.2394 208.305 25.5219C208.422 25.8044 208.488 26.1201 208.488 26.4525C208.488 26.7682 208.422 27.0507 208.305 27.3332C208.189 27.6157 208.006 27.865 207.79 28.081C207.574 28.2971 207.308 28.4632 206.993 28.5796C206.677 28.7125 206.311 28.779 205.912 28.779Z" fill="#3A475C"/>
<path d="M215.558 32.601H222.371V34.1797H213.813V22.5474H222.371V24.126H215.558V27.5326H220.958V29.1113H215.558V32.601Z" fill="#3A475C"/>
<path d="M233.261 31.2716L227.611 22.5474H225.7V34.1797H227.445V25.4554H227.611L233.261 34.1797H235.172V22.5474H233.428V31.2716H233.261Z" fill="#3A475C"/>
<path d="M246.821 34.3459C246.189 34.5619 245.491 34.6782 244.727 34.6782C243.913 34.6782 243.148 34.512 242.417 34.1797C241.686 33.8473 241.038 33.3987 240.489 32.817C239.924 32.2521 239.476 31.5873 239.16 30.8229C238.828 30.0585 238.661 29.2443 238.661 28.3635C238.661 27.4828 238.828 26.6685 239.16 25.9041C239.476 25.1397 239.924 24.475 240.489 23.8934C241.038 23.3284 241.686 22.8797 242.417 22.5474C243.148 22.215 243.913 22.0488 244.727 22.0488C245.458 22.0488 246.123 22.1485 246.704 22.3646C247.286 22.5806 247.818 22.8465 248.266 23.1954C248.715 23.5444 249.081 23.9266 249.38 24.3587C249.679 24.8074 249.895 25.256 250.045 25.7047L248.3 25.954C248.183 25.6715 248.017 25.3724 247.801 25.0899C247.585 24.8074 247.336 24.5581 247.053 24.3421C246.754 24.126 246.405 23.9599 246.023 23.8269C245.641 23.694 245.209 23.6275 244.727 23.6275C244.162 23.6275 243.614 23.7438 243.098 23.9931C242.583 24.2424 242.118 24.5747 241.719 24.9901C241.32 25.4222 241.005 25.9207 240.772 26.5024C240.523 27.084 240.406 27.6988 240.406 28.3635C240.406 29.0282 240.523 29.6431 240.772 30.2247C241.005 30.8063 241.32 31.3048 241.719 31.7203C242.118 32.1523 242.583 32.4847 243.098 32.734C243.614 32.9832 244.162 33.0996 244.727 33.0996C245.242 33.0996 245.724 33.0331 246.139 32.8835C246.555 32.734 246.92 32.5512 247.236 32.3019C247.552 32.0693 247.834 31.8034 248.067 31.4876C248.3 31.1719 248.482 30.8562 248.632 30.5238L250.377 30.7731C250.227 31.255 249.995 31.7203 249.679 32.1856C249.363 32.6509 248.964 33.0663 248.482 33.4319C248.001 33.8141 247.452 34.1132 246.821 34.3459Z" fill="#3A475C"/>
<path d="M255.439 22.5474H253.695V34.1797H255.439V22.5474Z" fill="#3A475C"/>
<path d="M261.258 32.601H268.071V34.1797H259.513V22.5474H268.071V24.126H261.258V27.5326H266.658V29.1113H261.258V32.601Z" fill="#3A475C"/>
<path d="M278.38 30.9393C278.38 31.2051 278.313 31.471 278.18 31.7203C278.047 31.9862 277.864 32.2188 277.615 32.4182C277.366 32.6343 277.083 32.8004 276.734 32.9168C276.385 33.0331 275.987 33.0996 275.555 33.0996C275.122 33.0996 274.74 33.0331 274.391 32.9168C274.042 32.8004 273.727 32.6509 273.477 32.4348C273.228 32.2354 273.012 32.0028 272.829 31.7203C272.646 31.4544 272.497 31.1719 272.397 30.8562L270.652 31.1054C270.819 31.6206 271.035 32.1025 271.317 32.5346C271.6 32.9832 271.932 33.3488 272.331 33.6645C272.73 33.9803 273.195 34.2295 273.727 34.4123C274.258 34.5951 274.873 34.6782 275.555 34.6782C276.269 34.6782 276.901 34.5785 277.466 34.3791C278.031 34.1631 278.512 33.8972 278.911 33.5482C279.294 33.2159 279.593 32.817 279.809 32.3684C280.025 31.9197 280.124 31.4378 280.124 30.9393C280.124 30.4241 280.025 29.9921 279.825 29.6431C279.609 29.2941 279.343 28.9784 279.028 28.7291C278.695 28.4798 278.313 28.2804 277.898 28.1143C277.466 27.9481 277.033 27.7985 276.601 27.6656C276.312 27.5905 276.029 27.5086 275.754 27.4286L275.753 27.4284L275.751 27.4278C275.6 27.3841 275.452 27.341 275.305 27.3C274.873 27.1837 274.491 27.0341 274.175 26.8846C273.843 26.735 273.577 26.5522 273.378 26.3362C273.162 26.1201 273.062 25.8543 273.062 25.5385C273.062 25.3059 273.128 25.0732 273.245 24.8406C273.361 24.6246 273.544 24.4085 273.76 24.2257C273.976 24.0429 274.225 23.91 274.541 23.7937C274.84 23.6774 275.172 23.6275 275.555 23.6275C275.953 23.6275 276.302 23.6774 276.601 23.7771C276.901 23.8768 277.166 24.0097 277.399 24.1925C277.615 24.3753 277.798 24.5747 277.947 24.824C278.097 25.0732 278.213 25.3391 278.296 25.6216L280.041 25.3724C279.925 24.9237 279.742 24.4916 279.493 24.0762C279.244 23.6774 278.928 23.3284 278.546 23.0293C278.164 22.7302 277.731 22.4975 277.233 22.3147C276.734 22.1319 276.169 22.0488 275.555 22.0488C274.906 22.0488 274.325 22.1485 273.81 22.3313C273.295 22.5307 272.846 22.7966 272.48 23.1124C272.098 23.4281 271.816 23.8103 271.616 24.2257C271.417 24.6412 271.317 25.0899 271.317 25.5385C271.317 26.0537 271.417 26.5024 271.633 26.8513C271.832 27.2169 272.098 27.5326 272.43 27.7819C272.746 28.0312 273.128 28.2472 273.56 28.4134C273.976 28.5796 274.408 28.7291 274.857 28.8621C275.289 28.995 275.721 29.1113 276.152 29.2276C276.568 29.3439 276.95 29.4769 277.283 29.6265C277.599 29.776 277.864 29.9588 278.08 30.1582C278.28 30.3743 278.38 30.6235 278.38 30.9393Z" fill="#3A475C"/>
<path fill-rule="evenodd" clip-rule="evenodd" d="M109.981 41.8683L112.174 50.7672H111.271L110.691 48.5102H105.532L104.952 50.7672H104.049L106.241 41.8683H109.981ZM106.951 42.7066L105.725 47.6719H110.497L109.272 42.7066H106.951Z" fill="#3A475C"/>
<path d="M118.489 51.1541C119.069 51.1541 119.585 51.0767 120.062 50.9091C120.527 50.7414 120.939 50.5221 121.3 50.2513C121.649 49.9805 121.945 49.6709 122.19 49.3227C122.435 48.9745 122.616 48.6263 122.745 48.2523L121.842 48.1233C121.713 48.4199 121.545 48.6908 121.352 48.9487C121.159 49.2196 120.926 49.4517 120.656 49.6452C120.385 49.8515 120.062 50.0192 119.701 50.1352C119.34 50.2513 118.94 50.3158 118.489 50.3158C118.025 50.3158 117.573 50.2126 117.135 50.0063C116.683 49.7999 116.296 49.5162 115.948 49.1551C115.6 48.794 115.329 48.3684 115.123 47.8783C114.916 47.4011 114.813 46.8723 114.813 46.3177C114.813 45.7632 114.916 45.2473 115.123 44.7572C115.329 44.28 115.6 43.8544 115.948 43.4933C116.296 43.1322 116.683 42.8485 117.135 42.6292C117.573 42.4229 118.025 42.3197 118.489 42.3197C118.914 42.3197 119.288 42.3713 119.624 42.4873C119.959 42.6034 120.256 42.7582 120.514 42.9516C120.772 43.1451 120.991 43.3514 121.171 43.5965C121.352 43.8415 121.494 44.0737 121.584 44.3187L122.487 44.1897C122.397 43.8673 122.229 43.5449 122.01 43.2225C121.79 42.9 121.507 42.6163 121.171 42.3584C120.823 42.1004 120.436 41.8941 119.985 41.7264C119.534 41.5588 119.043 41.4814 118.489 41.4814C117.896 41.4814 117.328 41.6103 116.774 41.8683C116.219 42.1262 115.729 42.4744 115.303 42.9129C114.878 43.3514 114.542 43.8673 114.297 44.4477C114.039 45.028 113.91 45.66 113.91 46.3177C113.91 46.9755 114.039 47.6074 114.297 48.1878C114.542 48.7682 114.878 49.284 115.303 49.7225C115.729 50.161 116.219 50.5092 116.774 50.7672C117.328 51.0251 117.896 51.1541 118.489 51.1541Z" fill="#3A475C"/>
<path d="M127.521 42.7066H124.362V41.8683H131.584V42.7066H128.424V50.7672H127.521V42.7066Z" fill="#3A475C"/>
<path d="M134.938 41.8683H134.035V50.7672H134.938V41.8683Z" fill="#3A475C"/>
<path fill-rule="evenodd" clip-rule="evenodd" d="M138.159 48.1878C137.901 47.6074 137.772 46.9755 137.772 46.3177C137.772 45.66 137.901 45.0409 138.159 44.4606C138.404 43.8802 138.752 43.3643 139.19 42.9129C139.616 42.4744 140.119 42.1262 140.687 41.8683C141.254 41.6103 141.847 41.4814 142.479 41.4814C143.111 41.4814 143.704 41.6103 144.272 41.8683C144.839 42.1262 145.342 42.4744 145.781 42.9129C146.206 43.3514 146.555 43.8673 146.813 44.4477C147.058 45.028 147.187 45.66 147.187 46.3177C147.187 46.9755 147.058 47.6074 146.813 48.1878C146.555 48.7682 146.206 49.284 145.781 49.7225C145.342 50.161 144.839 50.5092 144.272 50.7672C143.704 51.0251 143.111 51.1541 142.479 51.1541C141.847 51.1541 141.254 51.0251 140.687 50.7672C140.119 50.5092 139.616 50.161 139.19 49.7225C138.752 49.284 138.404 48.7682 138.159 48.1878ZM145.974 47.8654C146.181 47.3882 146.284 46.8723 146.284 46.3177C146.284 45.7632 146.181 45.2473 145.974 44.7572C145.755 44.28 145.484 43.8544 145.136 43.4933C144.788 43.1322 144.375 42.8485 143.924 42.6292C143.459 42.4229 142.982 42.3197 142.479 42.3197C141.976 42.3197 141.499 42.4229 141.048 42.6292C140.583 42.8485 140.171 43.1322 139.835 43.4933C139.487 43.8544 139.203 44.28 138.997 44.7572C138.778 45.2473 138.675 45.7632 138.675 46.3177C138.675 46.8723 138.778 47.3882 138.997 47.8654C139.203 48.3555 139.487 48.7811 139.835 49.1422C140.184 49.5033 140.583 49.787 141.048 49.9934C141.499 50.2126 141.976 50.3158 142.479 50.3158C142.982 50.3158 143.459 50.2126 143.924 49.9934C144.375 49.787 144.788 49.5033 145.136 49.1422C145.484 48.7811 145.755 48.3555 145.974 47.8654Z" fill="#3A475C"/>
<path d="M156.08 49.2196L150.986 41.8683H150.018V50.7672H150.921V43.4159H150.986L156.08 50.7672H157.047V41.8683H156.144V49.2196H156.08Z" fill="#3A475C"/>
<path fill-rule="evenodd" clip-rule="evenodd" d="M165.563 41.8683L167.756 50.7672H166.853L166.273 48.5102H161.114L160.533 50.7672H159.631L161.823 41.8683H165.563ZM162.532 42.7066L161.307 47.6719H166.079L164.854 42.7066H162.532Z" fill="#3A475C"/>
<path fill-rule="evenodd" clip-rule="evenodd" d="M174.139 41.8683H170.334V50.7672H174.784C175.222 50.7672 175.622 50.7027 175.983 50.5608C176.331 50.419 176.641 50.2384 176.899 50.0063C177.144 49.7741 177.337 49.5033 177.479 49.1809C177.621 48.8713 177.685 48.536 177.685 48.1878C177.685 47.9299 177.66 47.6977 177.595 47.4914C177.531 47.2979 177.453 47.1173 177.35 46.9626C177.247 46.8207 177.131 46.6917 177.002 46.5757C176.873 46.4596 176.744 46.3693 176.615 46.2919C176.305 46.1114 175.957 45.9953 175.557 45.9308V45.8663C175.777 45.8019 175.97 45.6858 176.138 45.531C176.28 45.4021 176.421 45.2215 176.538 45.0022C176.654 44.783 176.718 44.4864 176.718 44.1253C176.718 43.8157 176.654 43.5191 176.538 43.2483C176.409 42.9774 176.228 42.7453 176.009 42.5389C175.79 42.3326 175.519 42.1649 175.196 42.0488C174.874 41.9328 174.526 41.8683 174.139 41.8683ZM171.237 42.7066H174.139C174.655 42.7066 175.067 42.8485 175.364 43.1193C175.661 43.403 175.815 43.7383 175.815 44.1253C175.815 44.5638 175.661 44.9249 175.364 45.1957C175.067 45.4665 174.655 45.6084 174.139 45.6084H171.237V42.7066ZM174.784 49.9289H171.237V46.4467H174.784C175.093 46.4467 175.377 46.4854 175.622 46.5757C175.854 46.666 176.073 46.7949 176.241 46.9497C176.409 47.1173 176.55 47.2979 176.641 47.5043C176.731 47.7235 176.783 47.9428 176.783 48.1878C176.783 48.4328 176.731 48.6521 176.641 48.8584C176.55 49.0777 176.409 49.2582 176.241 49.413C176.073 49.5807 175.867 49.6967 175.622 49.787C175.377 49.8773 175.093 49.9289 174.784 49.9289Z" fill="#3A475C"/>
<path d="M181.294 41.8683V49.9289H186.453V50.7672H180.391V41.8683H181.294Z" fill="#3A475C"/>
<path d="M195.283 49.9289H189.802V46.7046H194.122V45.8663H189.802V42.7066H195.283V41.8683H188.899V50.7672H195.283V49.9289Z" fill="#3A475C"/>
<path d="M201.469 41.8683H202.372V50.7672H201.469V41.8683Z" fill="#3A475C"/>
<path d="M211.719 49.2196L206.624 41.8683H205.657V50.7672H206.56V43.4159H206.624L211.719 50.7672H212.686V41.8683H211.783V49.2196H211.719Z" fill="#3A475C"/>
<path d="M221.357 49.1422C221.473 48.9229 221.524 48.6908 221.524 48.4457C221.524 48.1491 221.447 47.9041 221.292 47.7106C221.125 47.5172 220.918 47.3624 220.647 47.2205C220.377 47.0787 220.08 46.9626 219.745 46.8594C219.487 46.7899 219.228 46.7128 218.964 46.6339C218.885 46.6103 218.806 46.5865 218.726 46.5628C218.378 46.4596 218.029 46.3435 217.694 46.2146C217.359 46.0856 217.062 45.9179 216.791 45.7245C216.52 45.531 216.314 45.2989 216.159 45.0151C215.992 44.7443 215.914 44.3961 215.914 43.9963C215.914 43.6739 215.992 43.3643 216.134 43.0548C216.275 42.7582 216.495 42.4873 216.765 42.2552C217.036 42.0231 217.372 41.8296 217.771 41.6877C218.158 41.5459 218.597 41.4814 219.074 41.4814C219.538 41.4814 219.951 41.5459 220.325 41.6619C220.686 41.778 221.009 41.9457 221.279 42.152C221.55 42.3713 221.782 42.6163 221.976 42.9C222.169 43.1838 222.311 43.4804 222.427 43.8028L221.524 43.9963C221.408 43.7383 221.292 43.5062 221.15 43.2998C221.009 43.0935 220.841 42.9129 220.647 42.7711C220.454 42.6292 220.222 42.5131 219.964 42.4358C219.706 42.3584 219.409 42.3197 219.074 42.3197C218.726 42.3197 218.403 42.3713 218.133 42.4615C217.849 42.5518 217.617 42.6808 217.423 42.8356C217.23 43.0032 217.075 43.1838 216.972 43.3772C216.869 43.5836 216.817 43.7899 216.817 43.9963C216.817 44.3832 216.959 44.6798 217.23 44.8991C217.501 45.1183 217.849 45.3118 218.274 45.4536C218.687 45.6084 219.139 45.7503 219.629 45.8792C220.106 46.0082 220.557 46.1759 220.983 46.3693C221.395 46.5757 221.744 46.8336 222.015 47.156C222.285 47.4785 222.427 47.917 222.427 48.4457C222.427 48.794 222.35 49.1422 222.195 49.4646C222.04 49.787 221.821 50.0836 221.524 50.3287C221.228 50.5737 220.867 50.7801 220.441 50.9348C220.016 51.0767 219.538 51.1541 219.01 51.1541C218.507 51.1541 218.068 51.0896 217.668 50.9477C217.268 50.8059 216.92 50.6253 216.624 50.3803C216.327 50.1481 216.069 49.8644 215.876 49.542C215.669 49.2196 215.514 48.8842 215.398 48.5102L216.301 48.3813C216.417 48.6521 216.546 48.91 216.714 49.1422C216.882 49.3872 217.075 49.5936 217.294 49.7612C217.514 49.9289 217.771 50.0708 218.055 50.161C218.339 50.2642 218.661 50.3158 219.01 50.3158C219.409 50.3158 219.77 50.2642 220.093 50.161C220.402 50.0579 220.66 49.916 220.88 49.7354C221.086 49.5678 221.241 49.3614 221.357 49.1422Z" fill="#3A475C"/>
<path d="M226.17 41.8683H225.268V50.7672H226.17V41.8683Z" fill="#3A475C"/>
<path d="M232.228 50.0063C232.667 50.2126 233.118 50.3158 233.583 50.3158C234.06 50.3158 234.524 50.2255 234.95 50.045C235.375 49.8773 235.736 49.6452 236.059 49.3485C236.368 49.0519 236.613 48.7295 236.794 48.3555C236.975 47.9814 237.065 47.6074 237.065 47.2205H234.098V46.3822H237.968V46.7691C237.968 47.4011 237.864 47.9814 237.645 48.5102C237.426 49.0519 237.116 49.5162 236.729 49.9031C236.33 50.3029 235.865 50.5995 235.337 50.8317C234.795 51.0509 234.215 51.1541 233.583 51.1541C232.976 51.1541 232.409 51.0251 231.854 50.7801C231.3 50.5221 230.823 50.1739 230.397 49.7354C229.971 49.2969 229.636 48.7811 229.391 48.2007C229.133 47.6203 229.004 46.9884 229.004 46.3177C229.004 45.6471 229.133 45.0151 229.391 44.4348C229.636 43.8544 229.971 43.3385 230.397 42.9C230.823 42.4615 231.3 42.1133 231.854 41.8554C232.409 41.6103 232.976 41.4814 233.583 41.4814C234.137 41.4814 234.627 41.5588 235.079 41.7264C235.53 41.8941 235.917 42.1004 236.265 42.3584C236.601 42.6163 236.884 42.9 237.103 43.2225C237.323 43.5449 237.49 43.8673 237.581 44.1897L236.678 44.3187C236.588 44.0737 236.446 43.8415 236.265 43.5965C236.085 43.3514 235.865 43.1451 235.607 42.9516C235.35 42.7582 235.053 42.6034 234.718 42.4873C234.382 42.3713 234.008 42.3197 233.583 42.3197C233.118 42.3197 232.667 42.4229 232.228 42.6292C231.777 42.8485 231.39 43.1322 231.042 43.4933C230.694 43.8544 230.423 44.28 230.217 44.7572C230.01 45.2473 229.907 45.7632 229.907 46.3177C229.907 46.8723 230.01 47.4011 230.217 47.8783C230.423 48.3684 230.694 48.794 231.042 49.1551C231.39 49.5162 231.777 49.7999 232.228 50.0063Z" fill="#3A475C"/>
<path d="M240.81 50.7672H241.713V46.7046H246.807V50.7672H247.71V41.8683H246.807V45.8663H241.713V41.8683H240.81V50.7672Z" fill="#3A475C"/>
<path d="M253.314 42.7066H250.155V41.8683H257.377V42.7066H254.217V50.7672H253.314V42.7066Z" fill="#3A475C"/>
<path d="M80.2979 45.535L102.598 45.535V46.4641H80.2979L80.2979 45.535Z" fill="#3A475C"/>
<path d="M258.7 45.535L281 45.535V46.4641H258.7V45.535Z" fill="#3A475C"/>
</svg>
