<svg width="245" height="64" viewBox="0 0 245 64" fill="none" xmlns="http://www.w3.org/2000/svg">
<path d="M29.1645 0.505859L57.5784 16.225L57.5784 47.6632L29.1645 63.3823L0.750626 47.6632L0.750626 16.225L29.1645 0.505859Z" fill="white"/>
<path d="M29.164 4L54.4208 17.9678L54.4208 45.9033L29.164 59.871L3.90724 45.9033L3.90724 17.9678L29.164 4Z" fill="#7380EB"/>
<path d="M29.041 30.3888L54.4185 17.9629L54.4244 45.8937L29.1563 59.8888L29.041 30.3888Z" fill="#4E60C8"/>
<path fill-rule="evenodd" clip-rule="evenodd" d="M29.1491 10.0971L48.7026 20.791L54.4076 17.9894L29.1687 3.99219L29.1491 4.00309L29.1295 3.99219L3.89063 17.9894L3.90515 17.9965L3.9004 45.8963L9.44898 48.9774L9.44948 48.8891V48.9495L29.1767 59.8807V59.8644L54.4139 45.9032V42.7741V39.6172L29.1767 53.5984V53.5947L9.48484 42.7031L9.6101 20.7905L9.60285 20.787L29.1491 10.0971Z" fill="#16253D"/>
<path d="M73.8444 30.6126C74.5108 30.6126 75.1193 30.5112 75.6699 30.3229C76.2204 30.12 76.6986 29.8593 77.1187 29.526C77.5389 29.2073 77.8866 28.8451 78.1619 28.4394C78.4371 28.0337 78.64 27.6281 78.7704 27.2079L77.2491 26.9906C77.1187 27.2803 76.9593 27.5556 76.7565 27.8309C76.5537 28.1062 76.3074 28.338 76.0321 28.5408C75.7568 28.7581 75.4381 28.9175 75.0759 29.0479C74.7137 29.1783 74.2935 29.2363 73.8444 29.2363C73.3518 29.2363 72.8737 29.1348 72.4245 28.9175C71.9754 28.7002 71.5697 28.4104 71.222 28.0337C70.8743 27.6715 70.599 27.2369 70.3962 26.7298C70.1788 26.2227 70.0774 25.6866 70.0774 25.1071C70.0774 24.5276 70.1788 23.9915 70.3962 23.4844C70.599 22.9773 70.8743 22.5427 71.222 22.166C71.5697 21.8038 71.9754 21.514 72.4245 21.2967C72.8737 21.0794 73.3518 20.9779 73.8444 20.9779C74.2645 20.9779 74.6412 21.0359 74.9745 21.1518C75.3077 21.2677 75.6119 21.4126 75.8727 21.6009C76.119 21.7893 76.3363 22.0066 76.5247 22.2529C76.713 22.4992 76.8579 22.76 76.9593 23.0063L78.4806 22.789C78.3502 22.3978 78.1619 22.0066 77.9011 21.6154C77.6403 21.2387 77.3216 20.9055 76.9304 20.6013C76.5392 20.297 76.0756 20.0652 75.5685 19.8768C75.0614 19.6885 74.4819 19.6016 73.8444 19.6016C73.1344 19.6016 72.468 19.7464 71.8305 20.0362C71.193 20.326 70.628 20.7172 70.1499 21.2098C69.6573 21.7168 69.2661 22.2964 68.9908 22.9628C68.701 23.6293 68.5562 24.3392 68.5562 25.1071C68.5562 25.875 68.701 26.5849 68.9908 27.2514C69.2661 27.9178 69.6573 28.4974 70.1499 28.99C70.628 29.497 71.193 29.8882 71.8305 30.178C72.468 30.4678 73.1344 30.6126 73.8444 30.6126Z" fill="#3A475C"/>
<path fill-rule="evenodd" clip-rule="evenodd" d="M83.1842 26.8457H86.4441L88.3275 30.178H89.9212L87.8929 26.5559C88.2986 26.411 88.6608 26.1937 88.9795 25.9184C89.2548 25.6866 89.5011 25.3679 89.7329 24.9622C89.9502 24.571 90.0661 24.0639 90.0661 23.441C90.0661 22.9484 89.9792 22.4992 89.8053 22.0791C89.6315 21.6589 89.3852 21.2967 89.0664 20.9924C88.7332 20.6882 88.342 20.4564 87.8784 20.2825C87.4148 20.1231 86.8932 20.0362 86.3282 20.0362H81.6629V30.178H83.1842V26.8457ZM86.2992 25.4693H83.1842V21.4126H86.3282C86.6614 21.4126 86.9656 21.4561 87.2409 21.5575C87.5162 21.6589 87.748 21.8038 87.9364 21.9921C88.1247 22.1805 88.2841 22.3833 88.3855 22.6296C88.4869 22.8759 88.5449 23.1512 88.5449 23.441C88.5449 23.7162 88.4869 23.9625 88.3855 24.2088C88.2841 24.4551 88.1247 24.6725 87.9364 24.8608C87.748 25.0491 87.5162 25.194 87.2409 25.2954C86.9656 25.4114 86.6469 25.4693 86.2992 25.4693Z" fill="#3A475C"/>
<path d="M97.6787 26.8457V30.178H96.1574V26.8457C95.5055 25.7301 94.839 24.5855 94.1725 23.441C93.4916 22.2964 92.8251 21.1663 92.1732 20.0362H93.9117L96.8818 25.0347H96.9543L99.9244 20.0362H101.663C101.252 20.7492 100.835 21.4622 100.415 22.1788L100.414 22.1802L100.414 22.1814C100.169 22.5997 99.9236 23.0194 99.6781 23.441C99.0951 24.4209 98.5227 25.4008 97.961 26.3625L97.6787 26.8457Z" fill="#3A475C"/>
<path fill-rule="evenodd" clip-rule="evenodd" d="M112.678 23.7307C112.678 23.2236 112.577 22.7455 112.388 22.2964C112.185 21.8472 111.91 21.4561 111.548 21.1228C111.186 20.7896 110.766 20.5143 110.273 20.326C109.766 20.1376 109.215 20.0362 108.621 20.0362H104.202V30.178H105.724V27.4252H108.621C109.215 27.4252 109.766 27.3238 110.273 27.1355C110.766 26.9471 111.186 26.6718 111.548 26.3386C111.91 26.0054 112.185 25.6142 112.388 25.1651C112.577 24.7159 112.678 24.2378 112.678 23.7307ZM111.157 23.7307C111.157 24.4262 110.939 24.9912 110.49 25.4114C110.041 25.8315 109.418 26.0488 108.621 26.0488H105.724V21.4126H108.621C109.418 21.4126 110.041 21.6299 110.49 22.0501C110.939 22.4702 111.157 23.0353 111.157 23.7307Z" fill="#3A475C"/>
<path d="M118.05 21.4126H114.645V20.0362H122.976V21.4126H119.571V30.178H118.05V21.4126Z" fill="#3A475C"/>
<path fill-rule="evenodd" clip-rule="evenodd" d="M135.573 25.1071C135.573 24.3392 135.428 23.6293 135.138 22.9628C134.848 22.2964 134.457 21.7168 133.965 21.2098C133.472 20.7172 132.893 20.326 132.241 20.0362C131.589 19.7464 130.879 19.6016 130.14 19.6016C129.401 19.6016 128.691 19.7464 128.039 20.0362C127.387 20.326 126.807 20.7172 126.315 21.2098C125.822 21.7168 125.431 22.2964 125.141 22.9628C124.852 23.6293 124.707 24.3392 124.707 25.1071C124.707 25.875 124.852 26.5849 125.141 27.2514C125.431 27.9178 125.822 28.4974 126.315 28.99C126.807 29.497 127.387 29.8882 128.039 30.178C128.691 30.4678 129.401 30.6126 130.14 30.6126C130.879 30.6126 131.589 30.4678 132.241 30.178C132.893 29.8882 133.472 29.497 133.965 28.99C134.457 28.4974 134.848 27.9178 135.138 27.2514C135.428 26.5849 135.573 25.875 135.573 25.1071ZM126.228 25.1071C126.228 24.5276 126.329 23.9915 126.547 23.4844C126.764 22.9773 127.039 22.5427 127.401 22.166C127.764 21.8038 128.169 21.514 128.647 21.2967C129.126 21.0794 129.618 20.9779 130.14 20.9779C130.661 20.9779 131.154 21.0794 131.632 21.2967C132.11 21.514 132.516 21.8038 132.878 22.166C133.24 22.5427 133.516 22.9773 133.733 23.4844C133.95 23.9915 134.052 24.5276 134.052 25.1071C134.052 25.6866 133.95 26.2227 133.733 26.7298C133.516 27.2369 133.24 27.6715 132.878 28.0337C132.516 28.4104 132.11 28.7002 131.632 28.9175C131.154 29.1348 130.661 29.2363 130.14 29.2363C129.618 29.2363 129.126 29.1348 128.647 28.9175C128.169 28.7002 127.764 28.4104 127.401 28.0337C127.039 27.6715 126.764 27.2369 126.547 26.7298C126.329 26.2227 126.228 25.6866 126.228 25.1071Z" fill="#3A475C"/>
<path d="M145.227 30.3229C144.676 30.5112 144.067 30.6126 143.401 30.6126C142.691 30.6126 142.025 30.4678 141.387 30.178C140.75 29.8882 140.185 29.497 139.707 28.99C139.214 28.4974 138.823 27.9178 138.547 27.2514C138.258 26.5849 138.113 25.875 138.113 25.1071C138.113 24.3392 138.258 23.6293 138.547 22.9628C138.823 22.2964 139.214 21.7168 139.707 21.2098C140.185 20.7172 140.75 20.326 141.387 20.0362C142.025 19.7464 142.691 19.6016 143.401 19.6016C144.039 19.6016 144.618 19.6885 145.125 19.8768C145.632 20.0652 146.096 20.297 146.487 20.6013C146.878 20.9055 147.197 21.2387 147.458 21.6154C147.719 22.0066 147.907 22.3978 148.037 22.789L146.516 23.0063C146.415 22.76 146.27 22.4992 146.081 22.2529C145.893 22.0066 145.676 21.7893 145.429 21.6009C145.169 21.4126 144.864 21.2677 144.531 21.1518C144.198 21.0359 143.821 20.9779 143.401 20.9779C142.908 20.9779 142.43 21.0794 141.981 21.2967C141.532 21.514 141.126 21.8038 140.779 22.166C140.431 22.5427 140.156 22.9773 139.953 23.4844C139.735 23.9915 139.634 24.5276 139.634 25.1071C139.634 25.6866 139.735 26.2227 139.953 26.7298C140.156 27.2369 140.431 27.6715 140.779 28.0337C141.126 28.4104 141.532 28.7002 141.981 28.9175C142.43 29.1348 142.908 29.2363 143.401 29.2363C143.85 29.2363 144.27 29.1783 144.633 29.0479C144.995 28.9175 145.313 28.7581 145.589 28.5408C145.864 28.338 146.11 28.1062 146.313 27.8309C146.516 27.5556 146.675 27.2803 146.806 26.9906L148.327 27.2079C148.197 27.6281 147.994 28.0337 147.719 28.4394C147.443 28.8451 147.096 29.2073 146.675 29.526C146.255 29.8593 145.777 30.12 145.227 30.3229Z" fill="#3A475C"/>
<path d="M155.349 29.2363C154.972 29.2363 154.624 29.1638 154.306 29.0334C153.987 28.903 153.712 28.7147 153.48 28.4684C153.248 28.2221 153.074 27.9323 152.944 27.5846C152.813 27.2369 152.741 26.8457 152.741 26.411V20.0362H151.22V26.411C151.22 27.0485 151.321 27.6281 151.524 28.1351C151.712 28.6567 152.002 29.1059 152.364 29.4681C152.726 29.8303 153.161 30.12 153.668 30.3229C154.175 30.5112 154.726 30.6126 155.349 30.6126C155.972 30.6126 156.537 30.5112 157.044 30.3229C157.551 30.12 157.986 29.8303 158.348 29.4681C158.71 29.1059 158.985 28.6567 159.188 28.1351C159.376 27.6281 159.478 27.0485 159.478 26.411V20.0362H157.957V26.411C157.957 26.8457 157.899 27.2369 157.768 27.5846C157.638 27.9323 157.45 28.2221 157.218 28.4684C156.986 28.7147 156.711 28.903 156.392 29.0334C156.073 29.1638 155.725 29.2363 155.349 29.2363Z" fill="#3A475C"/>
<path fill-rule="evenodd" clip-rule="evenodd" d="M167.808 26.8457H164.548V30.178H163.027V20.0362H167.692C168.257 20.0362 168.779 20.1231 169.242 20.2825C169.706 20.4564 170.097 20.6882 170.43 20.9924C170.749 21.2967 170.996 21.6589 171.169 22.0791C171.343 22.4992 171.43 22.9484 171.43 23.441C171.43 24.0639 171.314 24.571 171.097 24.9622C170.865 25.3679 170.619 25.6866 170.344 25.9184C170.025 26.1937 169.663 26.411 169.257 26.5559L171.285 30.178H169.692L167.808 26.8457ZM164.548 25.4693H167.663C168.011 25.4693 168.33 25.4114 168.605 25.2954C168.88 25.194 169.112 25.0491 169.3 24.8608C169.489 24.6725 169.648 24.4551 169.75 24.2088C169.851 23.9625 169.909 23.7162 169.909 23.441C169.909 23.1512 169.851 22.8759 169.75 22.6296C169.648 22.3833 169.489 22.1805 169.3 21.9921C169.112 21.8038 168.88 21.6589 168.605 21.5575C168.33 21.4561 168.025 21.4126 167.692 21.4126H164.548V25.4693Z" fill="#3A475C"/>
<path fill-rule="evenodd" clip-rule="evenodd" d="M176.073 26.8457H179.332L181.216 30.178H182.81L180.781 26.5559C181.187 26.411 181.549 26.1937 181.868 25.9184C182.143 25.6866 182.39 25.3679 182.621 24.9622C182.839 24.571 182.955 24.0639 182.955 23.441C182.955 22.9484 182.868 22.4992 182.694 22.0791C182.52 21.6589 182.274 21.2967 181.955 20.9924C181.622 20.6882 181.23 20.4564 180.767 20.2825C180.303 20.1231 179.782 20.0362 179.217 20.0362H174.551V30.178H176.073V26.8457ZM179.188 25.4693H176.073V21.4126H179.217C179.55 21.4126 179.854 21.4561 180.129 21.5575C180.405 21.6589 180.636 21.8038 180.825 21.9921C181.013 22.1805 181.172 22.3833 181.274 22.6296C181.375 22.8759 181.433 23.1512 181.433 23.441C181.433 23.7162 181.375 23.9625 181.274 24.2088C181.172 24.4551 181.013 24.6725 180.825 24.8608C180.636 25.0491 180.405 25.194 180.129 25.2954C179.854 25.4114 179.535 25.4693 179.188 25.4693Z" fill="#3A475C"/>
<path d="M187.597 28.8016H193.537V30.178H186.076V20.0362H193.537V21.4126H187.597V24.3827H192.306V25.7591H187.597V28.8016Z" fill="#3A475C"/>
<path d="M203.032 27.6425L198.106 20.0362H196.44V30.178H197.961V22.5717H198.106L203.032 30.178H204.698V20.0362H203.177V27.6425H203.032Z" fill="#3A475C"/>
<path d="M214.854 30.3229C214.303 30.5112 213.695 30.6126 213.028 30.6126C212.319 30.6126 211.652 30.4678 211.015 30.178C210.377 29.8882 209.812 29.497 209.334 28.99C208.841 28.4974 208.45 27.9178 208.175 27.2514C207.885 26.5849 207.74 25.875 207.74 25.1071C207.74 24.3392 207.885 23.6293 208.175 22.9628C208.45 22.2964 208.841 21.7168 209.334 21.2098C209.812 20.7172 210.377 20.326 211.015 20.0362C211.652 19.7464 212.319 19.6016 213.028 19.6016C213.666 19.6016 214.245 19.6885 214.753 19.8768C215.26 20.0652 215.723 20.297 216.114 20.6013C216.506 20.9055 216.824 21.2387 217.085 21.6154C217.346 22.0066 217.534 22.3978 217.665 22.789L216.143 23.0063C216.042 22.76 215.897 22.4992 215.709 22.2529C215.52 22.0066 215.303 21.7893 215.057 21.6009C214.796 21.4126 214.492 21.2677 214.159 21.1518C213.825 21.0359 213.449 20.9779 213.028 20.9779C212.536 20.9779 212.058 21.0794 211.609 21.2967C211.159 21.514 210.754 21.8038 210.406 22.166C210.058 22.5427 209.783 22.9773 209.58 23.4844C209.363 23.9915 209.262 24.5276 209.262 25.1071C209.262 25.6866 209.363 26.2227 209.58 26.7298C209.783 27.2369 210.058 27.6715 210.406 28.0337C210.754 28.4104 211.159 28.7002 211.609 28.9175C212.058 29.1348 212.536 29.2363 213.028 29.2363C213.478 29.2363 213.898 29.1783 214.26 29.0479C214.622 28.9175 214.941 28.7581 215.216 28.5408C215.491 28.338 215.738 28.1062 215.941 27.8309C216.143 27.5556 216.303 27.2803 216.433 26.9906L217.954 27.2079C217.824 27.6281 217.621 28.0337 217.346 28.4394C217.071 28.8451 216.723 29.2073 216.303 29.526C215.883 29.8593 215.405 30.12 214.854 30.3229Z" fill="#3A475C"/>
<path d="M222.368 20.0362H220.847V30.178H222.368V20.0362Z" fill="#3A475C"/>
<path d="M227.441 28.8016H233.381V30.178H225.92V20.0362H233.381V21.4126H227.441V24.3827H232.15V25.7591H227.441V28.8016Z" fill="#3A475C"/>
<path d="M242.369 27.3528C242.369 27.5846 242.311 27.8164 242.195 28.0337C242.079 28.2655 241.92 28.4684 241.702 28.6422C241.485 28.8306 241.239 28.9755 240.935 29.0769C240.63 29.1783 240.283 29.2363 239.906 29.2363C239.529 29.2363 239.196 29.1783 238.892 29.0769C238.587 28.9755 238.312 28.8451 238.095 28.6567C237.878 28.4829 237.689 28.28 237.53 28.0337C237.37 27.8019 237.24 27.5556 237.153 27.2803L235.632 27.4977C235.777 27.9468 235.965 28.367 236.211 28.7437C236.458 29.1348 236.747 29.4536 237.095 29.7289C237.443 30.0041 237.849 30.2215 238.312 30.3808C238.776 30.5402 239.312 30.6126 239.906 30.6126C240.529 30.6126 241.079 30.5257 241.572 30.3519C242.065 30.1635 242.485 29.9317 242.833 29.6274C243.166 29.3377 243.427 28.99 243.615 28.5988C243.803 28.2076 243.89 27.7874 243.89 27.3528C243.89 26.9036 243.803 26.527 243.629 26.2227C243.441 25.9184 243.209 25.6432 242.934 25.4258C242.644 25.2085 242.311 25.0347 241.949 24.8898C241.572 24.7449 241.195 24.6145 240.819 24.4986C240.566 24.4332 240.32 24.3617 240.08 24.292L240.079 24.2918L240.077 24.2913C239.946 24.2532 239.816 24.2156 239.689 24.1799C239.312 24.0784 238.979 23.948 238.703 23.8176C238.414 23.6873 238.182 23.5279 238.008 23.3395C237.82 23.1512 237.733 22.9194 237.733 22.6441C237.733 22.4413 237.791 22.2384 237.892 22.0356C237.993 21.8472 238.153 21.6589 238.341 21.4995C238.529 21.3402 238.747 21.2242 239.022 21.1228C239.283 21.0214 239.573 20.9779 239.906 20.9779C240.254 20.9779 240.558 21.0214 240.819 21.1083C241.079 21.1953 241.311 21.3112 241.514 21.4705C241.702 21.6299 241.862 21.8038 241.992 22.0211C242.123 22.2384 242.224 22.4702 242.296 22.7165L243.818 22.4992C243.716 22.108 243.557 21.7313 243.34 21.3691C243.122 21.0214 242.847 20.7172 242.514 20.4564C242.181 20.1956 241.804 19.9927 241.369 19.8334C240.935 19.674 240.442 19.6016 239.906 19.6016C239.341 19.6016 238.834 19.6885 238.385 19.8479C237.935 20.0217 237.544 20.2535 237.226 20.5288C236.892 20.8041 236.646 21.1373 236.472 21.4995C236.298 21.8617 236.211 22.2529 236.211 22.6441C236.211 23.0932 236.298 23.4844 236.487 23.7887C236.661 24.1074 236.892 24.3827 237.182 24.6C237.457 24.8173 237.791 25.0057 238.167 25.1506C238.529 25.2954 238.906 25.4258 239.297 25.5417C239.674 25.6576 240.051 25.759 240.427 25.8604C240.789 25.9618 241.123 26.0778 241.413 26.2082C241.688 26.3386 241.92 26.498 242.108 26.6718C242.282 26.8602 242.369 27.0775 242.369 27.3528Z" fill="#3A475C"/>
<path fill-rule="evenodd" clip-rule="evenodd" d="M95.5491 36.8814L97.4607 44.64H96.6735L96.1676 42.6722H91.6698L91.1638 44.64H90.3767L92.2883 36.8814H95.5491ZM92.9067 37.6123L91.8385 41.9413H95.9989L94.9307 37.6123H92.9067Z" fill="#3A475C"/>
<path d="M102.966 44.9773C103.472 44.9773 103.922 44.9098 104.338 44.7637C104.743 44.6175 105.103 44.4263 105.418 44.1902C105.721 43.9541 105.98 43.6842 106.194 43.3806C106.407 43.077 106.565 42.7734 106.677 42.4473L105.89 42.3349C105.778 42.5935 105.631 42.8296 105.463 43.0545C105.294 43.2907 105.092 43.4931 104.855 43.6617C104.619 43.8416 104.338 43.9878 104.023 44.089C103.709 44.1902 103.36 44.2464 102.966 44.2464C102.562 44.2464 102.168 44.1565 101.786 43.9766C101.392 43.7967 101.055 43.5493 100.751 43.2344C100.448 42.9196 100.212 42.5485 100.032 42.1212C99.8517 41.7052 99.7618 41.2442 99.7618 40.7607C99.7618 40.2772 99.8517 39.8274 100.032 39.4001C100.212 38.9841 100.448 38.613 100.751 38.2982C101.055 37.9833 101.392 37.7359 101.786 37.5448C102.168 37.3649 102.562 37.2749 102.966 37.2749C103.337 37.2749 103.664 37.3199 103.956 37.4211C104.248 37.5223 104.507 37.6572 104.732 37.8259C104.957 37.9946 105.148 38.1745 105.305 38.3881C105.463 38.6018 105.586 38.8042 105.665 39.0178L106.452 38.9054C106.373 38.6243 106.227 38.3431 106.036 38.062C105.845 37.7809 105.598 37.5335 105.305 37.3087C105.002 37.0838 104.664 36.9039 104.271 36.7577C103.877 36.6115 103.45 36.544 102.966 36.544C102.449 36.544 101.954 36.6565 101.471 36.8814C100.987 37.1063 100.56 37.4099 100.189 37.7922C99.818 38.1745 99.5257 38.6243 99.312 39.1302C99.0871 39.6362 98.9747 40.1872 98.9747 40.7607C98.9747 41.3341 99.0871 41.8851 99.312 42.3911C99.5257 42.8971 99.818 43.3469 100.189 43.7292C100.56 44.1115 100.987 44.4151 101.471 44.64C101.954 44.8649 102.449 44.9773 102.966 44.9773Z" fill="#3A475C"/>
<path d="M110.841 37.6123H108.087V36.8814H114.383V37.6123H111.629V44.64H110.841V37.6123Z" fill="#3A475C"/>
<path d="M117.308 36.8814H116.521V44.64H117.308V36.8814Z" fill="#3A475C"/>
<path fill-rule="evenodd" clip-rule="evenodd" d="M120.116 42.3911C119.891 41.8851 119.779 41.3341 119.779 40.7607C119.779 40.1872 119.891 39.6475 120.116 39.1415C120.329 38.6355 120.633 38.1857 121.015 37.7922C121.386 37.4099 121.825 37.1063 122.32 36.8814C122.814 36.6565 123.332 36.544 123.883 36.544C124.434 36.544 124.951 36.6565 125.446 36.8814C125.94 37.1063 126.379 37.4099 126.761 37.7922C127.132 38.1745 127.436 38.6243 127.661 39.1302C127.874 39.6362 127.987 40.1872 127.987 40.7607C127.987 41.3341 127.874 41.8851 127.661 42.3911C127.436 42.8971 127.132 43.3469 126.761 43.7292C126.379 44.1115 125.94 44.4151 125.446 44.64C124.951 44.8649 124.434 44.9773 123.883 44.9773C123.332 44.9773 122.814 44.8649 122.32 44.64C121.825 44.4151 121.386 44.1115 121.015 43.7292C120.633 43.3469 120.329 42.8971 120.116 42.3911ZM126.93 42.11C127.11 41.694 127.2 41.2442 127.2 40.7607C127.2 40.2772 127.11 39.8274 126.93 39.4001C126.739 38.9841 126.503 38.613 126.199 38.2982C125.895 37.9833 125.536 37.7359 125.142 37.5448C124.737 37.3649 124.321 37.2749 123.883 37.2749C123.444 37.2749 123.028 37.3649 122.635 37.5448C122.23 37.7359 121.87 37.9833 121.578 38.2982C121.274 38.613 121.027 38.9841 120.847 39.4001C120.656 39.8274 120.566 40.2772 120.566 40.7607C120.566 41.2442 120.656 41.694 120.847 42.11C121.027 42.5373 121.274 42.9084 121.578 43.2232C121.881 43.538 122.23 43.7854 122.635 43.9653C123.028 44.1565 123.444 44.2464 123.883 44.2464C124.321 44.2464 124.737 44.1565 125.142 43.9653C125.536 43.7854 125.895 43.538 126.199 43.2232C126.503 42.9084 126.739 42.5373 126.93 42.11Z" fill="#3A475C"/>
<path d="M135.741 43.2907L131.299 36.8814H130.456V44.64H131.243V38.2307H131.299L135.741 44.64H136.584V36.8814H135.797V43.2907H135.741Z" fill="#3A475C"/>
<path fill-rule="evenodd" clip-rule="evenodd" d="M144.009 36.8814L145.92 44.64H145.133L144.627 42.6722H140.129L139.623 44.64H138.836L140.748 36.8814H144.009ZM141.366 37.6123L140.298 41.9413H144.459L143.39 37.6123H141.366Z" fill="#3A475C"/>
<path fill-rule="evenodd" clip-rule="evenodd" d="M151.485 36.8814H148.168V44.64H152.048C152.43 44.64 152.778 44.5838 153.093 44.4601C153.397 44.3364 153.667 44.179 153.892 43.9766C154.105 43.7742 154.274 43.538 154.398 43.2569C154.521 42.9871 154.578 42.6947 154.578 42.3911C154.578 42.1662 154.555 41.9638 154.499 41.7839C154.443 41.6152 154.375 41.4578 154.285 41.3229C154.195 41.1992 154.094 41.0868 153.982 40.9856C153.869 40.8844 153.757 40.8057 153.644 40.7382C153.374 40.5808 153.071 40.4796 152.722 40.4233V40.3671C152.913 40.3109 153.082 40.2097 153.228 40.0748C153.352 39.9623 153.476 39.8049 153.577 39.6138C153.678 39.4226 153.734 39.164 153.734 38.8491C153.734 38.5793 153.678 38.3207 153.577 38.0845C153.464 37.8484 153.307 37.646 153.116 37.4661C152.925 37.2862 152.689 37.14 152.407 37.0388C152.126 36.9376 151.823 36.8814 151.485 36.8814ZM148.955 37.6123H151.485C151.935 37.6123 152.295 37.7359 152.554 37.9721C152.812 38.2195 152.947 38.5118 152.947 38.8491C152.947 39.2314 152.812 39.5463 152.554 39.7824C152.295 40.0186 151.935 40.1422 151.485 40.1422H148.955V37.6123ZM152.048 43.9091H148.955V40.8731H152.048C152.317 40.8731 152.565 40.9069 152.778 40.9856C152.981 41.0643 153.172 41.1767 153.318 41.3117C153.464 41.4578 153.588 41.6152 153.667 41.7952C153.746 41.9863 153.79 42.1775 153.79 42.3911C153.79 42.6048 153.746 42.7959 153.667 42.9758C153.588 43.167 153.464 43.3244 153.318 43.4593C153.172 43.6055 152.992 43.7067 152.778 43.7854C152.565 43.8641 152.317 43.9091 152.048 43.9091Z" fill="#3A475C"/>
<path d="M157.724 36.8814V43.9091H162.222V44.64H156.937V36.8814H157.724Z" fill="#3A475C"/>
<path d="M169.92 43.9091H165.142V41.098H168.908V40.3671H165.142V37.6123H169.92V36.8814H164.354V44.64H169.92V43.9091Z" fill="#3A475C"/>
<path d="M175.314 36.8814H176.101V44.64H175.314V36.8814Z" fill="#3A475C"/>
<path d="M184.25 43.2907L179.808 36.8814H178.965V44.64H179.752V38.2307H179.808L184.25 44.64H185.093V36.8814H184.306V43.2907H184.25Z" fill="#3A475C"/>
<path d="M192.653 43.2232C192.754 43.032 192.799 42.8296 192.799 42.616C192.799 42.3574 192.732 42.1437 192.597 41.9751C192.451 41.8064 192.271 41.6715 192.035 41.5478C191.798 41.4241 191.54 41.3229 191.247 41.2329C191.022 41.1723 190.797 41.1051 190.567 41.0363C190.498 41.0157 190.429 40.995 190.359 40.9743C190.056 40.8844 189.752 40.7832 189.46 40.6707C189.167 40.5583 188.909 40.4121 188.672 40.2434C188.436 40.0748 188.256 39.8724 188.122 39.625C187.975 39.3889 187.908 39.0853 187.908 38.7367C187.908 38.4556 187.975 38.1857 188.099 37.9159C188.223 37.6572 188.414 37.4211 188.65 37.2187C188.886 37.0163 189.178 36.8476 189.527 36.724C189.864 36.6003 190.247 36.544 190.663 36.544C191.068 36.544 191.427 36.6003 191.753 36.7015C192.068 36.8027 192.349 36.9488 192.586 37.1288C192.822 37.3199 193.024 37.5335 193.193 37.7809C193.361 38.0283 193.485 38.2869 193.586 38.568L192.799 38.7367C192.698 38.5118 192.597 38.3094 192.473 38.1295C192.349 37.9496 192.203 37.7922 192.035 37.6685C191.866 37.5448 191.663 37.4436 191.439 37.3761C191.214 37.3087 190.955 37.2749 190.663 37.2749C190.359 37.2749 190.078 37.3199 189.842 37.3986C189.595 37.4773 189.392 37.5898 189.223 37.7247C189.055 37.8709 188.92 38.0283 188.83 38.197C188.74 38.3769 188.695 38.5568 188.695 38.7367C188.695 39.074 188.819 39.3326 189.055 39.5238C189.291 39.715 189.595 39.8836 189.966 40.0073C190.325 40.1422 190.719 40.2659 191.146 40.3784C191.562 40.4908 191.956 40.637 192.327 40.8057C192.687 40.9856 192.99 41.2105 193.226 41.4916C193.463 41.7727 193.586 42.155 193.586 42.616C193.586 42.9196 193.519 43.2232 193.384 43.5043C193.249 43.7854 193.058 44.044 192.799 44.2577C192.541 44.4713 192.226 44.6512 191.855 44.7862C191.484 44.9098 191.068 44.9773 190.607 44.9773C190.168 44.9773 189.786 44.9211 189.437 44.7974C189.089 44.6737 188.785 44.5163 188.526 44.3027C188.268 44.1003 188.043 43.8529 187.874 43.5718C187.694 43.2907 187.559 42.9983 187.458 42.6722L188.245 42.5598C188.346 42.7959 188.459 43.0208 188.605 43.2232C188.751 43.4368 188.92 43.6167 189.111 43.7629C189.302 43.9091 189.527 44.0328 189.774 44.1115C190.022 44.2015 190.303 44.2464 190.607 44.2464C190.955 44.2464 191.27 44.2015 191.551 44.1115C191.821 44.0215 192.046 43.8979 192.237 43.7404C192.417 43.5943 192.552 43.4143 192.653 43.2232Z" fill="#3A475C"/>
<path d="M196.85 36.8814H196.063V44.64H196.85V36.8814Z" fill="#3A475C"/>
<path d="M202.132 43.9766C202.514 44.1565 202.907 44.2464 203.312 44.2464C203.728 44.2464 204.133 44.1677 204.504 44.0103C204.875 43.8641 205.19 43.6617 205.471 43.4031C205.741 43.1445 205.955 42.8634 206.112 42.5373C206.269 42.2112 206.348 41.8851 206.348 41.5478H203.762V40.8169H207.135V41.1542C207.135 41.7052 207.045 42.2112 206.854 42.6722C206.663 43.1445 206.393 43.5493 206.056 43.8866C205.707 44.2352 205.302 44.4938 204.841 44.6962C204.369 44.8874 203.863 44.9773 203.312 44.9773C202.784 44.9773 202.289 44.8649 201.805 44.6512C201.322 44.4263 200.906 44.1227 200.535 43.7404C200.164 43.3581 199.871 42.9084 199.658 42.4024C199.433 41.8964 199.32 41.3454 199.32 40.7607C199.32 40.176 199.433 39.625 199.658 39.119C199.871 38.613 200.164 38.1632 200.535 37.7809C200.906 37.3986 201.322 37.095 201.805 36.8701C202.289 36.6565 202.784 36.544 203.312 36.544C203.796 36.544 204.223 36.6115 204.617 36.7577C205.01 36.9039 205.347 37.0838 205.651 37.3087C205.943 37.5335 206.191 37.7809 206.382 38.062C206.573 38.3431 206.719 38.6243 206.798 38.9054L206.011 39.0178C205.932 38.8042 205.808 38.6018 205.651 38.3881C205.494 38.1745 205.302 37.9946 205.078 37.8259C204.853 37.6572 204.594 37.5223 204.302 37.4211C204.009 37.3199 203.683 37.2749 203.312 37.2749C202.907 37.2749 202.514 37.3649 202.132 37.5448C201.738 37.7359 201.401 37.9833 201.097 38.2982C200.793 38.613 200.557 38.9841 200.377 39.4001C200.198 39.8274 200.108 40.2772 200.108 40.7607C200.108 41.2442 200.198 41.7052 200.377 42.1212C200.557 42.5485 200.793 42.9196 201.097 43.2344C201.401 43.5493 201.738 43.7967 202.132 43.9766Z" fill="#3A475C"/>
<path d="M209.613 44.64H210.401V41.098H214.842V44.64H215.629V36.8814H214.842V40.3671H210.401V36.8814H209.613V44.64Z" fill="#3A475C"/>
<path d="M220.516 37.6123H217.761V36.8814H224.058V37.6123H221.303V44.64H220.516V37.6123Z" fill="#3A475C"/>
<path d="M69.6692 40.0782L89.1119 40.0782V40.8883H69.6692L69.6692 40.0782Z" fill="#3A475C"/>
<path d="M225.211 40.0782L244.654 40.0782V40.8883H225.211V40.0782Z" fill="#3A475C"/>
</svg>
