<svg width="978" height="978" viewBox="0 0 978 978" fill="none" xmlns="http://www.w3.org/2000/svg">
<path fill-rule="evenodd" clip-rule="evenodd" d="M489 978C759.067 978 978 759.067 978 489C978 218.933 759.067 0 489 0C218.933 0 0 218.933 0 489C0 759.067 218.933 978 489 978ZM287 139C205.262 139 139 205.262 139 287V691C139 772.738 205.262 839 287 839H309.889C365.539 839 414.015 808.285 439.29 762.884L520.111 682.063V691C520.111 772.738 586.373 839 668.111 839H691C772.738 839 839 772.738 839 691V287C839 205.262 772.738 139 691 139H668.111C615.124 139 568.641 166.845 542.496 208.701L457.889 293.308V287C457.889 205.262 391.627 139 309.889 139H287Z" fill="#366CE5"/>
<circle cx="489" cy="489" r="159" fill="#366CE5"/>
</svg>