<svg width="64" height="64" viewBox="0 0 64 64" fill="none" xmlns="http://www.w3.org/2000/svg">
<path fill-rule="evenodd" clip-rule="evenodd" d="M32 64C49.6731 64 64 49.6731 64 32C64 14.3269 49.6731 0 32 0C14.3269 0 0 14.3269 0 32C0 49.6731 14.3269 64 32 64Z" fill="#165BE0"/>
<path fill-rule="evenodd" clip-rule="evenodd" d="M32 12C30.3431 12 29 13.3431 29 15V29H15C13.3431 29 12 30.3431 12 32C12 33.6569 13.3431 35 15 35H29V49C29 50.6569 30.3431 52 32 52C33.6569 52 35 50.6569 35 49V35H49C50.6569 35 52 33.6569 52 32C52 30.3431 50.6569 29 49 29H35V15C35 13.3431 33.6569 12 32 12Z" fill="white"/>
</svg>
