<svg width="27" height="48" viewBox="0 0 27 48" fill="none" xmlns="http://www.w3.org/2000/svg">
<path opacity="0.5" fill-rule="evenodd" clip-rule="evenodd" d="M1.6709 13.1266L2.42483 13.8143C2.87771 14.2342 3.09639 14.0954 3.38252 13.9138C3.56368 13.7988 3.77187 13.6667 4.08366 13.6483C4.49687 13.6377 4.88686 13.6941 5.26407 13.7487C5.72593 13.8155 6.16862 13.8796 6.61132 13.8143C6.96668 13.7619 7.32205 13.6216 7.67742 13.4812C8.12631 13.3039 8.57519 13.1266 9.02408 13.1266C9.49478 13.1266 9.96549 13.3216 10.4592 13.5261C10.8091 13.671 11.1705 13.8207 11.5517 13.9092C12.0544 14.0277 12.5571 14.0074 13.0597 13.987C13.3613 13.9747 13.6629 13.9625 13.9645 13.9803C14.2862 13.9993 14.6079 14.0486 14.9296 14.0979C15.4122 14.1719 15.8947 14.2459 16.3773 14.2174C17.1617 14.1943 18.0555 13.8779 18.8453 13.5983C18.8653 13.5912 18.8851 13.5842 18.9049 13.5772C19.7092 13.2926 20.5134 13.0555 21.3177 13.008C22.1219 12.9606 22.9262 13.1266 23.7304 13.4112C23.9805 13.4886 24.2221 13.5748 24.4575 13.6588C25.0873 13.8835 25.6727 14.0924 26.2581 14.0752V15H25.9294L25.0709 18L22.7035 21.7427L18.5985 24.5L13.6198 26L9.13897 24.5L4.5356 21.7427L2.16877 18L1.73951 15H1.6709V14.5205V13.1266Z" fill="#F5F5FB"/>
<path d="M26.5641 13C26.5641 16.4478 25.2003 19.7544 22.7727 22.1924C20.3451 24.6304 17.0526 26 13.6195 26C10.1863 26 6.8938 24.6304 4.46621 22.1924C2.03861 19.7544 0.674805 16.4478 0.674805 13H1.64744C1.64744 16.1888 2.90877 19.2469 5.15396 21.5017C7.39915 23.7565 10.4443 25.0232 13.6195 25.0232C16.7946 25.0232 19.8398 23.7565 22.085 21.5017C24.3302 19.2469 25.5915 16.1888 25.5915 13H26.5641Z" fill="#F5F5FB"/>
<path d="M4.76309 33.628H6.70709C7.04909 33.628 7.36109 33.664 7.64309 33.736C7.92509 33.802 8.16509 33.907 8.3631 34.051C8.5611 34.195 8.7141 34.378 8.82209 34.6C8.93009 34.822 8.98409 35.089 8.98409 35.401C8.98409 35.719 8.92409 35.992 8.80409 36.22C8.6901 36.448 8.5281 36.634 8.3181 36.778C8.1141 36.922 7.86809 37.03 7.58009 37.102C7.29809 37.168 6.99209 37.201 6.66209 37.201H5.65409V40H4.76309V33.628ZM5.65409 36.445H6.59909C6.81509 36.445 7.01309 36.427 7.19309 36.391C7.37909 36.349 7.53809 36.289 7.67009 36.211C7.80209 36.127 7.90409 36.019 7.97609 35.887C8.04809 35.755 8.08409 35.593 8.08409 35.401C8.08409 35.209 8.04509 35.05 7.9671 34.924C7.89509 34.792 7.79309 34.687 7.66109 34.609C7.53509 34.525 7.38209 34.468 7.20209 34.438C7.02209 34.402 6.82709 34.384 6.61709 34.384H5.65409V36.445ZM13.3441 37.858C13.3441 38.188 13.2841 38.491 13.1641 38.767C13.0501 39.043 12.8881 39.283 12.6781 39.487C12.4741 39.685 12.2311 39.841 11.9491 39.955C11.6671 40.063 11.3641 40.117 11.0401 40.117C10.7161 40.117 10.4131 40.063 10.1311 39.955C9.84907 39.841 9.60607 39.685 9.40207 39.487C9.19807 39.283 9.03607 39.043 8.91607 38.767C8.80207 38.491 8.74507 38.188 8.74507 37.858C8.74507 37.528 8.80207 37.228 8.91607 36.958C9.03607 36.682 9.19807 36.445 9.40207 36.247C9.60607 36.049 9.84907 35.896 10.1311 35.788C10.4131 35.674 10.7161 35.617 11.0401 35.617C11.3641 35.617 11.6671 35.674 11.9491 35.788C12.2311 35.896 12.4741 36.049 12.6781 36.247C12.8881 36.445 13.0501 36.682 13.1641 36.958C13.2841 37.228 13.3441 37.528 13.3441 37.858ZM12.4621 37.858C12.4621 37.654 12.4291 37.459 12.3631 37.273C12.3031 37.087 12.2131 36.925 12.0931 36.787C11.9731 36.643 11.8231 36.529 11.6431 36.445C11.4691 36.361 11.2681 36.319 11.0401 36.319C10.8121 36.319 10.6081 36.361 10.4281 36.445C10.2541 36.529 10.1071 36.643 9.98707 36.787C9.86707 36.925 9.77407 37.087 9.70807 37.273C9.64807 37.459 9.61807 37.654 9.61807 37.858C9.61807 38.062 9.64807 38.257 9.70807 38.443C9.77407 38.629 9.86707 38.794 9.98707 38.938C10.1071 39.082 10.2541 39.196 10.4281 39.28C10.6081 39.364 10.8121 39.406 11.0401 39.406C11.2681 39.406 11.4691 39.364 11.6431 39.28C11.8231 39.196 11.9731 39.082 12.0931 38.938C12.2131 38.794 12.3031 38.629 12.3631 38.443C12.4291 38.257 12.4621 38.062 12.4621 37.858ZM18.3795 37.858C18.3795 38.188 18.3195 38.491 18.1995 38.767C18.0855 39.043 17.9235 39.283 17.7135 39.487C17.5095 39.685 17.2665 39.841 16.9845 39.955C16.7025 40.063 16.3995 40.117 16.0755 40.117C15.7515 40.117 15.4485 40.063 15.1665 39.955C14.8845 39.841 14.6415 39.685 14.4375 39.487C14.2335 39.283 14.0715 39.043 13.9515 38.767C13.8375 38.491 13.7805 38.188 13.7805 37.858C13.7805 37.528 13.8375 37.228 13.9515 36.958C14.0715 36.682 14.2335 36.445 14.4375 36.247C14.6415 36.049 14.8845 35.896 15.1665 35.788C15.4485 35.674 15.7515 35.617 16.0755 35.617C16.3995 35.617 16.7025 35.674 16.9845 35.788C17.2665 35.896 17.5095 36.049 17.7135 36.247C17.9235 36.445 18.0855 36.682 18.1995 36.958C18.3195 37.228 18.3795 37.528 18.3795 37.858ZM17.4975 37.858C17.4975 37.654 17.4645 37.459 17.3985 37.273C17.3385 37.087 17.2485 36.925 17.1285 36.787C17.0085 36.643 16.8585 36.529 16.6785 36.445C16.5045 36.361 16.3035 36.319 16.0755 36.319C15.8475 36.319 15.6435 36.361 15.4635 36.445C15.2895 36.529 15.1425 36.643 15.0225 36.787C14.9025 36.925 14.8095 37.087 14.7435 37.273C14.6835 37.459 14.6535 37.654 14.6535 37.858C14.6535 38.062 14.6835 38.257 14.7435 38.443C14.8095 38.629 14.9025 38.794 15.0225 38.938C15.1425 39.082 15.2895 39.196 15.4635 39.28C15.6435 39.364 15.8475 39.406 16.0755 39.406C16.3035 39.406 16.5045 39.364 16.6785 39.28C16.8585 39.196 17.0085 39.082 17.1285 38.938C17.2485 38.794 17.3385 38.629 17.3985 38.443C17.4645 38.257 17.4975 38.062 17.4975 37.858ZM19.959 40H19.113V33.196H19.959V40ZM23.2792 36.814C23.1832 36.658 23.0482 36.532 22.8742 36.436C22.7002 36.334 22.5052 36.283 22.2892 36.283C22.1932 36.283 22.0972 36.295 22.0012 36.319C21.9052 36.337 21.8182 36.37 21.7402 36.418C21.6682 36.46 21.6082 36.517 21.5602 36.589C21.5182 36.655 21.4972 36.739 21.4972 36.841C21.4972 37.021 21.5782 37.156 21.7402 37.246C21.9022 37.33 22.1452 37.408 22.4692 37.48C22.6732 37.528 22.8622 37.585 23.0362 37.651C23.2102 37.717 23.3602 37.801 23.4862 37.903C23.6182 37.999 23.7202 38.116 23.7922 38.254C23.8642 38.392 23.9002 38.554 23.9002 38.74C23.9002 38.992 23.8522 39.205 23.7562 39.379C23.6602 39.553 23.5312 39.697 23.3692 39.811C23.2132 39.919 23.0332 39.997 22.8292 40.045C22.6252 40.093 22.4152 40.117 22.1992 40.117C21.8752 40.117 21.5572 40.054 21.2452 39.928C20.9392 39.802 20.6842 39.61 20.4802 39.352L21.0832 38.839C21.1972 39.007 21.3532 39.148 21.5512 39.262C21.7552 39.376 21.9772 39.433 22.2172 39.433C22.3252 39.433 22.4272 39.424 22.5232 39.406C22.6252 39.382 22.7152 39.346 22.7932 39.298C22.8772 39.25 22.9432 39.187 22.9912 39.109C23.0392 39.031 23.0632 38.932 23.0632 38.812C23.0632 38.614 22.9672 38.467 22.7752 38.371C22.5892 38.275 22.3132 38.185 21.9472 38.101C21.8032 38.065 21.6562 38.023 21.5062 37.975C21.3622 37.921 21.2302 37.849 21.1102 37.759C20.9902 37.669 20.8912 37.558 20.8132 37.426C20.7412 37.288 20.7052 37.12 20.7052 36.922C20.7052 36.694 20.7502 36.499 20.8402 36.337C20.9362 36.169 21.0592 36.034 21.2092 35.932C21.3592 35.824 21.5302 35.746 21.7222 35.698C21.9142 35.644 22.1122 35.617 22.3162 35.617C22.6222 35.617 22.9162 35.677 23.1982 35.797C23.4862 35.917 23.7082 36.091 23.8642 36.319L23.2792 36.814Z" fill="white"/>
</svg>
