<svg width="64" height="64" viewBox="0 0 64 64" fill="none" xmlns="http://www.w3.org/2000/svg">
<path fill-rule="evenodd" clip-rule="evenodd" d="M32 64C49.6731 64 64 49.6731 64 32C64 14.3269 49.6731 0 32 0C14.3269 0 0 14.3269 0 32C0 49.6731 14.3269 64 32 64Z" fill="#F8B000"/>
<path d="M53.8852 25.8713C53.5972 24.9839 52.8069 24.3536 51.872 24.2696L39.1724 23.121L34.1507 11.4134C33.7804 10.5554 32.9371 10 32.0002 10C31.0632 10 30.22 10.5554 29.8497 11.4154L24.8279 23.121L12.1263 24.2696C11.1931 24.3556 10.4049 24.9839 10.1151 25.8713C9.82543 26.7587 10.093 27.7321 10.799 28.3457L20.3983 36.7313L17.5677 49.1511C17.3606 50.0643 17.7164 51.0082 18.4771 51.5559C18.886 51.8502 19.3644 52 19.8468 52C20.2627 52 20.6753 51.8883 21.0456 51.6676L32.0002 45.1462L42.9508 51.6676C43.7521 52.1478 44.7622 52.104 45.5212 51.5559C46.2823 51.0066 46.6378 50.0623 46.4306 49.1511L43.6 36.7313L53.1994 28.3474C53.9054 27.7321 54.1749 26.7604 53.8852 25.8713V25.8713Z" fill="#FFC107" stroke="white" stroke-width="3"/>
</svg>
