<svg xmlns="http://www.w3.org/2000/svg" viewBox="0 0 16 16"><defs><style>.cls-1{fill:#5E55F2;stroke:#f8faff;}.cls-2{fill:#fff;}</style></defs><title>question</title><g id="Layer_2" data-name="Layer 2"><g id="Layer_1-2" data-name="Layer 1"><circle class="cls-1" cx="8" cy="8" r="7.5"/><path class="cls-2" d="M7.52,9.49V9a2.68,2.68,0,0,1,0-.52,2,2,0,0,1,.13-.43,1.85,1.85,0,0,1,.24-.4,4.5,4.5,0,0,1,.38-.41l.54-.51a2.44,2.44,0,0,0,.39-.46A1.09,1.09,0,0,0,9.4,5.7a1.09,1.09,0,0,0-.3-.78,1,1,0,0,0-.82-.32,1.19,1.19,0,0,0-.51.1A1.29,1.29,0,0,0,7.39,5a1,1,0,0,0-.24.4,1.46,1.46,0,0,0-.1.46L5.58,5.71a2.76,2.76,0,0,1,.3-1A2.42,2.42,0,0,1,7.34,3.46a2.89,2.89,0,0,1,1-.17,3,3,0,0,1,1,.15,2.25,2.25,0,0,1,.82.45,1.9,1.9,0,0,1,.56.72,2.25,2.25,0,0,1,.21,1,2.33,2.33,0,0,1-.09.68,1.64,1.64,0,0,1-.24.52,2.7,2.7,0,0,1-.38.47c-.14.15-.31.3-.49.46a5.17,5.17,0,0,0-.4.36,3.24,3.24,0,0,0-.24.31A1.7,1.7,0,0,0,9,8.74a2.68,2.68,0,0,0,0,.44v.31Zm-.24,1.67a.87.87,0,0,1,.28-.66,1,1,0,0,1,.68-.28.94.94,0,0,1,.67.27.84.84,0,0,1,.29.65,1,1,0,0,1-1,.93A.94.94,0,0,1,7.87,12a1.17,1.17,0,0,1-.3-.19,1.06,1.06,0,0,1-.22-.29A.86.86,0,0,1,7.28,11.16Z"/></g></g></svg>