<svg width="196" height="196" viewBox="0 0 196 196" fill="none" xmlns="http://www.w3.org/2000/svg">
<g filter="url(#filter0_d)">
<g filter="url(#filter1_d)">
<circle cx="98" cy="86" r="74" fill="#f9fbfd"/>
</g>
<path d="M85.8197 96.336C83.9717 96.336 82.357 95.916 80.9757 95.076C79.5943 94.236 78.521 93.0693 77.7557 91.576C76.9903 90.064 76.6077 88.3093 76.6077 86.312C76.6077 84.296 76.9997 82.5227 77.7837 80.992C78.5863 79.4427 79.7157 78.2387 81.1717 77.38C82.6463 76.5027 84.3917 76.064 86.4077 76.064C88.7037 76.064 90.6077 76.6147 92.1197 77.716C93.6317 78.8173 94.6117 80.3387 95.0597 82.28H91.0557C90.757 81.3653 90.2157 80.656 89.4317 80.152C88.6477 79.6293 87.6397 79.368 86.4077 79.368C84.4477 79.368 82.9357 79.9933 81.8717 81.244C80.8077 82.476 80.2757 84.1747 80.2757 86.34C80.2757 88.5053 80.7983 90.1853 81.8437 91.38C82.9077 92.556 84.345 93.144 86.1557 93.144C87.929 93.144 89.2637 92.668 90.1597 91.716C91.0743 90.7453 91.625 89.476 91.8117 87.908H86.8557V85.22H95.4237V96H92.1197L91.8397 93.424C91.205 94.3573 90.4117 95.076 89.4597 95.58C88.5077 96.084 87.2943 96.336 85.8197 96.336ZM109.592 96.336C107.632 96.336 105.915 95.9067 104.44 95.048C102.984 94.1893 101.836 93.004 100.996 91.492C100.175 89.9613 99.7639 88.1973 99.7639 86.2C99.7639 84.2027 100.175 82.448 100.996 80.936C101.836 79.4053 102.984 78.2107 104.44 77.352C105.915 76.4933 107.632 76.064 109.592 76.064C111.533 76.064 113.241 76.4933 114.716 77.352C116.191 78.2107 117.339 79.4053 118.16 80.936C118.981 82.448 119.392 84.2027 119.392 86.2C119.392 88.1973 118.981 89.9613 118.16 91.492C117.339 93.004 116.191 94.1893 114.716 95.048C113.241 95.9067 111.533 96.336 109.592 96.336ZM109.592 93.116C111.459 93.116 112.943 92.5 114.044 91.268C115.164 90.036 115.724 88.3467 115.724 86.2C115.724 84.0533 115.164 82.364 114.044 81.132C112.943 79.9 111.459 79.284 109.592 79.284C107.725 79.284 106.232 79.9 105.112 81.132C103.992 82.364 103.432 84.0533 103.432 86.2C103.432 88.3467 103.992 90.036 105.112 91.268C106.232 92.5 107.725 93.116 109.592 93.116Z" fill="#DD6956"/>
<path d="M160 86C160 94.142 158.396 102.204 155.281 109.726C152.165 117.249 147.598 124.083 141.841 129.841C136.083 135.598 129.249 140.165 121.726 143.281C114.204 146.396 106.142 148 98 148C89.858 148 81.7958 146.396 74.2736 143.281C66.7514 140.165 59.9166 135.598 54.1594 129.841C48.4021 124.083 43.8353 117.249 40.7195 109.726C37.6037 102.204 36 94.142 36 86C36 77.858 37.6037 69.7958 40.7195 62.2736C43.8353 54.7514 48.4022 47.9166 54.1594 42.1594C59.9166 36.4021 66.7514 31.8353 74.2736 28.7195C81.7958 25.6037 89.8581 24 98 24C106.142 24 114.204 25.6037 121.726 28.7195C129.249 31.8353 136.083 36.4022 141.841 42.1594C147.598 47.9166 152.165 54.7514 155.281 62.2736C158.396 69.7958 160 77.8581 160 86L160 86Z" stroke="url(#paint0_linear)" stroke-width="24" stroke-linecap="round" stroke-linejoin="round"/>
</g>
<defs>
<filter id="filter0_d" x="12" y="4" width="172" height="172" filterUnits="userSpaceOnUse" color-interpolation-filters="sRGB">
<feFlood flood-opacity="0" result="BackgroundImageFix"/>
<!-- <feColorMatrix in="SourceAlpha" type="matrix" values="0 0 0 0 0 0 0 0 0 0 0 0 0 0 0 0 0 0 127 0"/> -->
<!-- <feOffset dy="4"/> -->
<!-- <feGaussianBlur stdDeviation="6"/> -->
<!-- <feColorMatrix type="matrix" values="0 0 0 0 0 0 0 0 0 0 0 0 0 0 0 0 0 0 0.25 0"/> -->
<!-- <feBlend mode="normal" in2="BackgroundImageFix" result="effect1_dropShadow"/> -->
<feBlend mode="normal" in="SourceGraphic" in2="effect1_dropShadow" result="shape"/>
</filter>
<filter id="filter1_d" x="0" y="0" width="196" height="196" filterUnits="userSpaceOnUse" color-interpolation-filters="sRGB">
<feFlood flood-opacity="0" result="BackgroundImageFix"/>
<!-- <feColorMatrix in="SourceAlpha" type="matrix" values="0 0 0 0 0 0 0 0 0 0 0 0 0 0 0 0 0 0 127 0"/> -->
<!-- <feOffset dy="12"/> -->
<!-- <feGaussianBlur stdDeviation="12"/> -->
<!-- <feColorMatrix type="matrix" values="0 0 0 0 0.0324653 0 0 0 0 0.0861111 0 0 0 0 0.229167 0 0 0 0.1 0"/> -->
<!-- <feBlend mode="normal" in2="BackgroundImageFix" result="effect1_dropShadow"/> -->
<feBlend mode="normal" in="SourceGraphic" in2="effect1_dropShadow" result="shape"/>
</filter>
<linearGradient id="paint0_linear" x1="24" y1="86" x2="172" y2="86" gradientUnits="userSpaceOnUse">
<stop stop-color="#97C15C"/>
<stop offset="0.388967" stop-color="#DEDB8E"/>
<stop offset="0.710309" stop-color="#F29C38"/>
<stop offset="1" stop-color="#4152AF"/>
</linearGradient>
</defs>
</svg>
