<svg width="41" height="38" viewBox="0 0 41 38" fill="none" xmlns="http://www.w3.org/2000/svg">
<path fill-rule="evenodd" clip-rule="evenodd" d="M18.0779 1.48116C18.8588 1.16357 19.6962 1 20.542 1C21.3879 1 22.2252 1.16357 23.0062 1.48116C23.7871 1.79874 24.4961 2.26398 25.0929 2.8499C25.6897 3.43579 26.1626 4.13084 26.485 4.89513C26.8075 5.65939 26.9733 6.4782 26.9733 7.30488H27.9733C27.9733 6.3443 27.7806 5.39334 27.4064 4.5064C27.0322 3.61948 26.484 2.8142 25.7935 2.13631C25.103 1.45844 24.2838 0.921197 23.3829 0.554823C22.4819 0.188455 21.5166 0 20.542 0C19.5674 0 18.6021 0.188455 17.7012 0.554823C16.8002 0.921198 15.981 1.45844 15.2905 2.13631C14.6001 2.8142 14.0518 3.61948 13.6776 4.5064C13.4498 5.04647 13.2892 5.61027 13.1985 6.18553L10.7823 3.76934C10.587 3.57408 10.2704 3.57408 10.0752 3.76934C9.8799 3.96461 9.8799 4.28119 10.0752 4.47645L13.2571 7.65843C13.4524 7.85369 13.769 7.85369 13.9642 7.65843L17.1462 4.47645C17.3415 4.28119 17.3415 3.96461 17.1462 3.76934C16.951 3.57408 16.6344 3.57408 16.4391 3.76934L14.2617 5.9468C14.3424 5.58814 14.4551 5.2362 14.599 4.89513C14.9214 4.13084 15.3943 3.43579 15.9911 2.8499C16.5879 2.26399 17.2969 1.79874 18.0779 1.48116ZM23.0063 14.2627C22.2254 14.5803 21.388 14.7439 20.5422 14.7439C19.6963 14.7439 18.859 14.5803 18.078 14.2627C17.2971 13.9452 16.5881 13.4799 15.9913 12.894C15.3945 12.3081 14.9216 11.6131 14.5991 10.8488C14.2767 10.0845 14.1108 9.2657 14.1108 8.43902H13.1108C13.1108 9.3996 13.3036 10.3506 13.6778 11.2375C14.052 12.1244 14.6002 12.9297 15.2907 13.6076C15.9812 14.2855 16.8004 14.8227 17.7013 15.1891C18.6022 15.5554 19.5675 15.7439 20.5422 15.7439C21.5168 15.7439 22.4821 15.5554 23.383 15.1891C24.284 14.8227 25.1032 14.2855 25.7936 13.6076C26.4841 12.9297 27.0323 12.1244 27.4065 11.2375C27.6344 10.6974 27.795 10.1336 27.8857 9.55836L30.3019 11.9746C30.4972 12.1698 30.8138 12.1698 31.009 11.9746C31.2043 11.7793 31.2043 11.4627 31.009 11.2674L27.827 8.08546C27.6318 7.8902 27.3152 7.8902 27.1199 8.08546L23.938 11.2674C23.7427 11.4627 23.7427 11.7793 23.938 11.9746C24.1332 12.1698 24.4498 12.1698 24.6451 11.9746L26.8225 9.7971C26.7418 10.1558 26.6291 10.5077 26.4852 10.8488C26.1627 11.6131 25.6898 12.3081 25.0931 12.894C24.4963 13.4799 23.7873 13.9452 23.0063 14.2627Z" fill="#F8FAFF"/>
<path d="M2.17333 29.1219H1.28233V22.7499H3.32533C3.63133 22.7499 3.92233 22.7829 4.19833 22.8489C4.47433 22.9089 4.71433 23.0079 4.91833 23.1459C5.12833 23.2839 5.29333 23.4669 5.41333 23.6949C5.53333 23.9169 5.59333 24.1899 5.59333 24.5139C5.59333 24.9819 5.44933 25.3599 5.16133 25.6479C4.87333 25.9359 4.50133 26.1189 4.04533 26.1969L5.82733 29.1219H4.74733L3.12733 26.2869H2.17333V29.1219ZM2.17333 25.5399H3.19933C3.40933 25.5399 3.60433 25.5219 3.78433 25.4859C3.96433 25.4499 4.12033 25.3929 4.25233 25.3149C4.39033 25.2309 4.49833 25.1259 4.57633 24.9999C4.65433 24.8679 4.69333 24.7059 4.69333 24.5139C4.69333 24.3219 4.65433 24.1629 4.57633 24.0369C4.49833 23.9049 4.39333 23.7999 4.26133 23.7219C4.13533 23.6439 3.98533 23.5899 3.81133 23.5599C3.63733 23.5239 3.45433 23.5059 3.26233 23.5059H2.17333V25.5399ZM9.32549 26.6109C9.31949 26.4429 9.28949 26.2869 9.23549 26.1429C9.18749 25.9929 9.11249 25.8639 9.01049 25.7559C8.91449 25.6479 8.79149 25.5639 8.64149 25.5039C8.49749 25.4379 8.32649 25.4049 8.12849 25.4049C7.94849 25.4049 7.77749 25.4379 7.61549 25.5039C7.45949 25.5639 7.32149 25.6479 7.20149 25.7559C7.08749 25.8639 6.99149 25.9929 6.91349 26.1429C6.84149 26.2869 6.79949 26.4429 6.78749 26.6109H9.32549ZM10.1805 26.9529C10.1805 27.0009 10.1805 27.0489 10.1805 27.0969C10.1805 27.1449 10.1775 27.1929 10.1715 27.2409H6.78749C6.79349 27.4209 6.83249 27.5919 6.90449 27.7539C6.98249 27.9099 7.08449 28.0479 7.21049 28.1679C7.33649 28.2819 7.48049 28.3719 7.64249 28.4379C7.81049 28.5039 7.98749 28.5369 8.17349 28.5369C8.46149 28.5369 8.71049 28.4739 8.92049 28.3479C9.13049 28.2219 9.29549 28.0689 9.41549 27.8889L10.0095 28.3659C9.78149 28.6659 9.51149 28.8879 9.19949 29.0319C8.89349 29.1699 8.55149 29.2389 8.17349 29.2389C7.84949 29.2389 7.54949 29.1849 7.27349 29.0769C6.99749 28.9689 6.76049 28.8189 6.56249 28.6269C6.36449 28.4289 6.20849 28.1919 6.09449 27.9159C5.98049 27.6399 5.92348 27.3339 5.92348 26.9979C5.92348 26.6679 5.97749 26.3649 6.08549 26.0889C6.19949 25.8069 6.35549 25.5669 6.55349 25.3689C6.75149 25.1709 6.98549 25.0179 7.25549 24.9099C7.52549 24.7959 7.81649 24.7389 8.12849 24.7389C8.44049 24.7389 8.72249 24.7899 8.97449 24.8919C9.23249 24.9939 9.44849 25.1409 9.62249 25.3329C9.80249 25.5249 9.94049 25.7589 10.0365 26.0349C10.1325 26.3049 10.1805 26.6109 10.1805 26.9529ZM11.741 28.4469V29.1219H10.922V22.3179H11.768V25.4949H11.795C11.939 25.2849 12.14 25.1079 12.398 24.9639C12.656 24.8139 12.962 24.7389 13.316 24.7389C13.634 24.7389 13.922 24.7959 14.18 24.9099C14.444 25.0239 14.669 25.1829 14.855 25.3869C15.047 25.5909 15.194 25.8309 15.296 26.1069C15.398 26.3769 15.449 26.6679 15.449 26.9799C15.449 27.2919 15.398 27.5859 15.296 27.8619C15.194 28.1379 15.05 28.3779 14.864 28.5819C14.678 28.7859 14.453 28.9479 14.189 29.0679C13.925 29.1819 13.628 29.2389 13.298 29.2389C12.992 29.2389 12.701 29.1729 12.425 29.0409C12.149 28.9029 11.927 28.7049 11.759 28.4469H11.741ZM14.576 26.9799C14.576 26.7819 14.546 26.5899 14.486 26.4039C14.426 26.2179 14.336 26.0529 14.216 25.9089C14.096 25.7649 13.946 25.6509 13.766 25.5669C13.592 25.4829 13.388 25.4409 13.154 25.4409C12.938 25.4409 12.74 25.4829 12.56 25.5669C12.386 25.6509 12.236 25.7649 12.11 25.9089C11.984 26.0529 11.885 26.2179 11.813 26.4039C11.747 26.5899 11.714 26.7849 11.714 26.9889C11.714 27.1929 11.747 27.3879 11.813 27.5739C11.885 27.7599 11.984 27.9249 12.11 28.0689C12.236 28.2069 12.386 28.3179 12.56 28.4019C12.74 28.4859 12.938 28.5279 13.154 28.5279C13.388 28.5279 13.592 28.4859 13.766 28.4019C13.946 28.3119 14.096 28.1949 14.216 28.0509C14.336 27.9069 14.426 27.7419 14.486 27.5559C14.546 27.3699 14.576 27.1779 14.576 26.9799ZM18.823 26.3589C18.823 26.0409 18.727 25.8069 18.535 25.6569C18.343 25.5009 18.088 25.4229 17.77 25.4229C17.53 25.4229 17.302 25.4709 17.086 25.5669C16.876 25.6569 16.699 25.7739 16.555 25.9179L16.105 25.3779C16.315 25.1799 16.57 25.0239 16.87 24.9099C17.176 24.7959 17.503 24.7389 17.851 24.7389C18.157 24.7389 18.421 24.7839 18.643 24.8739C18.871 24.9579 19.057 25.0749 19.201 25.2249C19.345 25.3749 19.453 25.5519 19.525 25.7559C19.597 25.9599 19.633 26.1789 19.633 26.4129V28.2759C19.633 28.4199 19.636 28.5729 19.642 28.7349C19.654 28.8909 19.672 29.0199 19.696 29.1219H18.931C18.883 28.9179 18.859 28.7139 18.859 28.5099H18.832C18.676 28.7379 18.478 28.9149 18.238 29.0409C18.004 29.1669 17.725 29.2299 17.401 29.2299C17.233 29.2299 17.056 29.2059 16.87 29.1579C16.69 29.1159 16.525 29.0439 16.375 28.9419C16.225 28.8399 16.099 28.7049 15.997 28.5369C15.901 28.3689 15.853 28.1619 15.853 27.9159C15.853 27.5919 15.94 27.3369 16.114 27.1509C16.288 26.9589 16.516 26.8149 16.798 26.7189C17.08 26.6169 17.398 26.5509 17.752 26.5209C18.106 26.4909 18.463 26.4759 18.823 26.4759V26.3589ZM18.616 27.0879C18.406 27.0879 18.187 27.0969 17.959 27.1149C17.737 27.1329 17.533 27.1689 17.347 27.2229C17.167 27.2769 17.017 27.3579 16.897 27.4659C16.777 27.5739 16.717 27.7179 16.717 27.8979C16.717 28.0239 16.741 28.1289 16.789 28.2129C16.843 28.2969 16.912 28.3659 16.996 28.4199C17.08 28.4739 17.173 28.5129 17.275 28.5369C17.377 28.5549 17.482 28.5639 17.59 28.5639C17.986 28.5639 18.289 28.4469 18.499 28.2129C18.715 27.9729 18.823 27.6729 18.823 27.3129V27.0879H18.616ZM21.4522 29.1219H20.6062V22.3179H21.4522V29.1219ZM25.1234 26.3589C25.1234 26.0409 25.0274 25.8069 24.8354 25.6569C24.6434 25.5009 24.3884 25.4229 24.0704 25.4229C23.8304 25.4229 23.6024 25.4709 23.3864 25.5669C23.1764 25.6569 22.9994 25.7739 22.8554 25.9179L22.4054 25.3779C22.6154 25.1799 22.8704 25.0239 23.1704 24.9099C23.4764 24.7959 23.8034 24.7389 24.1514 24.7389C24.4574 24.7389 24.7214 24.7839 24.9434 24.8739C25.1714 24.9579 25.3574 25.0749 25.5014 25.2249C25.6454 25.3749 25.7534 25.5519 25.8254 25.7559C25.8974 25.9599 25.9334 26.1789 25.9334 26.4129V28.2759C25.9334 28.4199 25.9364 28.5729 25.9424 28.7349C25.9544 28.8909 25.9724 29.0199 25.9964 29.1219H25.2314C25.1834 28.9179 25.1594 28.7139 25.1594 28.5099H25.1324C24.9764 28.7379 24.7784 28.9149 24.5384 29.0409C24.3044 29.1669 24.0254 29.2299 23.7014 29.2299C23.5334 29.2299 23.3564 29.2059 23.1704 29.1579C22.9904 29.1159 22.8254 29.0439 22.6754 28.9419C22.5254 28.8399 22.3994 28.7049 22.2974 28.5369C22.2014 28.3689 22.1534 28.1619 22.1534 27.9159C22.1534 27.5919 22.2404 27.3369 22.4144 27.1509C22.5884 26.9589 22.8164 26.8149 23.0984 26.7189C23.3804 26.6169 23.6984 26.5509 24.0524 26.5209C24.4064 26.4909 24.7634 26.4759 25.1234 26.4759V26.3589ZM24.9164 27.0879C24.7064 27.0879 24.4874 27.0969 24.2594 27.1149C24.0374 27.1329 23.8334 27.1689 23.6474 27.2229C23.4674 27.2769 23.3174 27.3579 23.1974 27.4659C23.0774 27.5739 23.0174 27.7179 23.0174 27.8979C23.0174 28.0239 23.0414 28.1289 23.0894 28.2129C23.1434 28.2969 23.2124 28.3659 23.2964 28.4199C23.3804 28.4739 23.4734 28.5129 23.5754 28.5369C23.6774 28.5549 23.7824 28.5639 23.8904 28.5639C24.2864 28.5639 24.5894 28.4469 24.7994 28.2129C25.0154 27.9729 25.1234 27.6729 25.1234 27.3129V27.0879H24.9164ZM27.6536 24.8559C27.6656 24.9639 27.6746 25.0869 27.6806 25.2249C27.6866 25.3569 27.6896 25.4679 27.6896 25.5579H27.7166C27.7706 25.4439 27.8426 25.3389 27.9326 25.2429C28.0286 25.1409 28.1366 25.0539 28.2566 24.9819C28.3766 24.9039 28.5086 24.8439 28.6526 24.8019C28.7966 24.7599 28.9466 24.7389 29.1026 24.7389C29.3786 24.7389 29.6156 24.7869 29.8136 24.8829C30.0116 24.9729 30.1766 25.0959 30.3086 25.2519C30.4406 25.4079 30.5366 25.5909 30.5966 25.8009C30.6626 26.0109 30.6956 26.2359 30.6956 26.4759V29.1219H29.8496V26.7549C29.8496 26.5809 29.8346 26.4159 29.8046 26.2599C29.7806 26.1039 29.7326 25.9659 29.6606 25.8459C29.5886 25.7259 29.4896 25.6299 29.3636 25.5579C29.2376 25.4859 29.0756 25.4499 28.8776 25.4499C28.5416 25.4499 28.2656 25.5789 28.0496 25.8369C27.8396 26.0889 27.7346 26.4279 27.7346 26.8539V29.1219H26.8886V25.7739C26.8886 25.6599 26.8856 25.5129 26.8796 25.3329C26.8736 25.1529 26.8646 24.9939 26.8526 24.8559H27.6536ZM34.6572 25.9359C34.5672 25.7979 34.4322 25.6839 34.2522 25.5939C34.0722 25.4979 33.8802 25.4499 33.6762 25.4499C33.4542 25.4499 33.2562 25.4919 33.0822 25.5759C32.9142 25.6599 32.7702 25.7739 32.6502 25.9179C32.5302 26.0559 32.4372 26.2179 32.3712 26.4039C32.3112 26.5899 32.2812 26.7849 32.2812 26.9889C32.2812 27.1929 32.3112 27.3879 32.3712 27.5739C32.4372 27.7599 32.5302 27.9249 32.6502 28.0689C32.7702 28.2069 32.9172 28.3179 33.0912 28.4019C33.2652 28.4859 33.4632 28.5279 33.6852 28.5279C33.9012 28.5279 34.0962 28.4859 34.2702 28.4019C34.4502 28.3179 34.5972 28.2039 34.7112 28.0599L35.2782 28.5729C35.0982 28.7829 34.8732 28.9479 34.6032 29.0679C34.3332 29.1819 34.0272 29.2389 33.6852 29.2389C33.3552 29.2389 33.0492 29.1849 32.7672 29.0769C32.4912 28.9689 32.2512 28.8189 32.0472 28.6269C31.8432 28.4289 31.6812 28.1919 31.5612 27.9159C31.4472 27.6399 31.3902 27.3309 31.3902 26.9889C31.3902 26.6529 31.4472 26.3469 31.5612 26.0709C31.6752 25.7949 31.8342 25.5579 32.0382 25.3599C32.2422 25.1619 32.4822 25.0089 32.7582 24.9009C33.0402 24.7929 33.3432 24.7389 33.6672 24.7389C33.9672 24.7389 34.2642 24.7989 34.5582 24.9189C34.8582 25.0389 35.0952 25.2129 35.2692 25.4409L34.6572 25.9359ZM38.7818 26.6109C38.7758 26.4429 38.7458 26.2869 38.6918 26.1429C38.6438 25.9929 38.5688 25.8639 38.4668 25.7559C38.3708 25.6479 38.2478 25.5639 38.0978 25.5039C37.9538 25.4379 37.7828 25.4049 37.5848 25.4049C37.4048 25.4049 37.2338 25.4379 37.0718 25.5039C36.9158 25.5639 36.7778 25.6479 36.6578 25.7559C36.5438 25.8639 36.4478 25.9929 36.3698 26.1429C36.2978 26.2869 36.2558 26.4429 36.2438 26.6109H38.7818ZM39.6368 26.9529C39.6368 27.0009 39.6368 27.0489 39.6368 27.0969C39.6368 27.1449 39.6338 27.1929 39.6278 27.2409H36.2438C36.2498 27.4209 36.2888 27.5919 36.3608 27.7539C36.4388 27.9099 36.5408 28.0479 36.6668 28.1679C36.7928 28.2819 36.9368 28.3719 37.0988 28.4379C37.2668 28.5039 37.4438 28.5369 37.6298 28.5369C37.9178 28.5369 38.1668 28.4739 38.3768 28.3479C38.5868 28.2219 38.7518 28.0689 38.8718 27.8889L39.4658 28.3659C39.2378 28.6659 38.9678 28.8879 38.6558 29.0319C38.3498 29.1699 38.0078 29.2389 37.6298 29.2389C37.3058 29.2389 37.0058 29.1849 36.7298 29.0769C36.4538 28.9689 36.2168 28.8189 36.0188 28.6269C35.8208 28.4289 35.6648 28.1919 35.5508 27.9159C35.4368 27.6399 35.3798 27.3339 35.3798 26.9979C35.3798 26.6679 35.4338 26.3649 35.5418 26.0889C35.6558 25.8069 35.8118 25.5669 36.0098 25.3689C36.2078 25.1709 36.4418 25.0179 36.7118 24.9099C36.9818 24.7959 37.2728 24.7389 37.5848 24.7389C37.8968 24.7389 38.1788 24.7899 38.4308 24.8919C38.6888 24.9939 38.9048 25.1409 39.0788 25.3329C39.2588 25.5249 39.3968 25.7589 39.4928 26.0349C39.5888 26.3049 39.6368 26.6109 39.6368 26.9529Z" fill="white"/>
</svg>
