<svg width="26" height="32" viewBox="0 0 26 32" fill="none" xmlns="http://www.w3.org/2000/svg">
<path d="M22.2761 26.6127L21.5031 25.9783L21.5031 25.9783L22.2761 26.6127ZM15.3411 30.7694L15.5362 31.7502L15.5362 31.7502L15.3411 30.7694ZM7.34324 29.583L7.81464 28.7011L7.81464 28.7011L7.34324 29.583ZM1.91345 23.5922L2.83733 23.2095L2.83733 23.2095L1.91345 23.5922ZM1.51672 15.5166L0.559778 15.2263L0.559778 15.2263L1.51672 15.5166ZM6.33316 9.02238L6.88873 9.85385L6.88873 9.85385L6.33316 9.02238ZM14.1762 7.0578L14.0782 8.05299L14.1762 7.0578ZM21.575 11.5107C22.125 11.4612 22.5308 10.9751 22.4813 10.4251L21.6742 1.46132C21.6247 0.911257 21.1386 0.505492 20.5886 0.555015C20.0385 0.604539 19.6328 1.0906 19.6823 1.64066L20.3996 9.60843L12.4319 10.3258C11.8818 10.3753 11.476 10.8614 11.5256 11.4114C11.5751 11.9615 12.0611 12.3673 12.6112 12.3177L21.575 11.5107ZM24 19C24 21.5449 23.1176 24.0111 21.5031 25.9783L23.0491 27.2471C24.9571 24.9222 26 22.0076 26 19H24ZM21.5031 25.9783C19.8886 27.9456 17.642 29.2921 15.146 29.7886L15.5362 31.7502C18.486 31.1634 21.1411 29.572 23.0491 27.2471L21.5031 25.9783ZM15.146 29.7886C12.65 30.2851 10.059 29.9008 7.81464 28.7011L6.87185 30.465C9.52433 31.8827 12.5863 32.3369 15.5362 31.7502L15.146 29.7886ZM7.81464 28.7011C5.57023 27.5015 3.81122 25.5607 2.83733 23.2095L0.989569 23.9749C2.14054 26.7536 4.21936 29.0472 6.87185 30.465L7.81464 28.7011ZM2.83733 23.2095C1.86343 20.8583 1.73491 18.2422 2.47366 15.8069L0.559778 15.2263C-0.313287 18.1044 -0.161397 21.1962 0.98957 23.9749L2.83733 23.2095ZM2.47366 15.8069C3.21241 13.3716 4.77271 11.2677 6.88873 9.85385L5.77759 8.19091C3.27685 9.86185 1.43284 12.3482 0.559778 15.2263L2.47366 15.8069ZM6.88873 9.85385C9.00474 8.43998 11.5455 7.80354 14.0782 8.05299L14.2742 6.06262C11.2811 5.76782 8.27833 6.51997 5.77759 8.19091L6.88873 9.85385ZM14.0782 8.05299C16.5701 8.29841 18.447 9.28098 20.8444 11.2824L22.1261 9.74707C19.553 7.59901 17.3081 6.36143 14.2742 6.06262L14.0782 8.05299Z" fill="#0B1FD1"/>
</svg>
