<svg width="14" height="10" viewBox="0 0 14 10" fill="none" xmlns="http://www.w3.org/2000/svg">
<path fill-rule="evenodd" clip-rule="evenodd" d="M4.03553 0.146447C3.84027 -0.0488155 3.52369 -0.0488155 3.32843 0.146447L0.146447 3.32843C-0.0488155 3.52369 -0.0488155 3.84027 0.146447 4.03553C0.341709 4.2308 0.658291 4.2308 0.853554 4.03553L3.18198 1.70711L3.18198 9.1598C3.18198 9.43595 3.40584 9.6598 3.68198 9.6598C3.95812 9.6598 4.18198 9.43595 4.18198 9.1598L4.18198 1.70711L6.51041 4.03553C6.70567 4.2308 7.02225 4.2308 7.21751 4.03553C7.41278 3.84027 7.41278 3.52369 7.21751 3.32843L4.03553 0.146447ZM9.07706 9.51336C9.27232 9.70862 9.58891 9.70862 9.78417 9.51336L12.9662 6.33138C13.1614 6.13611 13.1614 5.81953 12.9662 5.62427C12.7709 5.42901 12.4543 5.42901 12.259 5.62427L9.93062 7.9527V0.5C9.93062 0.223858 9.70676 5.21541e-08 9.43062 6.70552e-08C9.15447 8.19564e-08 8.93062 0.223858 8.93062 0.5L8.93062 7.9527L6.60219 5.62427C6.40693 5.42901 6.09034 5.42901 5.89508 5.62427C5.69982 5.81953 5.69982 6.13611 5.89508 6.33138L9.07706 9.51336Z" fill="#F8FAFF"/>
</svg>
