<svg width="72" height="68" viewBox="0 0 72 68" fill="none" xmlns="http://www.w3.org/2000/svg">
<path fill-rule="evenodd" clip-rule="evenodd" d="M10 0C4.47715 0 0 4.47715 0 10C0 13.2712 1.57069 16.1755 3.99903 18C1.57069 19.8245 0 22.7288 0 26C0 29.2712 1.57069 32.1755 3.99903 34C1.57069 35.8245 0 38.7288 0 42C0 45.2712 1.57069 48.1755 3.99903 50C1.57069 51.8245 0 54.7288 0 58C0 63.5228 4.47715 68 10 68H62C67.5229 68 72 63.5228 72 58C72 54.7288 70.4293 51.8245 68.001 50C70.4293 48.1755 72 45.2712 72 42C72 38.7288 70.4293 35.8245 68.001 34C70.4293 32.1755 72 29.2712 72 26C72 22.7288 70.4293 19.8245 68.001 18C70.4293 16.1755 72 13.2712 72 10C72 4.47715 67.5229 0 62 0H10ZM62 16C65.3137 16 68 13.3137 68 10C68 6.68629 65.3137 4 62 4H10C6.68629 4 4 6.68629 4 10C4 13.3137 6.68629 16 10 16H62ZM10 20C6.68629 20 4 22.6863 4 26C4 29.3137 6.68629 32 10 32H62C65.3137 32 68 29.3137 68 26C68 22.6863 65.3137 20 62 20H10ZM4 42C4 38.6863 6.68629 36 10 36H62C65.3137 36 68 38.6863 68 42C68 45.3137 65.3137 48 62 48H10C6.68629 48 4 45.3137 4 42ZM10 52C6.68629 52 4 54.6863 4 58C4 61.3137 6.68629 64 10 64H62C65.3137 64 68 61.3137 68 58C68 54.6863 65.3137 52 62 52H10Z" fill="#383B45"/>
</svg>
