<svg width="103" height="103" viewBox="0 0 103 103" fill="none" xmlns="http://www.w3.org/2000/svg">
<path d="M16.7173 28.3589L16.796 28.1909L16.884 28.0269L18.1747 25.9776L19.6067 24.0096L21.1733 22.1336L22.868 20.3549L24.6853 18.6829L26.6133 17.1242L28.648 15.6842L30.7787 14.3722L32.9973 13.1896L35.2933 12.1442L37.6573 11.2402L40.08 10.4816L42.552 9.86958L45.0613 9.40958L47.596 9.10157L50.148 8.94557H52.7053L55.2573 9.10157L57.7947 9.40958L60.3013 9.86958L62.7733 10.4816L65.196 11.2402L67.5613 12.1442L69.8573 13.1896L72.0773 14.3722L74.2067 15.6842L76.2413 17.1242L78.1707 18.6829L79.2693 19.6936L79.9867 20.3549L81.6813 22.1336L83.248 24.0096L84.68 25.9776L85.9707 28.0269L86.06 28.1909L86.1373 28.3589L86.1587 28.4096L86.204 28.5309L86.26 28.7069L86.3053 28.8856L87.4827 35.3549L88.2253 41.8802L88.5307 48.4349L88.3973 54.9962L87.8253 61.5349L86.816 68.0296L85.376 74.4536L85.3227 74.6376L85.2547 74.8176L85.1773 74.9936L85.0867 75.1656L84.9853 75.3309L84.8733 75.4909L84.7507 75.6429L84.6187 75.7896L84.4773 75.9269L84.3267 76.0562L84.1667 76.1762L84 76.2869L83.8253 76.3882L80.3147 78.1549L76.6907 79.7149L72.9707 81.0642L69.1693 82.1962L65.2987 83.1069L61.372 83.7936L57.4107 84.2522L53.4933 84.4696L53.424 84.4829H49.4307L45.4453 84.2522L41.4813 83.7936L37.5573 83.1069L33.6867 82.1962L29.8827 81.0642L26.1627 79.7149L22.54 78.1549L19.028 76.3882L18.856 76.2869L18.688 76.1762L18.528 76.0562L18.3773 75.9269L18.236 75.7896L18.1027 75.6429L17.98 75.4909L17.868 75.3309L17.7667 75.1656L17.6773 74.9936L17.5987 74.8176L17.532 74.6376L17.4773 74.4536L16.0373 68.0296L15.0293 61.5349L14.4587 54.9962L14.324 48.4349L14.6293 41.8802L15.372 35.3549L16.5493 28.8856L16.5933 28.7069L16.6493 28.5309L16.696 28.4096L16.7173 28.3589ZM102.829 42.0016L102.768 41.4416L102.673 40.8856L102.544 40.3349L102.38 39.7962L102.185 39.2669L101.956 38.7509L101.695 38.2496L101.405 37.7669L101.085 37.3029L100.737 36.8589L100.361 36.4376L99.9627 36.0389L99.5373 35.6669L99.0907 35.3229L98.6253 35.0056L97.964 34.6136L97.7947 34.4989L97.632 34.3736L97.4773 34.2389L97.332 34.0936L97.196 33.9416L97.0693 33.7789L96.9533 33.6109L96.848 33.4349L96.7533 33.2536L96.6707 33.0656L96.5987 32.8736L96.092 31.5136L95.4987 30.1909L94.8187 28.9082L94.0573 27.6722L93.216 26.4909L92.3013 25.3642L91.312 24.3016L90.2573 23.3056L89.1387 22.3802L88.996 22.2616L88.8573 22.1362L88.7293 22.0029L88.6067 21.8616L88.4933 21.7149L88.388 21.5616L88.2907 21.4029L86.876 19.0949L85.3173 16.8816L83.6213 14.7722L81.7933 12.7749L79.8427 10.8989L77.7747 9.15091L75.6 7.53891L73.328 6.06824L70.9667 4.74557L68.524 3.57624L66.0147 2.56424L63.444 1.71623L60.824 1.03223L58.1667 0.517578L55.4813 0.172241L52.7813 0.000244141H50.0747L47.372 0.172241L44.688 0.517578L42.0293 1.03223L39.412 1.71623L36.8413 2.56424L34.3293 3.57624L31.888 4.74557L29.5253 6.06824L27.2533 7.53891L25.0787 9.15091L23.0133 10.8989L21.0613 12.7749L19.2347 14.7722L17.536 16.8816L15.9773 19.0949L14.564 21.4029L14.468 21.5616L14.3613 21.7149L14.2467 21.8616L14.1267 22.0029L13.996 22.1362L13.8587 22.2616L13.7147 22.3802L12.5973 23.3056L11.5413 24.3016L10.5547 25.3642L9.63733 26.4909L8.79733 27.6722L8.03467 28.9082L7.356 30.1909L6.76133 31.5136L6.25467 32.8736L6.18533 33.0656L6.10133 33.2536L6.00667 33.4349L5.90133 33.6109L5.78533 33.7789L5.65867 33.9416L5.52267 34.0936L5.37733 34.2389L5.224 34.3736L5.06133 34.4989L4.892 34.6136L4.23067 35.0056L3.76267 35.3229L3.316 35.6669L2.89333 36.0389L2.492 36.4376L2.11733 36.8589L1.76933 37.3029L1.44933 37.7669L1.15867 38.2496L0.898666 38.7509L0.670667 39.2669L0.473334 39.7962L0.310666 40.3349L0.181333 40.8856L0.0853335 41.4416L0.0253334 42.0016L0 42.5656L0.00933329 43.1296L1.164 68.8762L1.192 69.2696L1.24667 69.6589L1.324 70.0456L1.424 70.4256L1.548 70.8002L1.69467 71.1642L1.86267 71.5216L2.05333 71.8656L2.264 72.1989L2.70933 72.8149L3.19067 73.4042L3.708 73.9629L4.25733 74.4882L4.83867 74.9802L5.448 75.4362L6.25333 75.9656L6.416 76.0869L6.572 76.2189L6.71733 76.3589L6.856 76.5082L6.98267 76.6669L7.10133 76.8322L7.20933 77.0042L7.30533 77.1829L7.392 77.3669L8.29467 79.6642L9.24533 81.7202L10.3187 83.7149L11.5107 85.6402L12.8147 87.4936L14.228 89.2642L15.744 90.9456L15.8733 91.0749L16.0107 91.1962L16.1547 91.3096L16.304 91.4162L23.248 95.8322L26.776 97.8896L29.176 99.2896L30.3573 99.9789L30.5227 100.066L30.6933 100.142L30.868 100.21L31.0467 100.267L31.1267 100.288L31.228 100.314L33.8467 100.827L37.04 101.452L37.8667 101.615L37.9293 101.624L42.9627 102.274L43.5867 102.355L44.5773 102.482L50.5227 102.863L51.2547 102.911L51.3293 102.914L51.4453 102.91L52.184 102.87L56.4453 102.64L59.116 102.366L59.7427 102.302L61.5427 102.115L64.7667 101.622L65.7 101.478L65.724 101.494L66.608 101.339L68.868 100.878L71.584 100.323L71.628 100.314L71.808 100.267L71.9867 100.21L72.16 100.142L72.332 100.066L72.4973 99.9789L73.568 99.3549L75.968 97.9536L79.6067 95.8322L86.5493 91.4162L86.7 91.3096L86.844 91.1962L86.98 91.0749L87.1107 90.9456L88.628 89.2642L90.04 87.4936L91.3453 85.6402L92.5347 83.7149L93.6093 81.7202L94.5613 79.6642L95.4627 77.3669L95.548 77.1829L95.6453 77.0042L95.7533 76.8322L95.8707 76.6669L96 76.5082L96.136 76.3589L96.284 76.2189L96.4387 76.0869L96.6013 75.9656L97.408 75.4362L98.0173 74.9802L98.596 74.4882L99.1467 73.9629L99.6627 73.4042L100.145 72.8149L100.591 72.1989L100.801 71.8656L100.991 71.5216L101.159 71.1642L101.305 70.8002L101.429 70.4256L101.529 70.0456L101.608 69.6589L101.661 69.2696L101.691 68.8762L102.845 43.1296L102.855 42.5656L102.829 42.0016Z" fill="#F5F5FB"/>
<path d="M51.4268 71.855C40.9721 71.855 32.4668 65.247 32.4668 57.1256C32.4668 55.6536 33.6615 54.459 35.1335 54.459C36.6068 54.459 37.8001 55.6536 37.8001 57.1256C37.8001 62.219 44.0401 66.5216 51.4268 66.5216C58.8135 66.5216 65.0535 62.219 65.0535 57.1256C65.0535 55.6536 66.2468 54.459 67.7201 54.459C69.1921 54.459 70.3868 55.6536 70.3868 57.1256C70.3868 65.247 61.8815 71.855 51.4268 71.855Z" fill="#F5F5FB"/>
</svg>
