<svg width="120" height="111" viewBox="0 0 120 111" fill="none" xmlns="http://www.w3.org/2000/svg">
<path d="M102.365 61.6093L101.703 68.9359L100.536 76.2119L98.868 83.4079L98.804 83.6133L98.7267 83.8159L98.6373 84.0119L98.5333 84.2053L98.416 84.3906L98.2853 84.5693L98.144 84.7413L97.9907 84.9039L97.8267 85.0573L97.652 85.2026L97.4667 85.3373L97.2733 85.4613L97.072 85.5746L93.0053 87.5533L88.8107 89.3013L84.5027 90.8119L80.0987 92.0813L75.616 93.1013L71.0707 93.8706L66.4813 94.3853L61.9467 94.6279L61.8653 94.6426H59.5533H57.2413L57.1613 94.6279L52.6253 94.3853L48.036 93.8706L43.492 93.1013L39.008 92.0813L34.6053 90.8119L30.296 89.3013L26.1013 87.5533L22.0347 85.5746L21.8347 85.4613L21.64 85.3373L21.4547 85.2026L21.2813 85.0573L21.116 84.9039L20.9627 84.7413L20.8213 84.5693L20.6907 84.3906L20.5733 84.2053L20.4693 84.0119L20.38 83.8159L20.3027 83.6133L20.2387 83.4079L18.5707 76.2119L17.404 68.9359L16.7413 61.6093L16.5867 54.2599L16.94 46.9159L17.8 39.6066L19.164 32.3586L19.216 32.1599L19.28 31.9626L19.3347 31.8266L19.3573 31.7693L19.448 31.5813L19.552 31.3986L21.0467 29.1013L22.704 26.8973L24.5187 24.7946L26.4813 22.8026L27.312 22.0626L28.584 20.9293L30.8187 19.1839L33.1733 17.5706L35.6413 16.0999L38.2107 14.7759L40.8693 13.6053L43.608 12.5933L46.4133 11.7426L49.276 11.0573L52.18 10.5413L55.1173 10.1946L58.072 10.0226H59.5533H61.0347L63.9893 10.1946L66.9267 10.5413L69.832 11.0573L72.6933 11.7426L75.5 12.5933L78.2373 13.6053L80.896 14.7759L83.4653 16.0999L85.9333 17.5706L88.288 19.1839L90.5227 20.9293L91.7947 22.0626L92.6253 22.8026L94.588 24.7946L96.4027 26.8973L98.06 29.1013L99.556 31.3986L99.6587 31.5813L99.7493 31.7693L99.7733 31.8266L99.8267 31.9626L99.892 32.1599L99.944 32.3586L101.307 39.6066L102.168 46.9159L102.52 54.2599L102.365 61.6093ZM119.077 47.0533L119.007 46.4239L118.897 45.8026L118.748 45.1866L118.56 44.5813L118.332 43.9893L118.067 43.4119L117.765 42.8506L117.429 42.3093L117.06 41.7879L116.656 41.2906L116.221 40.8186L115.759 40.3733L115.267 39.9573L114.749 39.5706L114.209 39.2159L113.444 38.7773L113.247 38.6479L113.06 38.5079L112.881 38.3559L112.712 38.1946L112.555 38.0239L112.408 37.8426L112.275 37.6533L112.152 37.4559L112.043 37.2519L111.947 37.0426L111.864 36.8279L111.277 35.3039L110.589 33.8213L109.801 32.3853L108.92 31.0013L107.947 29.6759L106.887 28.4146L105.741 27.2239L104.52 26.1093L103.227 25.0719L103.06 24.9399L102.9 24.7986L102.749 24.6493L102.609 24.4919L102.476 24.3266L102.353 24.1546L102.241 23.9759L100.605 21.3906L98.7987 18.9119L96.8347 16.5493L94.7187 14.3119L92.4573 12.2106L90.064 10.2519L87.5467 8.44527L84.9147 6.7986L82.18 5.31594L79.3533 4.00661L76.4453 2.87328L73.4693 1.9226L70.436 1.15727L67.3587 0.579943L64.2493 0.193275L61.12 -6.4343e-05H59.5533H57.9867L54.8573 0.193275L51.748 0.579943L48.6707 1.15727L45.6373 1.9226L42.6627 2.87328L39.7533 4.00661L36.9267 5.31594L34.192 6.7986L31.56 8.44527L29.0427 10.2519L26.6493 12.2106L24.3893 14.3119L22.2733 16.5493L20.308 18.9119L18.5027 21.3906L16.8653 23.9759L16.7533 24.1546L16.6307 24.3266L16.4987 24.4919L16.3573 24.6493L16.208 24.7986L16.0493 24.9399L15.8813 25.0719L14.5867 26.1093L13.3653 27.2239L12.2227 28.4146L11.1613 29.6759L10.1867 31.0013L9.30534 32.3853L8.51733 33.8213L7.83067 35.3039L7.24267 36.8279L7.16134 37.0426L7.06401 37.2519L6.95467 37.4559L6.83333 37.6533L6.69867 37.8426L6.55333 38.0239L6.39467 38.1946L6.22667 38.3559L6.048 38.5079L5.86001 38.6479L5.664 38.7773L4.89734 39.2159L4.35734 39.5706L3.84001 39.9573L3.348 40.3733L2.88667 40.8186L2.45067 41.2906L2.048 41.7879L1.67734 42.3093L1.34134 42.8506L1.04 43.4119L0.776001 43.9893L0.548004 44.5813L0.358673 45.1866L0.20934 45.8026L0.100006 46.4239L0.0293376 47.0533L0 47.6839L0.00933838 48.3159L1.34667 77.1599L1.38134 77.5986L1.444 78.0359L1.53334 78.4693L1.64933 78.8946L1.792 79.3133L1.96267 79.7226L2.15734 80.1226L2.37734 80.5079L2.62134 80.8813L3.13734 81.5719L3.69467 82.2319L4.29334 82.8573L4.93067 83.4466L5.60267 83.9973L6.308 84.5079L7.24133 85.1013L7.42933 85.2373L7.60933 85.3853L7.77867 85.5426L7.93734 85.7106L8.08534 85.8866L8.224 86.0719L8.34667 86.2653L8.46 86.4653L8.56001 86.6706L9.604 89.2453L10.7067 91.5479C11.5267 93.0226 29.988 106.62 29.988 106.62C29.988 106.62 39.572 110.992 59.5533 110.992C79.5347 110.992 89.1187 106.62 89.1187 106.62C89.1187 106.62 107.58 93.0226 108.4 91.5479L109.504 89.2453L110.548 86.6706L110.647 86.4653L110.76 86.2653L110.884 86.0719L111.021 85.8866L111.169 85.7106L111.329 85.5426L111.499 85.3853L111.677 85.2373L111.865 85.1013L112.799 84.5079L113.504 83.9973L114.176 83.4466L114.813 82.8573L115.412 82.2319L115.969 81.5719L116.485 80.8813L116.729 80.5079L116.949 80.1226L117.144 79.7226L117.315 79.3133L117.457 78.8946L117.573 78.4693L117.664 78.0359L117.727 77.5986L117.76 77.1599L119.097 48.3159L119.108 47.6839L119.077 47.0533Z" fill="#F7FAFD"/>
<path d="M81.441 61.2059H75.8024C75.097 61.2059 74.525 61.7792 74.525 62.4845V66.3712C74.525 67.0792 74.2437 67.7592 73.7424 68.2605L73.3837 68.6192C72.8824 69.1205 72.2024 69.4005 71.4944 69.4005H47.613C46.905 69.4005 46.225 69.1205 45.7237 68.6192L45.365 68.2605C44.8637 67.7592 44.5824 67.0792 44.5824 66.3712V62.4845C44.5824 61.7792 44.0104 61.2059 43.3037 61.2059H37.6664C36.961 61.2059 36.3877 61.7792 36.3877 62.4845V68.1219C36.3877 68.8285 36.961 69.4005 37.6664 69.4005H41.9117C42.6197 69.4005 43.2997 69.6819 43.801 70.1832C44.3024 70.6845 44.5824 71.3645 44.5824 72.0725V76.1965C44.5824 76.9659 45.2117 77.5952 45.981 77.5952H45.985H73.1224H73.125C73.8957 77.5952 74.525 76.9659 74.525 76.1965V72.0725C74.525 71.3645 74.805 70.6845 75.3064 70.1832C75.8077 69.6819 76.4877 69.4005 77.1957 69.4005H81.441C82.1464 69.4005 82.7197 68.8285 82.7197 68.1219V62.4845C82.7197 61.7792 82.1464 61.2059 81.441 61.2059Z" fill="#F7FAFD"/>
</svg>
