<svg width="24" height="24" viewBox="0 0 24 24" fill="none" xmlns="http://www.w3.org/2000/svg">
<path d="M22.7968 10.7182V7.13422C22.7968 6.49521 22.544 5.88237 22.094 5.43052C21.6439 4.97867 21.0336 4.72483 20.3972 4.72483H13.1982V3.14426C13.5641 2.81418 13.7981 2.33952 13.7981 1.80705C13.7981 1.32779 13.6085 0.868159 13.2709 0.529272C12.9334 0.190385 12.4756 0 11.9983 0C11.521 0 11.0632 0.190385 10.7257 0.529272C10.3882 0.868159 10.1986 1.32779 10.1986 1.80705C10.1986 2.33952 10.4325 2.81418 10.7985 3.14426V4.72483H3.5995C2.96307 4.72483 2.3527 4.97867 1.90268 5.43052C1.45265 5.88237 1.19983 6.49521 1.19983 7.13422V10.7459L1.11344 10.7519C0.810952 10.7736 0.527873 10.9095 0.321255 11.1324C0.114637 11.3553 -0.000159571 11.6485 1.6648e-07 11.953V14.3624C1.6648e-07 14.6819 0.126411 14.9883 0.351423 15.2143C0.576435 15.4402 0.881617 15.5671 1.19983 15.5671V21.5906C1.19983 22.2296 1.45265 22.8425 1.90268 23.2943C2.3527 23.7462 2.96307 24 3.5995 24H20.3972C21.0336 24 21.6439 23.7462 22.094 23.2943C22.544 22.8425 22.7968 22.2296 22.7968 21.5906V15.5671C23.115 15.5671 23.4202 15.4402 23.6452 15.2143C23.8702 14.9883 23.9967 14.6819 23.9967 14.3624V12.0277C24.0106 11.8407 23.981 11.6531 23.9103 11.4796C23.6679 10.8917 23.1484 10.7507 22.7968 10.7182ZM5.99916 11.953C5.99916 10.623 6.80545 9.54362 7.79891 9.54362C8.79237 9.54362 9.59866 10.623 9.59866 11.953C9.59866 13.283 8.79237 14.3624 7.79891 14.3624C6.80545 14.3624 5.99916 13.283 5.99916 11.953ZM16.7953 19.1812C15.5942 19.1776 7.2002 19.1812 7.199 19.1812V16.7718C7.199 16.7718 15.599 16.7694 16.8001 16.7718L16.7953 19.1812ZM16.1977 14.3624C15.2043 14.3624 14.398 13.283 14.398 11.953C14.398 10.623 15.2043 9.54362 16.1977 9.54362C17.1912 9.54362 17.9975 10.623 17.9975 11.953C17.9975 13.283 17.1912 14.3624 16.1977 14.3624Z" fill="#F5F5FB"/>
</svg>
