<svg width="127" height="127" viewBox="0 0 127 127" fill="none" xmlns="http://www.w3.org/2000/svg">
<path d="M63.5 127C98.5701 127 127 98.5701 127 63.5C127 28.4299 98.5701 0 63.5 0C28.4299 0 0 28.4299 0 63.5C0 98.5701 28.4299 127 63.5 127Z" fill="#FFCC4D"/>
<path d="M89.9059 96.5871C89.7471 95.9556 85.7854 81.1389 63.5005 81.1389C41.212 81.1389 37.2538 95.9556 37.095 96.5871C36.901 97.3526 37.2467 98.1463 37.9311 98.5414C38.619 98.933 39.4798 98.8166 40.0478 98.2698C40.1148 98.2028 46.9411 91.7222 63.5005 91.7222C80.0598 91.7222 86.8896 98.2028 86.9531 98.2663C87.2918 98.6014 87.7434 98.7778 88.1949 98.7778C88.4912 98.7778 88.7911 98.7037 89.0627 98.552C89.7542 98.1569 90.0999 97.3561 89.9059 96.5871Z" fill="#664500"/>
<path d="M42.3331 59.9722C47.204 59.9722 51.1526 54.4442 51.1526 47.625C51.1526 40.8058 47.204 35.2778 42.3331 35.2778C37.4623 35.2778 33.5137 40.8058 33.5137 47.625C33.5137 54.4442 37.4623 59.9722 42.3331 59.9722Z" fill="#664500"/>
<path d="M84.6666 59.9722C89.5375 59.9722 93.4861 54.4442 93.4861 47.625C93.4861 40.8058 89.5375 35.2778 84.6666 35.2778C79.7958 35.2778 75.8472 40.8058 75.8472 47.625C75.8472 54.4442 79.7958 59.9722 84.6666 59.9722Z" fill="#664500"/>
</svg>
