<svg width="18" height="16" viewBox="0 0 18 16" fill="none" xmlns="http://www.w3.org/2000/svg">
<path d="M1.575 0C1.39598 0 1.22429 0.0702378 1.0977 0.195262C0.971116 0.320286 0.900001 0.489856 0.900001 0.666667C0.900001 0.843478 0.971116 1.01305 1.0977 1.13807C1.22429 1.2631 1.39598 1.33333 1.575 1.33333H2.5128L0.0495008 7.304C0.016685 7.3839 -0.000125586 7.46933 7.06338e-07 7.55556C7.00174e-07 7.96411 0.0814778 8.36867 0.23978 8.74613C0.398082 9.12358 0.63011 9.46655 0.922614 9.75544C1.21512 10.0443 1.56237 10.2735 1.94455 10.4298C2.32672 10.5862 2.73634 10.6667 3.15 10.6667C3.56366 10.6667 3.97328 10.5862 4.35545 10.4298C4.73763 10.2735 5.08488 10.0443 5.37739 9.75544C5.66989 9.46655 5.90192 9.12358 6.06022 8.74613C6.21852 8.36867 6.3 7.96411 6.3 7.55556C6.30013 7.46933 6.28332 7.3839 6.2505 7.304L3.7872 1.33333H8.325V12H4.7277C4.19064 12 3.67557 12.2107 3.29581 12.5858C2.91605 12.9609 2.7027 13.4696 2.7027 14C2.7027 14.5304 2.91605 15.0391 3.29581 15.4142C3.67557 15.7893 4.19064 16 4.7277 16H13.275C13.8121 16 14.3271 15.7893 14.7069 15.4142C15.0867 15.0391 15.3 14.5304 15.3 14C15.3 13.4696 15.0867 12.9609 14.7069 12.5858C14.3271 12.2107 13.8121 12 13.275 12H9.675V1.33333H14.2128L11.7495 7.304C11.7167 7.3839 11.6999 7.46933 11.7 7.55556C11.7 8.38067 12.0319 9.172 12.6226 9.75544C13.2134 10.3389 14.0146 10.6667 14.85 10.6667C15.6854 10.6667 16.4866 10.3389 17.0774 9.75544C17.6681 9.172 18 8.38067 18 7.55556C18.0001 7.46933 17.9833 7.3839 17.9505 7.304L15.4872 1.33333H16.425C16.604 1.33333 16.7757 1.2631 16.9023 1.13807C17.0289 1.01305 17.1 0.843478 17.1 0.666667C17.1 0.489856 17.0289 0.320286 16.9023 0.195262C16.7757 0.0702378 16.604 0 16.425 0H1.575ZM3.15 3.32267L4.6215 6.88889H1.6785L3.15 3.32267ZM13.3785 6.88889L14.85 3.32267L16.3215 6.88889H13.3785Z" fill="#F29C38"/>
</svg>
