<svg width="19" height="20" viewBox="0 0 19 20" fill="none" xmlns="http://www.w3.org/2000/svg">
<path fill-rule="evenodd" clip-rule="evenodd" d="M13.5679 12.1704C15.6231 9.50106 15.5012 5.66801 13.1174 3.12733C10.4603 0.295423 5.99926 0.14151 3.15337 2.78355C0.30748 5.4256 0.154407 9.86311 2.81147 12.695C5.19504 15.2354 9.03029 15.6208 11.849 13.7659L16.8541 19.1002C17.232 19.5029 17.8665 19.5248 18.2713 19.1491L18.5243 18.9142C18.929 18.5384 18.9508 17.9073 18.5729 17.5046L13.5679 12.1704ZM10.851 10.9877C9.14351 12.573 6.46689 12.4806 4.87265 10.7815C3.27841 9.08233 3.37026 6.41983 5.07779 4.8346C6.78533 3.24937 9.46194 3.34172 11.0562 5.04086C12.6504 6.74001 12.5586 9.40251 10.851 10.9877Z" fill="#ABBAD1"/>
</svg>