<svg width="48" height="48" viewBox="0 0 48 48" fill="none" xmlns="http://www.w3.org/2000/svg">
<circle cx="24" cy="24" r="24" fill="#0B1FD1"/>
<path d="M32.0007 18.666H30.6673V17.3327C30.6673 13.6567 27.6767 10.666 24.0007 10.666C20.3247 10.666 17.334 13.6567 17.334 17.3327V18.666H16.0007C15.2934 18.666 14.6151 18.947 14.115 19.4471C13.6149 19.9472 13.334 20.6254 13.334 21.3327V34.666C13.334 35.3733 13.6149 36.0515 14.115 36.5516C14.6151 37.0517 15.2934 37.3327 16.0007 37.3327H32.0007C32.7079 37.3327 33.3862 37.0517 33.8863 36.5516C34.3864 36.0515 34.6673 35.3733 34.6673 34.666V21.3327C34.6673 20.6254 34.3864 19.9472 33.8863 19.4471C33.3862 18.947 32.7079 18.666 32.0007 18.666ZM20.0007 17.3327C20.0007 15.1273 21.7953 13.3327 24.0007 13.3327C26.206 13.3327 28.0007 15.1273 28.0007 17.3327V18.666H20.0007V17.3327ZM25.334 28.9633V31.9993H22.6673V28.9633C21.874 28.502 21.334 27.6514 21.334 26.666C21.334 25.9588 21.6149 25.2805 22.115 24.7804C22.6151 24.2803 23.2934 23.9993 24.0007 23.9993C24.7079 23.9993 25.3862 24.2803 25.8863 24.7804C26.3864 25.2805 26.6673 25.9588 26.6673 26.666C26.6673 27.65 26.1273 28.5007 25.334 28.9633Z" fill="white"/>
</svg>
