<svg xmlns="http://www.w3.org/2000/svg" width="24" height="13" viewBox="0 0 24 13">
    <g fill="none" fill-rule="evenodd">
        <path d="M0-3h24v24H0z"/>
        <path fill="#FFF" fill-rule="nonzero" d="M17.295.705a.997.997 0 0 0-1.41 0l-4.93 4.93a.997.997 0 0 0 1.41 1.41l4.93-4.93a.997.997 0 0 0 0-1.41zm4.24 0l-9.734 9.734a.2.2 0 0 1-.282 0L8.186 7.114a.997.997 0 1 0-1.41 1.41l4.177 4.179a1 1 0 0 0 1.414 0L22.952 2.118A.997.997 0 0 0 22.95.705l-.003-.003a1 1 0 0 0-1.412.003zM1.118 8.528l4.177 4.177a.998.998 0 0 0 1.41-1.41l-4.17-4.18a1 1 0 0 0-1.413-.002l-.002.002a.997.997 0 0 0-.002 1.413z"/>
    </g>
</svg>
