<svg width="217" height="69" viewBox="0 0 217 69" fill="none" xmlns="http://www.w3.org/2000/svg">
<path d="M17.3406 50.8286C13.6117 50.8286 10.3218 48.9133 8.38292 46.0046C7.22526 44.2678 6.54932 42.1767 6.54932 39.9277C6.54932 34.0794 16.3181 23.7507 16.7326 23.318L17.2438 22.7737L17.7689 23.304C18.1972 23.7367 28.1318 34.0654 28.1318 39.9137C28.1318 42.1695 27.455 44.2651 26.2959 46.0046C24.3568 48.9149 21.0678 50.8286 17.3406 50.8286ZM17.2577 24.8813C16.401 25.8165 14.6048 27.8403 12.8224 30.2131C9.65821 34.4284 7.9863 37.7782 7.9863 39.9137C7.9863 45.1199 12.1867 49.3631 17.3406 49.3631C22.4944 49.3631 26.6948 45.1199 26.6948 39.9137C26.6948 37.7782 24.9953 34.4284 21.7759 30.2131C19.9659 27.8543 18.1281 25.8165 17.2577 24.8813Z" fill="url(#paint0_linear)"/>
<path d="M17.3408 54.319C9.47879 54.319 3.09521 47.8566 3.09521 39.9286C3.09521 32.1681 13.8174 21.337 14.2733 20.8904C14.5497 20.6112 15.0195 20.6112 15.2958 20.8904C15.5722 21.1695 15.5722 21.6441 15.2958 21.9232C15.1853 22.0349 4.54602 32.7823 4.54602 39.9286C4.54602 47.061 10.294 52.8674 17.3546 52.8674C24.4152 52.8674 30.1632 47.061 30.1632 39.9286C30.1632 36.9976 28.284 32.9498 24.7192 28.1903C21.9834 24.5473 19.2337 21.7837 19.2061 21.7558C18.9159 21.4766 18.9159 21.016 19.2061 20.7229C19.4824 20.4298 19.9384 20.4298 20.2286 20.7229C20.6984 21.1834 31.614 32.1542 31.614 39.9286C31.5864 47.8566 25.2028 54.319 17.3408 54.319Z" fill="url(#paint1_linear)"/>
<path d="M17.3406 57.8082C7.7791 57.8082 0 49.9501 0 40.2913C0 36.2994 1.98968 31.3863 5.89995 25.7055C8.78774 21.5183 11.6203 18.5313 11.7447 18.4057C12.021 18.1126 12.477 18.1126 12.7671 18.3917C13.0572 18.6709 13.0572 19.1315 12.781 19.4246C12.7533 19.4525 9.89317 22.4673 7.07442 26.5569C3.38522 31.9028 1.43699 36.6483 1.43699 40.2913C1.43699 49.1405 8.56669 56.3567 17.3406 56.3567C26.1146 56.3567 33.2442 49.1544 33.2442 40.2913C33.2442 36.6483 31.2822 31.9028 27.5653 26.5569C24.719 22.4673 21.8312 19.4525 21.8036 19.4246C21.5272 19.1315 21.5272 18.6709 21.8174 18.3917C22.1076 18.1126 22.5635 18.1126 22.8399 18.4057C23.3234 18.9082 34.6812 30.828 34.6812 40.2913C34.6812 49.9501 26.9022 57.8082 17.3406 57.8082Z" fill="url(#paint2_linear)"/>
<path d="M17.2977 6.24792L31.4401 14.1833V30.0541L17.2977 37.9894L3.15527 30.0541V14.1833L17.2977 6.24792Z" fill="url(#paint3_linear)"/>
<path d="M17.2976 8.01135L29.8686 15.0626V29.1652L17.2976 36.2163L4.72656 29.1652V15.0626L17.2976 8.01135Z" fill="#7380EB"/>
<path d="M17.2358 21.3334L29.8669 15.0605L29.8699 29.1607L17.2932 36.2258L17.2358 21.3334Z" fill="#6E98E9"/>
<path fill-rule="evenodd" clip-rule="evenodd" d="M17.2899 11.09L27.022 16.4883L29.8616 15.0741L17.2995 8.00793L17.2899 8.01333L17.2804 8.00793L4.71826 15.0741L4.72534 15.0776L4.72297 29.162L7.48466 30.7174L7.48512 30.6354V30.7041L17.3039 36.2225V36.2137L29.8645 29.1661V27.5865V25.9928L17.3039 33.0505V33.0491L7.50251 27.5506L7.56485 16.4881L7.56143 16.4864L17.2899 11.09Z" fill="#16253D"/>
<path d="M50.194 45.5735C50.7615 45.5735 51.2797 45.4862 51.7485 45.3241C52.2173 45.1497 52.6244 44.9254 52.9822 44.6387C53.34 44.3646 53.6361 44.053 53.8705 43.704C54.1049 43.355 54.2776 43.0061 54.3886 42.6447L53.0932 42.4578C52.9822 42.707 52.8465 42.9438 52.6738 43.1806C52.5011 43.4174 52.2913 43.6168 52.057 43.7912C51.8226 43.9782 51.5511 44.1153 51.2427 44.2274C50.9342 44.3396 50.5765 44.3895 50.194 44.3895C49.7746 44.3895 49.3674 44.3022 48.9849 44.1153C48.6025 43.9284 48.2571 43.6791 47.961 43.3551C47.6649 43.0435 47.4305 42.6696 47.2577 42.2334C47.0727 41.7972 46.9863 41.3361 46.9863 40.8376C46.9863 40.3391 47.0727 39.8779 47.2577 39.4418C47.4305 39.0056 47.6649 38.6317 47.961 38.3077C48.2571 37.9961 48.6025 37.7469 48.9849 37.5599C49.3674 37.3729 49.7746 37.2858 50.194 37.2858C50.5518 37.2858 50.8726 37.3356 51.1563 37.4353C51.4401 37.535 51.6991 37.6596 51.9213 37.8216C52.1309 37.9837 52.316 38.1706 52.4764 38.3825C52.6368 38.5944 52.7601 38.8187 52.8465 39.0306L54.1419 38.8436C54.0309 38.5071 53.8705 38.1706 53.6485 37.8341C53.4264 37.5101 53.155 37.2234 52.8219 36.9617C52.4888 36.7 52.0939 36.5006 51.6621 36.3386C51.2303 36.1765 50.7369 36.1018 50.194 36.1018C49.5895 36.1018 49.022 36.2264 48.4792 36.4757C47.9363 36.7249 47.4551 37.0615 47.048 37.4851C46.6286 37.9213 46.2954 38.4198 46.061 38.9931C45.8143 39.5664 45.6909 40.1771 45.6909 40.8376C45.6909 41.4981 45.8143 42.1088 46.061 42.6821C46.2954 43.2553 46.6286 43.7539 47.048 44.1776C47.4551 44.6138 47.9363 44.9503 48.4792 45.1995C49.022 45.4488 49.5895 45.5735 50.194 45.5735Z" fill="#F5F5FB"/>
<path fill-rule="evenodd" clip-rule="evenodd" d="M58.1475 42.3331H60.9234L62.5272 45.1995H63.8843L62.1571 42.0838C62.5025 41.9591 62.8109 41.7723 63.0824 41.5355C63.3168 41.3361 63.5265 41.0619 63.7239 40.7129C63.9089 40.3764 64.0077 39.9402 64.0077 39.4043C64.0077 38.9806 63.9337 38.5943 63.7856 38.2328C63.6376 37.8714 63.4278 37.5598 63.1564 37.2982C62.8727 37.0364 62.5396 36.837 62.1447 36.6875C61.7499 36.5504 61.3058 36.4756 60.8247 36.4756H56.8521V45.1995H58.1475V42.3331ZM60.7999 41.1491H58.1475V37.6596H60.8247C61.1084 37.6596 61.3675 37.6969 61.6019 37.7842C61.8363 37.8714 62.0337 37.996 62.1941 38.1581C62.3545 38.3201 62.4902 38.4946 62.5765 38.7065C62.6629 38.9183 62.7122 39.1551 62.7122 39.4043C62.7122 39.6411 62.6629 39.853 62.5765 40.0648C62.4902 40.2767 62.3545 40.4637 62.1941 40.6257C62.0337 40.7877 61.8363 40.9123 61.6019 40.9996C61.3675 41.0993 61.0961 41.1491 60.7999 41.1491Z" fill="#F5F5FB"/>
<path d="M70.4899 42.3331V45.1995H69.1945V42.3331C68.6393 41.3734 68.0718 40.3889 67.5042 39.4043C66.9244 38.4198 66.3569 37.4477 65.8018 36.4756H67.2822L69.8114 40.7753H69.873L72.4022 36.4756H73.8826C73.5324 37.0889 73.1772 37.7022 72.8202 38.3186L72.8195 38.3198L72.819 38.3208C72.6105 38.6807 72.4014 39.0417 72.1924 39.4043C71.696 40.2473 71.2086 41.0902 70.7303 41.9174L70.4899 42.3331Z" fill="#F5F5FB"/>
<path fill-rule="evenodd" clip-rule="evenodd" d="M83.2622 39.6536C83.2622 39.2174 83.1759 38.8062 83.0155 38.4198C82.8428 38.0334 82.6084 37.6969 82.2999 37.4103C81.9915 37.1237 81.6337 36.8869 81.2142 36.7248C80.7824 36.5628 80.3137 36.4756 79.8078 36.4756H76.0449V45.1995H77.3403V42.8315H79.8078C80.3137 42.8315 80.7824 42.7444 81.2142 42.5823C81.6337 42.4203 81.9915 42.1836 82.2999 41.8969C82.6084 41.6102 82.8428 41.2737 83.0155 40.8874C83.1759 40.501 83.2622 40.0898 83.2622 39.6536ZM81.9668 39.6536C81.9668 40.2518 81.7818 40.7378 81.3993 41.0993C81.0168 41.4607 80.4864 41.6477 79.8078 41.6477H77.3403V37.6596H79.8078C80.4864 37.6596 81.0168 37.8465 81.3993 38.2079C81.7818 38.5693 81.9668 39.0554 81.9668 39.6536Z" fill="#F5F5FB"/>
<path d="M87.837 37.6596H84.9375V36.4756H92.0318V37.6596H89.1323V45.1995H87.837V37.6596Z" fill="#F5F5FB"/>
<path fill-rule="evenodd" clip-rule="evenodd" d="M102.758 40.8376C102.758 40.1771 102.635 39.5664 102.388 38.9931C102.141 38.4198 101.808 37.9213 101.389 37.4851C100.969 37.0615 100.476 36.7249 99.9203 36.4757C99.3656 36.2264 98.761 36.1018 98.1311 36.1018C97.5021 36.1018 96.8975 36.2264 96.3428 36.4757C95.7872 36.7249 95.2941 37.0615 94.8744 37.4851C94.4548 37.9213 94.1221 38.4198 93.8747 38.9931C93.6282 39.5664 93.5049 40.1771 93.5049 40.8376C93.5049 41.4981 93.6282 42.1088 93.8747 42.6821C94.1221 43.2553 94.4548 43.7539 94.8744 44.1776C95.2941 44.6138 95.7872 44.9503 96.3428 45.1995C96.8975 45.4488 97.5021 45.5735 98.1311 45.5735C98.761 45.5735 99.3656 45.4488 99.9203 45.1995C100.476 44.9503 100.969 44.6138 101.389 44.1776C101.808 43.7539 102.141 43.2553 102.388 42.6821C102.635 42.1088 102.758 41.4981 102.758 40.8376ZM94.8001 40.8376C94.8001 40.3391 94.8871 39.8779 95.072 39.4418C95.2569 39.0056 95.4917 38.6317 95.7998 38.3077C96.108 37.9961 96.4534 37.7469 96.8604 37.5599C97.2682 37.3729 97.687 37.2858 98.1311 37.2858C98.5753 37.2858 98.9949 37.3729 99.4019 37.5599C99.8097 37.7469 100.155 37.9961 100.463 38.3077C100.771 38.6317 101.006 39.0056 101.191 39.4418C101.376 39.8779 101.463 40.3391 101.463 40.8376C101.463 41.3361 101.376 41.7972 101.191 42.2334C101.006 42.6696 100.771 43.0435 100.463 43.3551C100.155 43.6791 99.8097 43.9284 99.4019 44.1153C98.9949 44.3022 98.5753 44.3895 98.1311 44.3895C97.687 44.3895 97.2682 44.3022 96.8604 44.1153C96.4534 43.9284 96.108 43.6791 95.7998 43.3551C95.4917 43.0435 95.2569 42.6696 95.072 42.2334C94.8871 41.7972 94.8001 41.3361 94.8001 40.8376Z" fill="#F5F5FB"/>
<path d="M110.978 45.3241C110.51 45.4862 109.992 45.5735 109.424 45.5735C108.819 45.5735 108.252 45.4488 107.709 45.1995C107.167 44.9503 106.686 44.6138 106.279 44.1776C105.859 43.7539 105.525 43.2553 105.292 42.6821C105.044 42.1088 104.921 41.4981 104.921 40.8376C104.921 40.1771 105.044 39.5664 105.292 38.9931C105.525 38.4198 105.859 37.9213 106.279 37.4851C106.686 37.0615 107.167 36.7249 107.709 36.4757C108.252 36.2264 108.819 36.1018 109.424 36.1018C109.967 36.1018 110.461 36.1765 110.892 36.3386C111.324 36.5006 111.719 36.7 112.052 36.9617C112.385 37.2234 112.657 37.5101 112.879 37.8341C113.101 38.1706 113.261 38.5071 113.372 38.8436L112.077 39.0306C111.991 38.8187 111.867 38.5944 111.707 38.3825C111.547 38.1706 111.361 37.9837 111.151 37.8216C110.929 37.6596 110.67 37.535 110.386 37.4353C110.103 37.3356 109.782 37.2858 109.424 37.2858C109.005 37.2858 108.597 37.3729 108.216 37.5599C107.833 37.7469 107.487 37.9961 107.191 38.3077C106.895 38.6317 106.66 39.0056 106.488 39.4418C106.303 39.8779 106.216 40.3391 106.216 40.8376C106.216 41.3361 106.303 41.7972 106.488 42.2334C106.66 42.6696 106.895 43.0435 107.191 43.3551C107.487 43.6791 107.833 43.9284 108.216 44.1153C108.597 44.3022 109.005 44.3895 109.424 44.3895C109.806 44.3895 110.164 44.3396 110.473 44.2274C110.782 44.1153 111.053 43.9782 111.287 43.7912C111.521 43.6168 111.731 43.4174 111.904 43.1806C112.077 42.9438 112.213 42.707 112.323 42.4578L113.619 42.6447C113.508 43.0061 113.335 43.355 113.101 43.704C112.866 44.053 112.57 44.3646 112.213 44.6387C111.855 44.9254 111.448 45.1497 110.978 45.3241Z" fill="#F5F5FB"/>
<path d="M119.598 44.3894C119.277 44.3894 118.981 44.3271 118.71 44.2149C118.438 44.1028 118.204 43.9408 118.007 43.7289C117.809 43.517 117.661 43.2677 117.55 42.9687C117.439 42.6696 117.378 42.3331 117.378 41.9591V36.4756H116.082V41.9591C116.082 42.5075 116.169 43.006 116.341 43.4422C116.501 43.8909 116.749 44.2773 117.057 44.5888C117.365 44.9003 117.735 45.1497 118.167 45.3241C118.599 45.4861 119.067 45.5734 119.598 45.5734C120.129 45.5734 120.61 45.4861 121.041 45.3241C121.474 45.1497 121.843 44.9003 122.152 44.5888C122.461 44.2773 122.695 43.8909 122.868 43.4422C123.028 43.006 123.114 42.5075 123.114 41.9591V36.4756H121.819V41.9591C121.819 42.3331 121.769 42.6696 121.659 42.9687C121.547 43.2677 121.387 43.517 121.19 43.7289C120.992 43.9408 120.758 44.1028 120.487 44.2149C120.215 44.3271 119.919 44.3894 119.598 44.3894Z" fill="#F5F5FB"/>
<path fill-rule="evenodd" clip-rule="evenodd" d="M130.208 42.3331H127.431V45.1995H126.136V36.4756H130.109C130.59 36.4756 131.034 36.5504 131.43 36.6875C131.824 36.837 132.157 37.0364 132.441 37.2982C132.712 37.5598 132.922 37.8714 133.07 38.2328C133.218 38.5943 133.292 38.9806 133.292 39.4043C133.292 39.9402 133.193 40.3764 133.008 40.7129C132.811 41.0619 132.601 41.3361 132.367 41.5355C132.096 41.7723 131.787 41.9591 131.441 42.0838L133.169 45.1995H131.811L130.208 42.3331ZM127.431 41.1491H130.084C130.381 41.1491 130.652 41.0993 130.887 40.9996C131.12 40.9123 131.318 40.7877 131.478 40.6257C131.639 40.4637 131.775 40.2767 131.861 40.0648C131.947 39.853 131.997 39.6411 131.997 39.4043C131.997 39.1551 131.947 38.9183 131.861 38.7065C131.775 38.4946 131.639 38.3201 131.478 38.1581C131.318 37.996 131.12 37.8714 130.887 37.7842C130.652 37.6969 130.393 37.6596 130.109 37.6596H127.431V41.1491Z" fill="#F5F5FB"/>
<path fill-rule="evenodd" clip-rule="evenodd" d="M137.245 42.3331H140.021L141.625 45.1995H142.982L141.255 42.0838C141.601 41.9591 141.909 41.7723 142.18 41.5355C142.415 41.3361 142.624 41.0619 142.822 40.7129C143.006 40.3764 143.105 39.9402 143.105 39.4043C143.105 38.9806 143.032 38.5943 142.883 38.2328C142.735 37.8714 142.525 37.5598 142.254 37.2982C141.97 37.0364 141.637 36.837 141.243 36.6875C140.847 36.5504 140.403 36.4756 139.922 36.4756H135.95V45.1995H137.245V42.3331ZM139.898 41.1491H137.245V37.6596H139.922C140.207 37.6596 140.465 37.6969 140.7 37.7842C140.934 37.8714 141.131 37.996 141.292 38.1581C141.452 38.3201 141.588 38.4946 141.674 38.7065C141.761 38.9183 141.81 39.1551 141.81 39.4043C141.81 39.6411 141.761 39.853 141.674 40.0648C141.588 40.2767 141.452 40.4637 141.292 40.6257C141.131 40.7877 140.934 40.9123 140.7 40.9996C140.465 41.0993 140.194 41.1491 139.898 41.1491Z" fill="#F5F5FB"/>
<path d="M147.058 44.0155H152.117V45.1995H145.763V36.4756H152.117V37.6596H147.058V40.2144H151.068V41.3983H147.058V44.0155Z" fill="#F5F5FB"/>
<path d="M160.202 43.0185L156.008 36.4756H154.588V45.1995H155.884V38.6566H156.008L160.202 45.1995H161.621V36.4756H160.326V43.0185H160.202Z" fill="#F5F5FB"/>
<path d="M170.269 45.3241C169.8 45.4862 169.282 45.5735 168.714 45.5735C168.11 45.5735 167.542 45.4488 166.999 45.1995C166.457 44.9503 165.975 44.6138 165.568 44.1776C165.149 43.7539 164.816 43.2553 164.581 42.6821C164.335 42.1088 164.211 41.4981 164.211 40.8376C164.211 40.1771 164.335 39.5664 164.581 38.9931C164.816 38.4198 165.149 37.9213 165.568 37.4851C165.975 37.0615 166.457 36.7249 166.999 36.4757C167.542 36.2264 168.11 36.1018 168.714 36.1018C169.257 36.1018 169.75 36.1765 170.183 36.3386C170.614 36.5006 171.009 36.7 171.342 36.9617C171.676 37.2234 171.947 37.5101 172.169 37.8341C172.391 38.1706 172.551 38.5071 172.662 38.8436L171.367 39.0306C171.28 38.8187 171.157 38.5944 170.997 38.3825C170.836 38.1706 170.651 37.9837 170.441 37.8216C170.219 37.6596 169.961 37.535 169.676 37.4353C169.392 37.3356 169.072 37.2858 168.714 37.2858C168.295 37.2858 167.888 37.3729 167.505 37.5599C167.123 37.7469 166.777 37.9961 166.481 38.3077C166.185 38.6317 165.951 39.0056 165.778 39.4418C165.593 39.8779 165.507 40.3391 165.507 40.8376C165.507 41.3361 165.593 41.7972 165.778 42.2334C165.951 42.6696 166.185 43.0435 166.481 43.3551C166.777 43.6791 167.123 43.9284 167.505 44.1153C167.888 44.3022 168.295 44.3895 168.714 44.3895C169.097 44.3895 169.454 44.3396 169.763 44.2274C170.071 44.1153 170.342 43.9782 170.577 43.7912C170.812 43.6168 171.021 43.4174 171.194 43.1806C171.367 42.9438 171.502 42.707 171.613 42.4578L172.909 42.6447C172.798 43.0061 172.625 43.355 172.391 43.704C172.156 44.053 171.86 44.3646 171.502 44.6387C171.144 44.9254 170.737 45.1497 170.269 45.3241Z" fill="#F5F5FB"/>
<path d="M176.667 36.4756H175.372V45.1995H176.667V36.4756Z" fill="#F5F5FB"/>
<path d="M180.987 44.0155H186.045V45.1995H179.692V36.4756H186.045V37.6596H180.987V40.2144H184.996V41.3983H180.987V44.0155Z" fill="#F5F5FB"/>
<path d="M193.699 42.7693C193.699 42.9688 193.65 43.1682 193.551 43.3551C193.452 43.5545 193.317 43.729 193.132 43.8785C192.946 44.0406 192.737 44.1652 192.478 44.2523C192.218 44.3396 191.923 44.3895 191.602 44.3895C191.281 44.3895 190.997 44.3396 190.738 44.2523C190.479 44.1652 190.244 44.053 190.059 43.891C189.874 43.7414 189.714 43.5669 189.578 43.3551C189.443 43.1556 189.331 42.9438 189.258 42.707L187.962 42.8939C188.085 43.2803 188.246 43.6417 188.456 43.9658C188.665 44.3022 188.912 44.5764 189.208 44.8132C189.505 45.05 189.85 45.237 190.244 45.374C190.639 45.5111 191.096 45.5735 191.602 45.5735C192.132 45.5735 192.601 45.4987 193.02 45.3491C193.44 45.1871 193.798 44.9877 194.094 44.726C194.377 44.4768 194.599 44.1776 194.76 43.8411C194.92 43.5047 194.995 43.1432 194.995 42.7693C194.995 42.383 194.92 42.0589 194.773 41.7972C194.612 41.5356 194.414 41.2987 194.18 41.1118C193.933 40.9248 193.65 40.7753 193.341 40.6506C193.02 40.526 192.7 40.4139 192.379 40.3141C192.164 40.2579 191.954 40.1964 191.75 40.1365L191.748 40.1359C191.636 40.1031 191.525 40.0708 191.417 40.04C191.096 39.9528 190.812 39.8406 190.578 39.7284C190.331 39.6163 190.134 39.4792 189.986 39.3171C189.825 39.1552 189.751 38.9557 189.751 38.719C189.751 38.5445 189.8 38.37 189.887 38.1955C189.973 38.0335 190.109 37.8715 190.27 37.7344C190.43 37.5973 190.615 37.4976 190.849 37.4104C191.071 37.3231 191.318 37.2858 191.602 37.2858C191.897 37.2858 192.157 37.3231 192.379 37.3979C192.601 37.4727 192.798 37.5724 192.971 37.7094C193.132 37.8466 193.267 37.9961 193.378 38.1831C193.489 38.37 193.576 38.5694 193.638 38.7812L194.933 38.5944C194.847 38.2578 194.711 37.9338 194.526 37.6223C194.34 37.3231 194.106 37.0615 193.823 36.837C193.539 36.6127 193.218 36.4383 192.847 36.3012C192.478 36.1641 192.058 36.1018 191.602 36.1018C191.121 36.1018 190.688 36.1765 190.306 36.3137C189.924 36.4632 189.591 36.6626 189.32 36.8994C189.036 37.1362 188.826 37.4228 188.678 37.7344C188.529 38.046 188.456 38.3825 188.456 38.719C188.456 39.1053 188.529 39.4418 188.69 39.7035C188.838 39.9777 189.036 40.2144 189.282 40.4014C189.516 40.5884 189.8 40.7503 190.121 40.875C190.43 40.9997 190.751 41.1118 191.084 41.2115C191.404 41.3111 191.725 41.3984 192.045 41.4856C192.354 41.5728 192.638 41.6726 192.885 41.7848C193.119 41.8969 193.317 42.034 193.477 42.1836C193.625 42.3456 193.699 42.5326 193.699 42.7693Z" fill="#F5F5FB"/>
<path d="M197.831 45.8871C197.567 45.8871 197.34 45.7915 197.151 45.6005C196.962 45.4095 196.868 45.1807 196.868 44.914C196.868 44.6434 196.962 44.4146 197.151 44.2275C197.344 44.0364 197.571 43.9409 197.831 43.9409C198.091 43.9409 198.315 44.0364 198.505 44.2275C198.698 44.4146 198.794 44.6434 198.794 44.914C198.794 45.1807 198.7 45.4095 198.51 45.6005C198.321 45.7915 198.095 45.8871 197.831 45.8871ZM202.812 45.6065H201.667L204.491 36.3416H205.703L208.545 45.6065H207.287L206.66 43.5708H203.433L202.812 45.6065ZM203.717 42.6456H206.394L205.289 39.1294L205.029 38.1982L204.798 39.1294L203.717 42.6456ZM209.756 45.6065V44.6812H211.772V37.2729H209.756V36.3416H214.98V37.2729H212.966V44.6812H214.98V45.6065H209.756Z" fill="#F5F5FB"/>
<path d="M59.1442 22.9234C59.1442 24.5943 58.5436 25.931 57.3422 26.9335C56.1582 27.9184 54.4694 28.4109 52.2755 28.4109C50.3081 28.4109 48.5496 28.0328 47 27.2765V23.5565C47.8879 23.9435 48.802 24.3041 49.7422 24.6382C50.6999 24.9548 51.6488 25.1132 52.589 25.1132C53.564 25.1132 54.2517 24.9284 54.6522 24.5591C55.07 24.1722 55.2789 23.6885 55.2789 23.1081C55.2789 22.6332 55.1135 22.2287 54.7828 21.8945C54.4694 21.5603 54.0428 21.2526 53.5031 20.9711C52.9633 20.6721 52.3452 20.3555 51.6488 20.0214C51.2135 19.8103 50.7434 19.5641 50.2385 19.2827C49.7335 18.9837 49.246 18.6231 48.7759 18.201C48.3233 17.7613 47.9489 17.2337 47.6529 16.6181C47.3569 16.0025 47.2089 15.2638 47.2089 14.402C47.2089 12.7135 47.7748 11.4032 48.9065 10.4711C50.0383 9.5213 51.5791 9.04639 53.5292 9.04639C54.5041 9.04639 55.4269 9.16077 56.2975 9.38935C57.1855 9.61803 58.1083 9.94343 59.0659 10.3655L57.7862 13.4786C56.933 13.1269 56.1669 12.8543 55.4879 12.6607C54.8089 12.4673 54.1125 12.3706 53.3985 12.3706C52.6499 12.3706 52.0754 12.5464 51.6749 12.8982C51.2744 13.2499 51.0742 13.7073 51.0742 14.2701C51.0742 14.9384 51.3701 15.466 51.9621 15.853C52.5541 16.2399 53.4334 16.7148 54.5999 17.2776C55.5576 17.735 56.3671 18.2098 57.0288 18.7023C57.7078 19.1948 58.2301 19.7751 58.5957 20.4435C58.9614 21.1118 59.1442 21.9385 59.1442 22.9234ZM93.2032 28.1471H82.4696V9.3102H93.2032V12.5817H86.4129V16.7236H92.7337V19.995H86.4129V24.8493H93.2032V28.1471ZM122.452 9.3102C124.994 9.3102 126.865 9.77633 128.067 10.7085C129.286 11.6407 129.895 13.0565 129.895 14.956C129.895 15.8178 129.73 16.5741 129.399 17.2249C129.086 17.858 128.659 18.4032 128.119 18.8606C127.597 19.3003 127.031 19.6608 126.422 19.9422L131.906 28.1471H127.519L123.079 20.9184H120.963V28.1471H117.02V9.3102H122.452ZM122.165 12.5817H120.963V17.6734H122.243C123.549 17.6734 124.48 17.4535 125.037 17.0138C125.612 16.5741 125.899 15.9234 125.899 15.0615C125.899 14.1645 125.594 13.5314 124.985 13.162C124.393 12.7751 123.453 12.5817 122.165 12.5817ZM169.37 21.4988C169.37 22.8003 169.083 23.9787 168.509 25.034C167.952 26.0717 167.098 26.8983 165.949 27.5139C164.817 28.1119 163.381 28.4109 161.64 28.4109C159.168 28.4109 157.287 27.7777 155.999 26.5114C154.71 25.2274 154.066 23.539 154.066 21.446V9.3102H158.009V20.8392C158.009 22.387 158.323 23.4775 158.95 24.1106C159.576 24.7437 160.508 25.0604 161.744 25.0604C163.032 25.0604 163.965 24.7174 164.539 24.0315C165.131 23.3455 165.427 22.2727 165.427 20.8129V9.3102H169.37V21.4988ZM201.761 28.1471L197.269 13.3731H197.164C197.181 13.7249 197.207 14.2525 197.242 14.956C197.277 15.6595 197.312 16.4158 197.346 17.2249C197.382 18.0163 197.399 18.7374 197.399 19.3882V28.1471H193.873V9.3102H199.253L203.667 23.7148H203.745L208.42 9.3102H213.8V28.1471H210.117V19.2299C210.117 18.6319 210.126 17.946 210.143 17.1721C210.179 16.3982 210.205 15.6684 210.222 14.9824C210.257 14.2788 210.283 13.7512 210.3 13.3995H210.196L205.39 28.1471H201.761Z" fill="#09ACC7"/>
<path d="M48.2515 68V59.6H51.6235C52.4955 59.6 53.1595 59.804 53.6155 60.212C54.0795 60.612 54.3115 61.128 54.3115 61.76C54.3115 62.288 54.1675 62.712 53.8795 63.032C53.5995 63.344 53.2555 63.556 52.8475 63.668C53.3275 63.764 53.7235 64.004 54.0355 64.388C54.3475 64.764 54.5035 65.204 54.5035 65.708C54.5035 66.372 54.2635 66.92 53.7835 67.352C53.3035 67.784 52.6235 68 51.7435 68H48.2515ZM49.7875 63.128H51.3955C51.8275 63.128 52.1595 63.028 52.3915 62.828C52.6235 62.628 52.7395 62.344 52.7395 61.976C52.7395 61.624 52.6235 61.348 52.3915 61.148C52.1675 60.94 51.8275 60.836 51.3715 60.836H49.7875V63.128ZM49.7875 66.752H51.5035C51.9595 66.752 52.3115 66.648 52.5595 66.44C52.8155 66.224 52.9435 65.924 52.9435 65.54C52.9435 65.148 52.8115 64.84 52.5475 64.616C52.2835 64.392 51.9275 64.28 51.4795 64.28H49.7875V66.752ZM60.0619 68.144C59.4459 68.144 58.8899 68.024 58.3939 67.784C57.8979 67.536 57.5019 67.164 57.2059 66.668C56.9179 66.172 56.7739 65.544 56.7739 64.784V59.6H58.3099V64.796C58.3099 65.452 58.4659 65.94 58.7779 66.26C59.0979 66.58 59.5379 66.74 60.0979 66.74C60.6499 66.74 61.0859 66.58 61.4059 66.26C61.7259 65.94 61.8859 65.452 61.8859 64.796V59.6H63.4219V64.784C63.4219 65.544 63.2699 66.172 62.9659 66.668C62.6619 67.164 62.2539 67.536 61.7419 67.784C61.2379 68.024 60.6779 68.144 60.0619 68.144ZM68.1618 68V65.012L65.3418 59.6H67.0818L68.9418 63.476L70.7898 59.6H72.5058L69.6978 65.012V68H68.1618ZM81.2172 68.144C80.6012 68.144 80.0572 68.04 79.5852 67.832C79.1132 67.616 78.7412 67.312 78.4692 66.92C78.1972 66.52 78.0572 66.036 78.0492 65.468H79.6692C79.6852 65.86 79.8252 66.192 80.0892 66.464C80.3612 66.728 80.7332 66.86 81.2052 66.86C81.6132 66.86 81.9372 66.764 82.1772 66.572C82.4172 66.372 82.5372 66.108 82.5372 65.78C82.5372 65.436 82.4292 65.168 82.2132 64.976C82.0052 64.784 81.7252 64.628 81.3732 64.508C81.0212 64.388 80.6452 64.26 80.2452 64.124C79.5972 63.9 79.1012 63.612 78.7572 63.26C78.4212 62.908 78.2532 62.44 78.2532 61.856C78.2452 61.36 78.3612 60.936 78.6012 60.584C78.8492 60.224 79.1852 59.948 79.6092 59.756C80.0332 59.556 80.5212 59.456 81.0732 59.456C81.6332 59.456 82.1252 59.556 82.5492 59.756C82.9812 59.956 83.3172 60.236 83.5572 60.596C83.8052 60.956 83.9372 61.384 83.9532 61.88H82.3092C82.3012 61.584 82.1852 61.324 81.9612 61.1C81.7452 60.868 81.4412 60.752 81.0492 60.752C80.7132 60.744 80.4292 60.828 80.1972 61.004C79.9732 61.172 79.8612 61.42 79.8612 61.748C79.8612 62.028 79.9492 62.252 80.1252 62.42C80.3012 62.58 80.5412 62.716 80.8452 62.828C81.1492 62.94 81.4972 63.06 81.8892 63.188C82.3052 63.332 82.6852 63.5 83.0292 63.692C83.3732 63.884 83.6492 64.14 83.8572 64.46C84.0652 64.772 84.1692 65.176 84.1692 65.672C84.1692 66.112 84.0572 66.52 83.8332 66.896C83.6092 67.272 83.2772 67.576 82.8372 67.808C82.3972 68.032 81.8572 68.144 81.2172 68.144ZM86.5094 68V59.6H89.5934C90.2654 59.6 90.8174 59.716 91.2494 59.948C91.6894 60.172 92.0174 60.48 92.2334 60.872C92.4494 61.256 92.5574 61.684 92.5574 62.156C92.5574 62.668 92.4214 63.136 92.1494 63.56C91.8854 63.984 91.4694 64.292 90.9014 64.484L92.6414 68H90.8774L89.3174 64.688H88.0454V68H86.5094ZM88.0454 63.56H89.4974C90.0094 63.56 90.3854 63.436 90.6254 63.188C90.8654 62.94 90.9854 62.612 90.9854 62.204C90.9854 61.804 90.8654 61.484 90.6254 61.244C90.3934 61.004 90.0134 60.884 89.4854 60.884H88.0454V63.56ZM94.9859 68V59.6H96.8099L99.4859 64.928L102.126 59.6H103.95V68H102.414V62.204L100.074 66.8H98.8619L96.5219 62.204V68H94.9859ZM109.899 68L112.971 59.6H114.699L117.771 68H116.139L115.467 66.056H112.191L111.507 68H109.899ZM112.611 64.856H115.047L113.823 61.364L112.611 64.856ZM119.853 68V59.6H121.389L125.337 65.516V59.6H126.873V68H125.337L121.389 62.096V68H119.853ZM129.502 68V59.6H132.37C133.354 59.6 134.162 59.776 134.794 60.128C135.434 60.472 135.906 60.96 136.21 61.592C136.522 62.216 136.678 62.952 136.678 63.8C136.678 64.648 136.522 65.388 136.21 66.02C135.906 66.644 135.434 67.132 134.794 67.484C134.162 67.828 133.354 68 132.37 68H129.502ZM131.038 66.68H132.298C133.002 66.68 133.558 66.568 133.966 66.344C134.374 66.112 134.666 65.784 134.842 65.36C135.018 64.928 135.106 64.408 135.106 63.8C135.106 63.2 135.018 62.684 134.842 62.252C134.666 61.82 134.374 61.488 133.966 61.256C133.558 61.024 133.002 60.908 132.298 60.908H131.038V66.68ZM142.892 68V59.6H148.376V60.836H144.428V63.14H148.016V64.34H144.428V66.764H148.376V68H142.892ZM150.29 68L153.362 59.6H155.09L158.162 68H156.53L155.858 66.056H152.582L151.898 68H150.29ZM153.002 64.856H155.438L154.214 61.364L153.002 64.856ZM160.244 68V59.6H163.328C164 59.6 164.552 59.716 164.984 59.948C165.424 60.172 165.752 60.48 165.968 60.872C166.184 61.256 166.292 61.684 166.292 62.156C166.292 62.668 166.156 63.136 165.884 63.56C165.62 63.984 165.204 64.292 164.636 64.484L166.376 68H164.612L163.052 64.688H161.78V68H160.244ZM161.78 63.56H163.232C163.744 63.56 164.12 63.436 164.36 63.188C164.6 62.94 164.72 62.612 164.72 62.204C164.72 61.804 164.6 61.484 164.36 61.244C164.128 61.004 163.748 60.884 163.22 60.884H161.78V63.56ZM168.72 68V59.6H170.256L174.204 65.516V59.6H175.74V68H174.204L170.256 62.096V68H168.72ZM182.228 68V59.6H185.096C186.08 59.6 186.888 59.776 187.52 60.128C188.16 60.472 188.632 60.96 188.936 61.592C189.248 62.216 189.404 62.952 189.404 63.8C189.404 64.648 189.248 65.388 188.936 66.02C188.632 66.644 188.16 67.132 187.52 67.484C186.888 67.828 186.08 68 185.096 68H182.228ZM183.764 66.68H185.024C185.728 66.68 186.284 66.568 186.692 66.344C187.1 66.112 187.392 65.784 187.568 65.36C187.744 64.928 187.832 64.408 187.832 63.8C187.832 63.2 187.744 62.684 187.568 62.252C187.392 61.82 187.1 61.488 186.692 61.256C186.284 61.024 185.728 60.908 185.024 60.908H183.764V66.68ZM195.563 68.144C194.715 68.144 193.987 67.964 193.379 67.604C192.771 67.236 192.303 66.728 191.975 66.08C191.647 65.424 191.483 64.668 191.483 63.812C191.483 62.956 191.647 62.2 191.975 61.544C192.303 60.888 192.771 60.376 193.379 60.008C193.987 59.64 194.715 59.456 195.563 59.456C196.571 59.456 197.395 59.708 198.035 60.212C198.683 60.708 199.087 61.408 199.247 62.312H197.555C197.451 61.856 197.227 61.5 196.883 61.244C196.547 60.98 196.099 60.848 195.539 60.848C194.763 60.848 194.155 61.112 193.715 61.64C193.275 62.168 193.055 62.892 193.055 63.812C193.055 64.732 193.275 65.456 193.715 65.984C194.155 66.504 194.763 66.764 195.539 66.764C196.099 66.764 196.547 66.644 196.883 66.404C197.227 66.156 197.451 65.816 197.555 65.384H199.247C199.087 66.248 198.683 66.924 198.035 67.412C197.395 67.9 196.571 68.144 195.563 68.144ZM201.607 68V59.6H207.031V60.836H203.143V63.188H206.287V64.4H203.143V68H201.607ZM209.216 68V59.6H210.752V68H209.216Z" fill="#A1E0B5"/>
<defs>
<linearGradient id="paint0_linear" x1="17.3405" y1="50.8332" x2="17.3405" y2="22.7807" gradientUnits="userSpaceOnUse">
<stop stop-color="#05AAC5"/>
<stop offset="1" stop-color="#71E0EC"/>
</linearGradient>
<linearGradient id="paint1_linear" x1="17.3408" y1="54.317" x2="17.3408" y2="20.5122" gradientUnits="userSpaceOnUse">
<stop stop-color="#05AAC5"/>
<stop offset="1" stop-color="#71E0EC"/>
</linearGradient>
<linearGradient id="paint2_linear" x1="17.3406" y1="57.8044" x2="17.3406" y2="18.1823" gradientUnits="userSpaceOnUse">
<stop stop-color="#05AAC5"/>
<stop offset="1" stop-color="#71E0EC"/>
</linearGradient>
<linearGradient id="paint3_linear" x1="17.2977" y1="6.24792" x2="17.2977" y2="37.9894" gradientUnits="userSpaceOnUse">
<stop stop-color="#70E0EC"/>
<stop offset="1" stop-color="#3EC6DA"/>
</linearGradient>
</defs>
</svg>
