<svg width="112" height="128" viewBox="0 0 112 128" fill="none" xmlns="http://www.w3.org/2000/svg">
<path fill-rule="evenodd" clip-rule="evenodd" d="M0 71.4143C0 102.615 25.1219 128 55.9999 128C86.8782 128 112 102.615 112 71.4143C112 40.8445 75.321 2.33915 73.7594 0.716002C72.8669 -0.230996 71.3944 -0.230999 70.4573 0.670812C69.5203 1.57262 69.5203 3.06049 70.4128 4.00721C70.502 4.09759 79.8278 13.8365 89.0198 27.0473C101.023 44.3162 107.359 59.6462 107.359 71.4143C107.359 100.045 84.3346 123.311 55.9999 123.311C27.6654 123.311 4.64062 100 4.64062 71.4143C4.64062 59.6462 10.9323 44.3162 22.8462 27.0473C31.9491 13.8365 41.1855 4.09759 41.275 4.00721C42.1672 3.06049 42.1672 1.57262 41.2303 0.670812C40.2933 -0.230999 38.8206 -0.230996 37.9284 0.716002C37.5268 1.12158 28.3792 10.7707 19.0534 24.297C6.42549 42.6479 0 58.519 0 71.4143ZM55.9552 116.87C30.449 116.87 9.73913 95.9976 9.73913 70.3921C9.73913 45.3276 44.5243 10.3456 46.0036 8.90315C46.9001 8.00151 48.4243 8.00151 49.3209 8.90315C50.2174 9.80479 50.2174 11.3376 49.3209 12.2389L49.3196 12.2402C48.8909 12.6716 14.4459 47.3352 14.4459 70.3921C14.4459 93.4279 33.0938 112.181 56.0001 112.181C78.9064 112.181 97.5542 93.4279 97.5542 70.3921C97.5542 60.9255 91.4576 47.8521 79.8926 32.4801C71.0923 20.8139 62.2478 11.9399 62.011 11.7024L62.0068 11.6982C61.0653 10.7965 61.0653 9.30893 62.0068 8.3621C62.9031 7.41556 64.3826 7.41556 65.3239 8.3621C66.848 9.84969 102.261 45.2827 102.261 70.3921C102.171 95.9976 81.4614 116.87 55.9552 116.87ZM56.0001 105.044C43.861 105.044 33.1507 98.8696 26.8388 89.4932C23.0701 83.8948 20.8696 77.1542 20.8696 69.9045C20.8696 51.0526 52.6713 17.7582 54.0207 16.3634L55.6851 14.6087L57.3943 16.3183C58.7887 17.7131 91.1304 51.0075 91.1304 69.8594C91.1304 77.1309 88.927 83.886 85.1538 89.4932C78.841 98.8746 68.134 105.044 56.0001 105.044ZM55.7302 21.4026C52.9413 24.4171 47.0938 30.941 41.2912 38.5897C30.9904 52.1774 25.5476 62.9756 25.5476 69.8594C25.5476 86.6415 39.2219 100.319 56.0001 100.319C72.778 100.319 86.4523 86.6415 86.4523 69.8594C86.4523 62.9756 80.9196 52.1774 70.4391 38.5897C64.5466 30.9861 58.5639 24.4171 55.7302 21.4026Z" fill="url(#paint0_linear)"/>
<defs>
<linearGradient id="paint0_linear" x1="55.9999" y1="127.988" x2="55.9999" y2="-0.00588961" gradientUnits="userSpaceOnUse">
<stop stop-color="#05AAC5"/>
<stop offset="1" stop-color="#71E0EC"/>
</linearGradient>
</defs>
</svg>
