<svg width="105" height="32" viewBox="0 0 105 32" fill="none" xmlns="http://www.w3.org/2000/svg">
<path d="M13.4241 1.45502L26.8483 8.98743V24.0522L20.1362 27.8183L13.4241 31.5845L0 24.0522V8.98743L13.4241 1.45502Z" fill="white"/>
<path d="M13.4241 3.12866L25.3567 9.82184V23.2082L13.4241 29.9012L1.49152 23.2082V9.82184L13.4241 3.12866Z" fill="#5985E3"/>
<path d="M13.3655 15.7742L25.3551 9.81995L25.3579 23.204L13.4199 29.9103L13.3655 15.7742Z" fill="#386DE6"/>
<path fill-rule="evenodd" clip-rule="evenodd" d="M13.4168 6.05119L22.6546 11.1754L25.35 9.83294L13.4258 3.12567L13.4168 3.13079L13.4077 3.12567L1.48358 9.83294L1.4903 9.83626L1.48805 23.2054L4.10948 24.6818L4.10992 24.604V24.6692L13.4301 29.9073V29.899L25.3528 23.2093V21.7099V20.1972L13.4301 26.8964V26.8951L4.12643 21.6759L4.18561 11.1751L4.18235 11.1735L13.4168 6.05119Z" fill="#17181A"/>
<path d="M46.701 11.1397C46.701 12.494 46.4462 13.6662 45.9365 14.6564C45.4414 15.632 44.7788 16.4402 43.9488 17.0809C43.1334 17.7071 42.2087 18.1731 41.1748 18.4789C40.1409 18.7701 39.0925 18.9157 38.0294 18.9157H32.263V3.45108H37.8547C38.9468 3.45108 40.0244 3.58214 41.0874 3.84425C42.1504 4.0918 43.097 4.51409 43.927 5.11113C44.757 5.6936 45.4268 6.47993 45.9365 7.47014C46.4462 8.46034 46.701 9.68353 46.701 11.1397ZM42.813 11.1397C42.813 10.266 42.6674 9.54519 42.3761 8.97728C42.0995 8.39481 41.7209 7.93611 41.2403 7.60119C40.7743 7.25171 40.2356 7.00416 39.624 6.85854C39.0269 6.71292 38.4081 6.64011 37.7673 6.64011H35.9107V15.683H37.68C38.3498 15.683 38.9905 15.6102 39.6021 15.4646C40.2283 15.3044 40.7743 15.0496 41.2403 14.7001C41.7209 14.3506 42.0995 13.8846 42.3761 13.3021C42.6674 12.7197 42.813 11.9989 42.813 11.1397ZM48.9402 18.9157V3.45108H59.3374V6.61827H52.5443V9.52335H58.966V12.5158H52.5443V15.7267H59.7305V18.9157H48.9402ZM71.2968 18.9157L67.9112 13.455L64.6566 18.9157H60.2007L65.6177 10.7465L60.6375 3.45108H65.1371L68.0204 8.25647L70.8599 3.45108H75.2066L70.3139 10.7465L75.9056 18.9157H71.2968Z" fill="#0E02EC"/>
<path d="M33.323 27.4107V28H32.8157V22.3602H33.323V25.113H33.3379C33.4871 24.8842 33.681 24.7126 33.9198 24.5982C34.1585 24.4789 34.4047 24.4192 34.6583 24.4192C34.9318 24.4192 35.178 24.4664 35.3968 24.5609C35.6206 24.6554 35.8096 24.7847 35.9638 24.9489C36.1229 25.113 36.2448 25.3069 36.3293 25.5307C36.4189 25.7545 36.4636 25.9957 36.4636 26.2544C36.4636 26.513 36.4189 26.7542 36.3293 26.978C36.2448 27.2018 36.1229 27.3957 35.9638 27.5599C35.8096 27.724 35.6206 27.8533 35.3968 27.9478C35.178 28.0423 34.9318 28.0895 34.6583 28.0895C34.4047 28.0895 34.1585 28.0323 33.9198 27.9179C33.681 27.8036 33.4871 27.6345 33.3379 27.4107H33.323ZM35.9265 26.2544C35.9265 26.0604 35.8967 25.8789 35.837 25.7098C35.7773 25.5357 35.6903 25.3865 35.5759 25.2622C35.4665 25.1329 35.3297 25.0309 35.1656 24.9563C35.0015 24.8817 34.815 24.8444 34.6061 24.8444C34.4121 24.8444 34.2331 24.8817 34.069 24.9563C33.9048 25.0259 33.7631 25.1254 33.6437 25.2547C33.5244 25.3791 33.4299 25.5283 33.3603 25.7023C33.2956 25.8714 33.2633 26.0554 33.2633 26.2544C33.2633 26.4533 33.2956 26.6398 33.3603 26.8139C33.4299 26.983 33.5244 27.1297 33.6437 27.254C33.7631 27.3783 33.9048 27.4778 34.069 27.5524C34.2331 27.622 34.4121 27.6568 34.6061 27.6568C34.815 27.6568 35.0015 27.622 35.1656 27.5524C35.3297 27.4778 35.4665 27.3783 35.5759 27.254C35.6903 27.1247 35.7773 26.9755 35.837 26.8064C35.8967 26.6323 35.9265 26.4483 35.9265 26.2544ZM38.5137 27.4554H38.5286L39.6103 24.5087H40.1624L38.4242 28.9027C38.3197 29.1712 38.1855 29.3851 38.0213 29.5442C37.8622 29.7083 37.6309 29.7904 37.3276 29.7904C37.1734 29.7904 37.0217 29.7755 36.8725 29.7456L36.9247 29.2831C37.0441 29.3229 37.1684 29.3428 37.2977 29.3428C37.4718 29.3428 37.6086 29.2881 37.708 29.1787C37.8075 29.0742 37.8945 28.9226 37.9691 28.7236L38.2526 27.9925L36.7606 24.5087H37.3276L38.5137 27.4554ZM46.8202 27.1496C46.7306 27.2838 46.6212 27.4107 46.4919 27.53C46.3676 27.6494 46.2209 27.7538 46.0518 27.8433C45.8877 27.9329 45.7037 28.0025 45.4997 28.0522C45.3008 28.1069 45.082 28.1343 44.8433 28.1343C44.4454 28.1343 44.0774 28.0647 43.7392 27.9254C43.401 27.7861 43.1101 27.5947 42.8664 27.351C42.6227 27.1023 42.4312 26.8089 42.2919 26.4707C42.1577 26.1325 42.0905 25.762 42.0905 25.3592C42.0905 24.9563 42.1602 24.5858 42.2994 24.2476C42.4387 23.9094 42.6301 23.6185 42.8738 23.3748C43.1225 23.1261 43.4134 22.9322 43.7466 22.7929C44.0848 22.6537 44.4504 22.584 44.8433 22.584C45.0372 22.584 45.2262 22.6039 45.4102 22.6437C45.5992 22.6835 45.7758 22.7407 45.9399 22.8153C46.104 22.8849 46.2532 22.972 46.3875 23.0764C46.5218 23.1759 46.6337 23.2903 46.7232 23.4196L46.2756 23.7478C46.2209 23.6633 46.1463 23.5787 46.0518 23.4942C45.9623 23.4096 45.8553 23.335 45.731 23.2704C45.6067 23.2057 45.4699 23.1535 45.3207 23.1137C45.1765 23.0739 45.0198 23.054 44.8507 23.054C44.5076 23.054 44.1992 23.1162 43.9257 23.2405C43.6571 23.3649 43.4284 23.5339 43.2394 23.7478C43.0504 23.9567 42.9062 24.2004 42.8067 24.4789C42.7072 24.7574 42.6575 25.0508 42.6575 25.3592C42.6575 25.6675 42.7072 25.9609 42.8067 26.2394C42.9111 26.5179 43.0578 26.7641 43.2468 26.978C43.4358 27.1869 43.6646 27.3535 43.9331 27.4778C44.2067 27.6021 44.5125 27.6643 44.8507 27.6643C45.1541 27.6643 45.4426 27.6021 45.7161 27.4778C45.9896 27.3535 46.2184 27.1545 46.4024 26.881L46.8202 27.1496ZM47.4753 25.2771C47.4753 25.1826 47.4728 25.0608 47.4678 24.9116C47.4629 24.7624 47.4554 24.6281 47.4455 24.5087H47.9304C47.9403 24.6032 47.9478 24.7077 47.9527 24.822C47.9577 24.9364 47.9602 25.0309 47.9602 25.1055H47.9751C48.0746 24.9016 48.2238 24.7375 48.4227 24.6132C48.6217 24.4839 48.8455 24.4192 49.0941 24.4192C49.1588 24.4192 49.216 24.4217 49.2657 24.4267C49.3204 24.4316 49.3751 24.4416 49.4298 24.4565L49.3627 24.9339C49.3328 24.924 49.2831 24.914 49.2135 24.9041C49.1439 24.8942 49.0742 24.8892 49.0046 24.8892C48.8703 24.8892 48.741 24.914 48.6167 24.9638C48.4923 25.0135 48.3829 25.0931 48.2884 25.2025C48.1989 25.3069 48.1243 25.4437 48.0646 25.6128C48.0099 25.7769 47.9826 25.9759 47.9826 26.2096V28H47.4753V25.2771ZM51.1266 27.4554H51.1415L52.2232 24.5087H52.7752L51.037 28.9027C50.9326 29.1712 50.7983 29.3851 50.6342 29.5442C50.475 29.7083 50.2438 29.7904 49.9404 29.7904C49.7862 29.7904 49.6346 29.7755 49.4854 29.7456L49.5376 29.2831C49.6569 29.3229 49.7813 29.3428 49.9106 29.3428C50.0846 29.3428 50.2214 29.2881 50.3209 29.1787C50.4203 29.0742 50.5074 28.9226 50.582 28.7236L50.8655 27.9925L49.3735 24.5087H49.9404L51.1266 27.4554ZM53.8373 29.7904H53.33V24.5087H53.8373V25.113H53.8597C54.0039 24.8842 54.1954 24.7126 54.4341 24.5982C54.6778 24.4789 54.924 24.4192 55.1727 24.4192C55.4462 24.4192 55.6924 24.4664 55.9112 24.5609C56.135 24.6554 56.324 24.7847 56.4782 24.9489C56.6373 25.113 56.7592 25.3069 56.8437 25.5307C56.9332 25.7545 56.978 25.9957 56.978 26.2544C56.978 26.513 56.9332 26.7542 56.8437 26.978C56.7592 27.2018 56.6373 27.3957 56.4782 27.5599C56.324 27.724 56.135 27.8533 55.9112 27.9478C55.6924 28.0423 55.4462 28.0895 55.1727 28.0895C54.924 28.0895 54.6778 28.0323 54.4341 27.9179C54.1954 27.7986 54.0039 27.6295 53.8597 27.4107H53.8373V29.7904ZM56.4409 26.2544C56.4409 26.0604 56.411 25.8789 56.3513 25.7098C56.2917 25.5357 56.2046 25.3865 56.0902 25.2622C55.9808 25.1329 55.8441 25.0309 55.6799 24.9563C55.5158 24.8817 55.3293 24.8444 55.1204 24.8444C54.9265 24.8444 54.7474 24.8817 54.5833 24.9563C54.4192 25.0259 54.2775 25.1254 54.1581 25.2547C54.0387 25.3791 53.9442 25.5283 53.8746 25.7023C53.81 25.8714 53.7776 26.0554 53.7776 26.2544C53.7776 26.4533 53.81 26.6398 53.8746 26.8139C53.9442 26.983 54.0387 27.1297 54.1581 27.254C54.2775 27.3783 54.4192 27.4778 54.5833 27.5524C54.7474 27.622 54.9265 27.6568 55.1204 27.6568C55.3293 27.6568 55.5158 27.622 55.6799 27.5524C55.8441 27.4778 55.9808 27.3783 56.0902 27.254C56.2046 27.1247 56.2917 26.9755 56.3513 26.8064C56.411 26.6323 56.4409 26.4483 56.4409 26.2544ZM59.4014 24.9339H58.4167V26.9705C58.4167 27.0998 58.4291 27.2068 58.454 27.2913C58.4789 27.3758 58.5137 27.443 58.5584 27.4927C58.6082 27.5375 58.6654 27.5698 58.73 27.5897C58.7947 27.6046 58.8643 27.6121 58.9389 27.6121C59.0085 27.6121 59.0806 27.6021 59.1552 27.5822C59.2348 27.5623 59.3094 27.535 59.379 27.5002L59.4014 27.9403C59.3119 27.9751 59.2174 28 59.1179 28.0149C59.0235 28.0348 58.919 28.0448 58.8046 28.0448C58.7101 28.0448 58.6107 28.0323 58.5062 28.0075C58.4018 27.9826 58.3048 27.9353 58.2153 27.8657C58.1258 27.7961 58.0512 27.7016 57.9915 27.5822C57.9368 27.4629 57.9094 27.3062 57.9094 27.1123V24.9339H57.1858V24.5087H57.9094V23.524H58.4167V24.5087H59.4014V24.9339ZM63.4259 26.2544C63.4259 26.5179 63.3787 26.7616 63.2842 26.9854C63.1947 27.2092 63.0678 27.4032 62.9037 27.5673C62.7396 27.7314 62.5431 27.8607 62.3144 27.9552C62.0856 28.0448 61.8344 28.0895 61.5609 28.0895C61.2924 28.0895 61.0437 28.0448 60.8149 27.9552C60.5861 27.8607 60.3897 27.7314 60.2256 27.5673C60.0615 27.4032 59.9321 27.2092 59.8377 26.9854C59.7481 26.7616 59.7034 26.5179 59.7034 26.2544C59.7034 25.9908 59.7481 25.7471 59.8377 25.5233C59.9321 25.2995 60.0615 25.1055 60.2256 24.9414C60.3897 24.7773 60.5861 24.6505 60.8149 24.5609C61.0437 24.4664 61.2924 24.4192 61.5609 24.4192C61.8344 24.4192 62.0856 24.4664 62.3144 24.5609C62.5431 24.6505 62.7396 24.7773 62.9037 24.9414C63.0678 25.1055 63.1947 25.2995 63.2842 25.5233C63.3787 25.7471 63.4259 25.9908 63.4259 26.2544ZM62.8888 26.2544C62.8888 26.0604 62.8565 25.8789 62.7918 25.7098C62.7321 25.5357 62.6451 25.3865 62.5307 25.2622C62.4163 25.1329 62.2771 25.0309 62.113 24.9563C61.9488 24.8817 61.7648 24.8444 61.5609 24.8444C61.357 24.8444 61.173 24.8817 61.0089 24.9563C60.8497 25.0309 60.713 25.1329 60.5986 25.2622C60.4842 25.3865 60.3947 25.5357 60.33 25.7098C60.2703 25.8789 60.2405 26.0604 60.2405 26.2544C60.2405 26.4483 60.2703 26.6323 60.33 26.8064C60.3947 26.9755 60.4842 27.1247 60.5986 27.254C60.713 27.3783 60.8497 27.4778 61.0089 27.5524C61.173 27.622 61.357 27.6568 61.5609 27.6568C61.7648 27.6568 61.9488 27.622 62.113 27.5524C62.2771 27.4778 62.4163 27.3783 62.5307 27.254C62.6451 27.1247 62.7321 26.9755 62.7918 26.8064C62.8565 26.6323 62.8888 26.4483 62.8888 26.2544ZM66.7935 25.3069C66.709 25.1727 66.5846 25.0632 66.4205 24.9787C66.2614 24.8892 66.0873 24.8444 65.8983 24.8444C65.6944 24.8444 65.5104 24.8817 65.3463 24.9563C65.1821 25.0259 65.0404 25.1254 64.921 25.2547C64.8067 25.3791 64.7171 25.5283 64.6525 25.7023C64.5928 25.8714 64.563 26.0554 64.563 26.2544C64.563 26.4533 64.5928 26.6373 64.6525 26.8064C64.7171 26.9755 64.8067 27.1247 64.921 27.254C65.0354 27.3783 65.1747 27.4778 65.3388 27.5524C65.5029 27.622 65.6869 27.6568 65.8908 27.6568C66.1146 27.6568 66.3036 27.6146 66.4578 27.53C66.612 27.4455 66.7388 27.3361 66.8383 27.2018L67.2187 27.4853C67.0695 27.6693 66.8855 27.816 66.6667 27.9254C66.4528 28.0348 66.1942 28.0895 65.8908 28.0895C65.6074 28.0895 65.3512 28.0448 65.1225 27.9552C64.8937 27.8607 64.6972 27.7314 64.5331 27.5673C64.374 27.4032 64.2496 27.2092 64.1601 26.9854C64.0706 26.7616 64.0258 26.5179 64.0258 26.2544C64.0258 25.9908 64.0706 25.7471 64.1601 25.5233C64.2496 25.2995 64.374 25.1055 64.5331 24.9414C64.6972 24.7773 64.8937 24.6505 65.1225 24.5609C65.3512 24.4664 65.6074 24.4192 65.8908 24.4192C66.1246 24.4192 66.3608 24.4714 66.5995 24.5759C66.8432 24.6753 67.0397 24.8245 67.1889 25.0235L66.7935 25.3069ZM70.3079 28C70.2979 27.9055 70.2905 27.8011 70.2855 27.6867C70.2805 27.5723 70.278 27.4778 70.278 27.4032H70.2631C70.1636 27.6071 70.002 27.7737 69.7782 27.903C69.5544 28.0274 69.3182 28.0895 69.0695 28.0895C68.6269 28.0895 68.2937 27.9577 68.0699 27.6941C67.851 27.4306 67.7416 27.0824 67.7416 26.6497V24.5087H68.2489V26.4409C68.2489 26.6249 68.2638 26.7915 68.2937 26.9407C68.3235 27.0899 68.3732 27.2192 68.4429 27.3286C68.5175 27.433 68.6144 27.5151 68.7338 27.5748C68.8581 27.6345 69.0123 27.6643 69.1963 27.6643C69.3306 27.6643 69.4599 27.6369 69.5842 27.5822C69.7135 27.5275 69.8279 27.4455 69.9274 27.3361C70.0269 27.2217 70.1064 27.0799 70.1661 26.9108C70.2258 26.7368 70.2556 26.5329 70.2556 26.2991V24.5087H70.7629V27.2316C70.7629 27.3261 70.7654 27.448 70.7704 27.5972C70.7754 27.7464 70.7828 27.8806 70.7928 28H70.3079ZM71.8681 25.2771C71.8681 25.1826 71.8656 25.0608 71.8606 24.9116C71.8557 24.7624 71.8482 24.6281 71.8383 24.5087H72.3232C72.3331 24.6032 72.3406 24.7077 72.3455 24.822C72.3505 24.9364 72.353 25.0309 72.353 25.1055H72.3679C72.4674 24.9016 72.6166 24.7375 72.8155 24.6132C73.0145 24.4839 73.2383 24.4192 73.4869 24.4192C73.5516 24.4192 73.6088 24.4217 73.6585 24.4267C73.7132 24.4316 73.7679 24.4416 73.8226 24.4565L73.7555 24.9339C73.7256 24.924 73.6759 24.914 73.6063 24.9041C73.5367 24.8942 73.467 24.8892 73.3974 24.8892C73.2631 24.8892 73.1338 24.914 73.0095 24.9638C72.8851 25.0135 72.7757 25.0931 72.6812 25.2025C72.5917 25.3069 72.5171 25.4437 72.4574 25.6128C72.4027 25.7769 72.3754 25.9759 72.3754 26.2096V28H71.8681V25.2771ZM74.3183 25.2771C74.3183 25.1826 74.3158 25.0608 74.3108 24.9116C74.3059 24.7624 74.2984 24.6281 74.2884 24.5087H74.7733C74.7833 24.6032 74.7908 24.7077 74.7957 24.822C74.8007 24.9364 74.8032 25.0309 74.8032 25.1055H74.8181C74.9176 24.9016 75.0668 24.7375 75.2657 24.6132C75.4646 24.4839 75.6884 24.4192 75.9371 24.4192C76.0018 24.4192 76.059 24.4217 76.1087 24.4267C76.1634 24.4316 76.2181 24.4416 76.2728 24.4565L76.2057 24.9339C76.1758 24.924 76.1261 24.914 76.0565 24.9041C75.9868 24.8942 75.9172 24.8892 75.8476 24.8892C75.7133 24.8892 75.584 24.914 75.4597 24.9638C75.3353 25.0135 75.2259 25.0931 75.1314 25.2025C75.0419 25.3069 74.9673 25.4437 74.9076 25.6128C74.8529 25.7769 74.8256 25.9759 74.8256 26.2096V28H74.3183V25.2771ZM79.3006 25.9858C79.2857 25.6576 79.1787 25.3865 78.9798 25.1727C78.7858 24.9538 78.5073 24.8444 78.1443 24.8444C77.9752 24.8444 77.8185 24.8767 77.6743 24.9414C77.5301 25.0011 77.4032 25.0856 77.2938 25.195C77.1844 25.2995 77.0974 25.4213 77.0327 25.5606C76.9681 25.6949 76.9308 25.8366 76.9208 25.9858H79.3006ZM79.8153 26.1499C79.8153 26.1847 79.8153 26.222 79.8153 26.2618C79.8153 26.3016 79.8128 26.3439 79.8079 26.3886H76.9134C76.9183 26.5627 76.9532 26.7268 77.0178 26.881C77.0825 27.0352 77.172 27.1695 77.2864 27.2838C77.4008 27.3982 77.535 27.4902 77.6892 27.5599C77.8434 27.6245 78.01 27.6568 78.189 27.6568C78.4526 27.6568 78.6789 27.5972 78.8679 27.4778C79.0619 27.3535 79.2086 27.2117 79.308 27.0526L79.6885 27.351C79.4796 27.6146 79.2484 27.8036 78.9947 27.9179C78.746 28.0323 78.4775 28.0895 78.189 28.0895C77.9304 28.0895 77.6892 28.0448 77.4654 27.9552C77.2466 27.8607 77.0576 27.7314 76.8985 27.5673C76.7393 27.4032 76.6125 27.2092 76.518 26.9854C76.4285 26.7616 76.3837 26.5179 76.3837 26.2544C76.3837 25.9908 76.4285 25.7471 76.518 25.5233C76.6075 25.2995 76.7318 25.1055 76.891 24.9414C77.0501 24.7773 77.2366 24.6505 77.4505 24.5609C77.6643 24.4664 77.8956 24.4192 78.1443 24.4192C78.4178 24.4192 78.659 24.4664 78.8679 24.5609C79.0768 24.6505 79.2508 24.7748 79.3901 24.9339C79.5293 25.0881 79.6338 25.2696 79.7034 25.4785C79.778 25.6874 79.8153 25.9112 79.8153 26.1499ZM81.1235 24.5087C81.1334 24.6032 81.1409 24.7077 81.1459 24.822C81.1508 24.9364 81.1533 25.0309 81.1533 25.1055H81.1682C81.2677 24.9016 81.4293 24.7375 81.6531 24.6132C81.8769 24.4839 82.1132 24.4192 82.3618 24.4192C82.8045 24.4192 83.1352 24.551 83.354 24.8146C83.5778 25.0782 83.6897 25.4263 83.6897 25.859V28H83.1824V26.0679C83.1824 25.8838 83.1675 25.7172 83.1377 25.568C83.1078 25.4188 83.0556 25.292 82.981 25.1876C82.9114 25.0782 82.8144 24.9936 82.6901 24.9339C82.5707 24.8743 82.419 24.8444 82.235 24.8444C82.1007 24.8444 81.969 24.8718 81.8396 24.9265C81.7153 24.9812 81.6034 25.0657 81.5039 25.1801C81.4045 25.2895 81.3249 25.4313 81.2652 25.6053C81.2055 25.7744 81.1757 25.9759 81.1757 26.2096V28H80.6684V25.2771C80.6684 25.1826 80.6659 25.0608 80.661 24.9116C80.656 24.7624 80.6485 24.6281 80.6386 24.5087H81.1235ZM87.2791 25.3069C87.1945 25.1727 87.0702 25.0632 86.9061 24.9787C86.7469 24.8892 86.5729 24.8444 86.3839 24.8444C86.18 24.8444 85.996 24.8817 85.8318 24.9563C85.6677 25.0259 85.526 25.1254 85.4066 25.2547C85.2922 25.3791 85.2027 25.5283 85.1381 25.7023C85.0784 25.8714 85.0485 26.0554 85.0485 26.2544C85.0485 26.4533 85.0784 26.6373 85.1381 26.8064C85.2027 26.9755 85.2922 27.1247 85.4066 27.254C85.521 27.3783 85.6603 27.4778 85.8244 27.5524C85.9885 27.622 86.1725 27.6568 86.3764 27.6568C86.6002 27.6568 86.7892 27.6146 86.9434 27.53C87.0976 27.4455 87.2244 27.3361 87.3238 27.2018L87.7043 27.4853C87.5551 27.6693 87.3711 27.816 87.1523 27.9254C86.9384 28.0348 86.6798 28.0895 86.3764 28.0895C86.0929 28.0895 85.8368 28.0448 85.608 27.9552C85.3793 27.8607 85.1828 27.7314 85.0187 27.5673C84.8596 27.4032 84.7352 27.2092 84.6457 26.9854C84.5562 26.7616 84.5114 26.5179 84.5114 26.2544C84.5114 25.9908 84.5562 25.7471 84.6457 25.5233C84.7352 25.2995 84.8596 25.1055 85.0187 24.9414C85.1828 24.7773 85.3793 24.6505 85.608 24.5609C85.8368 24.4664 86.0929 24.4192 86.3764 24.4192C86.6102 24.4192 86.8464 24.4714 87.0851 24.5759C87.3288 24.6753 87.5253 24.8245 87.6745 25.0235L87.2791 25.3069ZM88.7718 28H88.2645V24.5087H88.7718V28ZM88.8762 23.1659C88.8762 23.2704 88.8389 23.3574 88.7643 23.427C88.6897 23.4917 88.6077 23.524 88.5181 23.524C88.4286 23.524 88.3466 23.4917 88.272 23.427C88.1974 23.3574 88.1601 23.2704 88.1601 23.1659C88.1601 23.0615 88.1974 22.9769 88.272 22.9123C88.3466 22.8427 88.4286 22.8078 88.5181 22.8078C88.6077 22.8078 88.6897 22.8427 88.7643 22.9123C88.8389 22.9769 88.8762 23.0615 88.8762 23.1659ZM92.5472 25.9858C92.5323 25.6576 92.4254 25.3865 92.2264 25.1727C92.0325 24.9538 91.754 24.8444 91.3909 24.8444C91.2218 24.8444 91.0652 24.8767 90.9209 24.9414C90.7767 25.0011 90.6499 25.0856 90.5405 25.195C90.4311 25.2995 90.344 25.4213 90.2794 25.5606C90.2147 25.6949 90.1774 25.8366 90.1675 25.9858H92.5472ZM93.062 26.1499C93.062 26.1847 93.062 26.222 93.062 26.2618C93.062 26.3016 93.0595 26.3439 93.0545 26.3886H90.16C90.165 26.5627 90.1998 26.7268 90.2645 26.881C90.3291 27.0352 90.4186 27.1695 90.533 27.2838C90.6474 27.3982 90.7817 27.4902 90.9359 27.5599C91.09 27.6245 91.2566 27.6568 91.4357 27.6568C91.6993 27.6568 91.9256 27.5972 92.1145 27.4778C92.3085 27.3535 92.4552 27.2117 92.5547 27.0526L92.9351 27.351C92.7263 27.6146 92.495 27.8036 92.2414 27.9179C91.9927 28.0323 91.7241 28.0895 91.4357 28.0895C91.1771 28.0895 90.9359 28.0448 90.7121 27.9552C90.4932 27.8607 90.3043 27.7314 90.1451 27.5673C89.986 27.4032 89.8591 27.2092 89.7646 26.9854C89.6751 26.7616 89.6304 26.5179 89.6304 26.2544C89.6304 25.9908 89.6751 25.7471 89.7646 25.5233C89.8542 25.2995 89.9785 25.1055 90.1376 24.9414C90.2968 24.7773 90.4833 24.6505 90.6971 24.5609C90.911 24.4664 91.1423 24.4192 91.3909 24.4192C91.6645 24.4192 91.9057 24.4664 92.1145 24.5609C92.3234 24.6505 92.4975 24.7748 92.6367 24.9339C92.776 25.0881 92.8804 25.2696 92.9501 25.4785C93.0247 25.6874 93.062 25.9112 93.062 26.1499ZM95.7726 25.3368C95.698 25.1926 95.5836 25.0757 95.4295 24.9862C95.2803 24.8917 95.1087 24.8444 94.9147 24.8444C94.8252 24.8444 94.7357 24.8544 94.6462 24.8743C94.5566 24.8942 94.4771 24.9265 94.4074 24.9712C94.3378 25.016 94.2806 25.0732 94.2359 25.1428C94.1961 25.2124 94.1762 25.2945 94.1762 25.389C94.1762 25.5531 94.2433 25.6799 94.3776 25.7695C94.5119 25.854 94.7232 25.9261 95.0117 25.9858C95.4245 26.0703 95.7279 26.1947 95.9218 26.3588C96.1207 26.5179 96.2202 26.7343 96.2202 27.0078C96.2202 27.2068 96.1804 27.3758 96.1009 27.5151C96.0263 27.6494 95.9268 27.7613 95.8025 27.8508C95.6781 27.9353 95.5364 27.995 95.3772 28.0298C95.2231 28.0696 95.0664 28.0895 94.9073 28.0895C94.6437 28.0895 94.3875 28.0348 94.1389 27.9254C93.8902 27.816 93.6863 27.6444 93.5272 27.4107L93.93 27.1123C94.0195 27.2664 94.1513 27.3957 94.3254 27.5002C94.4994 27.6046 94.6909 27.6568 94.8998 27.6568C95.0092 27.6568 95.1136 27.6469 95.2131 27.627C95.3126 27.6071 95.3996 27.5723 95.4742 27.5226C95.5488 27.4728 95.6085 27.4107 95.6533 27.3361C95.698 27.2565 95.7204 27.1595 95.7204 27.0451C95.7204 26.8611 95.6309 26.7243 95.4518 26.6348C95.2778 26.5403 95.0241 26.4533 94.6909 26.3737C94.5865 26.3489 94.4746 26.319 94.3552 26.2842C94.2408 26.2444 94.1339 26.1897 94.0344 26.1201C93.935 26.0455 93.8529 25.9535 93.7883 25.8441C93.7236 25.7346 93.6913 25.5979 93.6913 25.4338C93.6913 25.2547 93.7261 25.103 93.7957 24.9787C93.8653 24.8494 93.9573 24.745 94.0717 24.6654C94.1911 24.5808 94.3254 24.5187 94.4746 24.4789C94.6238 24.4391 94.7779 24.4192 94.9371 24.4192C95.1808 24.4192 95.417 24.4739 95.6458 24.5833C95.8746 24.6927 96.0461 24.8469 96.1605 25.0458L95.7726 25.3368ZM97.693 27.6419C97.693 27.7464 97.6557 27.8409 97.5811 27.9254C97.5065 28.005 97.4095 28.0448 97.2902 28.0448C97.1708 28.0448 97.0738 28.005 96.9992 27.9254C96.9246 27.8409 96.8873 27.7464 96.8873 27.6419C96.8873 27.5375 96.9246 27.4455 96.9992 27.3659C97.0738 27.2814 97.1708 27.2391 97.2902 27.2391C97.4095 27.2391 97.5065 27.2814 97.5811 27.3659C97.6557 27.4455 97.693 27.5375 97.693 27.6419ZM98.6842 28H98.0948L100.378 22.7183H100.9L103.168 28H102.571L101.989 26.6124H99.2586L98.6842 28ZM99.46 26.1201H101.788L100.624 23.3151L99.46 26.1201ZM104.192 28H103.684V24.5087H104.192V28ZM104.296 23.1659C104.296 23.2704 104.259 23.3574 104.184 23.427C104.11 23.4917 104.028 23.524 103.938 23.524C103.849 23.524 103.767 23.4917 103.692 23.427C103.617 23.3574 103.58 23.2704 103.58 23.1659C103.58 23.0615 103.617 22.9769 103.692 22.9123C103.767 22.8427 103.849 22.8078 103.938 22.8078C104.028 22.8078 104.11 22.8427 104.184 22.9123C104.259 22.9769 104.296 23.0615 104.296 23.1659Z" fill="#96999C"/>
<path d="M79.1897 4.42872H78.4635V6.38364H78.1358V4.42872H77.3932V4.13384H79.1897V4.42872ZM82.0675 6.38364H81.7399V4.49425H81.7289L80.9699 6.38364H80.7569L79.9979 4.49425H79.987V6.38364H79.6593V4.13384H80.1672L80.8716 5.85942L81.576 4.13384H82.0675V6.38364Z" fill="#0E02EC"/>
</svg>
