<svg width="217" height="58" viewBox="0 0 217 58" fill="none" xmlns="http://www.w3.org/2000/svg">
<path d="M17.3408 50.8286C13.612 50.8286 10.322 48.9133 8.38317 46.0046C7.2255 44.2678 6.54956 42.1767 6.54956 39.9277C6.54956 34.0794 16.3183 23.7507 16.7328 23.318L17.2441 22.7737L17.7691 23.304C18.1974 23.7367 28.1321 34.0654 28.1321 39.9137C28.1321 42.1695 27.4552 44.2651 26.2962 46.0046C24.357 48.9149 21.0681 50.8286 17.3408 50.8286ZM17.2579 24.8813C16.4012 25.8165 14.605 27.8403 12.8226 30.2131C9.65845 34.4284 7.98655 37.7782 7.98655 39.9137C7.98655 45.1199 12.187 49.3631 17.3408 49.3631C22.4946 49.3631 26.6951 45.1199 26.6951 39.9137C26.6951 37.7782 24.9955 34.4284 21.7762 30.2131C19.9661 27.8543 18.1284 25.8165 17.2579 24.8813Z" fill="url(#paint0_linear)"/>
<path d="M17.3405 54.319C9.47855 54.319 3.09497 47.8566 3.09497 39.9286C3.09497 32.1681 13.8171 21.337 14.2731 20.8904C14.5494 20.6112 15.0192 20.6112 15.2956 20.8904C15.5719 21.1695 15.5719 21.6441 15.2956 21.9232C15.1851 22.0349 4.54578 32.7823 4.54578 39.9286C4.54578 47.061 10.2938 52.8674 17.3544 52.8674C24.415 52.8674 30.1629 47.061 30.1629 39.9286C30.1629 36.9976 28.2837 32.9498 24.719 28.1903C21.9831 24.5473 19.2335 21.7837 19.2059 21.7558C18.9157 21.4766 18.9157 21.016 19.2059 20.7229C19.4822 20.4298 19.9382 20.4298 20.2283 20.7229C20.6981 21.1834 31.6137 32.1542 31.6137 39.9286C31.5861 47.8566 25.2025 54.319 17.3405 54.319Z" fill="url(#paint1_linear)"/>
<path d="M17.3406 57.8082C7.7791 57.8082 0 49.9501 0 40.2913C0 36.2994 1.98968 31.3863 5.89995 25.7055C8.78774 21.5183 11.6203 18.5313 11.7447 18.4057C12.021 18.1126 12.477 18.1126 12.7671 18.3917C13.0572 18.6709 13.0572 19.1315 12.781 19.4246C12.7533 19.4525 9.89317 22.4673 7.07442 26.5569C3.38522 31.9028 1.43699 36.6483 1.43699 40.2913C1.43699 49.1405 8.56669 56.3567 17.3406 56.3567C26.1146 56.3567 33.2442 49.1544 33.2442 40.2913C33.2442 36.6483 31.2822 31.9028 27.5653 26.5569C24.719 22.4673 21.8312 19.4525 21.8036 19.4246C21.5272 19.1315 21.5272 18.6709 21.8174 18.3917C22.1076 18.1126 22.5635 18.1126 22.8399 18.4057C23.3234 18.9082 34.6812 30.828 34.6812 40.2913C34.6812 49.9501 26.9022 57.8082 17.3406 57.8082Z" fill="url(#paint2_linear)"/>
<path d="M17.2974 6.24792L31.4398 14.1833V30.0541L17.2974 37.9894L3.15503 30.0541V14.1833L17.2974 6.24792Z" fill="url(#paint3_linear)"/>
<path d="M17.2975 8.01135L29.8685 15.0626V29.1652L17.2975 36.2163L4.72644 29.1652V15.0626L17.2975 8.01135Z" fill="#7380EB"/>
<path d="M17.236 21.3334L29.8671 15.0605L29.87 29.1607L17.2933 36.2258L17.236 21.3334Z" fill="#6E98E9"/>
<path fill-rule="evenodd" clip-rule="evenodd" d="M17.2898 11.09L27.0219 16.4883L29.8614 15.0741L17.2993 8.00793L17.2898 8.01333L17.2803 8.00793L4.71814 15.0741L4.72522 15.0776L4.72285 29.162L7.48453 30.7174L7.485 30.6354V30.7041L17.3038 36.2225V36.2137L29.8644 29.1661V27.5865V25.9928L17.3038 33.0505V33.0491L7.50238 27.5506L7.56473 16.4881L7.5613 16.4864L17.2898 11.09Z" fill="#16253D"/>
<path d="M50.1942 45.5735C50.7617 45.5735 51.2798 45.4862 51.7486 45.3241C52.2174 45.1497 52.6246 44.9254 52.9823 44.6387C53.3402 44.3646 53.6362 44.053 53.8707 43.704C54.1051 43.355 54.2777 43.0061 54.3888 42.6447L53.0934 42.4578C52.9823 42.707 52.8466 42.9438 52.674 43.1806C52.5012 43.4174 52.2915 43.6168 52.0571 43.7912C51.8227 43.9782 51.5512 44.1153 51.2428 44.2274C50.9343 44.3396 50.5766 44.3895 50.1942 44.3895C49.7747 44.3895 49.3675 44.3022 48.985 44.1153C48.6026 43.9284 48.2572 43.6791 47.9611 43.3551C47.665 43.0435 47.4306 42.6696 47.2578 42.2334C47.0728 41.7972 46.9865 41.3361 46.9865 40.8376C46.9865 40.3391 47.0728 39.8779 47.2578 39.4418C47.4306 39.0056 47.665 38.6317 47.9611 38.3077C48.2572 37.9961 48.6026 37.7469 48.985 37.5599C49.3675 37.3729 49.7747 37.2858 50.1942 37.2858C50.5519 37.2858 50.8727 37.3356 51.1564 37.4353C51.4402 37.535 51.6992 37.6596 51.9214 37.8216C52.131 37.9837 52.3161 38.1706 52.4766 38.3825C52.6369 38.5944 52.7603 38.8187 52.8466 39.0306L54.142 38.8436C54.031 38.5071 53.8707 38.1706 53.6486 37.8341C53.4265 37.5101 53.1551 37.2234 52.822 36.9617C52.4889 36.7 52.0941 36.5006 51.6623 36.3386C51.2304 36.1765 50.737 36.1018 50.1942 36.1018C49.5896 36.1018 49.0221 36.2264 48.4793 36.4757C47.9364 36.7249 47.4552 37.0615 47.0481 37.4851C46.6287 37.9213 46.2955 38.4198 46.0611 38.9931C45.8144 39.5664 45.691 40.1771 45.691 40.8376C45.691 41.4981 45.8144 42.1088 46.0611 42.6821C46.2955 43.2553 46.6287 43.7539 47.0481 44.1776C47.4552 44.6138 47.9364 44.9503 48.4793 45.1995C49.0221 45.4488 49.5896 45.5735 50.1942 45.5735Z" fill="#F5F5FB"/>
<path fill-rule="evenodd" clip-rule="evenodd" d="M58.1473 42.3331H60.9233L62.527 45.1995H63.8842L62.157 42.0838C62.5024 41.9591 62.8108 41.7723 63.0823 41.5355C63.3167 41.3361 63.5264 41.0619 63.7238 40.7129C63.9088 40.3764 64.0075 39.9402 64.0075 39.4043C64.0075 38.9806 63.9336 38.5943 63.7855 38.2328C63.6374 37.8714 63.4277 37.5598 63.1562 37.2982C62.8725 37.0364 62.5394 36.837 62.1446 36.6875C61.7498 36.5504 61.3057 36.4756 60.8246 36.4756H56.8519V45.1995H58.1473V42.3331ZM60.7998 41.1491H58.1473V37.6596H60.8246C61.1083 37.6596 61.3674 37.6969 61.6018 37.7842C61.8362 37.8714 62.0336 37.996 62.1939 38.1581C62.3544 38.3201 62.49 38.4946 62.5764 38.7065C62.6628 38.9183 62.7121 39.1551 62.7121 39.4043C62.7121 39.6411 62.6628 39.853 62.5764 40.0648C62.49 40.2767 62.3544 40.4637 62.1939 40.6257C62.0336 40.7877 61.8362 40.9123 61.6018 40.9996C61.3674 41.0993 61.0959 41.1491 60.7998 41.1491Z" fill="#F5F5FB"/>
<path d="M70.4899 42.3331V45.1995H69.1945V42.3331C68.6393 41.3734 68.0718 40.3889 67.5042 39.4043C66.9244 38.4198 66.3569 37.4477 65.8018 36.4756H67.2822L69.8114 40.7753H69.873L72.4022 36.4756H73.8826C73.5324 37.0889 73.1772 37.7022 72.8202 38.3186L72.8195 38.3198L72.819 38.3208C72.6105 38.6807 72.4014 39.0417 72.1924 39.4043C71.696 40.2473 71.2086 41.0902 70.7303 41.9174L70.4899 42.3331Z" fill="#F5F5FB"/>
<path fill-rule="evenodd" clip-rule="evenodd" d="M83.2624 39.6536C83.2624 39.2174 83.176 38.8062 83.0156 38.4198C82.8429 38.0334 82.6085 37.6969 82.3 37.4103C81.9916 37.1237 81.6338 36.8869 81.2144 36.7248C80.7826 36.5628 80.3138 36.4756 79.8079 36.4756H76.045V45.1995H77.3405V42.8315H79.8079C80.3138 42.8315 80.7826 42.7444 81.2144 42.5823C81.6338 42.4203 81.9916 42.1836 82.3 41.8969C82.6085 41.6102 82.8429 41.2737 83.0156 40.8874C83.176 40.501 83.2624 40.0898 83.2624 39.6536ZM81.9669 39.6536C81.9669 40.2518 81.7819 40.7378 81.3995 41.0993C81.017 41.4607 80.4865 41.6477 79.8079 41.6477H77.3405V37.6596H79.8079C80.4865 37.6596 81.017 37.8465 81.3995 38.2079C81.7819 38.5693 81.9669 39.0554 81.9669 39.6536Z" fill="#F5F5FB"/>
<path d="M87.8369 37.6596H84.9374V36.4756H92.0317V37.6596H89.1321V45.1995H87.8369V37.6596Z" fill="#F5F5FB"/>
<path fill-rule="evenodd" clip-rule="evenodd" d="M102.758 40.8376C102.758 40.1771 102.635 39.5664 102.388 38.9931C102.141 38.4198 101.808 37.9213 101.389 37.4851C100.969 37.0615 100.476 36.7249 99.9204 36.4757C99.3657 36.2264 98.7611 36.1018 98.1312 36.1018C97.5022 36.1018 96.8976 36.2264 96.3429 36.4757C95.7873 36.7249 95.2942 37.0615 94.8746 37.4851C94.4549 37.9213 94.1222 38.4198 93.8748 38.9931C93.6283 39.5664 93.505 40.1771 93.505 40.8376C93.505 41.4981 93.6283 42.1088 93.8748 42.6821C94.1222 43.2553 94.4549 43.7539 94.8746 44.1776C95.2942 44.6138 95.7873 44.9503 96.3429 45.1995C96.8976 45.4488 97.5022 45.5735 98.1312 45.5735C98.7611 45.5735 99.3657 45.4488 99.9204 45.1995C100.476 44.9503 100.969 44.6138 101.389 44.1776C101.808 43.7539 102.141 43.2553 102.388 42.6821C102.635 42.1088 102.758 41.4981 102.758 40.8376ZM94.8003 40.8376C94.8003 40.3391 94.8872 39.8779 95.0721 39.4418C95.2571 39.0056 95.4918 38.6317 95.8 38.3077C96.1082 37.9961 96.4535 37.7469 96.8605 37.5599C97.2683 37.3729 97.6871 37.2858 98.1312 37.2858C98.5754 37.2858 98.995 37.3729 99.402 37.5599C99.8098 37.7469 100.155 37.9961 100.463 38.3077C100.772 38.6317 101.006 39.0056 101.191 39.4418C101.376 39.8779 101.463 40.3391 101.463 40.8376C101.463 41.3361 101.376 41.7972 101.191 42.2334C101.006 42.6696 100.772 43.0435 100.463 43.3551C100.155 43.6791 99.8098 43.9284 99.402 44.1153C98.995 44.3022 98.5754 44.3895 98.1312 44.3895C97.6871 44.3895 97.2683 44.3022 96.8605 44.1153C96.4535 43.9284 96.1082 43.6791 95.8 43.3551C95.4918 43.0435 95.2571 42.6696 95.0721 42.2334C94.8872 41.7972 94.8003 41.3361 94.8003 40.8376Z" fill="#F5F5FB"/>
<path d="M110.978 45.3241C110.51 45.4862 109.992 45.5735 109.424 45.5735C108.819 45.5735 108.252 45.4488 107.709 45.1995C107.167 44.9503 106.685 44.6138 106.279 44.1776C105.859 43.7539 105.525 43.2553 105.291 42.6821C105.044 42.1088 104.921 41.4981 104.921 40.8376C104.921 40.1771 105.044 39.5664 105.291 38.9931C105.525 38.4198 105.859 37.9213 106.279 37.4851C106.685 37.0615 107.167 36.7249 107.709 36.4757C108.252 36.2264 108.819 36.1018 109.424 36.1018C109.967 36.1018 110.461 36.1765 110.892 36.3386C111.324 36.5006 111.719 36.7 112.052 36.9617C112.385 37.2234 112.657 37.5101 112.879 37.8341C113.101 38.1706 113.261 38.5071 113.372 38.8436L112.077 39.0306C111.991 38.8187 111.867 38.5944 111.707 38.3825C111.546 38.1706 111.361 37.9837 111.151 37.8216C110.929 37.6596 110.67 37.535 110.386 37.4353C110.103 37.3356 109.782 37.2858 109.424 37.2858C109.005 37.2858 108.597 37.3729 108.215 37.5599C107.833 37.7469 107.487 37.9961 107.191 38.3077C106.895 38.6317 106.66 39.0056 106.488 39.4418C106.303 39.8779 106.216 40.3391 106.216 40.8376C106.216 41.3361 106.303 41.7972 106.488 42.2334C106.66 42.6696 106.895 43.0435 107.191 43.3551C107.487 43.6791 107.833 43.9284 108.215 44.1153C108.597 44.3022 109.005 44.3895 109.424 44.3895C109.806 44.3895 110.164 44.3396 110.472 44.2274C110.781 44.1153 111.052 43.9782 111.287 43.7912C111.521 43.6168 111.731 43.4174 111.904 43.1806C112.077 42.9438 112.213 42.707 112.323 42.4578L113.618 42.6447C113.508 43.0061 113.335 43.355 113.101 43.704C112.866 44.053 112.57 44.3646 112.213 44.6387C111.855 44.9254 111.448 45.1497 110.978 45.3241Z" fill="#F5F5FB"/>
<path d="M119.598 44.3894C119.277 44.3894 118.981 44.3271 118.71 44.2149C118.438 44.1028 118.204 43.9408 118.007 43.7289C117.809 43.517 117.661 43.2677 117.55 42.9687C117.439 42.6696 117.378 42.3331 117.378 41.9591V36.4756H116.082V41.9591C116.082 42.5075 116.169 43.006 116.341 43.4422C116.501 43.8909 116.749 44.2773 117.057 44.5888C117.365 44.9003 117.735 45.1497 118.167 45.3241C118.599 45.4861 119.067 45.5734 119.598 45.5734C120.129 45.5734 120.61 45.4861 121.041 45.3241C121.474 45.1497 121.843 44.9003 122.152 44.5888C122.461 44.2773 122.695 43.8909 122.868 43.4422C123.028 43.006 123.114 42.5075 123.114 41.9591V36.4756H121.819V41.9591C121.819 42.3331 121.769 42.6696 121.659 42.9687C121.547 43.2677 121.387 43.517 121.19 43.7289C120.992 43.9408 120.758 44.1028 120.487 44.2149C120.215 44.3271 119.919 44.3894 119.598 44.3894Z" fill="#F5F5FB"/>
<path fill-rule="evenodd" clip-rule="evenodd" d="M130.208 42.3331H127.431V45.1995H126.136V36.4756H130.109C130.59 36.4756 131.034 36.5504 131.429 36.6875C131.824 36.837 132.157 37.0364 132.441 37.2982C132.712 37.5598 132.922 37.8714 133.07 38.2328C133.218 38.5943 133.292 38.9806 133.292 39.4043C133.292 39.9402 133.193 40.3764 133.008 40.7129C132.811 41.0619 132.601 41.3361 132.367 41.5355C132.096 41.7723 131.787 41.9591 131.441 42.0838L133.169 45.1995H131.811L130.208 42.3331ZM127.431 41.1491H130.084C130.381 41.1491 130.652 41.0993 130.886 40.9996C131.12 40.9123 131.318 40.7877 131.478 40.6257C131.639 40.4637 131.775 40.2767 131.861 40.0648C131.947 39.853 131.997 39.6411 131.997 39.4043C131.997 39.1551 131.947 38.9183 131.861 38.7065C131.775 38.4946 131.639 38.3201 131.478 38.1581C131.318 37.996 131.12 37.8714 130.886 37.7842C130.652 37.6969 130.393 37.6596 130.109 37.6596H127.431V41.1491Z" fill="#F5F5FB"/>
<path fill-rule="evenodd" clip-rule="evenodd" d="M137.245 42.3331H140.021L141.625 45.1995H142.982L141.255 42.0838C141.601 41.9591 141.909 41.7723 142.18 41.5355C142.414 41.3361 142.624 41.0619 142.821 40.7129C143.006 40.3764 143.105 39.9402 143.105 39.4043C143.105 38.9806 143.032 38.5943 142.883 38.2328C142.735 37.8714 142.525 37.5598 142.254 37.2982C141.97 37.0364 141.637 36.837 141.243 36.6875C140.847 36.5504 140.403 36.4756 139.922 36.4756H135.95V45.1995H137.245V42.3331ZM139.897 41.1491H137.245V37.6596H139.922C140.206 37.6596 140.465 37.6969 140.7 37.7842C140.934 37.8714 141.131 37.996 141.291 38.1581C141.452 38.3201 141.588 38.4946 141.674 38.7065C141.761 38.9183 141.81 39.1551 141.81 39.4043C141.81 39.6411 141.761 39.853 141.674 40.0648C141.588 40.2767 141.452 40.4637 141.291 40.6257C141.131 40.7877 140.934 40.9123 140.7 40.9996C140.465 41.0993 140.194 41.1491 139.897 41.1491Z" fill="#F5F5FB"/>
<path d="M147.058 44.0155H152.117V45.1995H145.763V36.4756H152.117V37.6596H147.058V40.2144H151.068V41.3983H147.058V44.0155Z" fill="#F5F5FB"/>
<path d="M160.202 43.0185L156.008 36.4756H154.588V45.1995H155.884V38.6566H156.008L160.202 45.1995H161.621V36.4756H160.326V43.0185H160.202Z" fill="#F5F5FB"/>
<path d="M170.269 45.3241C169.8 45.4862 169.282 45.5735 168.715 45.5735C168.11 45.5735 167.543 45.4488 167 45.1995C166.457 44.9503 165.975 44.6138 165.568 44.1776C165.149 43.7539 164.816 43.2553 164.581 42.6821C164.335 42.1088 164.212 41.4981 164.212 40.8376C164.212 40.1771 164.335 39.5664 164.581 38.9931C164.816 38.4198 165.149 37.9213 165.568 37.4851C165.975 37.0615 166.457 36.7249 167 36.4757C167.543 36.2264 168.11 36.1018 168.715 36.1018C169.257 36.1018 169.751 36.1765 170.183 36.3386C170.614 36.5006 171.009 36.7 171.342 36.9617C171.676 37.2234 171.947 37.5101 172.169 37.8341C172.391 38.1706 172.551 38.5071 172.662 38.8436L171.367 39.0306C171.281 38.8187 171.157 38.5944 170.997 38.3825C170.836 38.1706 170.651 37.9837 170.441 37.8216C170.219 37.6596 169.961 37.535 169.676 37.4353C169.393 37.3356 169.073 37.2858 168.715 37.2858C168.295 37.2858 167.888 37.3729 167.505 37.5599C167.123 37.7469 166.778 37.9961 166.481 38.3077C166.185 38.6317 165.951 39.0056 165.778 39.4418C165.593 39.8779 165.507 40.3391 165.507 40.8376C165.507 41.3361 165.593 41.7972 165.778 42.2334C165.951 42.6696 166.185 43.0435 166.481 43.3551C166.778 43.6791 167.123 43.9284 167.505 44.1153C167.888 44.3022 168.295 44.3895 168.715 44.3895C169.097 44.3895 169.454 44.3396 169.763 44.2274C170.071 44.1153 170.342 43.9782 170.577 43.7912C170.812 43.6168 171.021 43.4174 171.194 43.1806C171.367 42.9438 171.503 42.707 171.613 42.4578L172.909 42.6447C172.798 43.0061 172.626 43.355 172.391 43.704C172.156 44.053 171.861 44.3646 171.503 44.6387C171.145 44.9254 170.738 45.1497 170.269 45.3241Z" fill="#F5F5FB"/>
<path d="M176.668 36.4756H175.372V45.1995H176.668V36.4756Z" fill="#F5F5FB"/>
<path d="M180.987 44.0155H186.045V45.1995H179.692V36.4756H186.045V37.6596H180.987V40.2144H184.996V41.3983H180.987V44.0155Z" fill="#F5F5FB"/>
<path d="M193.699 42.7693C193.699 42.9688 193.649 43.1682 193.55 43.3551C193.452 43.5545 193.317 43.729 193.132 43.8785C192.946 44.0406 192.737 44.1652 192.477 44.2523C192.218 44.3396 191.923 44.3895 191.602 44.3895C191.281 44.3895 190.997 44.3396 190.738 44.2523C190.479 44.1652 190.244 44.053 190.059 43.891C189.874 43.7414 189.714 43.5669 189.578 43.3551C189.443 43.1556 189.331 42.9438 189.258 42.707L187.962 42.8939C188.085 43.2803 188.245 43.6417 188.456 43.9658C188.665 44.3022 188.912 44.5764 189.208 44.8132C189.504 45.05 189.85 45.237 190.244 45.374C190.639 45.5111 191.096 45.5735 191.602 45.5735C192.132 45.5735 192.601 45.4987 193.02 45.3491C193.44 45.1871 193.798 44.9877 194.093 44.726C194.377 44.4768 194.599 44.1776 194.76 43.8411C194.92 43.5047 194.994 43.1432 194.994 42.7693C194.994 42.383 194.92 42.0589 194.772 41.7972C194.612 41.5356 194.414 41.2987 194.18 41.1118C193.933 40.9248 193.649 40.7753 193.341 40.6506C193.02 40.526 192.699 40.4139 192.379 40.3141C192.164 40.2579 191.954 40.1964 191.749 40.1365L191.748 40.1359C191.635 40.1031 191.525 40.0708 191.417 40.04C191.096 39.9528 190.812 39.8406 190.577 39.7284C190.331 39.6163 190.133 39.4792 189.986 39.3171C189.825 39.1552 189.751 38.9557 189.751 38.719C189.751 38.5445 189.8 38.37 189.887 38.1955C189.973 38.0335 190.109 37.8715 190.269 37.7344C190.43 37.5973 190.615 37.4976 190.849 37.4104C191.071 37.3231 191.318 37.2858 191.602 37.2858C191.897 37.2858 192.156 37.3231 192.379 37.3979C192.601 37.4727 192.798 37.5724 192.971 37.7094C193.132 37.8466 193.267 37.9961 193.378 38.1831C193.489 38.37 193.576 38.5694 193.637 38.7812L194.933 38.5944C194.847 38.2578 194.711 37.9338 194.526 37.6223C194.34 37.3231 194.106 37.0615 193.822 36.837C193.539 36.6127 193.218 36.4383 192.847 36.3012C192.477 36.1641 192.058 36.1018 191.602 36.1018C191.12 36.1018 190.688 36.1765 190.306 36.3137C189.924 36.4632 189.59 36.6626 189.319 36.8994C189.036 37.1362 188.825 37.4228 188.678 37.7344C188.529 38.046 188.456 38.3825 188.456 38.719C188.456 39.1053 188.529 39.4418 188.69 39.7035C188.838 39.9777 189.036 40.2144 189.282 40.4014C189.516 40.5884 189.8 40.7503 190.121 40.875C190.43 40.9997 190.751 41.1118 191.083 41.2115C191.404 41.3111 191.725 41.3984 192.045 41.4856C192.354 41.5728 192.638 41.6726 192.884 41.7848C193.119 41.8969 193.317 42.034 193.477 42.1836C193.625 42.3456 193.699 42.5326 193.699 42.7693Z" fill="#F5F5FB"/>
<path d="M197.83 45.8871C197.567 45.8871 197.34 45.7915 197.151 45.6005C196.962 45.4095 196.868 45.1807 196.868 44.914C196.868 44.6434 196.962 44.4146 197.151 44.2275C197.344 44.0364 197.57 43.9409 197.83 43.9409C198.091 43.9409 198.315 44.0364 198.504 44.2275C198.698 44.4146 198.794 44.6434 198.794 44.914C198.794 45.1807 198.699 45.4095 198.51 45.6005C198.321 45.7915 198.095 45.8871 197.83 45.8871ZM202.812 45.6065H201.666L204.491 36.3416H205.702L208.545 45.6065H207.286L206.66 43.5708H203.433L202.812 45.6065ZM203.717 42.6456H206.394L205.289 39.1294L205.029 38.1982L204.798 39.1294L203.717 42.6456ZM209.756 45.6065V44.6812H211.772V37.2729H209.756V36.3416H214.98V37.2729H212.966V44.6812H214.98V45.6065H209.756Z" fill="#F5F5FB"/>
<path d="M59.0366 22.9234C59.0366 24.5943 58.4359 25.931 57.2345 26.9335C56.0506 27.9184 54.3617 28.4109 52.1679 28.4109C50.2004 28.4109 48.4419 28.0328 46.8923 27.2765V23.5565C47.7803 23.9435 48.6944 24.3041 49.6346 24.6382C50.5922 24.9548 51.5411 25.1132 52.4813 25.1132C53.4563 25.1132 54.144 24.9284 54.5445 24.5591C54.9624 24.1722 55.1713 23.6885 55.1713 23.1081C55.1713 22.6332 55.0059 22.2287 54.6751 21.8945C54.3617 21.5603 53.9351 21.2526 53.3954 20.9711C52.8556 20.6721 52.2375 20.3555 51.5411 20.0214C51.1059 19.8103 50.6357 19.5641 50.1308 19.2827C49.6259 18.9837 49.1383 18.6231 48.6683 18.201C48.2156 17.7613 47.8412 17.2337 47.5453 16.6181C47.2492 16.0025 47.1012 15.2638 47.1012 14.402C47.1012 12.7135 47.6671 11.4032 48.7988 10.4711C49.9306 9.5213 51.4715 9.04639 53.4215 9.04639C54.3965 9.04639 55.3193 9.16077 56.1898 9.38935C57.0778 9.61803 58.0006 9.94343 58.9582 10.3655L57.6785 13.4786C56.8254 13.1269 56.0593 12.8543 55.3802 12.6607C54.7012 12.4673 54.0048 12.3706 53.2909 12.3706C52.5422 12.3706 51.9677 12.5464 51.5672 12.8982C51.1667 13.2499 50.9665 13.7073 50.9665 14.2701C50.9665 14.9384 51.2625 15.466 51.8545 15.853C52.4464 16.2399 53.3258 16.7148 54.4922 17.2776C55.4499 17.735 56.2595 18.2098 56.9211 18.7023C57.6001 19.1948 58.1225 19.7751 58.4881 20.4435C58.8538 21.1118 59.0366 21.9385 59.0366 22.9234ZM93.0955 28.1471H82.362V9.3102H93.0955V12.5817H86.3052V16.7236H92.6261V19.995H86.3052V24.8493H93.0955V28.1471ZM122.344 9.3102C124.886 9.3102 126.758 9.77633 127.959 10.7085C129.178 11.6407 129.787 13.0565 129.787 14.956C129.787 15.8178 129.622 16.5741 129.291 17.2249C128.978 17.858 128.551 18.4032 128.011 18.8606C127.49 19.3003 126.923 19.6608 126.314 19.9422L131.798 28.1471H127.411L122.971 20.9184H120.855V28.1471H116.912V9.3102H122.344ZM122.057 12.5817H120.855V17.6734H122.136C123.441 17.6734 124.372 17.4535 124.929 17.0138C125.505 16.5741 125.792 15.9234 125.792 15.0615C125.792 14.1645 125.487 13.5314 124.877 13.162C124.285 12.7751 123.345 12.5817 122.057 12.5817ZM169.263 21.4988C169.263 22.8003 168.975 23.9787 168.401 25.034C167.844 26.0717 166.99 26.8983 165.841 27.5139C164.71 28.1119 163.273 28.4109 161.532 28.4109C159.06 28.4109 157.18 27.7777 155.891 26.5114C154.603 25.2274 153.959 23.539 153.959 21.446V9.3102H157.902V20.8392C157.902 22.387 158.216 23.4775 158.842 24.1106C159.469 24.7437 160.4 25.0604 161.636 25.0604C162.925 25.0604 163.857 24.7174 164.431 24.0315C165.023 23.3455 165.319 22.2727 165.319 20.8129V9.3102H169.263V21.4988ZM201.653 28.1471L197.161 13.3731H197.056C197.073 13.7249 197.099 14.2525 197.135 14.956C197.169 15.6595 197.204 16.4158 197.239 17.2249C197.274 18.0163 197.291 18.7374 197.291 19.3882V28.1471H193.766V9.3102H199.145L203.559 23.7148H203.637L208.312 9.3102H213.693V28.1471H210.01V19.2299C210.01 18.6319 210.019 17.946 210.036 17.1721C210.071 16.3982 210.097 15.6684 210.114 14.9824C210.149 14.2788 210.175 13.7512 210.193 13.3995H210.088L205.283 28.1471H201.653Z" fill="#09ACC7"/>
<defs>
<linearGradient id="paint0_linear" x1="17.3408" y1="50.8332" x2="17.3408" y2="22.7807" gradientUnits="userSpaceOnUse">
<stop stop-color="#05AAC5"/>
<stop offset="1" stop-color="#71E0EC"/>
</linearGradient>
<linearGradient id="paint1_linear" x1="17.3405" y1="54.317" x2="17.3405" y2="20.5122" gradientUnits="userSpaceOnUse">
<stop stop-color="#05AAC5"/>
<stop offset="1" stop-color="#71E0EC"/>
</linearGradient>
<linearGradient id="paint2_linear" x1="17.3406" y1="57.8044" x2="17.3406" y2="18.1823" gradientUnits="userSpaceOnUse">
<stop stop-color="#05AAC5"/>
<stop offset="1" stop-color="#71E0EC"/>
</linearGradient>
<linearGradient id="paint3_linear" x1="17.2974" y1="6.24792" x2="17.2974" y2="37.9894" gradientUnits="userSpaceOnUse">
<stop stop-color="#70E0EC"/>
<stop offset="1" stop-color="#3EC6DA"/>
</linearGradient>
</defs>
</svg>
