<svg width="12" height="12" viewBox="0 0 12 12" fill="none" xmlns="http://www.w3.org/2000/svg">
<path d="M10.8 7.80012H10.716C10.452 6.76812 9.516 6.00012 8.4 6.00012C7.284 6.00012 6.34796 6.76812 6.084 7.80012H1.2C0.863998 7.80012 0.599998 8.06412 0.599998 8.40012C0.599998 8.73612 0.863998 9.00012 1.2 9.00012H6.084C6.348 10.0321 7.284 10.8001 8.4 10.8001C9.516 10.8001 10.452 10.0321 10.716 9.00012H10.8C11.136 9.00012 11.4 8.73612 11.4 8.40012C11.4 8.06412 11.136 7.80012 10.8 7.80012ZM8.40004 9.60012C7.74002 9.60012 7.20004 9.06014 7.20004 8.40012C7.20004 7.7401 7.74002 7.20012 8.40004 7.20012C9.06006 7.20012 9.60004 7.7401 9.60004 8.40012C9.60004 9.06014 9.06006 9.60012 8.40004 9.60012Z" fill="#5B5A72"/>
<path d="M1.20006 4.19995H1.2841C1.5481 5.23195 2.4841 5.99995 3.6001 5.99995C4.7161 5.99995 5.65214 5.23195 5.9161 4.19995H10.8001C11.1361 4.19995 11.4001 3.93595 11.4001 3.59995C11.4001 3.26395 11.1361 2.99995 10.8001 2.99995H5.9161C5.6521 1.96795 4.7161 1.19995 3.6001 1.19995C2.4841 1.19995 1.54806 1.96795 1.2841 2.99995H1.20006C0.86406 2.99995 0.60006 3.26395 0.60006 3.59995C0.60006 3.93595 0.86406 4.19995 1.20006 4.19995ZM3.60006 2.39995C4.26008 2.39995 4.80006 2.93993 4.80006 3.59995C4.80006 4.25997 4.26008 4.79995 3.60006 4.79995C2.94004 4.79995 2.40006 4.25997 2.40006 3.59995C2.40006 2.93993 2.94004 2.39995 3.60006 2.39995Z" fill="#5B5A72"/>
</svg>
