<svg width="83" height="96" viewBox="0 0 83 96" fill="none" xmlns="http://www.w3.org/2000/svg">
<path d="M77.7456 64.1082C75.1653 71.1013 71.263 77.1819 66.1455 82.1792C60.3206 87.8672 52.6931 92.387 43.4749 95.6111C43.1724 95.7166 42.8567 95.803 42.5396 95.8667C42.1206 95.9495 41.6943 95.9942 41.2717 96H41.189C40.7385 96 40.2859 95.9546 39.8369 95.8667C39.5198 95.803 39.2085 95.7166 38.9075 95.6133C29.6782 92.3943 22.0413 87.8767 16.2104 82.1888C11.0908 77.1914 7.18919 71.1145 4.61253 64.1214C-0.0727806 51.4065 0.193821 37.3997 0.408421 26.1438L0.412083 25.9709C0.455296 25.0415 0.483128 24.0652 0.498509 22.9871C0.576878 17.6938 4.78538 13.3147 10.0793 13.0195C21.1169 12.4036 29.6555 8.8037 36.9512 1.69261L37.0149 1.63401C38.2263 0.522929 39.7527 -0.0219935 41.2717 0.000711688C42.7366 0.0197547 44.1956 0.563944 45.3638 1.63401L45.426 1.69261C52.7232 8.8037 61.2617 12.4036 72.2993 13.0195C77.5933 13.3147 81.8018 17.6938 81.8802 22.9871C81.8955 24.0725 81.9234 25.0474 81.9666 25.9709L81.9688 26.0442C82.1827 37.3213 82.4478 51.356 77.7456 64.1082Z" fill="#97C15C"/>
<path d="M77.7454 64.1082C75.1651 71.1014 71.2627 77.1819 66.1453 82.1793C60.3203 87.8673 52.6929 92.387 43.4746 95.6112C43.1721 95.7166 42.8564 95.8031 42.5393 95.8668C42.1204 95.9495 41.6941 95.9942 41.2715 96.0001V0.000732422C42.7363 0.0197755 44.1953 0.563965 45.3635 1.63403L45.4258 1.69263C52.7229 8.80372 61.2615 12.4036 72.2991 13.0195C77.593 13.3147 81.8015 17.6939 81.8799 22.9871C81.8953 24.0725 81.9231 25.0474 81.9663 25.971L81.9685 26.0442C82.1824 37.3213 82.4475 51.356 77.7454 64.1082Z" fill="#29AC80"/>
<path d="M65.1126 48C65.1126 61.1639 54.4243 71.8792 41.2715 71.9261H41.1873C27.9956 71.9261 17.2612 61.1924 17.2612 48C17.2612 34.8084 27.9956 24.0747 41.1873 24.0747H41.2715C54.4243 24.1216 65.1126 34.8369 65.1126 48Z" fill="white"/>
<path d="M65.1126 48C65.1126 61.1639 54.4243 71.8792 41.2715 71.9261V24.0747C54.4243 24.1216 65.1126 34.8369 65.1126 48Z" fill="#E1EBF0"/>
<path d="M52.0465 44.5547L41.2711 55.3316L38.9428 57.6599C38.3927 58.21 37.6713 58.4846 36.9506 58.4846C36.2291 58.4846 35.5084 58.21 34.9576 57.6599L29.9515 52.6516C28.8514 51.5515 28.8514 49.7695 29.9515 48.6687C31.0502 47.5686 32.8344 47.5686 33.9344 48.6687L36.9506 51.6848L48.0636 40.5718C49.1637 39.4709 50.9479 39.4709 52.0465 40.5718C53.1466 41.6719 53.1466 43.4561 52.0465 44.5547Z" fill="#B4D2D7"/>
</svg>
