<svg width="34" height="39" viewBox="0 0 34 39" fill="none" xmlns="http://www.w3.org/2000/svg">
<path d="M28.7025 0H4.67573C2.6496 0 1 1.65324 1 3.70182V27.9973C1 30.0458 2.6496 31.6991 4.67573 31.6991H25.0088L24.0585 28.3746L26.3536 30.5131L28.5232 32.5257L32.3782 35.94V3.70182C32.3782 1.65324 30.7286 0 28.7025 0ZM21.7813 23.4688C21.7813 23.4688 21.1358 22.6961 20.5979 22.0132C22.9468 21.3484 23.8433 19.8748 23.8433 19.8748C23.1082 20.36 22.4089 20.7014 21.7813 20.935C20.8848 21.3124 20.0242 21.564 19.1814 21.7078C17.4601 22.0312 15.8822 21.9414 14.5375 21.6898C13.5154 21.4921 12.6368 21.2046 11.9017 20.9171C11.4893 20.7553 11.041 20.5577 10.5928 20.3061C10.539 20.2702 10.4852 20.2522 10.4314 20.2162C10.3955 20.1983 10.3776 20.1803 10.3597 20.1623C10.0369 19.9826 9.85762 19.8568 9.85762 19.8568C9.85762 19.8568 10.7183 21.2944 12.9954 21.9773C12.4575 22.6602 11.7941 23.4688 11.7941 23.4688C7.83148 23.343 6.32533 20.7374 6.32533 20.7374C6.32533 14.951 8.90731 10.2609 8.90731 10.2609C11.4893 8.32011 13.9458 8.37402 13.9458 8.37402L14.1251 8.58966C10.8976 9.5241 9.40936 10.9437 9.40936 10.9437C9.40936 10.9437 9.80383 10.7281 10.4673 10.4226C12.3858 9.57801 13.9099 9.3444 14.5375 9.29049C14.645 9.27252 14.7347 9.25455 14.8423 9.25455C15.936 9.11079 17.1732 9.07485 18.4642 9.21861C20.1676 9.41628 21.9965 9.91944 23.8613 10.9437C23.8613 10.9437 22.4448 9.59598 19.3966 8.66154L19.6476 8.37402C19.6476 8.37402 22.1041 8.32011 24.6861 10.2609C24.6861 10.2609 27.268 14.951 27.268 20.7374C27.268 20.7374 25.744 23.343 21.7813 23.4688ZM13.4437 15.0768C12.4217 15.0768 11.6148 15.9753 11.6148 17.0715C11.6148 18.1677 12.4396 19.0662 13.4437 19.0662C14.4657 19.0662 15.2726 18.1677 15.2726 17.0715C15.2905 15.9753 14.4657 15.0768 13.4437 15.0768ZM19.9883 15.0768C18.9663 15.0768 18.1594 15.9753 18.1594 17.0715C18.1594 18.1677 18.9842 19.0662 19.9883 19.0662C21.0103 19.0662 21.8172 18.1677 21.8172 17.0715C21.8172 15.9753 21.0103 15.0768 19.9883 15.0768Z" fill="#EAEEF2"/>
</svg>
