<svg width="325" height="196" viewBox="0 0 325 196" fill="none" xmlns="http://www.w3.org/2000/svg">
<g clip-path="url(#clip0)">
<rect y="196" width="196" height="325" rx="12" transform="rotate(-90 0 196)" fill="url(#paint0_linear)"/>
<g opacity="0.1" filter="url(#filter0_f)">
<path d="M0 202.1V144.416L191.964 46.4414L325 115.461V202.1H0Z" fill="#651CE4"/>
<path d="M0 144.457V170.7L189.639 62.0297L324.888 139.747V114.514L189.639 35.8997L0 144.457Z" fill="#F5F5FB"/>
<path d="M290.486 201.876L189.432 149.84L86.1159 201.876H0V170.475L189.432 62.3662L325 139.186V201.876H290.486Z" fill="#5768F3"/>
<path d="M189.432 62.3662V149.84M189.432 62.3662L325 139.186V201.876H290.486L189.432 149.84M189.432 62.3662L0 170.475V201.876H86.1159L189.432 149.84" stroke="#F5F5FB"/>
<path d="M189.432 149.84V62.3662L0 170.475V201.876H86.1159L189.432 149.84Z" fill="#6474F5" stroke="#F5F5FB"/>
<path d="M271.506 100.601C267.319 77.3497 257.466 44.7974 251.544 100.601M251.544 100.601V117.816M251.544 100.601L221.377 84.7888M251.544 193.122V181.907M251.544 181.907L221.377 165.198V179.216V148.936M251.544 181.907V165.198M221.377 148.936L251.544 165.198M221.377 148.936V132.675M251.544 165.198V148.936M251.544 148.936L221.377 132.675M251.544 148.936V135.03M221.377 132.675V116.863M221.377 116.863L251.544 135.03M221.377 116.863V100.601M251.544 135.03V117.816M251.544 117.816L221.377 100.601M221.377 100.601V84.7888M221.377 84.7888C225.227 62.6212 234.79 31.5866 242.236 84.7888" stroke="#3A475C" stroke-width="4"/>
<ellipse cx="140.071" cy="145.467" rx="39.8119" ry="21.1957" fill="#F29C38"/>
<ellipse cx="250.423" cy="170.587" rx="31.7374" ry="16.9341" fill="#F29C38"/>
<ellipse cx="62.914" cy="182.699" rx="31.7374" ry="16.9341" fill="#F29C38"/>
<ellipse cx="140.071" cy="142.551" rx="39.8119" ry="18.2798" fill="#F8B567"/>
<ellipse cx="250.423" cy="168.232" rx="31.7374" ry="14.579" fill="#F8B567"/>
<ellipse cx="62.914" cy="180.344" rx="31.7374" ry="14.579" fill="#F8B567"/>
</g>
</g>
<defs>
<filter id="filter0_f" x="-4.5" y="31.8997" width="334" height="174.477" filterUnits="userSpaceOnUse" color-interpolation-filters="sRGB">
<feFlood flood-opacity="0" result="BackgroundImageFix"/>
<feBlend mode="normal" in="SourceGraphic" in2="BackgroundImageFix" result="shape"/>
<feGaussianBlur stdDeviation="2" result="effect1_foregroundBlur"/>
</filter>
<linearGradient id="paint0_linear" x1="26.5" y1="196" x2="56.4823" y2="529.32" gradientUnits="userSpaceOnUse">
<stop stop-color="#2A80F9"/>
<stop offset="1" stop-color="#0352BB"/>
</linearGradient>
<clipPath id="clip0">
<rect y="196" width="196" height="325" rx="24" transform="rotate(-90 0 196)" fill="white"/>
</clipPath>
</defs>
</svg>
