<svg width="326" height="196" viewBox="0 0 326 196" fill="none" xmlns="http://www.w3.org/2000/svg">
<g clip-path="url(#clip0)">
<rect y="196" width="196" height="326" rx="12" transform="rotate(-90 0 196)" fill="url(#paint0_linear)"/>
<g opacity="0.05" filter="url(#filter0_f)">
<path d="M262.701 -47.9601L72.2792 61.9799C67.6998 64.6239 66.1361 70.4597 68.78 75.0392L178.72 265.461C181.364 270.04 187.2 271.604 191.779 268.96L382.201 159.02C386.78 156.376 388.344 150.54 385.7 145.961L275.76 -44.4609C273.116 -49.0403 267.28 -50.604 262.701 -47.9601ZM323.732 76.8684L240.94 124.668L221.82 91.5516L304.612 43.7516L323.732 76.8684ZM244.833 100.342C246.418 103.087 249.028 105.09 252.089 105.91C255.151 106.731 258.413 106.301 261.157 104.717C263.902 103.132 265.905 100.522 266.725 97.4604C267.545 94.399 267.116 91.1372 265.531 88.3925C263.947 85.6478 261.337 83.645 258.275 82.8247C255.214 82.0044 251.952 82.4338 249.207 84.0185C246.463 85.6032 244.46 88.2133 243.64 91.2746C242.819 94.3359 243.249 97.5978 244.833 100.342Z" fill="white" fill-opacity="0.43"/>
<path d="M262.701 -47.9601L72.2792 61.9799C67.6998 64.6239 66.1361 70.4597 68.78 75.0392L178.72 265.461C181.364 270.04 187.2 271.604 191.779 268.96L382.201 159.02C386.78 156.376 388.344 150.54 385.7 145.961L275.76 -44.4609C273.116 -49.0403 267.28 -50.604 262.701 -47.9601ZM323.732 76.8684L240.94 124.668L221.82 91.5516L304.612 43.7516L323.732 76.8684ZM244.833 100.342C246.418 103.087 249.028 105.09 252.089 105.91C255.151 106.731 258.413 106.301 261.157 104.717C263.902 103.132 265.905 100.522 266.725 97.4604C267.545 94.399 267.116 91.1372 265.531 88.3925C263.947 85.6478 261.337 83.645 258.275 82.8247C255.214 82.0044 251.952 82.4338 249.207 84.0185C246.463 85.6032 244.46 88.2133 243.64 91.2746C242.819 94.3359 243.249 97.5978 244.833 100.342Z" stroke="#F5F5FB" stroke-width="12"/>
</g>
</g>
<defs>
<filter id="filter0_f" x="51.8038" y="-64.9362" width="350.872" height="350.872" filterUnits="userSpaceOnUse" color-interpolation-filters="sRGB">
<feFlood flood-opacity="0" result="BackgroundImageFix"/>
<feBlend mode="normal" in="SourceGraphic" in2="BackgroundImageFix" result="shape"/>
<feGaussianBlur stdDeviation="2" result="effect1_foregroundBlur"/>
</filter>
<linearGradient id="paint0_linear" x1="-6.77241e-06" y1="196" x2="91.2155" y2="544.947" gradientUnits="userSpaceOnUse">
<stop stop-color="#00CFDC"/>
<stop offset="1" stop-color="#026FF0"/>
</linearGradient>
<clipPath id="clip0">
<rect y="196" width="196" height="326" rx="24" transform="rotate(-90 0 196)" fill="white"/>
</clipPath>
</defs>
</svg>
