<svg width="327" height="294" viewBox="0 0 327 294" fill="none" xmlns="http://www.w3.org/2000/svg">
<g clip-path="url(#clip0)">
<rect width="327" height="294" rx="12" fill="url(#paint0_linear)"/>
<g opacity="0.1" filter="url(#filter0_f)">
<path fill-rule="evenodd" clip-rule="evenodd" d="M39.6564 117.147V144.618H72.8025V348.436H39.6564V386.541H35.6564V348.436H0V144.618H35.6564V117.147H39.6564ZM209.309 117.147V128.667H242.455V320.079H209.309V386.541H205.309V320.079H169.652V128.667H205.309V117.147H209.309ZM124.483 273.953V186.222H120.483V273.953H84.8261V389.154H120.483V455.616H124.483V389.154H157.629V273.953H124.483ZM293.854 140.632V228.363H327V343.564H293.854V410.027H289.854V343.564H254.198V228.363H289.854V140.632H293.854Z" fill="#F8FAFF"/>
</g>
</g>
<defs>
<filter id="filter0_f" x="-4" y="113.147" width="335" height="346.47" filterUnits="userSpaceOnUse" color-interpolation-filters="sRGB">
<feFlood flood-opacity="0" result="BackgroundImageFix"/>
<feBlend mode="normal" in="SourceGraphic" in2="BackgroundImageFix" result="shape"/>
<feGaussianBlur stdDeviation="2" result="effect1_foregroundBlur"/>
</filter>
<linearGradient id="paint0_linear" x1="12.9648" y1="294" x2="327.105" y2="52.3792" gradientUnits="userSpaceOnUse">
<stop stop-color="#00BBAA"/>
<stop offset="1" stop-color="#0381FC"/>
</linearGradient>
<clipPath id="clip0">
<rect width="327" height="294" rx="24" fill="white"/>
</clipPath>
</defs>
</svg>
