<svg width="24" height="24" viewBox="0 0 24 24" fill="none" xmlns="http://www.w3.org/2000/svg">
<circle cx="12" cy="12" r="12" fill="#0E02EC"/>
<path d="M4.5 12C4.5 10.0109 5.29018 8.10322 6.6967 6.6967C8.10322 5.29018 10.0109 4.5 12 4.5C13.9891 4.5 15.8968 5.29018 17.3033 6.6967C18.7098 8.10322 19.5 10.0109 19.5 12C19.5 13.9891 18.7098 15.8968 17.3033 17.3033C15.8968 18.7098 13.9891 19.5 12 19.5C10.0109 19.5 8.10322 18.7098 6.6967 17.3033C5.29018 15.8968 4.5 13.9891 4.5 12V12ZM12 5.4375C11.9203 5.4375 11.8406 5.43938 11.7609 5.44219C11.8716 5.65031 11.9981 5.91469 12.1106 6.21375C12.3731 6.91313 12.6047 7.91719 12.1903 8.79937C11.8116 9.60562 11.1619 9.81563 10.6603 9.945L10.5694 9.96844C10.095 10.0903 9.86156 10.1503 9.6975 10.3997C9.53813 10.6406 9.57656 10.9378 9.73219 11.4431L9.76781 11.5594C9.83062 11.7572 9.90281 11.9878 9.94031 12.2044C9.98719 12.4725 9.99656 12.8006 9.83438 13.1137C9.66563 13.4353 9.44625 13.6519 9.1875 13.7925C8.9677 13.9038 8.73111 13.9782 8.48719 14.0128L8.40469 14.0269C8.02312 14.0944 7.8 14.1328 7.59187 14.3559C7.42594 14.5341 7.33125 14.8322 7.27687 15.2381C7.25437 15.405 7.24125 15.5709 7.22719 15.7387L7.22062 15.8278C7.20871 16.0183 7.18397 16.2078 7.14656 16.395L7.14281 16.4138C7.75732 17.0914 8.50706 17.6328 9.34367 18.0029C10.1803 18.373 11.0852 18.5636 12 18.5625C13.2656 18.5625 14.4488 18.2034 15.4519 17.5828C15.3605 17.4919 15.2744 17.3958 15.1941 17.295C14.9409 16.9762 14.6231 16.4428 14.7328 15.8231C14.7853 15.5297 14.9447 15.2784 15.105 15.0788C15.2691 14.8763 15.4669 14.6878 15.645 14.5238L15.765 14.4141C15.9019 14.2894 16.0209 14.1797 16.1231 14.0737C16.2609 13.9294 16.3022 13.8516 16.3106 13.8272C16.3744 13.6153 16.2984 13.4484 16.1925 13.3659C16.1044 13.2975 15.9159 13.2328 15.6206 13.4203C15.522 13.4839 15.421 13.5436 15.3178 13.5994C15.2196 13.6542 15.1133 13.6928 15.0028 13.7138C14.9107 13.7303 14.8159 13.7238 14.727 13.6949C14.638 13.6659 14.5575 13.6154 14.4928 13.5478C14.4045 13.4491 14.3466 13.3271 14.3259 13.1963C14.3119 13.1106 14.3025 13.0242 14.2978 12.9375L14.2931 12.8756C14.2884 12.8063 14.2828 12.735 14.2744 12.6525C14.251 12.3914 14.2062 12.1327 14.1403 11.8791C14.0212 11.4188 13.7278 11.0466 13.4241 10.6603C13.3794 10.604 13.335 10.5474 13.2909 10.4906C13.1409 10.2975 12.9506 10.0425 12.8822 9.76875C12.8368 9.5995 12.845 9.42034 12.9056 9.25594C12.9728 9.08729 13.087 8.9415 13.2347 8.83594C13.6359 8.53594 14.2922 7.88625 14.8688 7.28719C15.1528 6.99281 15.4097 6.71813 15.5953 6.51656L15.6 6.51094C14.531 5.80836 13.2792 5.43511 12 5.4375V5.4375Z" fill="white"/>
</svg>
