<svg width="39" height="33" viewBox="0 0 39 33" fill="none" xmlns="http://www.w3.org/2000/svg">
<path d="M32.9797 7.97302C32.7471 8.20318 32.4347 8.3347 32.1091 8.3347H1.23864C0.148707 8.3347 -0.402906 7.0195 0.354731 6.23696L5.41894 1.04851C5.65155 0.811772 5.97055 0.673676 6.30285 0.673676H37.2862C38.3828 0.673676 38.9344 2.00203 38.1569 2.78457L32.9797 7.97302ZM32.9797 31.16C32.7471 31.3835 32.4347 31.5151 32.1091 31.5151H1.23864C0.148707 31.5151 -0.402906 30.2327 0.354731 29.4699L5.41894 24.4064C5.65155 24.1763 5.97055 24.0447 6.30285 24.0447H37.2862C38.3828 24.0447 38.9344 25.3402 38.1569 26.103L32.9797 31.16ZM32.1091 12.3592C32.4347 12.3592 32.7471 12.4841 32.9797 12.7143L38.1569 17.7778C38.9344 18.5341 38.3828 19.8361 37.2862 19.8361H6.30285C5.97055 19.8361 5.65155 19.7046 5.41894 19.4744L0.354731 14.4109C-0.409552 13.6481 0.142061 12.3658 1.23864 12.3658L32.1091 12.3592Z" fill="#00FFAD"/>
<path fill-rule="evenodd" clip-rule="evenodd" d="M1.60467 13.1878H32.3555C32.7409 13.1878 33.1064 13.339 33.3723 13.6086L38.2371 18.4551C39.1343 19.3495 38.4963 20.8751 37.2203 20.8751H6.46951C6.08404 20.8751 5.71851 20.7239 5.45268 20.4542L0.587845 15.6077C-0.316003 14.7134 0.328653 13.1878 1.60467 13.1878ZM0.587845 6.76303L5.45268 1.91653C5.72516 1.64691 6.09069 1.49567 6.46951 1.49567H37.2136C38.4897 1.49567 39.1343 3.02129 38.2305 3.91563L33.3723 8.76213C33.0998 9.03175 32.7343 9.183 32.3555 9.183H1.60467C0.328653 9.183 -0.316003 7.65737 0.587845 6.76303ZM38.2305 27.2998L33.3656 32.1463C33.0932 32.416 32.7276 32.5672 32.3488 32.5672H1.60467C0.328653 32.5672 -0.316003 31.0416 0.587845 30.1472L5.45268 25.3007C5.72516 25.0311 6.09069 24.8799 6.46951 24.8799H37.2136C38.4897 24.8799 39.1343 26.4055 38.2305 27.2998Z" fill="url(#paint0_linear)"/>
<defs>
<linearGradient id="paint0_linear" x1="2.35698" y1="33.9041" x2="36.1005" y2="-0.198331" gradientUnits="userSpaceOnUse">
<stop stop-color="#CB4EE8"/>
<stop offset="1" stop-color="#10F4B1"/>
</linearGradient>
</defs>
</svg>
