<svg width="221" height="234" viewBox="0 0 221 234" fill="none" xmlns="http://www.w3.org/2000/svg">
<path d="M102.455 97.5001H72.9551C90.4551 82.5001 92.9551 73.0001 75.9551 47.5001C62.3551 27.1001 70.2884 7.33345 75.9551 0.00012207H102.455C85.6551 11.2002 95.4551 36.3335 102.455 47.5001C118.055 77.9001 108.955 93.5001 102.455 97.5001Z" fill="#FF4BEF"/>
<path fill-rule="evenodd" clip-rule="evenodd" d="M55.832 97.5001H26.332C43.832 82.5001 46.332 73.0001 29.332 47.5001C15.732 27.1001 23.6654 7.33345 29.332 0.00012207H55.832C39.032 11.2002 48.832 36.3335 55.832 47.5001C71.432 77.9001 62.332 93.5001 55.832 97.5001ZM150.841 97.5001H121.341C138.841 82.5001 141.341 73.0001 124.341 47.5001C110.741 27.1001 118.675 7.33345 124.341 0.00012207H150.841C134.041 11.2002 143.841 36.3335 150.841 47.5001C166.441 77.9001 157.341 93.5001 150.841 97.5001ZM26.3319 132.5H129.332V107H1.33189C-4.33479 149.167 5.13184 233.5 88.3319 233.5C136.521 233.5 162.547 209.57 175.561 182.5L175.058 182.204C177.568 182.726 180.168 183 182.832 183C203.819 183 220.832 165.987 220.832 145C220.832 124.013 203.819 107 182.832 107C161.845 107 144.832 124.013 144.832 145C144.832 154.513 148.328 163.21 154.105 169.875L153.832 169.715C143.005 191.699 122.851 211.751 88.3319 209.5C33.1319 205.9 23.9985 156.667 26.3319 132.5ZM183 159C190.732 159 197 152.732 197 145C197 137.268 190.732 131 183 131C175.268 131 169 137.268 169 145C169 152.732 175.268 159 183 159Z" fill="#00FFBD"/>
</svg>
