<svg width="42" height="44" viewBox="0 0 42 44" fill="none" xmlns="http://www.w3.org/2000/svg">
<path d="M21 37C16.1624 37 11.8942 34.6106 9.37882 30.9817C7.87693 28.815 7 26.2063 7 23.4005C7 16.1045 19.6735 3.21891 20.2112 2.6791L20.8745 2L21.5556 2.66165C22.1113 3.20146 35 16.087 35 23.3831C35 26.1973 34.1219 28.8116 32.6182 30.9817C30.1025 34.6125 25.8356 37 21 37ZM20.8925 4.62936C19.781 5.79603 17.4507 8.3209 15.1383 11.2811C11.0333 16.5398 8.86427 20.7189 8.86427 23.3831C8.86427 29.8781 14.3137 35.1717 21 35.1717C27.6863 35.1717 33.1357 29.8781 33.1357 23.3831C33.1357 20.7189 30.9308 16.5398 26.7542 11.2811C24.4059 8.33835 22.0217 5.79603 20.8925 4.62936Z" fill="url(#paint0_linear)"/>
<path d="M20.9835 41C11.6105 41 4 33.3558 4 23.978C4 14.7983 16.7829 1.98642 17.3265 1.45815C17.656 1.12793 18.2161 1.12793 18.5455 1.45815C18.875 1.78837 18.875 2.34974 18.5455 2.67985C18.4138 2.81202 5.72965 15.5248 5.72965 23.978C5.72965 32.4147 12.5824 39.2829 21 39.2829C29.4177 39.2829 36.2704 32.4147 36.2704 23.978C36.2704 20.5109 34.03 15.7229 29.7801 10.093C26.5184 5.7838 23.2403 2.51479 23.2074 2.4818C22.8614 2.15158 22.8614 1.60677 23.2074 1.26C23.5368 0.913334 24.0805 0.913334 24.4263 1.26C24.9864 1.80482 38 14.7819 38 23.978C37.9671 33.3558 30.3566 41 20.9835 41Z" fill="url(#paint1_linear)"/>
<path d="M20.9999 44C9.42071 44 0 35.274 0 24.5487C0 20.1159 2.40956 14.6602 7.14501 8.35209C10.6422 3.70241 14.0725 0.385544 14.2232 0.246126C14.5577 -0.0794048 15.11 -0.079406 15.4613 0.230591C15.8127 0.540589 15.8127 1.05204 15.4781 1.37748C15.4446 1.40855 11.9809 4.75629 8.56733 9.29752C4.0996 15.2337 1.74023 20.5034 1.74023 24.5487C1.74023 34.3751 10.3745 42.3882 20.9999 42.3882C31.6255 42.3882 40.2597 34.3906 40.2597 24.5487C40.2597 20.5034 37.8837 15.2337 33.3824 9.29752C29.9354 4.75629 26.4382 1.40855 26.4048 1.37748C26.0701 1.05204 26.0701 0.540589 26.4215 0.230591C26.7729 -0.079406 27.3251 -0.0794048 27.6598 0.246126C28.2454 0.804083 42 14.0403 42 24.5487C42 35.274 32.5793 44 20.9999 44Z" fill="url(#paint2_linear)"/>
<defs>
<linearGradient id="paint0_linear" x1="20.9999" y1="37.0057" x2="20.9999" y2="2.00872" gradientUnits="userSpaceOnUse">
<stop stop-color="#05AAC5"/>
<stop offset="1" stop-color="#71E0EC"/>
</linearGradient>
<linearGradient id="paint1_linear" x1="20.9835" y1="40.9976" x2="20.9835" y2="1.0108" gradientUnits="userSpaceOnUse">
<stop stop-color="#05AAC5"/>
<stop offset="1" stop-color="#71E0EC"/>
</linearGradient>
<linearGradient id="paint2_linear" x1="20.9999" y1="43.9958" x2="20.9999" y2="-0.00202455" gradientUnits="userSpaceOnUse">
<stop stop-color="#05AAC5"/>
<stop offset="1" stop-color="#71E0EC"/>
</linearGradient>
</defs>
</svg>
