<svg xmlns="http://www.w3.org/2000/svg" width="18" height="18" viewBox="0 0 18 18">
    <g fill="none" fill-rule="evenodd">
        <path fill="#FFF" fill-rule="nonzero" d="M9.294 13.88l4.642 3.379a.5.5 0 0 0 .77-.56l-1.776-5.45a.5.5 0 0 1 .186-.562l4.609-3.28a.5.5 0 0 0-.29-.907h-5.654a.5.5 0 0 1-.476-.347L9.475.477a.5.5 0 0 0-.95 0l-1.83 5.676a.5.5 0 0 1-.476.347H.565a.5.5 0 0 0-.29.907l4.61 3.28a.5.5 0 0 1 .185.562L3.294 16.7a.5.5 0 0 0 .77.56l4.642-3.378a.5.5 0 0 1 .588 0z"/>
        <path d="M-1-1h20v20H-1z"/>
    </g>
</svg>
