<svg width="25" height="24" viewBox="0 0 25 24" fill="none" xmlns="http://www.w3.org/2000/svg">
<path fill-rule="evenodd" clip-rule="evenodd" d="M11.233 0H12.9612V4.25143H11.233V0ZM17.0112 5.90572L20.0415 2.89972L21.2633 4.11258L18.233 7.11858L17.0112 5.90572ZM24.1943 11.1429H19.9084V12.8572H24.1943V11.1429ZM17.0165 18.0883L18.2384 16.8763L21.2687 19.8831L20.0469 21.0943L17.0165 18.0883ZM12.9612 19.7486H11.233V24H12.9612V19.7486ZM2.93522 19.8874L5.96557 16.8814L7.18739 18.0934L4.15704 21.1003L2.93522 19.8874ZM4.28586 11.1429H0V12.8572H4.28586V11.1429ZM2.92896 4.11684L4.15251 2.9057L7.18287 5.91256L5.96105 7.12456L2.92896 4.11684ZM14.0174 9.14922C13.449 8.77248 12.7808 8.5714 12.0972 8.5714C11.1805 8.5714 10.3014 8.93263 9.65319 9.57561C9.005 10.2186 8.64085 11.0907 8.64085 12C8.64085 12.6781 8.84356 13.341 9.22335 13.9048C9.60314 14.4686 10.1429 14.9081 10.7745 15.1676C11.4061 15.4271 12.101 15.495 12.7715 15.3627C13.442 15.2304 14.0578 14.9038 14.5412 14.4243C15.0246 13.9448 15.3538 13.3339 15.4871 12.6689C15.6205 12.0038 15.552 11.3144 15.2904 10.6879C15.0288 10.0614 14.5858 9.52596 14.0174 9.14922ZM9.21683 7.72385C10.0694 7.15874 11.0718 6.85712 12.0972 6.85712C13.4722 6.85712 14.7909 7.39895 15.7632 8.36343C16.7355 9.3279 17.2817 10.636 17.2817 12C17.2817 13.0171 16.9776 14.0115 16.408 14.8572C15.8383 15.7029 15.0286 16.3621 14.0812 16.7514C13.1339 17.1406 12.0914 17.2425 11.0857 17.044C10.08 16.8456 9.15625 16.3558 8.43119 15.6365C7.70612 14.9173 7.21234 14.0009 7.01229 13.0033C6.81225 12.0057 6.91492 10.9716 7.30732 10.0319C7.69973 9.09215 8.36424 8.28895 9.21683 7.72385Z" fill="#7284A0"/>
</svg>
