<svg width="57" height="56" viewBox="0 0 57 56" fill="none" xmlns="http://www.w3.org/2000/svg">
<path fill-rule="evenodd" clip-rule="evenodd" d="M26.2103 0H30.2427V9.91998H26.2103V0ZM39.6926 13.7799L46.7634 6.76586L49.6143 9.59586L42.5435 16.6098L39.6926 13.7799ZM56.4533 25.9999H46.4529V29.9999H56.4533V25.9999ZM39.7052 42.2058L42.5561 39.3778L49.6269 46.3938L46.776 49.2198L39.7052 42.2058ZM30.2427 46.0799H26.2103V55.9998H30.2427V46.0799ZM6.84882 46.4037L13.9196 39.3898L16.7705 42.2178L9.69973 49.2337L6.84882 46.4037ZM10.0003 25.9999H0V29.9999H10.0003V25.9999ZM6.83422 9.6061L9.68916 6.7801L16.76 13.7961L13.9091 16.6241L6.83422 9.6061ZM32.7073 21.3483C31.381 20.4692 29.8218 20.0001 28.2267 20.0001C26.0878 20.0001 24.0365 20.8429 22.524 22.3432C21.0116 23.8435 20.1619 25.8783 20.1619 28C20.1619 29.5823 20.6349 31.129 21.5211 32.4446C22.4073 33.7602 23.6668 34.7856 25.1405 35.3911C26.6141 35.9966 28.2357 36.155 29.8001 35.8463C31.3645 35.5376 32.8015 34.7757 33.9294 33.6569C35.0573 32.5381 35.8254 31.1126 36.1366 29.5608C36.4477 28.0089 36.288 26.4004 35.6776 24.9386C35.0672 23.4768 34.0335 22.2273 32.7073 21.3483ZM21.5059 18.0224C23.4953 16.7038 25.8341 16.0001 28.2267 16.0001C31.4351 16.0001 34.5121 17.2643 36.7807 19.5148C39.0494 21.7652 40.3239 24.8174 40.3239 28C40.3239 30.3734 39.6144 32.6935 38.2852 34.6669C36.9559 36.6403 35.0666 38.1783 32.8561 39.0866C30.6456 39.9948 28.2133 40.2325 25.8667 39.7695C23.52 39.3064 21.3645 38.1635 19.6727 36.4853C17.9809 34.8071 16.8287 32.6689 16.362 30.3411C15.8952 28.0134 16.1348 25.6006 17.0504 23.4078C17.966 21.2151 19.5165 19.341 21.5059 18.0224Z" fill="#424B68"/>
</svg>
