<svg width="40" height="46" viewBox="0 0 40 46" fill="none" xmlns="http://www.w3.org/2000/svg">
<g filter="url(#filter0_d)">
<path d="M28 16C28 20.4183 24.4183 24 20 24C15.5817 24 12 20.4183 12 16C12 11.5817 15.5817 8 20 8C24.4183 8 28 11.5817 28 16Z" fill="#366CE5"/>
</g>
<path d="M4.93568 31.9289C4.80968 31.7549 4.63868 31.6139 4.42268 31.5059C4.20668 31.3919 3.96368 31.3349 3.69368 31.3349C3.54968 31.3349 3.40268 31.3559 3.25268 31.3979C3.10868 31.4339 2.97668 31.4969 2.85668 31.5869C2.73668 31.6709 2.63768 31.7789 2.55968 31.9109C2.48768 32.0369 2.45168 32.1899 2.45168 32.3699C2.45168 32.5439 2.48468 32.6909 2.55068 32.8109C2.62268 32.9249 2.71568 33.0239 2.82968 33.1079C2.94968 33.1859 3.08768 33.2549 3.24368 33.3149C3.40568 33.3689 3.57668 33.4259 3.75668 33.4859C3.97268 33.5519 4.19168 33.6269 4.41368 33.7109C4.63568 33.7949 4.83668 33.9059 5.01668 34.0439C5.19668 34.1819 5.34368 34.3559 5.45768 34.5659C5.57168 34.7699 5.62868 35.0309 5.62868 35.3489C5.62868 35.6789 5.56568 35.9669 5.43968 36.2129C5.31968 36.4529 5.15768 36.6539 4.95368 36.8159C4.74968 36.9719 4.51268 37.0889 4.24268 37.1669C3.97868 37.2449 3.70568 37.2839 3.42368 37.2839C3.02168 37.2839 2.63168 37.2059 2.25368 37.0499C1.88168 36.8939 1.57268 36.6629 1.32668 36.3569L2.01968 35.7719C2.16968 35.9939 2.37068 36.1739 2.62268 36.3119C2.87468 36.4499 3.14768 36.5189 3.44168 36.5189C3.59168 36.5189 3.74168 36.4979 3.89168 36.4559C4.04168 36.4139 4.17668 36.3479 4.29668 36.2579C4.42268 36.1679 4.52468 36.0569 4.60268 35.9249C4.68068 35.7869 4.71968 35.6219 4.71968 35.4299C4.71968 35.2379 4.67768 35.0789 4.59368 34.9529C4.51568 34.8209 4.40768 34.7099 4.26968 34.6199C4.13168 34.5299 3.96968 34.4549 3.78368 34.3949C3.60368 34.3289 3.41168 34.2629 3.20768 34.1969C3.00368 34.1369 2.80268 34.0649 2.60468 33.9809C2.40668 33.8909 2.22968 33.7799 2.07368 33.6479C1.91768 33.5099 1.79168 33.3419 1.69568 33.1439C1.59968 32.9459 1.55168 32.6999 1.55168 32.4059C1.55168 32.0879 1.61468 31.8149 1.74068 31.5869C1.87268 31.3589 2.04068 31.1699 2.24468 31.0199C2.45468 30.8699 2.68868 30.7619 2.94668 30.6959C3.21068 30.6239 3.47468 30.5879 3.73868 30.5879C4.11068 30.5879 4.45868 30.6539 4.78268 30.7859C5.10668 30.9179 5.36768 31.0949 5.56568 31.3169L4.93568 31.9289ZM9.39501 37.1219C9.38301 37.0139 9.37401 36.8939 9.36801 36.7619C9.36201 36.6239 9.35901 36.5099 9.35901 36.4199H9.34101C9.23301 36.6479 9.05001 36.8429 8.79201 37.0049C8.54001 37.1609 8.25801 37.2389 7.94601 37.2389C7.67001 37.2389 7.43001 37.1939 7.22601 37.1039C7.02801 37.0139 6.86301 36.8909 6.73101 36.7349C6.60501 36.5729 6.50901 36.3869 6.44301 36.1769C6.38301 35.9669 6.35301 35.7419 6.35301 35.5019V32.8559H7.19901V35.2139C7.19901 35.3879 7.21101 35.5559 7.23501 35.7179C7.26501 35.8739 7.31601 36.0119 7.38801 36.1319C7.46001 36.2519 7.55901 36.3479 7.68501 36.4199C7.81101 36.4919 7.97301 36.5279 8.17101 36.5279C8.51301 36.5279 8.78901 36.4019 8.99901 36.1499C9.20901 35.8919 9.31401 35.5499 9.31401 35.1239V32.8559H10.16V36.2039C10.16 36.3179 10.163 36.4649 10.169 36.6449C10.175 36.8249 10.184 36.9839 10.196 37.1219H9.39501ZM11.9346 32.8559C11.9466 32.9639 11.9556 33.0869 11.9616 33.2249C11.9676 33.3569 11.9706 33.4679 11.9706 33.5579H11.9976C12.0516 33.4439 12.1236 33.3389 12.2136 33.2429C12.3096 33.1409 12.4176 33.0539 12.5376 32.9819C12.6576 32.9039 12.7896 32.8439 12.9336 32.8019C13.0776 32.7599 13.2276 32.7389 13.3836 32.7389C13.6596 32.7389 13.8966 32.7869 14.0946 32.8829C14.2926 32.9729 14.4576 33.0959 14.5896 33.2519C14.7216 33.4079 14.8176 33.5909 14.8776 33.8009C14.9436 34.0109 14.9766 34.2359 14.9766 34.4759V37.1219H14.1306V34.7549C14.1306 34.5809 14.1156 34.4159 14.0856 34.2599C14.0616 34.1039 14.0136 33.9659 13.9416 33.8459C13.8696 33.7259 13.7706 33.6299 13.6446 33.5579C13.5186 33.4859 13.3566 33.4499 13.1586 33.4499C12.8226 33.4499 12.5466 33.5789 12.3306 33.8369C12.1206 34.0889 12.0156 34.4279 12.0156 34.8539V37.1219H11.1696V33.7739C11.1696 33.6599 11.1666 33.5129 11.1606 33.3329C11.1546 33.1529 11.1456 32.9939 11.1336 32.8559H11.9346ZM17.6782 35.8259H17.6962L19.1902 30.7499H20.1712L21.6562 35.8259H21.6742L23.0782 30.7499H24.0232L22.1512 37.1219H21.2242L19.6762 32.0009H19.6582L18.1102 37.1219H17.1832L15.3112 30.7499H16.2742L17.6782 35.8259ZM26.7168 34.3589C26.7168 34.0409 26.6208 33.8069 26.4288 33.6569C26.2368 33.5009 25.9818 33.4229 25.6638 33.4229C25.4238 33.4229 25.1958 33.4709 24.9798 33.5669C24.7698 33.6569 24.5928 33.7739 24.4488 33.9179L23.9988 33.3779C24.2088 33.1799 24.4638 33.0239 24.7638 32.9099C25.0698 32.7959 25.3968 32.7389 25.7448 32.7389C26.0508 32.7389 26.3148 32.7839 26.5368 32.8739C26.7648 32.9579 26.9508 33.0749 27.0948 33.2249C27.2388 33.3749 27.3468 33.5519 27.4188 33.7559C27.4908 33.9599 27.5268 34.1789 27.5268 34.4129V36.2759C27.5268 36.4199 27.5298 36.5729 27.5358 36.7349C27.5478 36.8909 27.5658 37.0199 27.5898 37.1219H26.8248C26.7768 36.9179 26.7528 36.7139 26.7528 36.5099H26.7258C26.5698 36.7379 26.3718 36.9149 26.1318 37.0409C25.8978 37.1669 25.6188 37.2299 25.2948 37.2299C25.1268 37.2299 24.9498 37.2059 24.7638 37.1579C24.5838 37.1159 24.4188 37.0439 24.2688 36.9419C24.1188 36.8399 23.9928 36.7049 23.8908 36.5369C23.7948 36.3689 23.7468 36.1619 23.7468 35.9159C23.7468 35.5919 23.8338 35.3369 24.0078 35.1509C24.1818 34.9589 24.4098 34.8149 24.6918 34.7189C24.9738 34.6169 25.2918 34.5509 25.6458 34.5209C25.9998 34.4909 26.3568 34.4759 26.7168 34.4759V34.3589ZM26.5098 35.0879C26.2998 35.0879 26.0808 35.0969 25.8528 35.1149C25.6308 35.1329 25.4268 35.1689 25.2408 35.2229C25.0608 35.2769 24.9108 35.3579 24.7908 35.4659C24.6708 35.5739 24.6108 35.7179 24.6108 35.8979C24.6108 36.0239 24.6348 36.1289 24.6828 36.2129C24.7368 36.2969 24.8058 36.3659 24.8898 36.4199C24.9738 36.4739 25.0668 36.5129 25.1688 36.5369C25.2708 36.5549 25.3758 36.5639 25.4838 36.5639C25.8798 36.5639 26.1828 36.4469 26.3928 36.2129C26.6088 35.9729 26.7168 35.6729 26.7168 35.3129V35.0879H26.5098ZM29.3461 37.1219H28.5001V30.3179H29.3461V37.1219ZM31.2263 37.1219H30.3803V30.3179H31.2263V37.1219ZM35.3655 34.6109C35.3595 34.4429 35.3295 34.2869 35.2755 34.1429C35.2275 33.9929 35.1525 33.8639 35.0505 33.7559C34.9545 33.6479 34.8315 33.5639 34.6815 33.5039C34.5375 33.4379 34.3665 33.4049 34.1685 33.4049C33.9885 33.4049 33.8175 33.4379 33.6555 33.5039C33.4995 33.5639 33.3615 33.6479 33.2415 33.7559C33.1275 33.8639 33.0315 33.9929 32.9535 34.1429C32.8815 34.2869 32.8395 34.4429 32.8275 34.6109H35.3655ZM36.2205 34.9529C36.2205 35.0009 36.2205 35.0489 36.2205 35.0969C36.2205 35.1449 36.2175 35.1929 36.2115 35.2409H32.8275C32.8335 35.4209 32.8725 35.5919 32.9445 35.7539C33.0225 35.9099 33.1245 36.0479 33.2505 36.1679C33.3765 36.2819 33.5205 36.3719 33.6825 36.4379C33.8505 36.5039 34.0275 36.5369 34.2135 36.5369C34.5015 36.5369 34.7505 36.4739 34.9605 36.3479C35.1705 36.2219 35.3355 36.0689 35.4555 35.8889L36.0495 36.3659C35.8215 36.6659 35.5515 36.8879 35.2395 37.0319C34.9335 37.1699 34.5915 37.2389 34.2135 37.2389C33.8895 37.2389 33.5895 37.1849 33.3135 37.0769C33.0375 36.9689 32.8005 36.8189 32.6025 36.6269C32.4045 36.4289 32.2485 36.1919 32.1345 35.9159C32.0205 35.6399 31.9635 35.3339 31.9635 34.9979C31.9635 34.6679 32.0175 34.3649 32.1255 34.0889C32.2395 33.8069 32.3955 33.5669 32.5935 33.3689C32.7915 33.1709 33.0255 33.0179 33.2955 32.9099C33.5655 32.7959 33.8565 32.7389 34.1685 32.7389C34.4805 32.7389 34.7625 32.7899 35.0145 32.8919C35.2725 32.9939 35.4885 33.1409 35.6625 33.3329C35.8425 33.5249 35.9805 33.7589 36.0765 34.0349C36.1725 34.3049 36.2205 34.6109 36.2205 34.9529ZM39.032 33.5489H37.898V35.7719C37.898 36.0299 37.946 36.2159 38.042 36.3299C38.138 36.4379 38.291 36.4919 38.501 36.4919C38.579 36.4919 38.663 36.4829 38.753 36.4649C38.843 36.4469 38.924 36.4199 38.996 36.3839L39.023 37.0769C38.921 37.1129 38.807 37.1399 38.681 37.1579C38.561 37.1819 38.435 37.1939 38.303 37.1939C37.901 37.1939 37.592 37.0829 37.376 36.8609C37.166 36.6389 37.061 36.3059 37.061 35.8619V33.5489H36.242V32.8559H37.061V31.6319H37.898V32.8559H39.032V33.5489Z" fill="white"/>
<defs>
<filter id="filter0_d" x="0" y="0" width="40" height="40" filterUnits="userSpaceOnUse" color-interpolation-filters="sRGB">
<feFlood flood-opacity="0" result="BackgroundImageFix"/>
<feColorMatrix in="SourceAlpha" type="matrix" values="0 0 0 0 0 0 0 0 0 0 0 0 0 0 0 0 0 0 127 0"/>
<feOffset dy="4"/>
<feGaussianBlur stdDeviation="6"/>
<feColorMatrix type="matrix" values="0 0 0 0 0.432465 0 0 0 0 0.601162 0 0 0 0 0.979167 0 0 0 0.41 0"/>
<feBlend mode="normal" in2="BackgroundImageFix" result="effect1_dropShadow"/>
<feBlend mode="normal" in="SourceGraphic" in2="effect1_dropShadow" result="shape"/>
</filter>
</defs>
</svg>
