<svg width="23" height="37" viewBox="0 0 23 37" fill="none" xmlns="http://www.w3.org/2000/svg">
<path fill-rule="evenodd" clip-rule="evenodd" d="M6.53212 0.146447C6.33685 -0.0488155 6.02027 -0.0488155 5.82501 0.146447L2.64303 3.32843C2.44777 3.52369 2.44777 3.84027 2.64303 4.03553C2.83829 4.2308 3.15487 4.2308 3.35014 4.03553L5.67856 1.70711L5.67856 15.5C5.67856 15.7761 5.90242 16 6.17856 16C6.45471 16 6.67856 15.7761 6.67856 15.5L6.67856 1.70711L9.00699 4.03553C9.20225 4.2308 9.51883 4.2308 9.7141 4.03553C9.90936 3.84027 9.90936 3.52369 9.7141 3.32843L6.53212 0.146447ZM15.7825 15.8536C15.9777 16.0488 16.2943 16.0488 16.4896 15.8536L19.6715 12.6716C19.8668 12.4763 19.8668 12.1597 19.6715 11.9645C19.4763 11.7692 19.1597 11.7692 18.9644 11.9645L16.636 14.2929L16.636 0.5C16.636 0.223858 16.4122 7.45058e-09 16.136 7.45058e-09C15.8599 7.45058e-09 15.636 0.223858 15.636 0.5L15.636 14.2929L13.3076 11.9645C13.1123 11.7692 12.7957 11.7692 12.6005 11.9645C12.4052 12.1597 12.4052 12.4763 12.6005 12.6716L15.7825 15.8536Z" fill="#F8FAFF"/>
<path d="M4.76897 23.807C4.64297 23.633 4.47197 23.492 4.25597 23.384C4.03997 23.27 3.79697 23.213 3.52697 23.213C3.38297 23.213 3.23597 23.234 3.08597 23.276C2.94197 23.312 2.80997 23.375 2.68997 23.465C2.56997 23.549 2.47097 23.657 2.39297 23.789C2.32097 23.915 2.28497 24.068 2.28497 24.248C2.28497 24.422 2.31797 24.569 2.38397 24.689C2.45597 24.803 2.54897 24.902 2.66297 24.986C2.78297 25.064 2.92097 25.133 3.07697 25.193C3.23897 25.247 3.40997 25.304 3.58997 25.364C3.80597 25.43 4.02497 25.505 4.24697 25.589C4.46897 25.673 4.66997 25.784 4.84997 25.922C5.02997 26.06 5.17697 26.234 5.29097 26.444C5.40497 26.648 5.46197 26.909 5.46197 27.227C5.46197 27.557 5.39897 27.845 5.27297 28.091C5.15297 28.331 4.99097 28.532 4.78697 28.694C4.58297 28.85 4.34597 28.967 4.07597 29.045C3.81197 29.123 3.53897 29.162 3.25697 29.162C2.85497 29.162 2.46497 29.084 2.08697 28.928C1.71497 28.772 1.40597 28.541 1.15997 28.235L1.85297 27.65C2.00297 27.872 2.20397 28.052 2.45597 28.19C2.70797 28.328 2.98097 28.397 3.27497 28.397C3.42497 28.397 3.57497 28.376 3.72497 28.334C3.87497 28.292 4.00997 28.226 4.12997 28.136C4.25597 28.046 4.35797 27.935 4.43597 27.803C4.51397 27.665 4.55297 27.5 4.55297 27.308C4.55297 27.116 4.51097 26.957 4.42697 26.831C4.34897 26.699 4.24097 26.588 4.10297 26.498C3.96497 26.408 3.80297 26.333 3.61697 26.273C3.43697 26.207 3.24497 26.141 3.04097 26.075C2.83697 26.015 2.63597 25.943 2.43797 25.859C2.23997 25.769 2.06297 25.658 1.90697 25.526C1.75097 25.388 1.62497 25.22 1.52897 25.022C1.43297 24.824 1.38497 24.578 1.38497 24.284C1.38497 23.966 1.44797 23.693 1.57397 23.465C1.70597 23.237 1.87397 23.048 2.07797 22.898C2.28797 22.748 2.52197 22.64 2.77997 22.574C3.04397 22.502 3.30797 22.466 3.57197 22.466C3.94397 22.466 4.29197 22.532 4.61597 22.664C4.93997 22.796 5.20097 22.973 5.39897 23.195L4.76897 23.807ZM6.5373 24.734L7.5003 27.992H7.5183L8.5353 24.734H9.4263L10.4613 27.992H10.4793L11.4423 24.734H12.3333L10.9203 29H10.0383L8.9853 25.796H8.9673L7.9233 29H7.0413L5.6193 24.734H6.5373ZM15.3805 26.237C15.3805 25.919 15.2845 25.685 15.0925 25.535C14.9005 25.379 14.6455 25.301 14.3275 25.301C14.0875 25.301 13.8595 25.349 13.6435 25.445C13.4335 25.535 13.2565 25.652 13.1125 25.796L12.6625 25.256C12.8725 25.058 13.1275 24.902 13.4275 24.788C13.7335 24.674 14.0605 24.617 14.4085 24.617C14.7145 24.617 14.9785 24.662 15.2005 24.752C15.4285 24.836 15.6145 24.953 15.7585 25.103C15.9025 25.253 16.0105 25.43 16.0825 25.634C16.1545 25.838 16.1905 26.057 16.1905 26.291V28.154C16.1905 28.298 16.1935 28.451 16.1995 28.613C16.2115 28.769 16.2295 28.898 16.2535 29H15.4885C15.4405 28.796 15.4165 28.592 15.4165 28.388H15.3895C15.2335 28.616 15.0355 28.793 14.7955 28.919C14.5615 29.045 14.2825 29.108 13.9585 29.108C13.7905 29.108 13.6135 29.084 13.4275 29.036C13.2475 28.994 13.0825 28.922 12.9325 28.82C12.7825 28.718 12.6565 28.583 12.5545 28.415C12.4585 28.247 12.4105 28.04 12.4105 27.794C12.4105 27.47 12.4975 27.215 12.6715 27.029C12.8455 26.837 13.0735 26.693 13.3555 26.597C13.6375 26.495 13.9555 26.429 14.3095 26.399C14.6635 26.369 15.0205 26.354 15.3805 26.354V26.237ZM15.1735 26.966C14.9635 26.966 14.7445 26.975 14.5165 26.993C14.2945 27.011 14.0905 27.047 13.9045 27.101C13.7245 27.155 13.5745 27.236 13.4545 27.344C13.3345 27.452 13.2745 27.596 13.2745 27.776C13.2745 27.902 13.2985 28.007 13.3465 28.091C13.4005 28.175 13.4695 28.244 13.5535 28.298C13.6375 28.352 13.7305 28.391 13.8325 28.415C13.9345 28.433 14.0395 28.442 14.1475 28.442C14.5435 28.442 14.8465 28.325 15.0565 28.091C15.2725 27.851 15.3805 27.551 15.3805 27.191V26.966H15.1735ZM17.9918 31.16H17.1458V24.734H17.9738V25.4H18.0008C18.1388 25.172 18.3398 24.986 18.6038 24.842C18.8738 24.692 19.1858 24.617 19.5398 24.617C19.8578 24.617 20.1458 24.674 20.4038 24.788C20.6678 24.902 20.8928 25.061 21.0788 25.265C21.2708 25.469 21.4178 25.709 21.5198 25.985C21.6218 26.255 21.6728 26.546 21.6728 26.858C21.6728 27.17 21.6218 27.464 21.5198 27.74C21.4178 28.016 21.2738 28.256 21.0878 28.46C20.9018 28.664 20.6768 28.826 20.4128 28.946C20.1488 29.06 19.8518 29.117 19.5218 29.117C19.2158 29.117 18.9278 29.051 18.6578 28.919C18.3878 28.787 18.1748 28.601 18.0188 28.361H17.9918V31.16ZM20.7998 26.858C20.7998 26.66 20.7698 26.468 20.7098 26.282C20.6498 26.096 20.5598 25.931 20.4398 25.787C20.3198 25.643 20.1698 25.529 19.9898 25.445C19.8158 25.361 19.6118 25.319 19.3778 25.319C19.1618 25.319 18.9638 25.361 18.7838 25.445C18.6098 25.529 18.4598 25.643 18.3338 25.787C18.2078 25.931 18.1088 26.096 18.0368 26.282C17.9708 26.468 17.9378 26.663 17.9378 26.867C17.9378 27.071 17.9708 27.266 18.0368 27.452C18.1088 27.638 18.2078 27.803 18.3338 27.947C18.4598 28.085 18.6098 28.196 18.7838 28.28C18.9638 28.364 19.1618 28.406 19.3778 28.406C19.6118 28.406 19.8158 28.364 19.9898 28.28C20.1698 28.19 20.3198 28.073 20.4398 27.929C20.5598 27.785 20.6498 27.62 20.7098 27.434C20.7698 27.248 20.7998 27.056 20.7998 26.858Z" fill="white"/>
</svg>
