<svg width="20" height="18" viewBox="0 0 20 18" fill="none" xmlns="http://www.w3.org/2000/svg">
<path d="M3.64645 17.3536C3.84171 17.5488 4.15829 17.5488 4.35356 17.3536L7.53554 14.1716C7.7308 13.9763 7.7308 13.6597 7.53554 13.4645C7.34027 13.2692 7.02369 13.2692 6.82843 13.4645L4 16.2929L1.17157 13.4645C0.976312 13.2692 0.65973 13.2692 0.464468 13.4645C0.269206 13.6597 0.269206 13.9763 0.464468 14.1716L3.64645 17.3536ZM3.5 1L3.5 17L4.5 17L4.5 1L3.5 1Z" fill="#F8FAFF"/>
<path d="M16.3536 0.646446C16.1583 0.451185 15.8417 0.451185 15.6464 0.646446L12.4645 3.82843C12.2692 4.02369 12.2692 4.34027 12.4645 4.53553C12.6597 4.7308 12.9763 4.7308 13.1716 4.53553L16 1.70711L18.8284 4.53553C19.0237 4.7308 19.3403 4.7308 19.5355 4.53553C19.7308 4.34027 19.7308 4.02369 19.5355 3.82843L16.3536 0.646446ZM16.5 17L16.5 1L15.5 1L15.5 17L16.5 17Z" fill="#3A475C"/>
</svg>
