<svg width="64" height="64" viewBox="0 0 64 64" fill="none" xmlns="http://www.w3.org/2000/svg">
<path d="M3.2326 0L0 3.23038L5.69459 13.0716L9.38758 12.5303L31.9296 35.0594L30.0068 36.9046C29.022 37.8887 29.022 39.3797 30.0068 40.3638L31.0063 41.3652C31.9911 42.3493 33.4979 42.3493 34.2365 41.3652L37.1613 44.2855C36.9151 45.7617 37.1613 47.5159 38.3923 48.7461L51.7018 61.9702C54.41 64.6766 58.8416 64.6766 61.5498 61.9702C64.7504 59.0179 64.7208 54.6041 62.0127 51.8977L48.7794 38.5949C47.5485 37.3647 45.7931 36.8726 44.3159 37.3647L41.0833 34.4443C41.8219 33.4602 41.8219 31.9545 41.0833 31.2139L40.16 30.2938C39.9362 30.0605 39.6675 29.875 39.3701 29.7482C39.0726 29.6214 38.7526 29.556 38.4292 29.556C38.1059 29.556 37.7858 29.6214 37.4884 29.7482C37.191 29.875 36.9223 30.0605 36.6985 30.2938L35.0834 31.9077L12.5414 9.38116L13.0781 5.69069L3.23013 0L3.2326 0ZM51.2414 0.0762696C46.3839 -0.327221 39.9434 2.89086 36.9299 5.68823C33.2221 9.39346 33.8278 14.2378 36.7748 18.9149L31.5455 24.143L35.2385 28.2935C37.2081 26.5713 40.1132 26.5713 42.0828 28.2935L43.0849 29.2924L43.3163 29.5237L45.4705 27.3709C49.9218 29.9862 54.5553 30.3627 58.0882 26.8321C61.535 23.6337 65.2723 15.746 63.5489 11.0714L56.6258 18.221C55.641 19.2052 54.1491 19.2052 53.1643 18.221L46.0072 11.0714C45.7739 10.8477 45.5881 10.5792 45.4613 10.282C45.3344 9.98474 45.269 9.66493 45.269 9.34179C45.269 9.01865 45.3344 8.69884 45.4613 8.40161C45.5881 8.10437 45.7739 7.83585 46.0072 7.61219L53.1667 0.462538C52.5512 0.246031 51.9357 0.135317 51.2414 0.0762696ZM24.1595 30.7539L15.2323 39.6725C14.273 39.4595 13.2926 39.3563 12.31 39.3649C5.41638 39.3649 0 44.7776 0 51.6665C0 58.5553 5.41638 63.968 12.31 63.968C19.2035 63.968 24.6199 58.5553 24.6199 51.6665C24.6199 50.4043 24.4205 49.1914 24.0807 48.0523L29.3125 42.8241L28.5443 41.8252C26.5747 39.857 26.5895 36.8751 28.3129 34.9044L24.1571 30.7539H24.1595ZM43.24 41.9802C43.5477 41.9802 43.8382 42.0393 44.0844 42.2878L58.6274 56.8184C59.1198 57.3104 59.1198 58.0928 58.6274 58.5849C58.135 59.0769 57.3472 59.0769 56.8548 58.5849L42.3167 44.0543C41.8243 43.5622 41.8243 42.7798 42.3167 42.2878C42.5629 42.0417 42.9322 41.9802 43.24 41.9802ZM14.0038 45.282L18.6964 49.9738L17.0025 56.3534L10.6186 58.0461L5.92355 53.3542L7.6174 46.9747L14.0038 45.282Z" fill="#886AED"/>
</svg>
