<svg xmlns="http://www.w3.org/2000/svg" width="30" height="26" viewBox="0 0 30 26">
    <path fill="#FFF" fill-rule="nonzero" d="M.53 12.467l6.912 2.568 2.676 8.565a.815.815 0 0 0 1.293.388l3.853-3.127c.404-.328.979-.344 1.401-.04l6.95 5.023a.816.816 0 0 0 1.276-.49L29.982.977a.814.814 0 0 0-1.09-.921L.521 10.95c-.7.268-.694 1.255.008 1.517zm9.157 1.201l13.51-8.283c.243-.148.492.179.284.371L12.33 16.073c-.392.363-.644.849-.716 1.376l-.38 2.802c-.05.374-.578.411-.682.05l-1.46-5.11a1.351 1.351 0 0 1 .594-1.523z" opacity=".5"/>
</svg>
