<svg width="16" height="20" viewBox="0 0 16 20" fill="none" xmlns="http://www.w3.org/2000/svg">
<circle cx="8" cy="10" r="7.5" fill="#651CE4" stroke="#F8FAFF"/>
<path d="M7.52 11.492V11.036C7.52 10.844 7.532 10.672 7.556 10.52C7.588 10.368 7.632 10.224 7.688 10.088C7.752 9.952 7.832 9.82 7.928 9.692C8.032 9.564 8.16 9.428 8.312 9.284L8.852 8.768C9.004 8.632 9.132 8.48 9.236 8.312C9.348 8.144 9.404 7.94 9.404 7.7C9.404 7.388 9.304 7.128 9.104 6.92C8.912 6.704 8.636 6.596 8.276 6.596C8.092 6.596 7.924 6.632 7.772 6.704C7.628 6.768 7.5 6.86 7.388 6.98C7.284 7.092 7.204 7.224 7.148 7.376C7.092 7.528 7.06 7.684 7.052 7.844L5.576 7.712C5.624 7.328 5.724 6.988 5.876 6.692C6.036 6.388 6.24 6.132 6.488 5.924C6.736 5.716 7.02 5.56 7.34 5.456C7.66 5.344 8.004 5.288 8.372 5.288C8.716 5.288 9.04 5.34 9.344 5.444C9.656 5.54 9.928 5.688 10.16 5.888C10.4 6.08 10.588 6.32 10.724 6.608C10.86 6.896 10.928 7.228 10.928 7.604C10.928 7.86 10.9 8.084 10.844 8.276C10.788 8.468 10.708 8.644 10.604 8.804C10.5 8.964 10.372 9.12 10.22 9.272C10.076 9.416 9.912 9.568 9.728 9.728C9.568 9.864 9.436 9.984 9.332 10.088C9.236 10.192 9.156 10.296 9.092 10.4C9.036 10.504 8.996 10.616 8.972 10.736C8.948 10.856 8.936 11.004 8.936 11.18V11.492H7.52ZM7.28 13.16C7.28 12.904 7.372 12.684 7.556 12.5C7.748 12.316 7.976 12.224 8.24 12.224C8.496 12.224 8.72 12.312 8.912 12.488C9.104 12.664 9.2 12.88 9.2 13.136C9.2 13.392 9.104 13.612 8.912 13.796C8.728 13.98 8.504 14.072 8.24 14.072C8.112 14.072 7.988 14.048 7.868 14C7.756 13.952 7.656 13.888 7.568 13.808C7.48 13.728 7.408 13.632 7.352 13.52C7.304 13.408 7.28 13.288 7.28 13.16Z" fill="white"/>
</svg>
