<svg width="12" height="12" viewBox="0 0 12 12" fill="none" xmlns="http://www.w3.org/2000/svg">
<path d="M12 6C12 9.31371 9.31371 12 6 12C2.68629 12 0 9.31371 0 6C0 2.68629 2.68629 0 6 0C9.31371 0 12 2.68629 12 6Z" fill="#366CE5"/>
<path d="M5.31 7.701V7.283C5.31 7.107 5.321 6.94933 5.343 6.81C5.37233 6.67067 5.41267 6.53867 5.464 6.414C5.52267 6.28933 5.596 6.16833 5.684 6.051C5.77933 5.93367 5.89667 5.809 6.036 5.677L6.531 5.204C6.67033 5.07933 6.78767 4.94 6.883 4.786C6.98567 4.632 7.037 4.445 7.037 4.225C7.037 3.939 6.94533 3.70067 6.762 3.51C6.586 3.312 6.333 3.213 6.003 3.213C5.83433 3.213 5.68033 3.246 5.541 3.312C5.409 3.37067 5.29167 3.455 5.189 3.565C5.09367 3.66767 5.02033 3.78867 4.969 3.928C4.91767 4.06733 4.88833 4.21033 4.881 4.357L3.528 4.236C3.572 3.884 3.66367 3.57233 3.803 3.301C3.94967 3.02233 4.13667 2.78767 4.364 2.597C4.59133 2.40633 4.85167 2.26333 5.145 2.168C5.43833 2.06533 5.75367 2.014 6.091 2.014C6.40633 2.014 6.70333 2.06167 6.982 2.157C7.268 2.245 7.51733 2.38067 7.73 2.564C7.95 2.74 8.12233 2.96 8.247 3.224C8.37167 3.488 8.434 3.79233 8.434 4.137C8.434 4.37167 8.40833 4.577 8.357 4.753C8.30567 4.929 8.23233 5.09033 8.137 5.237C8.04167 5.38367 7.92433 5.52667 7.785 5.666C7.653 5.798 7.50267 5.93733 7.334 6.084C7.18733 6.20867 7.06633 6.31867 6.971 6.414C6.883 6.50933 6.80967 6.60467 6.751 6.7C6.69967 6.79533 6.663 6.898 6.641 7.008C6.619 7.118 6.608 7.25367 6.608 7.415V7.701H5.31ZM5.09 9.23C5.09 8.99533 5.17433 8.79367 5.343 8.625C5.519 8.45633 5.728 8.372 5.97 8.372C6.20467 8.372 6.41 8.45267 6.586 8.614C6.762 8.77533 6.85 8.97333 6.85 9.208C6.85 9.44267 6.762 9.64433 6.586 9.813C6.41733 9.98167 6.212 10.066 5.97 10.066C5.85267 10.066 5.739 10.044 5.629 10C5.52633 9.956 5.43467 9.89733 5.354 9.824C5.27333 9.75067 5.20733 9.66267 5.156 9.56C5.112 9.45733 5.09 9.34733 5.09 9.23Z" fill="#F5F5FB"/>
</svg>
