<svg width="22" height="40" viewBox="0 0 22 40" fill="none" xmlns="http://www.w3.org/2000/svg">
<path fill-rule="evenodd" clip-rule="evenodd" d="M3.33952 16.3821V17.8337H4.33952V16.3821H5.68475V8.91687H4.33952V0H3.33952V8.91687H1.99146V16.3821H3.33952Z" fill="#F5F5FB"/>
<path fill-rule="evenodd" clip-rule="evenodd" d="M16.6925 16.3821V17.8337H17.6925V16.3821H19.0387V8.91687H17.6925V0H16.6925V8.91687H15.3455V16.3821H16.6925Z" fill="#F5F5FB"/>
<path fill-rule="evenodd" clip-rule="evenodd" d="M10.015 8.91677V17.8337H11.015V8.91677H12.3622V1.45151H11.015V0H10.015V1.45151H8.66895V8.91677H10.015Z" fill="#F5F5FB"/>
<path d="M3.006 32H2.115V26.411H0.072V25.628H5.049V26.411H3.006V32ZM4.58674 28.652C4.58674 28.538 4.58374 28.391 4.57774 28.211C4.57174 28.031 4.56274 27.872 4.55074 27.734H5.35174C5.36374 27.842 5.37274 27.968 5.37874 28.112C5.38474 28.25 5.38774 28.364 5.38774 28.454H5.41474C5.53474 28.202 5.70874 28.001 5.93674 27.851C6.17074 27.695 6.43174 27.617 6.71974 27.617C6.85174 27.617 6.96274 27.629 7.05274 27.653L7.01674 28.436C6.89674 28.406 6.76774 28.391 6.62974 28.391C6.42574 28.391 6.24874 28.43 6.09874 28.508C5.94874 28.58 5.82274 28.679 5.72074 28.805C5.62474 28.931 5.55274 29.078 5.50474 29.246C5.45674 29.408 5.43274 29.579 5.43274 29.759V32H4.58674V28.652ZM9.93053 29.237C9.93053 28.919 9.83453 28.685 9.64253 28.535C9.45053 28.379 9.19553 28.301 8.87753 28.301C8.63753 28.301 8.40953 28.349 8.19353 28.445C7.98353 28.535 7.80653 28.652 7.66253 28.796L7.21253 28.256C7.42253 28.058 7.67753 27.902 7.97753 27.788C8.28353 27.674 8.61053 27.617 8.95853 27.617C9.26453 27.617 9.52853 27.662 9.75053 27.752C9.97853 27.836 10.1645 27.953 10.3085 28.103C10.4525 28.253 10.5605 28.43 10.6325 28.634C10.7045 28.838 10.7405 29.057 10.7405 29.291V31.154C10.7405 31.298 10.7435 31.451 10.7495 31.613C10.7615 31.769 10.7795 31.898 10.8035 32H10.0385C9.99053 31.796 9.96653 31.592 9.96653 31.388H9.93953C9.78353 31.616 9.58553 31.793 9.34553 31.919C9.11153 32.045 8.83253 32.108 8.50853 32.108C8.34053 32.108 8.16353 32.084 7.97753 32.036C7.79753 31.994 7.63253 31.922 7.48253 31.82C7.33253 31.718 7.20653 31.583 7.10453 31.415C7.00853 31.247 6.96053 31.04 6.96053 30.794C6.96053 30.47 7.04753 30.215 7.22153 30.029C7.39553 29.837 7.62353 29.693 7.90553 29.597C8.18753 29.495 8.50553 29.429 8.85953 29.399C9.21353 29.369 9.57053 29.354 9.93053 29.354V29.237ZM9.72353 29.966C9.51353 29.966 9.29453 29.975 9.06653 29.993C8.84453 30.011 8.64053 30.047 8.45453 30.101C8.27453 30.155 8.12453 30.236 8.00453 30.344C7.88453 30.452 7.82453 30.596 7.82453 30.776C7.82453 30.902 7.84853 31.007 7.89653 31.091C7.95053 31.175 8.01953 31.244 8.10353 31.298C8.18753 31.352 8.28053 31.391 8.38253 31.415C8.48453 31.433 8.58953 31.442 8.69753 31.442C9.09353 31.442 9.39653 31.325 9.60653 31.091C9.82253 30.851 9.93053 30.551 9.93053 30.191V29.966H9.72353ZM15.0978 31.325C14.9358 31.583 14.7138 31.781 14.4318 31.919C14.1558 32.051 13.8648 32.117 13.5588 32.117C13.2288 32.117 12.9318 32.06 12.6678 31.946C12.4038 31.826 12.1788 31.664 11.9928 31.46C11.8068 31.256 11.6628 31.016 11.5608 30.74C11.4588 30.464 11.4078 30.17 11.4078 29.858C11.4078 29.546 11.4588 29.255 11.5608 28.985C11.6628 28.709 11.8068 28.469 11.9928 28.265C12.1848 28.061 12.4128 27.902 12.6768 27.788C12.9408 27.674 13.2318 27.617 13.5498 27.617C13.8978 27.617 14.2008 27.692 14.4588 27.842C14.7168 27.986 14.9208 28.163 15.0708 28.373H15.0888V25.196H15.9348V32H15.1158V31.325H15.0978ZM12.2898 29.858C12.2898 30.056 12.3198 30.248 12.3798 30.434C12.4398 30.62 12.5298 30.785 12.6498 30.929C12.7698 31.073 12.9168 31.19 13.0908 31.28C13.2648 31.364 13.4688 31.406 13.7028 31.406C13.9188 31.406 14.1138 31.364 14.2878 31.28C14.4678 31.196 14.6208 31.085 14.7468 30.947C14.8728 30.803 14.9688 30.638 15.0348 30.452C15.1068 30.266 15.1428 30.071 15.1428 29.867C15.1428 29.663 15.1068 29.468 15.0348 29.282C14.9688 29.096 14.8728 28.931 14.7468 28.787C14.6208 28.643 14.4678 28.529 14.2878 28.445C14.1138 28.361 13.9188 28.319 13.7028 28.319C13.4688 28.319 13.2648 28.361 13.0908 28.445C12.9168 28.529 12.7698 28.643 12.6498 28.787C12.5298 28.931 12.4398 29.096 12.3798 29.282C12.3198 29.468 12.2898 29.66 12.2898 29.858ZM20.074 29.489C20.068 29.321 20.038 29.165 19.984 29.021C19.936 28.871 19.861 28.742 19.759 28.634C19.663 28.526 19.54 28.442 19.39 28.382C19.246 28.316 19.075 28.283 18.877 28.283C18.697 28.283 18.526 28.316 18.364 28.382C18.208 28.442 18.07 28.526 17.95 28.634C17.836 28.742 17.74 28.871 17.662 29.021C17.59 29.165 17.548 29.321 17.536 29.489H20.074ZM20.929 29.831C20.929 29.879 20.929 29.927 20.929 29.975C20.929 30.023 20.926 30.071 20.92 30.119H17.536C17.542 30.299 17.581 30.47 17.653 30.632C17.731 30.788 17.833 30.926 17.959 31.046C18.085 31.16 18.229 31.25 18.391 31.316C18.559 31.382 18.736 31.415 18.922 31.415C19.21 31.415 19.459 31.352 19.669 31.226C19.879 31.1 20.044 30.947 20.164 30.767L20.758 31.244C20.53 31.544 20.26 31.766 19.948 31.91C19.642 32.048 19.3 32.117 18.922 32.117C18.598 32.117 18.298 32.063 18.022 31.955C17.746 31.847 17.509 31.697 17.311 31.505C17.113 31.307 16.957 31.07 16.843 30.794C16.729 30.518 16.672 30.212 16.672 29.876C16.672 29.546 16.726 29.243 16.834 28.967C16.948 28.685 17.104 28.445 17.302 28.247C17.5 28.049 17.734 27.896 18.004 27.788C18.274 27.674 18.565 27.617 18.877 27.617C19.189 27.617 19.471 27.668 19.723 27.77C19.981 27.872 20.197 28.019 20.371 28.211C20.551 28.403 20.689 28.637 20.785 28.913C20.881 29.183 20.929 29.489 20.929 29.831Z" fill="white"/>
</svg>
