<svg width="28" height="23" viewBox="0 0 28 23" fill="none" xmlns="http://www.w3.org/2000/svg">
<path d="M25.1898 4.25444C24.3002 4.63817 23.3322 4.91434 22.3351 5.0219C23.3703 4.40687 24.1456 3.43522 24.5154 2.28925C23.5439 2.86715 22.4797 3.27238 21.3699 3.48697C20.9061 2.9911 20.3451 2.59607 19.7219 2.32649C19.0987 2.05691 18.4267 1.91856 17.7477 1.92006C15.0005 1.92006 12.7911 4.14687 12.7911 6.87952C12.7911 7.26326 12.8377 7.64699 12.9132 8.01619C8.79974 7.80106 5.13101 5.83588 2.69198 2.82706C2.24756 3.58614 2.01467 4.45045 2.01754 5.33005C2.01754 7.05104 2.89256 8.56853 4.22691 9.461C3.44056 9.43003 2.67262 9.2139 1.98556 8.83017V8.89122C1.98556 11.3012 3.6891 13.2983 5.95953 13.7577C5.53323 13.8684 5.09469 13.925 4.65425 13.9263C4.33157 13.9263 4.02632 13.8943 3.71817 13.8507C4.3461 15.8159 6.17465 17.2432 8.35205 17.2897C6.6485 18.6241 4.51471 19.409 2.19777 19.409C1.78206 19.409 1.39833 19.3945 1.00006 19.348C3.19781 20.7579 5.80545 21.5719 8.61368 21.5719C17.7303 21.5719 22.7188 14.0193 22.7188 7.46384C22.7188 7.24872 22.7188 7.0336 22.7043 6.81847C23.6694 6.11205 24.5154 5.23703 25.1898 4.25444Z" stroke="url(#paint0_linear)" stroke-width="1.63765"/>
<defs>
<linearGradient id="paint0_linear" x1="13.0949" y1="1.92004" x2="13.0949" y2="21.5719" gradientUnits="userSpaceOnUse">
<stop stop-color="#E2FDE7"/>
<stop offset="1" stop-color="#AFCDA3"/>
</linearGradient>
</defs>
</svg>
