<svg width="34" height="27" viewBox="0 0 34 27" fill="none" xmlns="http://www.w3.org/2000/svg">
<path d="M30.542 4.8509C29.4556 5.31954 28.2734 5.65682 27.0556 5.78818C28.3199 5.03706 29.2667 3.85043 29.7183 2.4509C28.5319 3.15666 27.2322 3.65155 25.8769 3.91362C25.3104 3.30804 24.6253 2.8256 23.8643 2.49637C23.1032 2.16714 22.2825 1.99818 21.4532 2.00001C18.0982 2.00001 15.4 4.71954 15.4 8.05682C15.4 8.52545 15.4568 8.99409 15.5491 9.44498C10.5254 9.18226 6.04497 6.78226 3.06627 3.10771C2.52352 4.03474 2.2391 5.09028 2.2426 6.16451C2.2426 8.26628 3.31124 10.1195 4.94083 11.2095C3.98049 11.1717 3.04264 10.9077 2.20355 10.4391V10.5136C2.20355 13.4568 4.28402 15.8959 7.0568 16.4568C6.53618 16.592 6.00061 16.6612 5.46272 16.6627C5.06864 16.6627 4.69586 16.6237 4.31952 16.5704C5.08639 18.9704 7.31952 20.7136 9.97869 20.7704C7.89822 22.4 5.29231 23.3586 2.46272 23.3586C1.95503 23.3586 1.48639 23.3408 1 23.284C3.68402 25.0059 6.86864 26 10.2982 26C21.4319 26 27.5242 16.7763 27.5242 8.77043C27.5242 8.5077 27.5242 8.24498 27.5065 7.98226C28.6852 7.11954 29.7183 6.0509 30.542 4.8509Z" stroke="#7284A0" stroke-width="2"/>
</svg>
