<svg xmlns="http://www.w3.org/2000/svg" width="30" height="25" viewBox="0 0 30 25">
    <path fill="#FFF" fill-rule="nonzero" d="M30 2.905a12.29 12.29 0 0 1-3.534.969A6.18 6.18 0 0 0 29.171.472a12.407 12.407 0 0 1-3.91 1.494A6.137 6.137 0 0 0 20.769.022a6.154 6.154 0 0 0-5.995 7.554A17.472 17.472 0 0 1 2.09 1.146a6.107 6.107 0 0 0-.832 3.094A6.151 6.151 0 0 0 3.995 9.36a6.155 6.155 0 0 1-2.788-.772v.077A6.16 6.16 0 0 0 6.143 14.7a6.234 6.234 0 0 1-1.621.216c-.398 0-.782-.04-1.159-.115a6.157 6.157 0 0 0 5.748 4.275 12.347 12.347 0 0 1-7.643 2.63c-.497 0-.986-.03-1.468-.085a17.396 17.396 0 0 0 9.433 2.77c11.321 0 17.51-9.378 17.51-17.51l-.021-.797A12.29 12.29 0 0 0 30 2.904z" opacity=".5"/>
</svg>
