<svg width="48" height="48" viewBox="0 0 48 48" fill="none" xmlns="http://www.w3.org/2000/svg">
<path d="M23.9883 4C20.0327 4 16.1659 5.17298 12.8769 7.37061C9.5879 9.56824 7.02445 12.6918 5.5107 16.3463C3.99695 20.0009 3.60088 24.0222 4.37258 27.9018C5.14429 31.7814 7.0491 35.3451 9.84615 38.1421C12.6432 40.9392 16.2069 42.844 20.0865 43.6157C23.9661 44.3874 27.9874 43.9913 31.642 42.4776C35.2965 40.9638 38.4201 38.4004 40.6177 35.1114C42.8153 31.8224 43.9883 27.9556 43.9883 24C43.9883 21.3736 43.471 18.7728 42.4659 16.3463C41.4608 13.9198 39.9876 11.715 38.1304 9.85786C36.2733 8.00069 34.0685 6.5275 31.642 5.52241C29.2154 4.51732 26.6147 4 23.9883 4ZM30.3483 34.304C30.2736 34.4909 30.1599 34.6596 30.0146 34.7988C29.8694 34.938 29.696 35.0446 29.5062 35.1113C29.3164 35.1779 29.1145 35.2032 28.9141 35.1854C28.7137 35.1676 28.5194 35.1071 28.3443 35.008L22.9143 30.788L19.4303 34.004C19.3494 34.0637 19.2548 34.1021 19.1552 34.1158C19.0557 34.1294 18.9542 34.1178 18.8603 34.082L19.5283 28.104L19.5483 28.122L19.5623 28.004C19.5623 28.004 29.3323 19.108 29.7303 18.73C30.1343 18.352 30.0003 18.27 30.0003 18.27C30.0243 17.81 29.2783 18.27 29.2783 18.27L16.3323 26.598L10.9423 24.762C10.9423 24.762 10.1143 24.466 10.0363 23.812C9.95429 23.164 10.9683 22.812 10.9683 22.812L32.4023 14.296C32.4023 14.296 34.1643 13.512 34.1643 14.812L30.3483 34.304Z" fill="#5C8CEA"/>
</svg>
