<svg width="48" height="48" viewBox="0 0 48 48" fill="none" xmlns="http://www.w3.org/2000/svg">
<circle cx="24" cy="24" r="24" fill="#F3BA2F"/>
<path d="M39.231 25.737C39.294 25.167 39.334 24.589 39.334 24.001C39.334 23.413 39.294 22.835 39.23 22.264L34.852 20.707C34.634 19.991 34.348 19.307 34.002 18.657L35.994 14.465C35.269 13.5558 34.4445 12.7307 33.536 12.005L29.344 14.001C28.6906 13.6502 28.0038 13.3655 27.294 13.151L25.738 8.77297C25.167 8.70897 24.589 8.66797 24.001 8.66797C23.413 8.66797 22.835 8.70797 22.264 8.77297L20.708 13.151C19.992 13.368 19.308 13.653 18.658 14.001L14.465 12.005C13.555 12.73 12.731 13.555 12.005 14.465L14.001 18.655C13.653 19.305 13.368 19.99 13.151 20.705L8.77297 22.265C8.70897 22.835 8.66797 23.415 8.66797 24.002C8.66797 24.589 8.70797 25.167 8.77297 25.738L13.151 27.296C13.368 28.011 13.653 28.696 14.001 29.346L12.006 33.538C12.731 34.448 13.556 35.271 14.466 35.996L18.655 34.001C19.305 34.349 19.99 34.635 20.705 34.853L22.263 39.23C22.833 39.293 23.411 39.333 24 39.333C24.588 39.333 25.165 39.293 25.736 39.229L27.294 34.851C28.009 34.633 28.694 34.347 29.344 34.001L33.536 35.993C34.446 35.268 35.269 34.443 35.994 33.535L34.001 29.344C34.349 28.697 34.635 28.01 34.853 27.294L39.23 25.737H39.231ZM24.001 28.871C23.3613 28.8711 22.7279 28.7452 22.1368 28.5006C21.5458 28.2559 21.0088 27.8972 20.5564 27.445C19.6427 26.5317 19.1292 25.2928 19.129 24.001C19.1287 22.7091 19.6416 21.47 20.5549 20.5564C21.4682 19.6427 22.7071 19.1292 23.999 19.129C25.2908 19.1287 26.5299 19.6416 27.4436 20.5549C28.3573 21.4682 28.8707 22.7071 28.871 23.999C28.8712 25.2908 28.3583 26.5299 27.445 27.4436C26.5317 28.3573 25.2928 28.8707 24.001 28.871Z" fill="#16253D"/>
</svg>
