<svg width="31" height="31" viewBox="0 0 31 31" fill="none" xmlns="http://www.w3.org/2000/svg">
<path d="M30.8118 15.36C30.8118 23.8431 23.9349 30.72 15.4518 30.72C6.9687 30.72 0.0917969 23.8431 0.0917969 15.36C0.0917969 6.87691 6.9687 0 15.4518 0C23.9349 0 30.8118 6.87691 30.8118 15.36Z" fill="#621AE1"/>
<path d="M24.7316 17.9403C24.329 18.2133 23.8052 18.2474 23.368 18.0299C22.8658 17.7483 22.5931 17.0913 22.5931 16.1997V13.4565C22.5931 12.1382 22.0649 11.2039 21.1775 10.948C19.684 10.5171 18.5671 12.3217 18.1385 13L15.4935 17.2193V12.07C15.4632 10.884 15.0736 10.1715 14.329 9.95819C13.8398 9.81741 13.1039 9.87287 12.3896 10.948L6.47619 20.3038C5.68831 18.8234 5.27706 17.1724 5.28571 15.5C5.28571 9.86007 9.85714 5.27389 15.4935 5.27389C21.1299 5.27389 25.7143 9.86007 25.7143 15.5V15.5299C25.7143 15.5299 25.7143 15.5512 25.7143 15.5597C25.7706 16.6476 25.4113 17.5179 24.7316 17.9403ZM28 15.5V15.4445C27.9524 8.57594 22.3593 3 15.4935 3C8.62771 3 3 8.6058 3 15.5C3 22.3942 8.60173 28 15.4935 28C18.6537 28 21.6926 26.8055 23.987 24.6638C24.4502 24.2329 24.4762 23.5162 24.0476 23.0555C23.632 22.6032 22.9264 22.5691 22.4632 22.9787L22.4589 22.9829C18.4113 26.7671 12.0173 26.6007 8.17749 22.6118C8.08225 22.5137 7.99134 22.4155 7.90043 22.3131L13.2208 13.8788V17.7696C13.2208 19.6382 13.9567 20.244 14.5714 20.4232C15.1861 20.6024 16.1342 20.4787 17.1212 18.8959L20.0649 14.2031C20.1558 14.0538 20.2424 13.9215 20.3247 13.8106V16.1954C20.3247 17.9445 21.0346 19.3396 22.2857 20.0307C23.4416 20.6451 24.8442 20.5896 25.9481 19.8857C27.3203 19.0068 28.0693 17.4155 27.9913 15.5H28Z" fill="white"/>
</svg>
