<svg width="32" height="31" viewBox="0 0 32 31" fill="none" xmlns="http://www.w3.org/2000/svg">
<path d="M31.0911 15.36C31.0911 23.8431 24.2142 30.72 15.7311 30.72C7.248 30.72 0.371094 23.8431 0.371094 15.36C0.371094 6.87691 7.248 0 15.7311 0C24.2142 0 31.0911 6.87691 31.0911 15.36Z" fill="#621AE1"/>
<path d="M9.87218 11.2511C9.89127 11.0531 9.81936 10.8575 9.67857 10.7243L8.24439 8.91079V8.63989H12.6975L16.1395 16.5637L19.1656 8.63989H23.4108V8.91079L22.1846 10.1449C22.0788 10.2295 22.0264 10.3685 22.0483 10.5061V19.5737C22.0264 19.7113 22.0788 19.8503 22.1846 19.9349L23.3821 21.169V21.4399H17.3586V21.169L18.5991 19.9048C18.721 19.7769 18.721 19.7392 18.721 19.5436V12.2143L15.2718 21.4098H14.8057L10.7901 12.2143V18.3772C10.7566 18.6363 10.8386 18.8972 11.0123 19.0846L12.6258 21.1389V21.4098H8.05078V21.1389L9.66423 19.0846C9.83676 18.8969 9.91396 18.6343 9.87218 18.3772V11.2511Z" fill="#F8FAFF"/>
</svg>
