<svg width="16" height="16" viewBox="0 0 16 16" fill="none" xmlns="http://www.w3.org/2000/svg">
<path d="M14.6668 4.66667H15.3335V11.3333H14.6668V13.3333C14.6668 13.5101 14.5966 13.6797 14.4716 13.8047C14.3465 13.9298 14.177 14 14.0002 14H2.00016C1.82335 14 1.65378 13.9298 1.52876 13.8047C1.40373 13.6797 1.3335 13.5101 1.3335 13.3333V2.66667C1.3335 2.48986 1.40373 2.32029 1.52876 2.19526C1.65378 2.07024 1.82335 2 2.00016 2H14.0002C14.177 2 14.3465 2.07024 14.4716 2.19526C14.5966 2.32029 14.6668 2.48986 14.6668 2.66667V4.66667ZM13.3335 11.3333H9.3335C8.44944 11.3333 7.60159 10.9821 6.97647 10.357C6.35135 9.7319 6.00016 8.88406 6.00016 8C6.00016 7.11595 6.35135 6.2681 6.97647 5.64298C7.60159 5.01786 8.44944 4.66667 9.3335 4.66667H13.3335V3.33333H2.66683V12.6667H13.3335V11.3333ZM14.0002 10V6H9.3335C8.80306 6 8.29436 6.21071 7.91928 6.58579C7.54421 6.96086 7.3335 7.46957 7.3335 8C7.3335 8.53043 7.54421 9.03914 7.91928 9.41421C8.29436 9.78929 8.80306 10 9.3335 10H14.0002ZM9.3335 7.33333H11.3335V8.66667H9.3335V7.33333Z" fill="#A7A7AE"/>
</svg>
