<svg width="15" height="12" viewBox="0 0 15 12" fill="none" xmlns="http://www.w3.org/2000/svg">
<path d="M13.6663 2.66667H14.333V9.33333H13.6663V11.3333C13.6663 11.5101 13.5961 11.6797 13.4711 11.8047C13.3461 11.9298 13.1765 12 12.9997 12H0.999674C0.822863 12 0.653294 11.9298 0.52827 11.8047C0.403246 11.6797 0.333008 11.5101 0.333008 11.3333V0.666667C0.333008 0.489856 0.403246 0.320286 0.52827 0.195262C0.653294 0.0702379 0.822863 0 0.999674 0H12.9997C13.1765 0 13.3461 0.0702379 13.4711 0.195262C13.5961 0.320286 13.6663 0.489856 13.6663 0.666667V2.66667ZM12.333 9.33333H8.33301C7.44895 9.33333 6.60111 8.98214 5.97599 8.35702C5.35086 7.7319 4.99967 6.88406 4.99967 6C4.99967 5.11595 5.35086 4.2681 5.97599 3.64298C6.60111 3.01786 7.44895 2.66667 8.33301 2.66667H12.333V1.33333H1.66634V10.6667H12.333V9.33333ZM12.9997 8V4H8.33301C7.80258 4 7.29387 4.21071 6.91879 4.58579C6.54372 4.96086 6.33301 5.46957 6.33301 6C6.33301 6.53043 6.54372 7.03914 6.91879 7.41421C7.29387 7.78929 7.80258 8 8.33301 8H12.9997ZM8.33301 5.33333H10.333V6.66667H8.33301V5.33333Z" fill="#A7A7AE"/>
</svg>
