<svg width="50" height="50" viewBox="0 0 32 32" fill="none" xmlns="http://www.w3.org/2000/svg">
<path d="M30.72 0H1.28C0.572 0 0 0.572 0 1.28V30.72C0 31.428 0.572 32 1.28 32H30.72C31.428 32 32 31.428 32 30.72V1.28C32 0.572 31.428 0 30.72 0ZM29.44 18.56H16.64V13.44H29.44V18.56ZM18.72 16C18.72 16.4243 18.8886 16.8313 19.1886 17.1314C19.4887 17.4314 19.8957 17.6 20.32 17.6C20.7443 17.6 21.1513 17.4314 21.4514 17.1314C21.7514 16.8313 21.92 16.4243 21.92 16C21.92 15.5757 21.7514 15.1687 21.4514 14.8686C21.1513 14.5686 20.7443 14.4 20.32 14.4C19.8957 14.4 19.4887 14.5686 19.1886 14.8686C18.8886 15.1687 18.72 15.5757 18.72 16Z" fill="#09ACC7"/>
</svg>
