<svg width="454" height="196" viewBox="0 0 454 196" fill="none" xmlns="http://www.w3.org/2000/svg">
<g clip-path="url(#clip0)">
<rect y="196" width="196" height="454" rx="12" transform="rotate(-90 0 196)" fill="url(#paint0_linear)"/>
<g opacity="0.05" filter="url(#filter0_f)">
<path d="M328.961 -47.96L138.539 61.98C133.96 64.624 132.396 70.4598 135.04 75.0392L244.98 265.461C247.624 270.04 253.46 271.604 258.039 268.96L448.461 159.02C453.04 156.376 454.604 150.54 451.96 145.961L342.02 -44.4608C339.376 -49.0402 333.54 -50.6039 328.961 -47.96ZM389.992 76.8685L307.2 124.668L288.08 91.5517L370.872 43.7517L389.992 76.8685ZM311.093 100.343C312.678 103.087 315.288 105.09 318.349 105.91C321.411 106.731 324.673 106.301 327.417 104.717C330.162 103.132 332.165 100.522 332.985 97.4605C333.805 94.3991 333.376 91.1373 331.791 88.3926C330.207 85.6479 327.597 83.645 324.535 82.8248C321.474 82.0045 318.212 82.4339 315.467 84.0186C312.723 85.6032 310.72 88.2133 309.9 91.2747C309.079 94.336 309.509 97.5979 311.093 100.343Z" fill="white" fill-opacity="0.43"/>
<path d="M328.961 -47.96L138.539 61.98C133.96 64.624 132.396 70.4598 135.04 75.0392L244.98 265.461C247.624 270.04 253.46 271.604 258.039 268.96L448.461 159.02C453.04 156.376 454.604 150.54 451.96 145.961L342.02 -44.4608C339.376 -49.0402 333.54 -50.6039 328.961 -47.96ZM389.992 76.8685L307.2 124.668L288.08 91.5517L370.872 43.7517L389.992 76.8685ZM311.093 100.343C312.678 103.087 315.288 105.09 318.349 105.91C321.411 106.731 324.673 106.301 327.417 104.717C330.162 103.132 332.165 100.522 332.985 97.4605C333.805 94.3991 333.376 91.1373 331.791 88.3926C330.207 85.6479 327.597 83.645 324.535 82.8248C321.474 82.0045 318.212 82.4339 315.467 84.0186C312.723 85.6032 310.72 88.2133 309.9 91.2747C309.079 94.336 309.509 97.5979 311.093 100.343Z" stroke="#F5F5FB" stroke-width="12"/>
</g>
</g>
<defs>
<filter id="filter0_f" x="118.064" y="-64.9361" width="350.872" height="350.872" filterUnits="userSpaceOnUse" color-interpolation-filters="sRGB">
<feFlood flood-opacity="0" result="BackgroundImageFix"/>
<feBlend mode="normal" in="SourceGraphic" in2="BackgroundImageFix" result="shape"/>
<feGaussianBlur stdDeviation="2" result="effect1_foregroundBlur"/>
</filter>
<linearGradient id="paint0_linear" x1="-6.77241e-06" y1="196" x2="166.88" y2="654.412" gradientUnits="userSpaceOnUse">
<stop stop-color="#00CFDC"/>
<stop offset="1" stop-color="#026FF0"/>
</linearGradient>
<clipPath id="clip0">
<rect y="196" width="196" height="454" rx="24" transform="rotate(-90 0 196)" fill="white"/>
</clipPath>
</defs>
</svg>
