<svg width="12" height="12" viewBox="0 0 12 12" fill="none" xmlns="http://www.w3.org/2000/svg">
<path d="M6.5 4.5H3.5" stroke="#5B5A72" stroke-width="1.5" stroke-linecap="round" stroke-linejoin="round"/>
<path d="M11 5.48495V6.51498C11 6.78998 10.78 7.01496 10.5 7.02496H9.52C8.98 7.02496 8.48502 6.62997 8.44002 6.08997C8.41002 5.77497 8.53001 5.47996 8.74001 5.27496C8.92501 5.08496 9.18001 4.97498 9.46001 4.97498H10.5C10.78 4.98498 11 5.20995 11 5.48495Z" fill="#14141F" stroke="#5B5A72" stroke-width="1.5" stroke-linecap="round" stroke-linejoin="round"/>
<path d="M8.73999 5.27499C8.52999 5.47999 8.41 5.775 8.44 6.09C8.485 6.63 8.97999 7.02499 9.51999 7.02499H10.5V7.75C10.5 9.25 9.5 10.25 8 10.25H3.5C2 10.25 1 9.25 1 7.75V4.25C1 2.89 1.82 1.94 3.095 1.78C3.225 1.76 3.36 1.75 3.5 1.75H8C8.13 1.75 8.255 1.75499 8.375 1.77499C9.665 1.92499 10.5 2.88 10.5 4.25V4.97501H9.45999C9.17999 4.97501 8.92499 5.08499 8.73999 5.27499Z" stroke="#5B5A72" stroke-width="1.5" stroke-linecap="round" stroke-linejoin="round"/>
</svg>
