<svg width="128" height="128" viewBox="0 0 128 128" fill="none" xmlns="http://www.w3.org/2000/svg">
<path d="M9.59961 114.26L63.9996 20.0303L118.41 114.26H9.59961Z" fill="#FCC21B"/>
<path d="M127.07 115.93L66.8905 11.7003C66.2905 10.6703 65.1905 10.0303 64.0005 10.0303C62.8105 10.0303 61.7105 10.6703 61.1205 11.7003L0.930469 115.93C0.330469 116.96 0.330469 118.23 0.930469 119.27C1.53047 120.3 2.63047 120.93 3.82047 120.93H124.18C125.37 120.93 126.47 120.3 127.07 119.27C127.66 118.23 127.66 116.96 127.07 115.93ZM9.60047 114.26L64.0005 20.0303L118.41 114.26H9.60047Z" fill="white"/>
<path d="M59.1213 83.2106H68.8813C69.2413 83.2106 69.5313 82.9806 69.5513 82.6806L72.2113 44.4106C72.2213 44.2506 72.1613 44.1106 72.0313 43.9906C71.8954 43.8727 71.7211 43.8087 71.5413 43.8106H56.4613C56.2713 43.8106 56.0913 43.8806 55.9713 43.9906C55.9124 44.0432 55.8658 44.108 55.8347 44.1806C55.8036 44.2532 55.7888 44.3317 55.7913 44.4106L58.4613 82.6806C58.4713 82.9706 58.7613 83.2106 59.1213 83.2106Z" fill="white"/>
<path d="M56.1113 103.32C56.1113 101.91 56.3113 100.72 56.7213 99.7502C57.1213 98.7702 57.6813 97.9801 58.4013 97.3801C59.1213 96.7801 59.9613 96.3402 60.9413 96.0702C61.9113 95.8002 62.9513 95.6602 64.0713 95.6602C65.1213 95.6602 66.1213 95.8002 67.0713 96.0702C68.0213 96.3402 68.8513 96.7801 69.5613 97.3801C70.2813 97.9801 70.8513 98.7602 71.2713 99.7502C71.6913 100.72 71.9013 101.91 71.9013 103.32C71.9013 104.67 71.6913 105.83 71.2713 106.78C70.8513 107.74 70.2813 108.54 69.5613 109.17C68.8513 109.8 68.0213 110.26 67.0713 110.54C66.1213 110.82 65.1213 110.97 64.0713 110.97C62.9613 110.97 61.9213 110.83 60.9413 110.54C59.9613 110.25 59.1213 109.8 58.4013 109.17C57.6588 108.519 57.0828 107.699 56.7213 106.78C56.3113 105.82 56.1113 104.67 56.1113 103.32Z" fill="white"/>
</svg>
