<svg xmlns="http://www.w3.org/2000/svg" width="20" height="20" viewBox="0 0 20 20">
    <path fill="#FFF" fill-rule="nonzero" d="M16.778 17.778H3.222a1 1 0 0 1-1-1V3.222a1 1 0 0 1 1-1H8.89a1.111 1.111 0 0 0 0-2.222H2.222C.99 0 0 1 0 2.222v15.556C0 19 .989 20 2.222 20h15.556C19 20 20 19 20 17.778V11.11a1.111 1.111 0 0 0-2.222 0v5.667a1 1 0 0 1-1 1zM12.222 1.11c0 .614.498 1.111 1.111 1.111h2.576a.125.125 0 0 1 .089.214L6.072 12.36a1.108 1.108 0 0 0 1.567 1.567l9.925-9.926a.125.125 0 0 1 .214.089v2.576a1.111 1.111 0 0 0 2.222 0V1a1 1 0 0 0-1-1h-5.667c-.613 0-1.11.497-1.11 1.111z"/>
</svg>
