<svg width="17" height="16" viewBox="0 0 17 16" fill="none" xmlns="http://www.w3.org/2000/svg">
<path d="M13.664 6.66671H14.3306C14.5075 6.66671 14.677 6.73695 14.8021 6.86197C14.9271 6.98699 14.9973 7.15656 14.9973 7.33337V14C14.9973 14.1769 14.9271 14.3464 14.8021 14.4714C14.677 14.5965 14.5075 14.6667 14.3306 14.6667H3.66398C3.48717 14.6667 3.3176 14.5965 3.19258 14.4714C3.06755 14.3464 2.99731 14.1769 2.99731 14V7.33337C2.99731 7.15656 3.06755 6.98699 3.19258 6.86197C3.3176 6.73695 3.48717 6.66671 3.66398 6.66671H4.33065V6.00004C4.33065 5.38721 4.45135 4.78037 4.68588 4.21418C4.9204 3.648 5.26414 3.13355 5.69748 2.70021C6.13082 2.26687 6.64527 1.92312 7.21146 1.6886C7.77764 1.45408 8.38448 1.33337 8.99731 1.33337C9.61015 1.33337 10.217 1.45408 10.7832 1.6886C11.3494 1.92312 11.8638 2.26687 12.2971 2.70021C12.7305 3.13355 13.0742 3.648 13.3088 4.21418C13.5433 4.78037 13.664 5.38721 13.664 6.00004V6.66671ZM4.33065 8.00004V13.3334H13.664V8.00004H4.33065ZM8.33065 9.33337H9.66398V12H8.33065V9.33337ZM12.3306 6.66671V6.00004C12.3306 5.11599 11.9795 4.26814 11.3543 3.64302C10.7292 3.0179 9.88137 2.66671 8.99731 2.66671C8.11326 2.66671 7.26541 3.0179 6.64029 3.64302C6.01517 4.26814 5.66398 5.11599 5.66398 6.00004V6.66671H12.3306Z" fill="#E8E8E9FF"/>
</svg>
