<svg
          width="11"
          height="11"
          viewBox="0 0 11 11"
          fill="none"
          xmlns="http://www.w3.org/2000/svg"
        >
  <path
            d="M5.49992 10.9166C2.50829 10.9166 0.083252 8.4916 0.083252 5.49998C0.083252 2.50835 2.50829 0.083313 5.49992 0.083313C8.49154 0.083313 10.9166 2.50835 10.9166 5.49998C10.9166 8.4916 8.49154 10.9166 5.49992 10.9166ZM5.49992 9.83331C6.64919 9.83331 7.75139 9.37677 8.56405 8.56411C9.37671 7.75145 9.83325 6.64925 9.83325 5.49998C9.83325 4.35071 9.37671 3.24851 8.56405 2.43585C7.75139 1.62319 6.64919 1.16665 5.49992 1.16665C4.35065 1.16665 3.24845 1.62319 2.43579 2.43585C1.62313 3.24851 1.16659 4.35071 1.16659 5.49998C1.16659 6.64925 1.62313 7.75145 2.43579 8.56411C3.24845 9.37677 4.35065 9.83331 5.49992 9.83331ZM4.95825 2.79165H6.04159V3.87498H4.95825V2.79165ZM4.95825 4.95831H6.04159V8.20831H4.95825V4.95831Z"
            fill="#C1C1C1"
          />
</svg>
