<svg
        width="40%"
        height="40%"
        viewBox="0 0 13 13"
        fill="none"
        xmlns="http://www.w3.org/2000/svg"
      >
  <path
          d="M11.4524 6.5001C11.4524 5.98939 11.0345 5.57153 10.5238 5.57153C10.0131 5.57153 9.59525 5.98939 9.59525 6.5001C9.59525 7.01082 10.0131 7.42868 10.5238 7.42868C11.0345 7.42868 11.4524 7.01082 11.4524 6.5001ZM3.40477 6.5001C3.40477 5.98939 2.98692 5.57153 2.4762 5.57153C1.96549 5.57153 1.54763 5.98939 1.54763 6.5001C1.54763 7.01082 1.96549 7.42868 2.4762 7.42868C2.98692 7.42868 3.40477 7.01082 3.40477 6.5001ZM7.42858 6.5001C7.42858 5.98939 7.01073 5.57153 6.50001 5.57153C5.9893 5.57153 5.57144 5.98939 5.57144 6.5001C5.57144 7.01082 5.9893 7.42868 6.50001 7.42868C7.01073 7.42868 7.42858 7.01082 7.42858 6.5001Z"
          fill="#C1C1C1"
        />
  <path
          d="M6.5001 1.54773C5.98939 1.54773 5.57153 1.96559 5.57153 2.4763C5.57153 2.98702 5.98939 3.40487 6.5001 3.40487C7.01082 3.40487 7.42868 2.98702 7.42868 2.4763C7.42868 1.96559 7.01082 1.54773 6.5001 1.54773ZM6.5001 9.59535C5.98939 9.59535 5.57153 10.0132 5.57153 10.5239C5.57153 11.0346 5.98939 11.4525 6.5001 11.4525C7.01082 11.4525 7.42868 11.0346 7.42868 10.5239C7.42868 10.0132 7.01082 9.59535 6.5001 9.59535ZM6.5001 5.57154C5.98939 5.57154 5.57153 5.9894 5.57153 6.50011C5.57153 7.01082 5.98939 7.42868 6.5001 7.42868C7.01082 7.42868 7.42868 7.01082 7.42868 6.50011C7.42868 5.9894 7.01082 5.57154 6.5001 5.57154Z"
          fill="#C1C1C1"
        />
</svg>
