<svg
        width="15"
        height="15"
        viewBox="0 0 15 15"
        fill="none"
        xmlns="http://www.w3.org/2000/svg"
      >
  <path
          d="M7.50033 12.1667C8.738 12.1667 9.92499 11.6751 10.8002 10.7999C11.6753 9.92474 12.167 8.73776 12.167 7.50008C12.167 6.2624 11.6753 5.07542 10.8002 4.20025C9.92499 3.32508 8.738 2.83341 7.50033 2.83341C6.26265 2.83341 5.07566 3.32508 4.20049 4.20025C3.32532 5.07542 2.83366 6.2624 2.83366 7.50008C2.83366 8.73776 3.32532 9.92474 4.20049 10.7999C5.07566 11.6751 6.26265 12.1667 7.50033 12.1667ZM7.50033 13.3334C4.27858 13.3334 1.66699 10.7218 1.66699 7.50008C1.66699 4.27833 4.27858 1.66675 7.50033 1.66675C10.7221 1.66675 13.3337 4.27833 13.3337 7.50008C13.3337 10.7218 10.7221 13.3334 7.50033 13.3334ZM7.50033 9.83342C8.11916 9.83342 8.71266 9.58758 9.15024 9.15C9.58783 8.71241 9.83366 8.11892 9.83366 7.50008C9.83366 6.88124 9.58783 6.28775 9.15024 5.85017C8.71266 5.41258 8.11916 5.16675 7.50033 5.16675C6.88149 5.16675 6.28799 5.41258 5.85041 5.85017C5.41282 6.28775 5.16699 6.88124 5.16699 7.50008C5.16699 8.11892 5.41282 8.71241 5.85041 9.15C6.28799 9.58758 6.88149 9.83342 7.50033 9.83342ZM7.50033 11.0001C6.57207 11.0001 5.68183 10.6313 5.02545 9.97496C4.36907 9.31858 4.00033 8.42834 4.00033 7.50008C4.00033 6.57182 4.36907 5.68159 5.02545 5.02521C5.68183 4.36883 6.57207 4.00008 7.50033 4.00008C8.42858 4.00008 9.31882 4.36883 9.9752 5.02521C10.6316 5.68159 11.0003 6.57182 11.0003 7.50008C11.0003 8.42834 10.6316 9.31858 9.9752 9.97496C9.31882 10.6313 8.42858 11.0001 7.50033 11.0001ZM7.50033 8.66675C7.19091 8.66675 6.89416 8.54383 6.67537 8.32504C6.45658 8.10625 6.33366 7.8095 6.33366 7.50008C6.33366 7.19066 6.45658 6.89392 6.67537 6.67512C6.89416 6.45633 7.19091 6.33342 7.50033 6.33342C7.80975 6.33342 8.10649 6.45633 8.32528 6.67512C8.54408 6.89392 8.66699 7.19066 8.66699 7.50008C8.66699 7.8095 8.54408 8.10625 8.32528 8.32504C8.10649 8.54383 7.80975 8.66675 7.50033 8.66675Z"
          fill="#C1C1C1"
        />
</svg>
