<svg
          width="11"
          height="11"
          viewBox="0 0 11 11"
          fill="none"
          xmlns="http://www.w3.org/2000/svg"
        >
  <path
            fillRule="evenodd"
            clipRule="evenodd"
            d="M2.49066 0.381226C3.61241 0.381226 4.55498 1.14845 4.82222 2.18678H9.71288V3.39049H4.82222C4.55498 4.42882 3.61241 5.19604 2.49066 5.19604C1.16109 5.19604 0.083252 4.11821 0.083252 2.78863C0.083252 1.45906 1.16109 0.381226 2.49066 0.381226ZM2.49066 3.99234C3.15545 3.99234 3.69436 3.45342 3.69436 2.78863C3.69436 2.12385 3.15545 1.58493 2.49066 1.58493C1.82587 1.58493 1.28696 2.12385 1.28696 2.78863C1.28696 3.45342 1.82587 3.99234 2.49066 3.99234Z"
            fill="#C1C1C1"
          />
  <path
            fillRule="evenodd"
            clipRule="evenodd"
            d="M8.50918 10.6127C7.38742 10.6127 6.44486 9.84548 6.17761 8.80715H1.28696V7.60345H6.17761C6.44486 6.56512 7.38742 5.79789 8.50918 5.79789C9.83875 5.79789 10.9166 6.87573 10.9166 8.2053C10.9166 9.53487 9.83875 10.6127 8.50918 10.6127ZM8.50918 9.409C9.17397 9.409 9.71288 8.87009 9.71288 8.2053C9.71288 7.54051 9.17397 7.0016 8.50918 7.0016C7.84439 7.0016 7.30547 7.54051 7.30547 8.2053C7.30547 8.87009 7.84439 9.409 8.50918 9.409Z"
            fill="#C1C1C1"
          />
</svg>
