<svg
          width="11"
          height="11"
          viewBox="0 0 11 11"
          fill="none"
          xmlns="http://www.w3.org/2000/svg"
        >
  <path
            d="M5.49992 10.9167C2.50829 10.9167 0.083252 8.49167 0.083252 5.50004C0.083252 2.50842 2.50829 0.083374 5.49992 0.083374C8.49154 0.083374 10.9166 2.50842 10.9166 5.50004C10.9166 8.49167 8.49154 10.9167 5.49992 10.9167ZM5.49992 9.83337C6.64919 9.83337 7.75139 9.37683 8.56405 8.56417C9.37671 7.75151 9.83325 6.64931 9.83325 5.50004C9.83325 4.35077 9.37671 3.24857 8.56405 2.43591C7.75139 1.62325 6.64919 1.16671 5.49992 1.16671C4.35065 1.16671 3.24845 1.62325 2.43579 2.43591C1.62313 3.24857 1.16659 4.35077 1.16659 5.50004C1.16659 6.64931 1.62313 7.75151 2.43579 8.56417C3.24845 9.37683 4.35065 9.83337 5.49992 9.83337ZM7.39575 3.60421L6.31242 6.31254L3.60409 7.39587L4.68742 4.68754L7.39575 3.60421Z"
            fill="#C1C1C1"
          />
</svg>
