<svg
        width="14"
        height="15"
        viewBox="0 0 14 15"
        fill="none"
        xmlns="http://www.w3.org/2000/svg"
      >
  <path
          d="M11.7151 9.36669L12.4162 9.78727C12.4595 9.81317 12.4953 9.84983 12.5202 9.89369C12.545 9.93755 12.5581 9.98711 12.5581 10.0375C12.5581 10.0879 12.545 10.1375 12.5202 10.1813C12.4953 10.2252 12.4595 10.2619 12.4162 10.2878L7.30041 13.3573C7.20969 13.4118 7.10584 13.4406 7 13.4406C6.89416 13.4406 6.79031 13.4118 6.69958 13.3573L1.58375 10.2878C1.54049 10.2619 1.50468 10.2252 1.47982 10.1813C1.45496 10.1375 1.44189 10.0879 1.44189 10.0375C1.44189 9.98711 1.45496 9.93755 1.47982 9.89369C1.50468 9.84983 1.54049 9.81317 1.58375 9.78727L2.28491 9.36669L7 12.1959L11.7151 9.36669ZM11.7151 6.62502L12.4162 7.0456C12.4595 7.0715 12.4953 7.10817 12.5202 7.15202C12.545 7.19588 12.5581 7.24544 12.5581 7.29585C12.5581 7.34627 12.545 7.39582 12.5202 7.43968C12.4953 7.48354 12.4595 7.52021 12.4162 7.5461L7 10.7959L1.58375 7.5461C1.54049 7.52021 1.50468 7.48354 1.47982 7.43968C1.45496 7.39582 1.44189 7.34627 1.44189 7.29585C1.44189 7.24544 1.45496 7.19588 1.47982 7.15202C1.50468 7.10817 1.54049 7.0715 1.58375 7.0456L2.28491 6.62502L7 9.45419L11.7151 6.62502ZM7.29983 1.2636L12.4162 4.3331C12.4595 4.359 12.4953 4.39567 12.5202 4.43952C12.545 4.48338 12.5581 4.53294 12.5581 4.58335C12.5581 4.63377 12.545 4.68332 12.5202 4.72718C12.4953 4.77104 12.4595 4.80771 12.4162 4.8336L7 8.08335L1.58375 4.8336C1.54049 4.80771 1.50468 4.77104 1.47982 4.72718C1.45496 4.68332 1.44189 4.63377 1.44189 4.58335C1.44189 4.53294 1.45496 4.48338 1.47982 4.43952C1.50468 4.39567 1.54049 4.359 1.58375 4.3331L6.69958 1.2636C6.79031 1.20909 6.89416 1.1803 7 1.1803C7.10584 1.1803 7.20969 1.20909 7.30041 1.2636H7.29983ZM7 2.44369L3.43408 4.58335L7 6.72302L10.5659 4.58335L7 2.44369Z"
          fill="#FAFAFA"
        />
</svg>
