<svg width="14" height="14" viewBox="0 0 14 14" fill="none" xmlns="http://www.w3.org/2000/svg">
<path d="M6.99992 10.7917C9.094 10.7917 10.7916 9.09412 10.7916 7.00004C10.7916 4.90596 9.094 3.20837 6.99992 3.20837C4.90584 3.20837 3.20825 4.90596 3.20825 7.00004C3.20825 9.09412 4.90584 10.7917 6.99992 10.7917Z" stroke="#212131" stroke-width="1.5" stroke-linecap="round" stroke-linejoin="round"/>
<path d="M11.1651 11.165L11.0892 11.0891M11.0892 2.91079L11.1651 2.83496L11.0892 2.91079ZM2.83508 11.165L2.91091 11.0891L2.83508 11.165ZM7.00008 1.21329V1.16663V1.21329ZM7.00008 12.8333V12.7866V12.8333ZM1.21341 6.99996H1.16675H1.21341ZM12.8334 6.99996H12.7867H12.8334ZM2.91091 2.91079L2.83508 2.83496L2.91091 2.91079Z" stroke="#212131" stroke-width="2" stroke-linecap="round" stroke-linejoin="round"/>
</svg>
