<svg width="36" height="36" viewBox="0 0 36 36" fill="none" xmlns="http://www.w3.org/2000/svg">
<rect width="36" height="36" rx="8" fill="#242424"/>
<g clip-path="url(#clip0_572_256)">
<path d="M26.3077 17.9632C26.3149 19.6063 25.8348 21.2146 24.928 22.5848C24.0211 23.955 22.7284 25.0255 21.2131 25.661C19.6979 26.2965 18.0283 26.4684 16.4153 26.155C14.8024 25.8415 13.3186 25.0569 12.1517 23.9002C10.9847 22.7435 10.1869 21.2667 9.85926 19.6566C9.53159 18.0465 9.68872 16.3754 10.3108 14.8546C10.9328 13.3338 11.9919 12.0316 13.354 11.1127C14.7162 10.1938 16.3202 9.6995 17.9633 9.69222V9.69222C19.0543 9.68739 20.1355 9.89749 21.1453 10.3105C22.1551 10.7236 23.0736 11.3315 23.8485 12.0995C24.6233 12.8675 25.2393 13.7807 25.6613 14.7868C26.0832 15.7929 26.3029 16.8722 26.3077 17.9632Z" stroke="#6F6F6F" stroke-width="2"/>
<path d="M21.8972 15.2542C21.3397 15.0929 20.7618 14.8641 20.1766 14.633C20.1429 14.4861 20.0129 14.3031 19.7498 14.0797C19.3675 13.748 18.6493 13.7564 18.0287 13.9033C17.3436 13.742 16.6669 13.6848 16.0174 13.8431C10.7047 15.3066 13.7171 18.8771 11.7666 22.4663C12.0441 23.055 15.0355 26.4901 19.3639 25.5684C19.3639 25.5684 17.8836 22.0111 21.2241 20.3039C23.9338 18.9138 25.8915 16.3421 21.8972 15.2542Z" fill="#6F6F6F"/>
<path d="M22.5533 17.5907C22.5537 17.6544 22.5351 17.7167 22.5 17.7699C22.465 17.823 22.4149 17.8646 22.3562 17.8893C22.2975 17.914 22.2327 17.9208 22.1702 17.9087C22.1076 17.8966 22.0501 17.8663 22.0048 17.8215C21.9595 17.7767 21.9285 17.7195 21.9157 17.6571C21.9029 17.5947 21.909 17.5299 21.933 17.4709C21.9571 17.4119 21.9981 17.3614 22.0508 17.3257C22.1036 17.29 22.1657 17.2707 22.2294 17.2704C22.3148 17.2701 22.3968 17.3036 22.4575 17.3636C22.5182 17.4236 22.5527 17.5053 22.5533 17.5907Z" fill="#797979"/>
<path d="M18.0288 13.901C18.4159 13.9287 19.8156 14.3826 20.1768 14.6306C19.8758 13.7577 18.8626 13.6415 18.0288 13.901Z" fill="#797979"/>
<path d="M17.9564 16.1217C17.9564 16.3284 17.8951 16.5305 17.7803 16.7024C17.6654 16.8742 17.5022 17.0082 17.3112 17.0873C17.1203 17.1664 16.9101 17.1871 16.7074 17.1467C16.5047 17.1064 16.3185 17.0069 16.1723 16.8607C16.0262 16.7146 15.9266 16.5284 15.8863 16.3256C15.846 16.1229 15.8667 15.9128 15.9458 15.7218C16.0249 15.5308 16.1588 15.3676 16.3307 15.2528C16.5025 15.138 16.7046 15.0767 16.9113 15.0767C17.1885 15.0767 17.4543 15.1868 17.6503 15.3828C17.8463 15.5787 17.9564 15.8446 17.9564 16.1217Z" fill="#797979"/>
<path d="M23.7568 18.2457C22.5528 19.0939 21.1838 19.7375 19.2417 19.7375C18.3327 19.7375 18.1485 18.7743 17.5477 19.245C17.2376 19.4895 16.1444 20.0361 15.2769 19.9945C14.4094 19.953 13.0031 19.4449 12.6112 17.5925C12.4559 19.4449 12.3764 20.8084 11.6787 22.3719C13.0633 24.589 16.3647 26.2993 19.3615 25.5625C19.0419 23.314 21.0098 21.1119 22.1139 19.9867C22.5353 19.5599 23.336 18.8634 23.7568 18.2463V18.2457Z" fill="#6F6F6F"/>
<path d="M23.7099 18.301C23.3361 18.6417 22.8912 18.894 22.4385 19.1167C21.9801 19.3341 21.5025 19.508 21.0117 19.6363C20.5205 19.7633 20.0082 19.859 19.4892 19.812C18.9703 19.7651 18.4399 19.5887 18.0962 19.1998L18.1124 19.1811C18.5338 19.4545 19.0203 19.5508 19.5043 19.5646C19.9949 19.5797 20.4856 19.5393 20.9672 19.4442C21.4536 19.3423 21.9294 19.1951 22.3885 19.0048C22.8478 18.8151 23.3023 18.5954 23.6936 18.2823L23.7099 18.301Z" fill="#797979"/>
</g>
<defs>
<clipPath id="clip0_572_256">
<rect width="19.5" height="19.5" fill="white" transform="translate(8.25 8.25)"/>
</clipPath>
</defs>
</svg>
