<svg width="36" height="36" viewBox="0 0 36 36" fill="none" xmlns="http://www.w3.org/2000/svg">
<rect width="36" height="36" rx="8" fill="#242424"/>
<g clip-path="url(#clip0_572_272)">
<path d="M24.6561 19.46C24.3373 19.6599 23.9654 19.6962 23.682 19.5327C23.3278 19.3147 23.1153 18.8241 23.1153 18.1519V16.0988C23.1153 15.1177 22.7434 14.4092 22.1058 14.2275C21.0254 13.9004 20.2108 15.2631 19.9097 15.7718L17.9969 18.915V15.0451C17.9792 14.1548 17.6959 13.6279 17.1646 13.4644C16.8103 13.3554 16.279 13.4099 15.7654 14.2093L11.4972 21.2224C10.9304 20.1141 10.6294 18.8786 10.6294 17.625C10.6294 13.3917 13.9412 9.95785 17.9969 9.95785C22.0527 9.95785 25.3645 13.3917 25.3645 17.625V17.6432V17.6613C25.3999 18.4789 25.152 19.133 24.6561 19.46ZM26.9939 17.625V17.6068V17.5887C26.9762 12.4469 22.9382 8.25 17.9969 8.25C13.038 8.25 9 12.4469 9 17.625C9 22.7849 13.038 27 17.9969 27C20.2816 27 22.4423 26.1097 24.1071 24.4927C24.4436 24.1657 24.4613 23.6388 24.1425 23.2936C23.8414 22.9484 23.3278 22.9302 22.9913 23.2391C22.9913 23.2391 22.9913 23.2391 22.9736 23.2573C21.6276 24.5654 19.8211 25.3103 17.9615 25.3103C15.7831 25.3103 13.835 24.3292 12.489 22.7667L16.3322 16.444V19.3692C16.3322 20.7682 16.8635 21.2224 17.3062 21.3496C17.749 21.4767 18.422 21.3859 19.1481 20.2049L21.2557 16.6984C21.3265 16.5894 21.3797 16.4804 21.4505 16.4077V18.1882C21.4505 19.4964 21.9641 20.5501 22.8496 21.0589C23.6466 21.5312 24.6561 21.4767 25.4885 20.9498C26.5157 20.2594 27.0647 19.0603 26.9939 17.625Z" fill="#6F6F6F"/>
</g>
<defs>
<clipPath id="clip0_572_272">
<rect width="18" height="18.75" fill="white" transform="translate(9 8.25)"/>
</clipPath>
</defs>
</svg>
