<svg width="36" height="36" viewBox="0 0 36 36" fill="none" xmlns="http://www.w3.org/2000/svg">
<rect width="36" height="36" rx="8" fill="#242424"/>
<g clip-path="url(#clip0_572_268)">
<path d="M24.2376 12.369C23.0901 11.8515 21.8601 11.469 20.5739 11.2515C20.5624 11.2493 20.5506 11.2507 20.5399 11.2555C20.5293 11.2604 20.5205 11.2684 20.5146 11.2785C20.3571 11.5552 20.1816 11.916 20.0586 12.201C18.6944 11.9972 17.3075 11.9972 15.9434 12.201C15.8064 11.8851 15.6519 11.5771 15.4806 11.2785C15.4748 11.2683 15.466 11.2601 15.4554 11.255C15.4449 11.2499 15.433 11.2481 15.4214 11.25C14.1359 11.4675 12.9059 11.85 11.7576 12.3682C11.7477 12.3724 11.7394 12.3794 11.7336 12.3885C9.39962 15.8197 8.75987 19.1662 9.07412 22.4707C9.075 22.4788 9.07751 22.4867 9.08151 22.4937C9.0855 22.5008 9.0909 22.507 9.09737 22.512C10.4597 23.5038 11.9791 24.2593 13.5921 24.747C13.6034 24.7504 13.6154 24.7504 13.6266 24.7469C13.6379 24.7435 13.6478 24.7367 13.6551 24.7275C14.0016 24.2625 14.3106 23.7712 14.5746 23.2552C14.5904 23.2252 14.5754 23.1892 14.5439 23.1772C14.0594 22.9948 13.5899 22.7746 13.1399 22.5187C13.1318 22.5141 13.125 22.5076 13.12 22.4997C13.1151 22.4918 13.1122 22.4828 13.1116 22.4735C13.111 22.4642 13.1127 22.4549 13.1166 22.4464C13.1205 22.438 13.1264 22.4306 13.1339 22.425C13.2284 22.3552 13.3229 22.2825 13.4129 22.2097C13.421 22.2032 13.4307 22.199 13.4411 22.1977C13.4514 22.1964 13.4619 22.1979 13.4714 22.2022C16.4166 23.5252 19.6064 23.5252 22.5171 22.2022C22.5266 22.1977 22.5372 22.1959 22.5477 22.1971C22.5582 22.1983 22.5681 22.2024 22.5764 22.209C22.6664 22.2825 22.7601 22.3552 22.8554 22.425C22.8629 22.4305 22.8689 22.4377 22.8729 22.4461C22.8769 22.4545 22.8788 22.4638 22.8783 22.4731C22.8779 22.4823 22.8751 22.4914 22.8703 22.4994C22.8656 22.5073 22.8589 22.514 22.8509 22.5187C22.4024 22.7767 21.9359 22.995 21.4461 23.1765C21.4386 23.1792 21.4317 23.1835 21.426 23.1891C21.4203 23.1947 21.4158 23.2014 21.4129 23.2089C21.41 23.2163 21.4087 23.2243 21.4091 23.2323C21.4096 23.2403 21.4117 23.2481 21.4154 23.2552C21.6854 23.7705 21.9944 24.261 22.3341 24.7267C22.3412 24.7363 22.351 24.7434 22.3623 24.7472C22.3736 24.7509 22.3857 24.7511 22.3971 24.7477C24.0129 24.2615 25.5348 23.5056 26.8986 22.512C26.9053 22.5073 26.9109 22.5013 26.915 22.4943C26.9191 22.4873 26.9217 22.4795 26.9226 22.4715C27.2976 18.651 26.2941 15.3315 24.2609 12.39C24.2559 12.3804 24.2476 12.373 24.2376 12.369ZM15.0149 20.4585C14.1284 20.4585 13.3971 19.6567 13.3971 18.6735C13.3971 17.6895 14.1141 16.8885 15.0149 16.8885C15.9224 16.8885 16.6469 17.6962 16.6326 18.6735C16.6326 19.6575 15.9156 20.4585 15.0149 20.4585ZM20.9961 20.4585C20.1089 20.4585 19.3784 19.6567 19.3784 18.6735C19.3784 17.6895 20.0946 16.8885 20.9961 16.8885C21.9036 16.8885 22.6281 17.6962 22.6139 18.6735C22.6139 19.6575 21.9044 20.4585 20.9961 20.4585Z" fill="#6F6F6F"/>
</g>
<defs>
<clipPath id="clip0_572_268">
<rect width="18" height="18" fill="white" transform="translate(9 9)"/>
</clipPath>
</defs>
</svg>
