<svg width="36" height="36" viewBox="0 0 36 36" fill="none" xmlns="http://www.w3.org/2000/svg">
<rect width="36" height="36" rx="8" fill="#242424"/>
<path d="M12.279 14.448C12.2882 14.3567 12.2759 14.2645 12.2431 14.1788C12.2102 14.0931 12.1578 14.0163 12.09 13.9545L10.689 12.2543V12H15.0375L18.399 19.4287L21.354 12H25.5V12.2543L24.3022 13.41C24.2515 13.4492 24.2123 13.5014 24.189 13.5611C24.1656 13.6208 24.1588 13.6858 24.1695 13.749V22.2495C24.1588 22.3127 24.1656 22.3777 24.189 22.4374C24.2123 22.4971 24.2515 22.5493 24.3022 22.5885L25.4722 23.745V24H19.5892V23.7457L20.8012 22.5607C20.9205 22.4407 20.9205 22.4055 20.9205 22.2225V15.351L17.5515 23.9715H17.097L13.1745 15.351V21.129C13.1422 21.3712 13.2225 21.6165 13.392 21.792L14.9677 23.718V23.9715H10.5V23.718L12.075 21.792C12.1583 21.705 12.2202 21.5998 12.2556 21.4847C12.291 21.3696 12.299 21.2478 12.279 21.129V14.448Z" fill="#6F6F6F"/>
</svg>
