<svg width="79" height="76" viewBox="0 0 79 76" fill="none" xmlns="http://www.w3.org/2000/svg">
<path d="M40.1758 20L40.1758 1" stroke="url(#paint0_linear_31_1109)" stroke-width="16.67" stroke-dasharray="0.47 1.42"/>
<path d="M40.1758 56L40.1758 75" stroke="url(#paint1_linear_31_1109)" stroke-width="16.67" stroke-dasharray="0.47 1.42"/>
<path d="M60.1758 20L60.1758 0" stroke="url(#paint2_linear_31_1109)" stroke-width="16.67" stroke-dasharray="0.47 1.42"/>
<path d="M60.1758 56L60.1758 76" stroke="url(#paint3_linear_31_1109)" stroke-width="16.67" stroke-dasharray="0.47 1.42"/>
<path d="M20.1758 20L20.1758 0" stroke="url(#paint4_linear_31_1109)" stroke-width="16.67" stroke-dasharray="0.47 1.42"/>
<path d="M20.1758 56L20.1758 76" stroke="url(#paint5_linear_31_1109)" stroke-width="16.67" stroke-dasharray="0.47 1.42"/>
<path d="M17.55 45.925C16.6833 46.375 15.6667 46.7417 14.5 47.025C13.35 47.3083 12.0917 47.45 10.725 47.45C9.30833 47.45 8 47.225 6.8 46.775C5.61667 46.325 4.59167 45.6917 3.725 44.875C2.875 44.0583 2.20833 43.0833 1.725 41.95C1.24167 40.8 1 39.525 1 38.125C1 36.7083 1.24167 35.425 1.725 34.275C2.225 33.125 2.90833 32.15 3.775 31.35C4.64167 30.5333 5.65833 29.9083 6.825 29.475C7.99167 29.0417 9.25 28.825 10.6 28.825C12 28.825 13.3 29.0417 14.5 29.475C15.7 29.8917 16.675 30.4583 17.425 31.175L14.725 34.25C14.3083 33.7667 13.7583 33.375 13.075 33.075C12.3917 32.7583 11.6167 32.6 10.75 32.6C10 32.6 9.30833 32.7417 8.675 33.025C8.04167 33.2917 7.49167 33.675 7.025 34.175C6.55833 34.6583 6.19167 35.2417 5.925 35.925C5.675 36.5917 5.55 37.325 5.55 38.125C5.55 38.9417 5.66667 39.6917 5.9 40.375C6.13333 41.0583 6.475 41.65 6.925 42.15C7.39167 42.6333 7.95833 43.0167 8.625 43.3C9.30833 43.5667 10.0833 43.7 10.95 43.7C11.45 43.7 11.925 43.6667 12.375 43.6C12.825 43.5167 13.2417 43.3917 13.625 43.225V40H10.25V36.55H17.55V45.925ZM35.5158 40.325C35.5158 41.3917 35.3325 42.3667 34.9658 43.25C34.6158 44.1167 34.1075 44.8667 33.4408 45.5C32.7741 46.1167 31.9658 46.6 31.0158 46.95C30.0825 47.3 29.0408 47.475 27.8908 47.475C26.7241 47.475 25.6741 47.3 24.7408 46.95C23.8075 46.6 23.0158 46.1167 22.3658 45.5C21.7158 44.8667 21.2158 44.1167 20.8658 43.25C20.5158 42.3667 20.3408 41.3917 20.3408 40.325V29.3H24.5908V39.975C24.5908 40.4583 24.6491 40.9167 24.7658 41.35C24.8991 41.7833 25.0908 42.175 25.3408 42.525C25.6075 42.8583 25.9491 43.125 26.3658 43.325C26.7991 43.525 27.3158 43.625 27.9158 43.625C28.5158 43.625 29.0241 43.525 29.4408 43.325C29.8741 43.125 30.2241 42.8583 30.4908 42.525C30.7575 42.175 30.9491 41.7833 31.0658 41.35C31.1825 40.9167 31.2408 40.4583 31.2408 39.975V29.3H35.5158V40.325ZM38.4497 47V29.3H42.7497V47H38.4497ZM62.4107 38.1C62.4107 39.65 62.119 40.9917 61.5357 42.125C60.969 43.2417 60.2107 44.1667 59.2607 44.9C58.3273 45.6167 57.269 46.15 56.0857 46.5C54.9023 46.8333 53.7023 47 52.4857 47H45.8857V29.3H52.2857C53.5357 29.3 54.769 29.45 55.9857 29.75C57.2023 30.0333 58.2857 30.5167 59.2357 31.2C60.1857 31.8667 60.9523 32.7667 61.5357 33.9C62.119 35.0333 62.4107 36.4333 62.4107 38.1ZM57.9607 38.1C57.9607 37.1 57.794 36.275 57.4607 35.625C57.144 34.9583 56.7107 34.4333 56.1607 34.05C55.6273 33.65 55.0107 33.3667 54.3107 33.2C53.6273 33.0333 52.919 32.95 52.1857 32.95H50.0607V43.3H52.0857C52.8523 43.3 53.5857 43.2167 54.2857 43.05C55.0023 42.8667 55.6273 42.575 56.1607 42.175C56.7107 41.775 57.144 41.2417 57.4607 40.575C57.794 39.9083 57.9607 39.0833 57.9607 38.1ZM64.7229 47V29.3H76.6229V32.925H68.8479V36.25H76.1979V39.675H68.8479V43.35H77.0729V47H64.7229Z" fill="white"/>
<defs>
<linearGradient id="paint0_linear_31_1109" x1="40.1758" y1="20.0941" x2="40.1758" y2="1.09406" gradientUnits="userSpaceOnUse">
<stop stop-color="white"/>
<stop offset="1" stop-color="white" stop-opacity="0"/>
</linearGradient>
<linearGradient id="paint1_linear_31_1109" x1="40.1758" y1="55.9059" x2="40.1758" y2="74.9059" gradientUnits="userSpaceOnUse">
<stop stop-color="white"/>
<stop offset="1" stop-color="white" stop-opacity="0"/>
</linearGradient>
<linearGradient id="paint2_linear_31_1109" x1="60.1758" y1="20.099" x2="60.1758" y2="0.0990105" gradientUnits="userSpaceOnUse">
<stop stop-color="white"/>
<stop offset="1" stop-color="white" stop-opacity="0"/>
</linearGradient>
<linearGradient id="paint3_linear_31_1109" x1="60.1758" y1="55.901" x2="60.1758" y2="75.901" gradientUnits="userSpaceOnUse">
<stop stop-color="white"/>
<stop offset="1" stop-color="white" stop-opacity="0"/>
</linearGradient>
<linearGradient id="paint4_linear_31_1109" x1="20.1758" y1="20.099" x2="20.1758" y2="0.0990105" gradientUnits="userSpaceOnUse">
<stop stop-color="white"/>
<stop offset="1" stop-color="white" stop-opacity="0"/>
</linearGradient>
<linearGradient id="paint5_linear_31_1109" x1="20.1758" y1="55.901" x2="20.1758" y2="75.901" gradientUnits="userSpaceOnUse">
<stop stop-color="white"/>
<stop offset="1" stop-color="white" stop-opacity="0"/>
</linearGradient>
</defs>
</svg>
