<svg width="71" height="76" viewBox="0 0 71 76" fill="none" xmlns="http://www.w3.org/2000/svg">
<path d="M14.6903 30.8691C14.1915 30.2343 13.5341 29.7356 12.718 29.3728C11.9245 28.9875 11.1537 28.7948 10.4056 28.7948C10.0202 28.7948 9.62349 28.8288 9.21543 28.8968C8.83004 28.9648 8.47865 29.1008 8.16127 29.3048C7.84388 29.4862 7.57184 29.7356 7.34514 30.053C7.14111 30.3477 7.03909 30.7331 7.03909 31.2091C7.03909 31.6172 7.11844 31.9573 7.27713 32.2293C7.45849 32.5013 7.70786 32.7394 8.02525 32.9434C8.3653 33.1474 8.76203 33.3401 9.21543 33.5215C9.66883 33.6802 10.1789 33.8502 10.7457 34.0316C11.5618 34.3036 12.4119 34.6097 13.2961 34.9497C14.1802 35.2671 14.985 35.6978 15.7104 36.2419C16.4359 36.786 17.0366 37.4661 17.5127 38.2822C17.9888 39.0757 18.2268 40.0732 18.2268 41.2747C18.2268 42.6576 17.9661 43.8591 17.4447 44.8793C16.946 45.8767 16.2659 46.7042 15.4044 47.3616C14.5429 48.0191 13.5568 48.5065 12.4459 48.8239C11.3351 49.1413 10.1902 49.2999 9.0114 49.2999C7.28846 49.2999 5.62221 49.0052 4.01262 48.4158C2.40304 47.8037 1.0655 46.9422 0 45.8314L3.80859 41.9548C4.39802 42.6802 5.1688 43.2923 6.12095 43.7911C7.09577 44.2672 8.05925 44.5052 9.0114 44.5052C9.44213 44.5052 9.86153 44.4599 10.2696 44.3692C10.6777 44.2785 11.029 44.1311 11.3238 43.9271C11.6411 43.7231 11.8905 43.451 12.0719 43.111C12.2532 42.7709 12.3439 42.3629 12.3439 41.8868C12.3439 41.4334 12.2306 41.048 12.0039 40.7306C11.7772 40.4132 11.4484 40.1299 11.0177 39.8805C10.6096 39.6084 10.0882 39.3704 9.45347 39.1664C8.84137 38.9397 8.1386 38.7016 7.34514 38.4523C6.57435 38.2029 5.8149 37.9082 5.06679 37.5681C4.34134 37.2281 3.6839 36.7973 3.09448 36.2759C2.52773 35.7318 2.06299 35.0857 1.70026 34.3376C1.36021 33.5668 1.19018 32.6374 1.19018 31.5492C1.19018 30.2116 1.46223 29.0668 2.00631 28.1147C2.5504 27.1625 3.26451 26.3804 4.14864 25.7683C5.03278 25.1562 6.03027 24.7141 7.14111 24.4421C8.25195 24.1474 9.37412 24 10.5076 24C11.8678 24 13.2507 24.2494 14.6563 24.7481C16.0845 25.2469 17.3314 25.9837 18.3969 26.9585L14.6903 30.8691Z" fill="white"/>
<path d="M44.2938 36.582C44.2938 38.6903 43.897 40.5152 43.1036 42.0568C42.3328 43.5757 41.3013 44.8339 40.0091 45.8314C38.7396 46.8062 37.3 47.5317 35.6904 48.0077C34.0808 48.4611 32.4486 48.6878 30.7937 48.6878H21.8163V24.6121H30.5216C32.2219 24.6121 33.8995 24.8161 35.5544 25.2242C37.2093 25.6096 38.6829 26.267 39.9751 27.1965C41.2673 28.1033 42.3101 29.3275 43.1036 30.8691C43.897 32.4107 44.2938 34.3149 44.2938 36.582ZM38.2408 36.582C38.2408 35.2218 38.0141 34.0996 37.5607 33.2154C37.13 32.3086 36.5406 31.5945 35.7924 31.0731C35.067 30.529 34.2282 30.1436 33.276 29.9169C32.3466 29.6902 31.3831 29.5769 30.3856 29.5769H27.4951V43.6551H30.2496C31.2924 43.6551 32.2899 43.5417 33.242 43.315C34.2169 43.0656 35.067 42.6689 35.7924 42.1248C36.5406 41.5807 37.13 40.8553 37.5607 39.9485C38.0141 39.0417 38.2408 37.9195 38.2408 36.582Z" fill="white"/>
<path d="M62.6277 48.6878L53.6843 37.6021H53.6163V48.6878H47.9034V24.6121H53.6163V34.4056H53.7183L62.3216 24.6121H69.5988L59.2271 35.6978L70.2108 48.6878H62.6277Z" fill="white"/>
<path d="M35.1758 20L35.1758 1" stroke="url(#paint0_linear_31_1100)" stroke-width="16.67" stroke-dasharray="0.47 1.42"/>
<path d="M35.1758 56L35.1758 75" stroke="url(#paint1_linear_31_1100)" stroke-width="16.67" stroke-dasharray="0.47 1.42"/>
<path d="M55.1758 20L55.1758 0" stroke="url(#paint2_linear_31_1100)" stroke-width="16.67" stroke-dasharray="0.47 1.42"/>
<path d="M55.1758 56L55.1758 76" stroke="url(#paint3_linear_31_1100)" stroke-width="16.67" stroke-dasharray="0.47 1.42"/>
<path d="M15.1758 20L15.1758 0" stroke="url(#paint4_linear_31_1100)" stroke-width="16.67" stroke-dasharray="0.47 1.42"/>
<path d="M15.1758 56L15.1758 76" stroke="url(#paint5_linear_31_1100)" stroke-width="16.67" stroke-dasharray="0.47 1.42"/>
<defs>
<linearGradient id="paint0_linear_31_1100" x1="35.1758" y1="20.0941" x2="35.1758" y2="1.09406" gradientUnits="userSpaceOnUse">
<stop stop-color="white"/>
<stop offset="1" stop-color="white" stop-opacity="0"/>
</linearGradient>
<linearGradient id="paint1_linear_31_1100" x1="35.1758" y1="55.9059" x2="35.1758" y2="74.9059" gradientUnits="userSpaceOnUse">
<stop stop-color="white"/>
<stop offset="1" stop-color="white" stop-opacity="0"/>
</linearGradient>
<linearGradient id="paint2_linear_31_1100" x1="55.1758" y1="20.099" x2="55.1758" y2="0.0990105" gradientUnits="userSpaceOnUse">
<stop stop-color="white"/>
<stop offset="1" stop-color="white" stop-opacity="0"/>
</linearGradient>
<linearGradient id="paint3_linear_31_1100" x1="55.1758" y1="55.901" x2="55.1758" y2="75.901" gradientUnits="userSpaceOnUse">
<stop stop-color="white"/>
<stop offset="1" stop-color="white" stop-opacity="0"/>
</linearGradient>
<linearGradient id="paint4_linear_31_1100" x1="15.1758" y1="20.099" x2="15.1758" y2="0.0990105" gradientUnits="userSpaceOnUse">
<stop stop-color="white"/>
<stop offset="1" stop-color="white" stop-opacity="0"/>
</linearGradient>
<linearGradient id="paint5_linear_31_1100" x1="15.1758" y1="55.901" x2="15.1758" y2="75.901" gradientUnits="userSpaceOnUse">
<stop stop-color="white"/>
<stop offset="1" stop-color="white" stop-opacity="0"/>
</linearGradient>
</defs>
</svg>
