<svg width="39" height="36" viewBox="0 0 39 36" fill="none" xmlns="http://www.w3.org/2000/svg">
<path d="M33.2984 20.0778L33.0829 22.4357L32.7034 24.7774L32.1608 27.0932L32.14 27.1593L32.1148 27.2245L32.0857 27.2876L32.0519 27.3498L32.0137 27.4095L31.9712 27.467L31.9253 27.5223L31.8754 27.5747L31.822 27.624L31.7652 27.6708L31.7049 27.7142L31.642 27.7541L31.5766 27.7905L30.2537 28.4273L28.8892 28.9899L27.4879 29.4761L26.0553 29.8846L24.5971 30.2128L23.1186 30.4604L21.6257 30.6261L20.1506 30.7042L20.1242 30.7089H19.3721H18.62L18.594 30.7042L17.1185 30.6261L15.6256 30.4604L14.1475 30.2128L12.6889 29.8846L11.2568 29.4761L9.85499 28.9899L8.4905 28.4273L7.16766 27.7905L7.1026 27.7541L7.03928 27.7142L6.97899 27.6708L6.92261 27.624L6.86883 27.5747L6.81895 27.5223L6.77297 27.467L6.73047 27.4095L6.6923 27.3498L6.65847 27.2876L6.62941 27.2245L6.60426 27.1593L6.58344 27.0932L6.04085 24.7774L5.66135 22.4357L5.44579 20.0778L5.39548 17.7125L5.51041 15.349L5.79016 12.9967L6.23386 10.6641L6.25077 10.6001L6.27159 10.5366L6.28938 10.4928L6.29675 10.4744L6.32624 10.4139L6.36007 10.3551L6.84627 9.61575L7.38539 8.90644L7.97568 8.22974L8.61412 7.58865L8.88432 7.3505L9.29809 6.98576L10.025 6.42406L10.791 5.90484L11.5938 5.43154L12.4296 5.00543L13.2944 4.62868L14.1852 4.30299L15.0978 4.02922L16.029 3.80865L16.9736 3.64259L17.9291 3.53102L18.8902 3.47567H19.3721H19.854L20.8151 3.53102L21.7706 3.64259L22.7157 3.80865L23.6464 4.02922L24.5594 4.30299L25.4498 4.62868L26.3147 5.00543L27.1504 5.43154L27.9533 5.90484L28.7192 6.42406L29.4461 6.98576L29.8599 7.3505L30.1301 7.58865L30.7685 8.22974L31.3588 8.90644L31.8979 9.61575L32.3846 10.3551L32.418 10.4139L32.4475 10.4744L32.4553 10.4928L32.4726 10.5366L32.4939 10.6001L32.5108 10.6641L32.9541 12.9967L33.2342 15.349L33.3487 17.7125L33.2984 20.0778ZM38.7347 15.3932L38.7117 15.1907L38.6761 14.9907L38.6275 14.7925L38.5664 14.5977L38.4922 14.4071L38.4059 14.2213L38.3079 14.0407L38.1986 13.8665L38.0785 13.6987L37.947 13.5386L37.8056 13.3867L37.6551 13.2434L37.4951 13.1095L37.3268 12.9851L37.1512 12.8709L36.9022 12.7298L36.838 12.6881L36.7773 12.6431L36.7192 12.5942L36.6641 12.5423L36.6129 12.4873L36.5652 12.429L36.5218 12.368L36.4819 12.3045L36.4464 12.2389L36.4151 12.1715L36.3882 12.1024L36.1974 11.6119L35.9736 11.1348L35.7173 10.6726L35.4306 10.2272L35.114 9.80069L34.7692 9.39476L34.3966 9.01157L33.9993 8.65284L33.5786 8.31899L33.5244 8.27651L33.4723 8.23103L33.4233 8.18297L33.3778 8.13233L33.3344 8.07912L33.2945 8.02377L33.2581 7.96626L32.7259 7.13423L32.1382 6.33652L31.4994 5.57615L30.811 4.85611L30.0755 4.17983L29.2969 3.54948L28.4781 2.96804L27.6219 2.43809L26.7323 1.96093L25.8129 1.53955L24.8669 1.1748L23.8988 0.868851L22.9121 0.622547L21.9111 0.436745L20.8997 0.312302L19.8817 0.25008H19.3721H18.8625L17.8445 0.312302L16.8331 0.436745L15.8321 0.622547L14.8454 0.868851L13.8777 1.1748L12.9314 1.53955L12.0119 1.96093L11.1223 2.43809L10.2662 2.96804L9.44729 3.54948L8.66877 4.17983L7.93361 4.85611L7.24529 5.57615L6.60599 6.33652L6.01873 7.13423L5.48613 7.96626L5.44969 8.02377L5.40979 8.07912L5.36685 8.13233L5.32088 8.18297L5.2723 8.23103L5.22069 8.27651L5.16604 8.31899L4.7449 8.65284L4.34761 9.01157L3.97591 9.39476L3.63067 9.80069L3.31362 10.2272L3.02693 10.6726L2.7706 11.1348L2.54724 11.6119L2.35597 12.1024L2.32951 12.1715L2.29785 12.2389L2.26229 12.3045L2.22282 12.368L2.17901 12.429L2.13173 12.4873L2.08012 12.5423L2.02548 12.5942L1.96736 12.6431L1.9062 12.6881L1.84244 12.7298L1.59306 12.8709L1.4174 12.9851L1.24912 13.1095L1.08907 13.2434L0.939004 13.3867L0.79718 13.5386L0.666195 13.6987L0.545621 13.8665L0.436324 14.0407L0.338301 14.2213L0.252425 14.4071L0.17826 14.5977L0.116673 14.7925L0.0680964 14.9907L0.032531 15.1907L0.00954322 15.3932L0 15.5962L0.00303768 15.7996L0.438058 25.0824L0.449335 25.2236L0.469719 25.3644L0.498779 25.5038L0.536512 25.6407L0.582921 25.7755L0.638436 25.9072L0.701761 26.0359L0.773325 26.1599L0.852695 26.2801L1.02055 26.5024L1.20184 26.7148L1.39658 26.916L1.6039 27.1057L1.82249 27.2829L2.05193 27.4472L2.35553 27.6382L2.41669 27.682L2.47524 27.7296L2.53032 27.7802L2.58194 27.8343L2.63008 27.8909L2.67519 27.9506L2.71509 28.0128L2.75195 28.0772L2.78449 28.1433L3.12409 28.9719L3.48277 29.7129C3.74951 30.1875 9.7548 34.5635 9.7548 34.5635C9.7548 34.5635 12.8724 35.9706 19.3721 35.9706C25.8718 35.9706 28.9894 34.5635 28.9894 34.5635C28.9894 34.5635 34.9947 30.1875 35.2614 29.7129L35.6206 28.9719L35.9602 28.1433L35.9923 28.0772L36.0291 28.0128L36.0695 27.9506L36.1141 27.8909L36.1623 27.8343L36.2143 27.7802L36.2694 27.7296L36.3275 27.682L36.3887 27.6382L36.6923 27.4472L36.9217 27.2829L37.1403 27.1057L37.3476 26.916L37.5424 26.7148L37.7237 26.5024L37.8915 26.2801L37.9709 26.1599L38.0425 26.0359L38.1058 25.9072L38.1613 25.7755L38.2077 25.6407L38.2454 25.5038L38.2749 25.3644L38.2953 25.2236L38.3062 25.0824L38.7412 15.7996L38.7446 15.5962L38.7347 15.3932Z" fill="#A9A9B2"/>
<path d="M26.4927 19.9469H24.6585C24.4291 19.9469 24.243 20.1314 24.243 20.3584V21.6093C24.243 21.8371 24.1515 22.056 23.9884 22.2173L23.8718 22.3328C23.7087 22.4941 23.4875 22.5842 23.2572 22.5842H15.4888C15.2585 22.5842 15.0373 22.4941 14.8742 22.3328L14.7576 22.2173C14.5945 22.056 14.503 21.8371 14.503 21.6093V20.3584C14.503 20.1314 14.3169 19.9469 14.087 19.9469H12.2533C12.0238 19.9469 11.8373 20.1314 11.8373 20.3584V22.1727C11.8373 22.4001 12.0238 22.5842 12.2533 22.5842H13.6342C13.8645 22.5842 14.0857 22.6748 14.2488 22.8361C14.4119 22.9974 14.503 23.2163 14.503 23.4441V24.7714C14.503 25.019 14.7077 25.2215 14.958 25.2215H14.9593H23.7868H23.7876C24.0383 25.2215 24.243 25.019 24.243 24.7714V23.4441C24.243 23.2163 24.3341 22.9974 24.4972 22.8361C24.6603 22.6748 24.8815 22.5842 25.1118 22.5842H26.4927C26.7222 22.5842 26.9087 22.4001 26.9087 22.1727V20.3584C26.9087 20.1314 26.7222 19.9469 26.4927 19.9469Z" fill="#A9A9B2"/>
</svg>
