<svg width="32" height="32" viewBox="0 0 32 32" fill="none" xmlns="http://www.w3.org/2000/svg">
<path d="M8.914 24.5L13.171 20.243L11.757 18.829L7.5 23.086L6.707 22.293C6.51947 22.1055 6.26516 22.0002 6 22.0002C5.73484 22.0002 5.48053 22.1055 5.293 22.293L1.293 26.293C1.10553 26.4805 1.00021 26.7348 1.00021 27C1.00021 27.2651 1.10553 27.5195 1.293 27.707L4.293 30.707C4.48053 30.8945 4.73484 30.9998 5 30.9998C5.26516 30.9998 5.51947 30.8945 5.707 30.707L9.707 26.707C9.89447 26.5195 9.99979 26.2651 9.99979 26C9.99979 25.7348 9.89447 25.4805 9.707 25.293L8.914 24.5ZM5 28.586L3.414 27L6 24.414L7.586 26L5 28.586Z" fill="#FAFAFA"/>
<path d="M24 30C22.4093 29.9981 20.8842 29.3654 19.7594 28.2406C18.6346 27.1158 18.0019 25.5907 18 24C18.0004 23.4772 18.0711 22.9569 18.21 22.453L9.548 13.79C9.04371 13.9289 8.52307 13.9995 8 14C7.02243 14.0039 6.05883 13.7679 5.19367 13.3128C4.32852 12.8576 3.58824 12.1971 3.03774 11.3893C2.48723 10.5815 2.14332 9.6509 2.03614 8.67921C1.92896 7.70753 2.0618 6.72438 2.423 5.81598L2.981 4.39498L6.293 7.70698C6.48332 7.88872 6.73635 7.99013 6.9995 7.99013C7.26265 7.99013 7.51568 7.88872 7.706 7.70698C7.79894 7.61419 7.87268 7.50399 7.92299 7.38267C7.9733 7.26136 7.9992 7.13131 7.9992 6.99998C7.9992 6.86865 7.9733 6.7386 7.92299 6.61729C7.87268 6.49597 7.79894 6.38577 7.706 6.29298L4.395 2.97898L5.818 2.42198C6.72639 2.06142 7.70933 1.92912 8.68072 2.03666C9.65212 2.1442 10.5823 2.48831 11.3898 3.03883C12.1974 3.58935 12.8576 4.32949 13.3126 5.19442C13.7677 6.05934 14.0037 7.02266 14 7.99998C13.9996 8.52272 13.9289 9.04304 13.79 9.54698L22.453 18.21C22.957 18.0712 23.4773 18.0006 24 18C24.9776 17.9961 25.9412 18.232 26.8063 18.6872C27.6715 19.1424 28.4118 19.8028 28.9623 20.6107C29.5128 21.4185 29.8567 22.3491 29.9639 23.3208C30.071 24.2924 29.9382 25.2756 29.577 26.184L29.02 27.605L25.707 24.293C25.5167 24.1112 25.2637 24.0098 25.0005 24.0098C24.7373 24.0098 24.4843 24.1112 24.294 24.293C24.201 24.3857 24.1272 24.4959 24.0768 24.6171C24.0264 24.7384 24.0004 24.8684 24.0003 24.9998C24.0002 25.1311 24.026 25.2612 24.0762 25.3825C24.1265 25.5039 24.2001 25.6141 24.293 25.707L27.606 29.02L26.184 29.578C25.4889 29.8545 24.748 29.9976 24 30ZM10.062 11.476L20.523 21.937L20.284 22.547C20.0498 23.1325 19.9582 23.7653 20.0169 24.3931C20.0756 25.021 20.2828 25.6259 20.6214 26.1579C20.96 26.6898 21.4203 27.1336 21.9643 27.4525C22.5083 27.7714 23.1204 27.9563 23.75 27.992L22.879 27.122C22.6004 26.8434 22.3793 26.5127 22.2285 26.1486C22.0778 25.7846 22.0001 25.3945 22.0001 25.0005C22.0001 24.6065 22.0778 24.2163 22.2285 23.8523C22.3793 23.4883 22.6004 23.1576 22.879 22.879C23.4505 22.3333 24.2103 22.0288 25.0005 22.0288C25.7907 22.0288 26.5505 22.3333 27.122 22.879L27.992 23.75C27.9562 23.1204 27.7711 22.5083 27.4521 21.9643C27.1331 21.4203 26.6892 20.96 26.1572 20.6214C25.6252 20.2828 25.0202 20.0756 24.3923 20.0169C23.7644 19.9583 23.1315 20.0498 22.546 20.284L21.937 20.523L11.477 10.063L11.717 9.45298C11.9512 8.86742 12.0428 8.23453 11.984 7.60659C11.9253 6.97866 11.718 6.37371 11.3793 5.84173C11.0406 5.30974 10.5801 4.86599 10.036 4.54713C9.49186 4.22828 8.87967 4.04347 8.25 4.00798L9.12 4.87798C9.39863 5.15656 9.61965 5.4873 9.77045 5.85131C9.92125 6.21532 9.99886 6.60547 9.99886 6.99948C9.99886 7.39349 9.92125 7.78364 9.77045 8.14765C9.61965 8.51166 9.39863 8.8424 9.12 9.12098C8.5485 9.66668 7.78869 9.97118 6.9985 9.97118C6.20831 9.97118 5.4485 9.66668 4.877 9.12098L4.007 8.24998C4.04264 8.87957 4.22756 9.49164 4.54648 10.0356C4.86539 10.5796 5.30916 11.04 5.84113 11.3786C6.37309 11.7172 6.97798 11.9244 7.60584 11.9831C8.2337 12.0417 8.86651 11.9502 9.452 11.716L10.062 11.476Z" fill="#FAFAFA"/>
<path d="M29.123 2.85001C28.5515 2.30431 27.7917 1.99982 27.0015 1.99982C26.2113 1.99982 25.4515 2.30431 24.88 2.85001L17.4 10.33L18.814 11.744L26.294 4.26401C26.4845 4.08221 26.7377 3.98077 27.001 3.98077C27.2643 3.98077 27.5175 4.08221 27.708 4.26401C27.895 4.4518 28 4.70601 28 4.97101C28 5.23601 27.895 5.49022 27.708 5.67801L20.228 13.158L21.642 14.573L29.122 7.09301C29.684 6.53 29.9996 5.767 29.9996 4.97151C29.9996 4.17602 29.684 3.41302 29.122 2.85001H29.123Z" fill="#FAFAFA"/>
</svg>
