<svg width="64" height="64" viewBox="0 0 64 64" fill="none" xmlns="http://www.w3.org/2000/svg">
<path fill-rule="evenodd" clip-rule="evenodd" d="M50.1333 34.1333H30.9333V41.6H26.6667V13.3171C26.6639 11.1589 27.3185 9.05102 28.5435 7.27413L33.5444 0H38.7223L32.0595 9.69133C31.3245 10.7574 30.9317 12.0221 30.9333 13.3171V19.2H50.1333V13.3171C50.1305 11.1589 50.7852 9.05102 52.0101 7.27413L57.0111 0H62.1889L55.5261 9.69133C54.7911 10.7574 54.3983 12.0221 54.4 13.3171V41.6H50.1333V34.1333ZM50.1333 23.4667H30.9333V29.8667H50.1333V23.4667ZM60.3305 46.0667C59.1209 45.5023 57.6157 44.8 54.8567 44.8C52.0976 44.8 50.5923 45.5024 49.383 46.0667L49.3829 46.0667L49.3823 46.067C48.345 46.551 47.5255 46.9334 45.7132 46.9334C43.9006 46.9334 43.0814 46.551 42.0439 46.0667L42.0439 46.0667L42.0432 46.0664C40.8339 45.5022 39.3289 44.8 36.5703 44.8C33.8122 44.8 32.3072 45.5021 31.0981 46.0661L31.0968 46.0667L31.0961 46.067C30.059 46.551 29.2396 46.9334 27.4276 46.9334C25.6152 46.9334 24.796 46.551 23.7587 46.0667L23.7583 46.0665C22.549 45.5023 21.044 44.8 18.2853 44.8C15.5272 44.8 14.0221 45.5021 12.8129 46.0662L12.8119 46.0667L12.8112 46.067C11.774 46.551 10.9547 46.9334 9.14267 46.9334C7.33027 46.9334 6.51093 46.551 5.47347 46.0667L5.47238 46.0662C4.26324 45.5021 2.75811 44.8 0 44.8V49.0667C1.8124 49.0667 2.63173 49.4491 3.6692 49.9334L3.66944 49.9335C4.87873 50.4977 6.38392 51.2 9.14267 51.2C11.9008 51.2 13.4059 50.4979 14.6151 49.9339L14.6161 49.9334L14.6168 49.933C15.654 49.449 16.4733 49.0667 18.2853 49.0667C20.0977 49.0667 20.9169 49.4491 21.9543 49.9334L21.9547 49.9335C23.1639 50.4978 24.669 51.2 27.4276 51.2C30.1857 51.2 31.6908 50.4979 32.9 49.9339L32.9011 49.9334L32.9015 49.9331C33.9388 49.4491 34.7583 49.0667 36.5703 49.0667C38.3825 49.0667 39.2021 49.4491 40.2396 49.9334L40.2402 49.9337C41.4496 50.4979 42.9546 51.2 45.7132 51.2C48.4721 51.2 49.9774 50.4977 51.1868 49.9335L51.1871 49.9334L51.1873 49.9332C52.2247 49.4492 53.0443 49.0667 54.8567 49.0667C56.6692 49.0667 57.4888 49.4491 58.5261 49.9334C59.7357 50.4978 61.2409 51.2 64 51.2V46.9334C62.1875 46.9334 61.3679 46.551 60.3305 46.0667ZM54.8567 57.6C52.0976 57.6 50.5923 58.3024 49.383 58.8666L49.3829 58.8667L49.3823 58.867C48.345 59.351 47.5255 59.7333 45.7132 59.7333C43.9006 59.7333 43.0814 59.3509 42.0439 58.8667L42.0439 58.8667L42.0432 58.8664C40.8339 58.3021 39.3289 57.6 36.5703 57.6C33.8122 57.6 32.3072 58.302 31.0981 58.8661L31.0968 58.8667L31.0961 58.867C30.059 59.351 29.2396 59.7333 27.4276 59.7333C25.6152 59.7333 24.796 59.3509 23.7587 58.8667L23.7583 58.8665C22.549 58.3022 21.044 57.6 18.2853 57.6C15.5272 57.6 14.0221 58.3021 12.8129 58.8662L12.8119 58.8667L12.8112 58.867C11.774 59.351 10.9547 59.7333 9.14267 59.7333C7.33027 59.7333 6.51093 59.3509 5.47347 58.8667L5.47238 58.8662C4.26324 58.3021 2.75811 57.6 0 57.6V61.8667C1.8124 61.8667 2.63173 62.2491 3.6692 62.7333L3.66944 62.7334C4.87873 63.2977 6.38392 64 9.14267 64C11.9008 64 13.4059 63.2979 14.6151 62.7338L14.6161 62.7333L14.6168 62.733C15.654 62.249 16.4733 61.8667 18.2853 61.8667C20.0977 61.8667 20.9169 62.2491 21.9543 62.7333L21.9547 62.7335C23.1639 63.2978 24.669 64 27.4276 64C30.1857 64 31.6908 63.2979 32.9 62.7338L32.9011 62.7333L32.9015 62.7331C33.9388 62.2491 34.7583 61.8667 36.5703 61.8667C38.3825 61.8667 39.2021 62.2491 40.2396 62.7333L40.2402 62.7336C41.4496 63.2978 42.9546 64 45.7132 64C48.4721 64 49.9774 63.2977 51.1868 62.7335L51.1871 62.7333L51.1873 62.7332C52.2247 62.2491 53.0443 61.8667 54.8567 61.8667C56.6692 61.8667 57.4888 62.2491 58.5261 62.7333C59.7357 63.2977 61.2409 64 64 64V59.7333C62.1875 59.7333 61.3679 59.3509 60.3305 58.8667L60.3299 58.8663C59.1204 58.3021 57.6152 57.6 54.8567 57.6Z" fill="#F8FAFF"/>
</svg>
