<svg width="52" height="64" viewBox="0 0 52 64" fill="none" xmlns="http://www.w3.org/2000/svg">
<path d="M26 0C17.0397 0 9.75 7.1776 9.75 16V25.6H6.5C4.77609 25.6 3.12279 26.2743 1.90381 27.4745C0.684819 28.6748 0 30.3026 0 32V57.6C0 59.2974 0.684819 60.9253 1.90381 62.1255C3.12279 63.3257 4.77609 64 6.5 64H45.5C47.2239 64 48.8772 63.3257 50.0962 62.1255C51.3152 60.9253 52 59.2974 52 57.6V32C52 30.3026 51.3152 28.6748 50.0962 27.4745C48.8772 26.2743 47.2239 25.6 45.5 25.6H42.25V16C42.25 7.1776 34.9603 0 26 0ZM16.25 16C16.25 10.7072 20.6245 6.4 26 6.4C31.3755 6.4 35.75 10.7072 35.75 16V25.6H16.25V16ZM29.25 50.3136V57.6H22.75V50.3136C21.6138 49.6729 20.7014 48.7082 20.1332 47.5467C19.565 46.3852 19.3677 45.0814 19.5672 43.8073C19.7668 42.5331 20.3538 41.3484 21.251 40.4094C22.1481 39.4704 23.3133 38.8211 24.5928 38.5472C25.5431 38.3403 26.5285 38.3461 27.4763 38.5641C28.4241 38.7821 29.3101 39.2069 30.069 39.807C30.8278 40.407 31.4402 41.1672 31.861 42.0314C32.2817 42.8955 32.5001 43.8417 32.5 44.8C32.4981 45.9192 32.1967 47.0181 31.6262 47.9861C31.0556 48.954 30.236 49.7568 29.25 50.3136Z" fill="#383B45"/>
</svg>
