<svg width="277" height="187" viewBox="0 0 277 187" fill="none" xmlns="http://www.w3.org/2000/svg">
<path d="M1.57012 176.953C-0.664837 179.4 -0.493301 183.195 1.95325 185.43C4.39981 187.665 8.19493 187.493 10.4299 185.047L1.57012 176.953ZM90.3729 88.6389L94.8028 84.5921L90.3729 79.7429L85.943 84.5921L90.3729 88.6389ZM141.441 144.542L137.011 148.588L141.441 153.438L145.871 148.588L141.441 144.542ZM273.994 5.72908C273.844 2.41875 271.039 -0.143505 267.729 0.00611973L213.784 2.44438C210.474 2.59401 207.912 5.39885 208.061 8.70918C208.211 12.0195 211.016 14.5818 214.326 14.4321L262.277 12.2648L264.444 60.2158C264.594 63.5262 267.399 66.0884 270.709 65.9388C274.02 65.7892 276.582 62.9843 276.432 59.674L273.994 5.72908ZM10.4299 185.047L94.8028 92.6856L85.943 84.5921L1.57012 176.953L10.4299 185.047ZM85.943 92.6856L137.011 148.588L145.871 140.495L94.8028 84.5921L85.943 92.6856ZM145.871 148.588L272.43 10.0467L263.57 1.95325L137.011 140.495L145.871 148.588Z" fill="#165BE0"/>
</svg>
