<svg width="286" height="110" viewBox="0 0 286 110" fill="none" xmlns="http://www.w3.org/2000/svg">
<circle cx="54.697" cy="54.6968" r="52.697" transform="rotate(-90 54.697 54.6968)" stroke="#165BE0" stroke-width="4"/>
<path d="M52.9778 77.2852L52.9778 73.2812C49.5805 72.8999 46.8938 71.6866 44.9178 69.6412C42.9418 67.5959 41.9538 64.9959 41.9538 61.8412L46.5298 61.8412C46.5298 63.6786 47.0672 65.3252 48.1418 66.7812C49.2512 68.2026 50.8632 69.1212 52.9778 69.5372V55.4452C52.7352 55.3759 52.4752 55.3066 52.1978 55.2372C51.9552 55.1332 51.7125 55.0466 51.4698 54.9772C48.6618 54.0066 46.5818 52.8106 45.2298 51.3892C43.8778 49.9332 43.2018 48.0439 43.2018 45.7212C43.1672 43.0172 44.0165 40.7639 45.7498 38.9612C47.5178 37.1586 49.9272 36.1186 52.9778 35.8412V31.6292H56.5658V35.8412C59.4778 36.1879 61.8005 37.2799 63.5338 39.1172C65.2672 40.9546 66.1512 43.1906 66.1858 45.8252H61.6098C61.6098 44.5426 61.1938 43.3119 60.3618 42.1332C59.5298 40.9199 58.2645 40.1052 56.5658 39.6892L56.5658 52.2732C56.8432 52.3426 57.1205 52.4292 57.3978 52.5332C57.6752 52.6372 57.9698 52.7239 58.2818 52.7932C60.0152 53.4172 61.5752 54.1452 62.9618 54.9772C64.3485 55.8092 65.4232 56.8839 66.1858 58.2012C66.9832 59.5186 67.3818 61.1999 67.3818 63.2452C67.3818 64.8746 66.9832 66.4172 66.1858 67.8732C65.3885 69.3292 64.1752 70.5599 62.5458 71.5652C60.9512 72.5706 58.9578 73.1599 56.5658 73.3332V77.2852H52.9778ZM47.7258 45.3052C47.7258 46.8999 48.1938 48.1132 49.1298 48.9452C50.0658 49.7426 51.3485 50.4359 52.9778 51.0252V39.5852C51.4178 39.8279 50.1525 40.4519 49.1818 41.4572C48.2112 42.4279 47.7258 43.7106 47.7258 45.3052ZM62.8578 63.5052C62.8578 61.4946 62.2685 60.0039 61.0898 59.0332C59.9112 58.0626 58.4032 57.2652 56.5658 56.6412V69.6412C58.5765 69.3986 60.1192 68.7052 61.1938 67.5612C62.3032 66.4172 62.8578 65.0652 62.8578 63.5052Z" fill="#165BE0"/>
<circle cx="231.303" cy="54.697" r="52.697" transform="rotate(-90 231.303 54.697)" stroke="#165BE0" stroke-width="4"/>
<path d="M226.252 77.8576V72.7616H221.468V35.6336H226.252V30.3816H229.58V35.6336H229.996C231.175 35.6336 232.249 35.6856 233.22 35.7896V30.3816H236.548V36.3096C238.732 36.8643 240.379 37.835 241.488 39.2216C242.632 40.5736 243.204 42.4456 243.204 44.8376C243.204 47.0216 242.667 48.8416 241.592 50.2976C240.552 51.719 239.027 52.6376 237.016 53.0536V53.3136C238.403 53.5563 239.633 54.007 240.708 54.6656C241.817 55.3243 242.684 56.2603 243.308 57.4736C243.967 58.687 244.296 60.2643 244.296 62.2056C244.296 64.9096 243.603 67.1283 242.216 68.8616C240.864 70.5603 238.975 71.7043 236.548 72.2936V77.8576H233.22V72.7616C232.977 72.7616 232.717 72.7616 232.44 72.7616H229.58V77.8576H226.252ZM226.148 51.4416H230.932C233.775 51.4416 235.716 50.939 236.756 49.9336C237.831 48.8936 238.368 47.3683 238.368 45.3576C238.368 43.3123 237.709 41.8563 236.392 40.9896C235.109 40.0883 233.047 39.6376 230.204 39.6376H226.148V51.4416ZM226.148 55.3416V68.8096H231.556C234.433 68.8096 236.444 68.1683 237.588 66.8856C238.732 65.603 239.304 63.9216 239.304 61.8416C239.304 59.9003 238.715 58.3403 237.536 57.1616C236.357 55.9483 234.243 55.3416 231.192 55.3416H226.148Z" fill="#165BE0"/>
<path d="M120.212 53.2728L165.788 53.2728M165.788 53.2728L154.394 41.8789M165.788 53.2728L154.394 64.6667" stroke="#9CA0A5" stroke-width="4" stroke-linecap="round"/>
</svg>
