<svg width="321" height="196" viewBox="0 0 321 196" fill="none" xmlns="http://www.w3.org/2000/svg">
<circle cx="161.563" cy="34.0132" r="32.0132" stroke="#165BE0" stroke-width="4"/>
<path d="M157.678 51.675V47.755H153.998V19.195H157.678V15.155H160.238V19.195H160.558C161.464 19.195 162.291 19.235 163.038 19.315V15.155H165.598V19.715C167.278 20.1416 168.544 20.8883 169.398 21.955C170.278 22.995 170.718 24.435 170.718 26.275C170.718 27.955 170.304 29.355 169.478 30.475C168.678 31.5683 167.504 32.275 165.958 32.595V32.795C167.024 32.9816 167.971 33.3283 168.798 33.835C169.651 34.3416 170.318 35.0616 170.798 35.995C171.304 36.9283 171.558 38.1416 171.558 39.635C171.558 41.715 171.024 43.4216 169.958 44.755C168.918 46.0616 167.464 46.9416 165.598 47.395V51.675H163.038V47.755C162.851 47.755 162.651 47.755 162.438 47.755H160.238V51.675H157.678ZM157.598 31.355H161.278C163.464 31.355 164.958 30.9683 165.758 30.195C166.584 29.395 166.998 28.2216 166.998 26.675C166.998 25.1016 166.491 23.9816 165.478 23.315C164.491 22.6216 162.904 22.275 160.718 22.275H157.598V31.355ZM157.598 34.355V44.715H161.758C163.971 44.715 165.518 44.2216 166.398 43.235C167.278 42.2483 167.718 40.955 167.718 39.355C167.718 37.8616 167.264 36.6616 166.358 35.755C165.451 34.8216 163.824 34.355 161.478 34.355H157.598Z" fill="#165BE0"/>
<circle cx="34.0132" cy="161.563" r="32.0132" stroke="#165BE0" stroke-width="4"/>
<path d="M30.1278 179.225V175.305H26.4478V146.745H30.1278V142.705H32.6878V146.745H33.0078C33.9145 146.745 34.7412 146.785 35.4878 146.865V142.705H38.0478V147.265C39.7278 147.691 40.9945 148.438 41.8478 149.505C42.7278 150.545 43.1679 151.985 43.1679 153.825C43.1679 155.505 42.7545 156.905 41.9278 158.025C41.1278 159.118 39.9545 159.825 38.4078 160.145V160.345C39.4745 160.531 40.4212 160.878 41.2478 161.385C42.1012 161.891 42.7678 162.611 43.2478 163.545C43.7545 164.478 44.0078 165.691 44.0078 167.185C44.0078 169.265 43.4745 170.971 42.4078 172.305C41.3678 173.611 39.9145 174.491 38.0478 174.945V179.225H35.4878V175.305C35.3012 175.305 35.1012 175.305 34.8878 175.305H32.6878V179.225H30.1278ZM30.0478 158.905H33.7278C35.9145 158.905 37.4078 158.518 38.2078 157.745C39.0345 156.945 39.4478 155.771 39.4478 154.225C39.4478 152.651 38.9412 151.531 37.9278 150.865C36.9412 150.171 35.3545 149.825 33.1678 149.825H30.0478V158.905ZM30.0478 161.905V172.265H34.2078C36.4212 172.265 37.9678 171.771 38.8478 170.785C39.7278 169.798 40.1678 168.505 40.1678 166.905C40.1678 165.411 39.7145 164.211 38.8078 163.305C37.9012 162.371 36.2745 161.905 33.9278 161.905H30.0478Z" fill="#165BE0"/>
<circle cx="163.689" cy="161.563" r="32.0132" stroke="#165BE0" stroke-width="4"/>
<path d="M154.795 149.905V146.745H172.555V149.905H154.795ZM156.395 161.945V158.825H170.955V161.945H156.395ZM153.995 175.305V172.145H173.355V175.305H153.995Z" fill="#165BE0"/>
<circle cx="286.987" cy="161.563" r="32.0132" stroke="#165BE0" stroke-width="4"/>
<path d="M285.221 175.305V168.745L280.541 171.945L279.101 169.825L285.221 165.625V161.625L280.541 164.825L279.101 162.705L285.221 158.505V149.905H276.301V146.745H297.701V149.905H288.821V156.465L293.501 153.225L294.941 155.345L288.821 159.545V163.585L293.501 160.345L294.941 162.465L288.821 166.665V175.305H285.221Z" fill="#165BE0"/>
<path d="M162.5 82.7881V112.788M162.5 112.788L170 105.288M162.5 112.788L155 105.288" stroke="#9CA0A5" stroke-width="4" stroke-linecap="round"/>
<path d="M79.4516 87.2655L58.407 108.31M58.407 108.31H68.9293M58.407 108.31V97.7879" stroke="#9CA0A5" stroke-width="4" stroke-linecap="round"/>
<path d="M243.354 87.2652L264.399 108.31M264.399 108.31V97.7875M264.399 108.31H253.876" stroke="#9CA0A5" stroke-width="4" stroke-linecap="round"/>
</svg>
