<svg width="295" height="263" viewBox="0 0 295 263" fill="none" xmlns="http://www.w3.org/2000/svg">
<path fill-rule="evenodd" clip-rule="evenodd" d="M228.273 153.796V169.174H229.273V153.796H246.828V42.2951H229.273V0H228.273V42.2951H216.727V153.796H228.273ZM119.91 204.554V219.932H120.91V204.554H138.465V93.0534H120.91V50.7583H119.91V93.0534H108.363V204.554H119.91ZM65.736 175.33V186.095L66.736 186.095V175.33H84.2906V97.2788H66.736V67.6734H65.736V97.2788H54.1891V175.33H65.736ZM11.5469 251.457V262.222H12.5469V251.457H30.1015L30.1015 173.406H12.5469V143.801H11.5469V173.406H0L1.32763e-06 251.457H11.5469ZM277.446 139.574H295.001L295.001 239.925H277.446V253.763H276.446V239.925H264.899V139.574H276.446V101.507H277.446V139.574ZM175.1 42.2951H192.653V198.397H175.1V253.76H174.1V198.397H162.552V42.2951H174.1V16.9163H175.1V42.2951Z" fill="#165BE0"/>
</svg>