<svg width="40" height="40" viewBox="0 0 40 40" fill="none" xmlns="http://www.w3.org/2000/svg">
<rect width="40" height="40" rx="20" fill="#212131"/>
<path d="M32.1244 27C33.3531 24.8717 34 22.4575 34 20C34 17.5425 33.3531 15.1283 32.1244 13C30.8956 10.8717 29.1283 9.1044 27 7.87564C24.8717 6.64689 22.4575 6 20 6" stroke="#FF8068" stroke-width="2"/>
<path d="M7.87564 27C9.1044 29.1283 10.8717 30.8956 13 32.1244C15.1283 33.3531 17.5425 34 20 34C22.4575 34 24.8717 33.3531 27 32.1244C29.1283 30.8956 30.8956 29.1283 32.1244 27" stroke="#FF8068" stroke-width="2"/>
<path d="M20 6C17.5425 6 15.1283 6.64689 13 7.87564C10.8717 9.1044 9.1044 10.8717 7.87564 13C6.64689 15.1283 6 17.5425 6 20C6 22.4575 6.64689 24.8717 7.87564 27" stroke="#FF8068" stroke-width="2"/>
<path fill-rule="evenodd" clip-rule="evenodd" d="M16.2999 14.0738C15.7141 13.488 14.7644 13.488 14.1786 14.0738C13.5928 14.6596 13.5928 15.6093 14.1786 16.1951L17.5672 19.5837L14.0738 23.0771C13.488 23.6629 13.488 24.6127 14.0738 25.1985C14.6596 25.7842 15.6093 25.7842 16.1951 25.1985L19.6885 21.705L23.0772 25.0937C23.663 25.6795 24.6127 25.6795 25.1985 25.0937C25.7843 24.5079 25.7843 23.5582 25.1985 22.9724L21.8098 19.5837L25.0937 16.2998C25.6795 15.7141 25.6795 14.7643 25.0937 14.1785C24.5079 13.5927 23.5582 13.5927 22.9724 14.1785L19.6885 17.4624L16.2999 14.0738Z" fill="#FF8068"/>
<rect x="5.88916" y="26.2553" width="4" height="2" transform="rotate(-30 5.88916 26.2553)" fill="#212131"/>
<rect width="4" height="2" transform="matrix(-0.866025 -0.5 -0.5 0.866025 34.4641 27)" fill="#212131"/>
<rect x="21" y="4" width="4" height="2" transform="rotate(90 21 4)" fill="#212131"/>
</svg>
