<svg width="40" height="40" viewBox="0 0 40 40" fill="none" xmlns="http://www.w3.org/2000/svg">
  <rect width="40" height="40" rx="20" fill="#212131"/>
  <path d="M32.1244 27C33.3531 24.8717 34 22.4575 34 20C34 17.5425 33.3531 15.1283 32.1244 13C30.8956 10.8717 29.1283 9.1044 27 7.87564C24.8717 6.64689 22.4575 6 20 6" stroke="#00FF84" stroke-width="2"/>
  <path d="M7.87564 27C9.1044 29.1283 10.8717 30.8956 13 32.1244C15.1283 33.3531 17.5425 34 20 34C22.4575 34 24.8717 33.3531 27 32.1244C29.1283 30.8956 30.8956 29.1283 32.1244 27" stroke="#00FF84" stroke-width="2"/>
  <path d="M20 6C17.5425 6 15.1283 6.64689 13 7.87564C10.8717 9.1044 9.1044 10.8717 7.87564 13C6.64689 15.1283 6 17.5425 6 20C6 22.4575 6.64689 24.8717 7.87564 27" stroke="#00FF84" stroke-width="2"/>
  <path fill-rule="evenodd" clip-rule="evenodd" d="M25.148 15.6988C25.6217 16.0698 25.7125 16.7511 25.3525 17.2333L19.8832 24.5586C19.6909 24.8161 19.3995 24.9761 19.0838 24.9975C18.768 25.019 18.4585 24.8999 18.2347 24.6707L14.7578 21.1096C14.3364 20.678 14.3364 19.9889 14.7578 19.5573C15.1937 19.1109 15.9116 19.1109 16.3475 19.5573L18.9007 22.1723L23.5777 15.9081C23.9496 15.41 24.6586 15.3155 25.148 15.6988Z" fill="#00FF84"/>
  <rect x="5.88916" y="26.2553" width="4" height="2" transform="rotate(-30 5.88916 26.2553)" fill="#212131"/>
  <rect width="4" height="2" transform="matrix(-0.866025 -0.5 -0.5 0.866025 34.4641 27)" fill="#212131"/>
  <rect x="21" y="4" width="4" height="2" transform="rotate(90 21 4)" fill="#212131"/>
</svg>
